<svg width="188" height="517" viewBox="0 0 188 517" fill="none" xmlns="http://www.w3.org/2000/svg">
<path d="M17.2918 104.814C23.7232 110.519 28.9551 117.446 32.6824 125.192C36.4097 132.939 38.5579 141.349 39.0018 149.934C43.5918 229.444 29.1818 322.194 18.9318 412.054H168.582C158.412 323.634 144.282 234.184 148.972 149.614C149.859 132.301 157.559 116.041 170.392 104.384C175.029 100.107 178.895 95.0632 181.822 89.4745C187.822 78.4745 187.582 62.2345 181.382 50.7745C176.282 41.3545 167.512 35.4845 157.312 34.6545C156.472 34.5845 155.622 34.5445 154.772 34.5445C153.922 34.5445 152.992 34.5945 152.122 34.6745C151.159 27.3059 148.387 20.2904 144.052 14.2545C137.732 5.72449 128.832 1.02448 118.982 1.02448C118.252 1.02448 117.502 1.02448 116.762 1.10448C112.168 1.46042 107.709 2.82632 103.704 5.10464C99.6983 7.38297 96.2456 10.5175 93.5918 14.2845C90.9349 10.5183 87.4801 7.3844 83.4734 5.10625C79.4668 2.82809 75.0069 1.46171 70.4118 1.10448C69.6818 1.10448 68.9318 1.02448 68.2018 1.02448C58.3518 1.02448 49.4418 5.72449 43.1318 14.2545C38.797 20.2904 36.0245 27.3059 35.0618 34.6745C34.1918 34.5945 33.3118 34.5445 32.4018 34.5445C31.4918 34.5445 30.7118 34.5445 29.8618 34.6545C19.6718 35.4845 10.8618 41.3545 5.80177 50.7745C-0.398225 62.2345 -0.588228 78.5045 5.36177 89.4745C8.38935 95.2599 12.43 100.456 17.2918 104.814V104.814Z" fill="white"/>
<path d="M39.9086 148.512C40.8082 150.646 41.5664 153.079 42.314 155.647C42.4863 156.238 42.6579 156.836 42.8306 157.439C43.9578 161.369 45.1305 165.458 46.8272 168.852C48.7103 172.623 50.6051 175.252 53.3657 176.552C56.1266 177.851 59.5215 177.714 64.1199 176.586C65.3332 176.288 66.4757 175.974 67.5422 175.681C68.1204 175.523 68.6763 175.37 69.2089 175.229C70.7486 174.823 72.1439 174.503 73.5316 174.351C76.2576 174.053 79.0365 174.395 82.7739 176.214C84.6134 177.109 86.1118 178.081 87.4971 179.038C87.8261 179.266 88.1523 179.495 88.4772 179.723C89.5011 180.442 90.5116 181.151 91.5564 181.767C94.4047 183.446 97.5837 184.481 102.799 183.96C106.484 183.61 109.066 182.068 111.387 180.601C111.512 180.522 111.635 180.444 111.758 180.366C113.949 178.977 115.891 177.746 118.497 177.364L118.498 177.364C119.528 177.211 120.718 177.271 122.052 177.442C122.945 177.556 123.853 177.711 124.797 177.873C125.277 177.956 125.766 178.04 126.267 178.12C129.143 178.584 132.334 178.939 135.097 177.787L135.097 177.787C136.873 177.046 138.491 175.66 139.947 173.95C141.409 172.232 142.754 170.133 143.969 167.886C145.317 165.394 146.522 162.689 147.561 160.069C146.241 217.185 159.441 345.468 170.505 431.105C172.529 456.049 173.141 475.631 172.579 489.774C172.298 496.85 171.725 502.539 170.895 506.847C170.124 510.854 169.153 513.537 168.088 515.044H19.55C18.209 512.227 17.2114 508.102 16.5298 502.82C15.8066 497.215 15.4495 490.397 15.3781 482.629C15.2353 467.098 16.2348 447.855 17.6954 427.086C19.4144 410.268 21.3682 392.061 23.3912 373.209C26.8386 341.084 30.4868 307.087 33.516 274.906C38.3216 223.852 41.5812 177.257 40.0001 149.868C39.9744 149.415 39.9439 148.963 39.9086 148.512Z" fill="#FBB03B" stroke="#8C6338" stroke-width="2"/>
<path d="M113.552 57.7045C113.312 57.6645 113.072 57.6145 112.832 57.5545C106.422 55.9445 103.392 46.1445 104.692 38.3645C106.222 29.1745 111.692 19.5845 120.112 20.2345C120.352 20.2345 120.592 20.2345 120.822 20.3145C124.822 20.9245 127.212 23.9545 128.502 26.3845C131.312 31.6945 131.812 39.7545 129.622 44.3845C126.222 51.4445 119.752 58.6445 113.552 57.7045Z" fill="#FFC9C9"/>
<path d="M128.028 25.4922C126.691 23.3726 124.483 20.9481 121.027 20.349C121.021 20.3471 121.015 20.3453 121.009 20.3434C124.028 20.8436 126.367 22.7791 128.028 25.4922ZM120.114 20.207L120.306 20.2361C120.239 20.2343 120.179 20.2343 120.129 20.2344C116.129 19.9365 112.66 21.8905 109.818 25.7294L109.809 25.7416L109.8 25.7541C108.647 27.4154 107.666 29.1827 106.87 31.0282C107.67 29.115 108.658 27.2937 109.827 25.7082C112.445 22.1597 115.878 19.9036 120.114 20.207ZM104.665 38.9895C104.542 39.9298 104.475 40.8744 104.464 41.818C104.473 40.8559 104.54 39.9068 104.665 38.9895ZM105.931 50.3149C105.27 48.5917 104.831 46.7029 104.617 44.7911C104.831 46.6619 105.268 48.5081 105.923 50.2897L105.923 50.2897L105.928 50.302C106.348 51.4015 107.065 52.9382 108.172 54.3325C109.278 55.7248 110.815 57.0272 112.881 57.5502C113.124 57.6193 113.371 57.6709 113.621 57.7045C116.915 58.1986 120.152 56.4417 122.866 53.908C125.611 51.3454 128.007 47.8234 129.663 44.3566C130.266 43.1004 130.682 41.5066 130.89 39.7435C130.691 41.514 130.281 43.1069 129.679 44.3628C127.991 47.8905 125.519 51.5158 122.658 54.1142C119.781 56.7264 116.659 58.1757 113.612 57.7159C113.375 57.6791 113.14 57.6298 112.909 57.5681L112.909 57.568L112.895 57.5647C109.717 56.7657 107.352 54.0156 105.931 50.3149Z" fill="#8C6338" stroke="#8C6338" stroke-width="2"/>
<path d="M92.7018 134.615C78.5718 134.615 68.6018 130.705 63.0718 123.005C57.5418 115.305 57.9818 105.365 60.0718 99.2445C63.7218 88.4845 80.0218 68.6145 93.6518 68.6145C99.6518 68.6145 106.982 72.7445 114.292 80.2645C120.122 86.2645 125.442 94.0645 127.232 99.2645C129.382 105.485 129.772 114.835 124.452 122.395C118.942 130.225 108.292 134.455 93.6418 134.635H92.7118L92.7018 134.615Z" fill="#FFC9C9"/>
<mask id="path-6-inside-1_11_27276" fill="white">
<path d="M93.6418 69.6145C106.302 69.6145 122.832 89.6145 126.282 99.6145C128.342 105.614 128.732 114.614 123.622 121.834C118.312 129.394 107.932 133.474 93.6218 133.654H92.7018C78.9118 133.654 69.2118 129.894 63.8918 122.464C58.5718 115.034 59.0118 105.464 61.0118 99.6045C64.4918 89.3545 80.6618 69.6545 93.6418 69.6545V69.6145ZM93.6418 67.6545C79.3218 67.6545 62.7618 88.2045 59.1118 98.9645C54.9118 111.364 57.6118 135.654 92.7018 135.654H93.6418C129.642 135.214 132.482 111.454 128.172 98.9645C124.762 89.0845 107.962 67.6545 93.6418 67.6545V67.6545Z"/>
</mask>
<path d="M93.6418 69.6145C106.302 69.6145 122.832 89.6145 126.282 99.6145C128.342 105.614 128.732 114.614 123.622 121.834C118.312 129.394 107.932 133.474 93.6218 133.654H92.7018C78.9118 133.654 69.2118 129.894 63.8918 122.464C58.5718 115.034 59.0118 105.464 61.0118 99.6045C64.4918 89.3545 80.6618 69.6545 93.6418 69.6545V69.6145ZM93.6418 67.6545C79.3218 67.6545 62.7618 88.2045 59.1118 98.9645C54.9118 111.364 57.6118 135.654 92.7018 135.654H93.6418C129.642 135.214 132.482 111.454 128.172 98.9645C124.762 89.0845 107.962 67.6545 93.6418 67.6545V67.6545Z" fill="#8C6338"/>
<path d="M93.6418 69.6145V67.6145H91.6418V69.6145H93.6418ZM126.282 99.6145L128.173 98.965L128.172 98.9622L126.282 99.6145ZM123.622 121.834L121.989 120.679L121.985 120.685L123.622 121.834ZM93.6218 133.654V135.654H93.6344L93.647 135.654L93.6218 133.654ZM61.0118 99.6045L62.9046 100.25L62.9056 100.247L61.0118 99.6045ZM93.6418 69.6545V71.6545H95.6418V69.6545H93.6418ZM59.1118 98.9645L57.2178 98.322L57.2175 98.3229L59.1118 98.9645ZM93.6418 135.654V137.654H93.654L93.6662 137.654L93.6418 135.654ZM128.172 98.9645L130.062 98.3121L130.062 98.312L128.172 98.9645ZM93.6418 71.6145C96.3036 71.6145 99.3473 72.6771 102.568 74.6105C105.768 76.5311 108.998 79.2243 111.99 82.2668C118.017 88.3959 122.798 95.6485 124.391 100.267L128.172 98.9622C126.316 93.5805 121.107 85.833 114.842 79.4621C111.687 76.2546 108.195 73.3229 104.627 71.1809C101.08 69.0519 97.31 67.6145 93.6418 67.6145V71.6145ZM124.39 100.264C126.314 105.867 126.615 114.143 121.989 120.679L125.254 122.99C130.849 115.086 130.37 105.362 128.173 98.965L124.39 100.264ZM121.985 120.685C117.214 127.478 107.63 131.478 93.5966 131.655L93.647 135.654C108.234 135.471 119.41 131.311 125.258 122.984L121.985 120.685ZM93.6218 131.654H92.7018V135.654H93.6218V131.654ZM92.7018 131.654C79.2127 131.654 70.299 127.977 65.5179 121.3L62.2657 123.629C68.1246 131.812 78.6109 135.654 92.7018 135.654V131.654ZM65.5179 121.3C60.6894 114.557 61.0395 105.715 62.9046 100.25L59.119 98.9585C56.984 105.214 56.4542 115.512 62.2657 123.629L65.5179 121.3ZM62.9056 100.247C64.5173 95.5004 69.2197 88.2626 75.1907 82.1877C78.156 79.1707 81.368 76.5097 84.5744 74.6145C87.7978 72.7093 90.8852 71.6545 93.6418 71.6545V67.6545C89.9084 67.6545 86.107 69.0622 82.5391 71.171C78.9544 73.2898 75.4726 76.1945 72.3379 79.3838C66.1088 85.7214 60.9863 93.4585 59.118 98.9615L62.9056 100.247ZM95.6418 69.6545V69.6145H91.6418V69.6545H95.6418ZM93.6418 65.6545C85.6342 65.6545 77.415 71.3092 70.9508 77.8709C64.4246 84.4955 59.168 92.5728 57.2178 98.322L61.0058 99.607C62.7056 94.5961 67.554 87.0185 73.8003 80.6781C80.1086 74.2747 87.3294 69.6545 93.6418 69.6545V65.6545ZM57.2175 98.3229C54.9824 104.922 54.5445 114.732 59.4544 122.982C64.4507 131.378 74.6709 137.654 92.7018 137.654V133.654C75.6427 133.654 66.9678 127.786 62.8917 120.937C58.7291 113.942 59.0412 105.407 61.0061 99.6061L57.2175 98.3229ZM92.7018 137.654H93.6418V133.654H92.7018V137.654ZM93.6662 137.654C112.112 137.429 122.583 131.196 127.724 122.88C132.792 114.683 132.357 104.963 130.062 98.3121L126.281 99.6169C128.296 105.456 128.597 113.861 124.322 120.777C120.12 127.573 111.171 133.44 93.6173 133.655L93.6662 137.654ZM130.062 98.312C128.23 93.0031 122.973 84.9311 116.431 78.2096C113.139 74.8272 109.454 71.7154 105.62 69.4378C101.8 67.1684 97.7077 65.6545 93.6418 65.6545V69.6545C96.7358 69.6545 100.114 70.8193 103.577 72.8768C107.027 74.9261 110.44 77.7892 113.565 80.9994C119.855 87.4629 124.704 95.0459 126.281 99.617L130.062 98.312Z" fill="#8C6338" mask="url(#path-6-inside-1_11_27276)"/>
<path d="M147.792 90.9345C147.155 90.9333 146.52 90.8561 145.902 90.7045C139.592 89.0745 137.142 79.3345 138.902 71.6145C140.902 62.9045 146.642 53.5345 154.632 53.5345C154.922 53.5198 155.212 53.5198 155.502 53.5345C157.133 53.7019 158.694 54.2867 160.034 55.2325C161.374 56.1783 162.448 57.4533 163.152 58.9345C166.292 64.7345 165.912 73.2445 163.582 77.5345C159.972 84.2645 153.692 90.9345 147.792 90.9345Z" fill="#FFC9C9"/>
<path d="M163.583 77.5873C163.582 77.5887 163.581 77.5901 163.581 77.5915C161.121 82.1216 158.289 85.4389 155.532 87.6342C155.473 87.6811 155.415 87.7274 155.356 87.7733M163.583 77.5873L163.581 77.5915L162.702 77.1144L163.581 77.5916C161.788 80.8779 159.309 84.2502 156.512 86.7876C156.13 87.1342 155.744 87.4634 155.356 87.7733M163.583 77.5873L164.462 78.0644L163.584 77.5857L163.583 77.5873ZM155.356 87.7733C152.879 89.7481 150.286 90.9444 147.792 90.9444C150.007 90.9444 152.678 89.8613 155.356 87.7733ZM163.151 58.9783C162.835 58.3937 162.493 57.8531 162.123 57.3582C162.788 58.2433 163.351 59.2526 163.814 60.3533C163.614 59.8826 163.393 59.4233 163.151 58.9783ZM144.451 59.3984C146.941 56.1763 150.032 53.9443 153.632 53.593V53.5935C149.394 54.012 146.29 57.0207 144.45 59.4033L144.443 59.4123L144.437 59.4213C143.107 61.2265 141.972 63.16 141.047 65.1891C141.972 63.1205 143.112 61.1307 144.451 59.3984ZM144.004 89.9215C141.876 88.6746 140.322 86.3798 139.377 83.5002C138.19 79.883 138.038 75.5292 138.864 71.7721C138.035 75.6563 138.21 79.689 139.376 83.4877L139.378 83.4964L139.381 83.5051C139.735 84.5876 140.359 86.1065 141.38 87.4906C142.052 88.4025 142.915 89.2779 144.004 89.9215ZM147.786 90.9444C147.338 90.9472 146.892 90.9084 146.453 90.8286C146.894 90.9052 147.342 90.944 147.791 90.9444L147.786 90.9444Z" fill="#8C6338" stroke="#8C6338" stroke-width="2"/>
<path d="M72.3316 57.9345C66.0816 58.4445 60.1216 50.8145 57.2316 43.5145C55.3516 38.7745 56.4116 30.7745 59.5816 25.6645C61.0316 23.3245 63.5816 20.4645 67.6616 20.1345C67.8916 20.1345 68.1316 20.1345 68.3716 20.1345C76.8016 20.0645 81.6116 30.0145 82.5116 39.2945C83.2616 47.1445 79.5716 56.7045 73.0616 57.8745C72.8203 57.9193 72.5765 57.9493 72.3316 57.9645V57.9345Z" fill="#FFC9C9"/>
<path d="M58.2822 28.1241C60.131 23.8909 63.1647 20.7106 67.2631 20.2089L67.2556 20.2164C63.3675 20.6972 60.8994 23.5294 59.5517 25.7077C59.0723 26.48 58.6501 27.2903 58.2822 28.1241ZM56.7264 42.0271C56.4235 40.7708 56.271 39.3376 56.2733 37.817C56.2731 39.3376 56.4261 40.7736 56.7264 42.0271ZM63.5468 53.7881C61.9091 52.0885 60.4415 50.0046 59.2134 47.7941C60.3875 49.9024 61.7822 51.8994 63.3279 53.5565C63.4202 53.6555 63.5132 53.7534 63.607 53.8503C63.5869 53.8296 63.5668 53.8089 63.5468 53.7881ZM82.4761 39.2385C82.5226 39.7425 82.5509 40.2563 82.5612 40.7766L81.4817 39.3945L82.4782 39.3109C82.4782 39.3103 82.4781 39.3097 82.4781 39.3091C82.4646 39.1487 82.4499 38.9885 82.4339 38.8285C82.4489 38.9656 82.463 39.1023 82.4761 39.2385ZM81.1483 32.619C80.454 30.4419 79.5142 28.3433 78.3421 26.3648L78.3333 26.35L78.3241 26.3356C75.7417 22.2986 72.3983 20.1445 68.3817 20.1445H68.3805H68.3792H68.378H68.3768H68.3755H68.3743H68.3731H68.3718H68.3706H68.3694H68.3682H68.3669H68.3657H68.3645H68.3632H68.362H68.3607H68.3595H68.3583H68.357H68.3558H68.3546H68.3533H68.3521H68.3509H68.3496H68.3484H68.3472H68.3459H68.3447H68.3434H68.3422H68.341H68.3397H68.3385H68.3373H68.336H68.3348H68.3335H68.3323H68.3311H68.3298H68.3286H68.3274H68.3261H68.3249H68.3236H68.3224H68.3211H68.3199H68.3187H68.3174H68.3162H68.3149H68.3137H68.3125H68.3112H68.31H68.3087H68.3075H68.3062H68.305H68.3038H68.3025H68.3013H68.3H68.2988H68.2975H68.2963H68.2951H68.2938H68.2926H68.2913H68.2901H68.2888H68.2876H68.2863H68.2851H68.2839H68.2826H68.2814H68.2801H68.2789H68.2776H68.2764H68.2751H68.2739H68.2726H68.2714H68.2701H68.2689H68.2676H68.2664H68.2651H68.2639H68.2627H68.2614H68.2602H68.2589H68.2577H68.2564H68.2552H68.2539H68.2527H68.2514H68.2502H68.2489H68.2477H68.2464H68.2452H68.2439H68.2427H68.2414H68.2402H68.2389H68.2377H68.2364H68.2352H68.2339H68.2327H68.2314H68.2302H68.2289H68.2276H68.2264H68.2251H68.2239H68.2226H68.2214H68.2201H68.2189H68.2176H68.2164H68.2151H68.2139H68.2126H68.2114H68.2101H68.2089H68.2076H68.2063H68.2051H68.2038H68.2026H68.2013H68.2001H68.1988H68.1976H68.1963H68.1951H68.1938H68.1926H68.1913H68.19H68.1888H68.1875H68.1863H68.185H68.1838H68.1825H68.1813H68.18H68.1787H68.1775H68.1762H68.175H68.1737H68.1725H68.1712H68.1699H68.1687H68.1674H68.1662H68.1649H68.1637H68.1624H68.1612H68.1599H68.1586H68.1574H68.1561H68.1549H68.1536H68.1524H68.1511H68.1498H68.1486H68.1473H68.1461H68.1448H68.1435H68.1423H68.141H68.1398H68.1385H68.1373H68.136H68.1347H68.1335H68.1322H68.131H68.1297H68.1285H68.1272H68.1259H68.1247H68.1234H68.1222H68.1209H68.1196H68.1184H68.1171H68.1159H68.1146H68.1133H68.1121H68.1108H68.1096H68.1083H68.1071H68.1058H68.1045H68.1033H68.102H68.1008H68.0995H68.0982H68.097H68.0957H68.0945H68.0932H68.0919H68.0907H68.0894H68.0882H68.0869H68.0856H68.0844H68.0831H68.0819H68.0806H68.0793H68.0781H68.0768H68.0756H68.0743H68.073H68.0718H68.0705H68.0693H68.068H68.0667H68.0655H68.0642H68.063H68.0617H68.0604H68.0592H68.0579H68.0567H68.0554H68.0541H68.0529H68.0516H68.0504H68.0491H68.0479H68.0466H68.0453H68.0441H68.0428H68.0416H68.0403H68.039H68.0378H68.0365H68.0353H68.034H68.0327H68.0315H68.0302H68.029H68.0277H68.0264H68.0252H68.0239H68.0227H68.0214H68.0201H68.0189H68.0176H68.0164H68.0151H68.0138H68.0126H68.0113H68.0101H68.0088H68.0076H68.0063H68.005H68.0038H68.0025H68.0013H68H67.9987H67.9975H67.9962H67.995H67.9937H67.9924H67.9912H67.9899H67.9887H67.9874H67.9862H67.9849H67.9836H67.9824H67.9811H67.9799H67.9786H67.9774H67.9761H67.9748H67.9736H67.9723H67.9711H67.9698H67.9685H67.9673H67.966H67.9648H67.9635H67.9623H67.961H67.9597H67.9595L68.5517 20.0961V20.0847C72.7264 20.1312 75.9494 22.6038 78.291 26.277C79.4998 28.1734 80.4502 30.359 81.1483 32.619Z" fill="#8C6338" stroke="#8C6338" stroke-width="2"/>
<path d="M39.3918 90.9345C33.4918 90.9345 27.2117 84.2244 23.6017 77.5744C21.2717 73.2844 20.8817 64.7744 24.0317 58.9744C24.7359 57.4932 25.8096 56.2183 27.1495 55.2725C28.4894 54.3267 30.0503 53.7419 31.6818 53.5744C31.9716 53.5595 32.262 53.5595 32.5518 53.5744C40.5518 53.5744 46.3017 62.9445 48.2817 71.6545C50.0417 79.3745 47.5917 89.1044 41.2817 90.7444C40.6631 90.8961 40.0287 90.9733 39.3918 90.9744V90.9345Z" fill="#FFC9C9"/>
<path d="M48.2395 71.4414C48.256 71.5138 48.2723 71.5863 48.2883 71.6588L48.2884 71.6595C49.137 75.5143 48.9933 79.5202 47.8727 83.3023C49.009 79.682 49.1273 75.3615 48.2866 71.6459L48.2395 71.4414ZM48.2395 71.4414C48.2554 71.5097 48.2711 71.5778 48.2866 71.6458L48.2395 71.4414ZM42.7297 59.4287C40.8642 57.0412 37.6837 53.941 33.3307 53.6044H33.4601C37.0991 53.9265 40.222 56.169 42.733 59.4184C44.1843 61.2965 45.4022 63.4773 46.3652 65.733C45.4009 63.5161 44.1885 61.4083 42.7469 59.4513L42.7385 59.4399L42.7297 59.4287ZM45.804 87.5206C46.2559 86.908 46.6299 86.2689 46.9372 85.653C46.3957 86.7454 45.7434 87.7074 44.9831 88.5021C45.2836 88.1864 45.5566 87.8559 45.804 87.5206ZM33.3719 88.9144C34.9105 89.896 36.4224 90.5346 37.8267 90.8134C36.3465 90.533 34.8468 89.872 33.3719 88.9144ZM22.7488 62.0798C24.1619 57.4967 27.0485 54.0397 31.5518 53.6127V53.6192C28.2986 53.9292 25.7606 55.8083 24.0322 59.0087C23.5089 59.9748 23.084 61.0087 22.7488 62.0798Z" fill="#8C6338" stroke="#8C6338" stroke-width="2"/>
<path d="M93.6059 153.515C93.5568 153.513 93.5076 153.512 93.4585 153.511L93.5982 153.514C93.6648 153.516 93.7314 153.517 93.7979 153.519C93.7339 153.517 93.6699 153.516 93.6059 153.515Z" fill="#8C6338" stroke="#8C6338" stroke-width="2"/>
<path d="M24.3901 366.115C23.2211 375.687 22.0509 385.329 20.9073 394.996C22.0427 385.332 23.2071 375.691 24.3901 366.115ZM5.34912 89.4546C7.44415 93.4561 10.0205 97.1774 13.0156 100.538C10.0173 97.1827 7.43689 93.4664 5.337 89.4694L5.33708 89.4694L5.33065 89.4575C-0.599632 78.5302 -0.426554 62.219 5.77132 50.7602C10.5014 42.0196 18.38 36.3564 27.6012 34.907C18.3574 36.3659 10.4951 42.0684 5.79226 50.7585L5.79208 50.7589C-0.408248 62.2269 -0.6172 78.4513 5.34912 89.4546ZM32.3473 34.5345C31.5475 34.5359 30.7444 34.5744 29.9505 34.6312C30.748 34.5653 31.5476 34.533 32.3473 34.5345ZM35.0512 34.6567C35.0269 34.6538 35.0026 34.6509 34.9785 34.6481L35.0229 34.651L35.1604 33.7445C35.5283 31.3201 36.0933 28.9379 36.8461 26.6205C36.0055 29.2292 35.4029 31.9187 35.0512 34.6567ZM151.536 31.2331C150.274 25.2193 147.791 19.5157 144.228 14.4812C147.796 19.5087 150.281 25.2133 151.536 31.2331ZM152.122 34.6976C152.11 34.602 152.097 34.5065 152.084 34.411L152.119 34.6411L153.036 34.5824C154.458 34.4913 155.885 34.5075 157.305 34.6307L157.31 34.6312C167.496 35.4622 176.265 41.312 181.383 50.7511C187.403 61.8831 187.738 77.5949 182.315 88.51C187.741 77.5396 187.315 61.9418 181.353 50.8219L181.351 50.8178C176.26 41.4291 167.49 35.5274 157.284 34.6979C155.567 34.5505 153.84 34.5504 152.122 34.6976Z" fill="#8C6338" stroke="#8C6338" stroke-width="2"/>
<path d="M127.58 232.043C124.15 232.503 121.3 234.163 118.58 235.763C116.168 237.343 113.517 238.524 110.73 239.263L109.99 239.423C106.878 239.933 103.85 240.865 100.99 242.193C99.69 242.853 98.42 243.633 97.18 244.383C95.0151 245.809 92.6889 246.974 90.25 247.853C87.8705 248.555 85.4348 249.05 82.97 249.333C78.48 249.953 74.25 250.593 70.25 253.953C70.0563 254.125 69.922 254.354 69.8663 254.607C69.8107 254.86 69.8364 255.125 69.94 255.363C70.0315 255.617 70.2001 255.837 70.4224 255.991C70.6447 256.145 70.9095 256.226 71.18 256.223C79.18 255.863 85.46 255.742 92.57 257.562C98.05 258.972 103.5 260.112 109.88 258.562C113.98 257.562 117.25 257.113 120.88 257.693C122.37 257.933 123.88 258.303 125.32 258.693C126.944 259.127 128.59 259.477 130.25 259.743C132.831 260.006 135.433 259.989 138.01 259.693C141.38 259.443 149.22 259.093 151.01 258.693C150.01 248.013 149.06 237.693 148.22 227.693H147.97C147.53 227.693 147.81 227.123 148.14 226.633V226.583C145.19 229.793 137.23 231.663 132.46 231.723C130.829 231.739 129.199 231.845 127.58 232.043V232.043Z" fill="white"/>
<path d="M155.39 302.753C155.02 302.753 148.44 304.133 145.11 303.923C143.521 303.772 141.922 303.755 140.33 303.873C136.419 304.462 132.592 305.516 128.93 307.013C126.57 307.873 124.14 308.753 121.74 309.363C117.18 310.513 112.47 311.303 107.92 312.073C99.5599 313.473 90.9199 314.933 82.9199 318.653C82.6606 318.764 82.4434 318.954 82.2996 319.197C82.1558 319.44 82.0929 319.722 82.1199 320.003C82.1564 320.313 82.2888 320.603 82.4985 320.835C82.7082 321.066 82.9849 321.226 83.2899 321.293C85.723 321.77 88.201 321.982 90.6799 321.923C91.6099 321.923 92.5299 321.923 93.4799 321.983C95.7764 322.15 98.0489 322.559 100.26 323.203L102.42 323.733C105.874 324.408 109.391 324.71 112.91 324.633C116.385 324.549 119.86 324.847 123.27 325.523C125.593 326.119 127.88 326.847 130.12 327.703C133.034 328.847 136.047 329.724 139.12 330.323C141.149 330.586 143.195 330.683 145.24 330.613C149.02 330.613 152.93 330.563 156.03 332.523C156.26 332.658 156.515 332.747 156.78 332.783C156.785 332.892 156.785 333.003 156.78 333.113C156.855 333.088 156.932 333.068 157.01 333.053L157.46 332.733C157.74 332.313 157.84 328.173 157.87 323.503C157.51 316.053 157.04 308.623 156.51 301.253C156.173 301.779 155.799 302.28 155.39 302.753Z" fill="white"/>
<path d="M154.52 353.112C151.61 353.482 149.24 354.982 146.94 356.432L145.54 357.302C143.576 358.377 141.435 359.091 139.22 359.413C137.648 359.691 136.102 360.103 134.6 360.643C132.54 361.495 130.536 362.477 128.6 363.583C127.47 364.203 126.3 364.843 125.14 365.403C124.892 365.511 124.688 365.701 124.563 365.941C124.437 366.181 124.398 366.457 124.45 366.723C124.512 367.043 124.672 367.335 124.909 367.56C125.146 367.784 125.447 367.928 125.77 367.973L128.41 368.223C131.2 368.473 134.08 368.743 136.88 369.223C138.54 369.503 140.19 369.952 141.77 370.382C143.16 370.762 144.6 371.162 146.06 371.442C148.084 371.769 150.13 371.949 152.18 371.983C155.43 372.103 158.75 372.313 161.65 373.643C161.88 373.573 162.12 373.523 162.36 373.473C162.42 367.063 162.36 360.593 162.23 354.103C161.736 353.786 161.217 353.508 160.68 353.273C158.642 352.959 156.572 352.905 154.52 353.112Z" fill="white"/>
<path d="M39.08 364.382C42.405 363.31 45.8674 362.724 49.36 362.642C50.7 362.542 52.09 362.443 53.48 362.283C58.1176 361.651 62.6695 360.501 67.05 358.853C69.89 357.853 72.85 357.153 75.72 356.463C77.8 355.963 79.95 355.462 82.04 354.822C82.3431 354.735 82.6073 354.546 82.7891 354.288C82.9708 354.03 83.0593 353.718 83.04 353.403C83.0385 353.122 82.937 352.851 82.7538 352.638C82.5705 352.426 82.3174 352.285 82.04 352.242C79.496 351.698 76.9958 350.966 74.56 350.052C71.9622 349.064 69.2862 348.294 66.56 347.752C63.6249 347.351 60.6593 347.217 57.7 347.353C55.2045 347.444 52.7058 347.37 50.22 347.132C47.3575 346.674 44.5518 345.913 41.85 344.862C37.94 343.502 33.91 342.122 29.8 342.492C27.63 342.382 26.55 344.262 25.54 345.172C24.9 353.282 24.38 361.372 24 369.392C25.92 368.622 29.51 366.662 30.74 366.392C33.5708 365.954 36.3603 365.282 39.08 364.382V364.382Z" fill="white"/>
<path d="M39.15 301.812H40.02C42.4941 301.883 44.9697 301.742 47.42 301.393C50.3565 300.738 53.1757 299.639 55.78 298.133C57.8738 296.973 60.078 296.025 62.36 295.303C64.1827 294.87 66.0468 294.635 67.92 294.603C69.02 294.543 70.16 294.483 71.27 294.343C73.69 294.033 76.12 293.483 78.47 292.943L79.58 292.693C86.02 291.243 91.79 289.693 97.24 287.973C97.521 287.902 97.7673 287.733 97.9343 287.496C98.1013 287.26 98.1778 286.971 98.15 286.683C98.1216 286.367 97.9845 286.07 97.762 285.844C97.5395 285.618 97.2454 285.476 96.93 285.443C95.83 285.293 94.71 285.053 93.63 284.823C91.8582 284.379 90.0451 284.121 88.22 284.053C87.03 284.053 85.9 284.143 84.79 284.233C82.8297 284.491 80.8425 284.464 78.89 284.153C76.99 283.718 75.1223 283.154 73.3 282.463C70.9616 281.518 68.5222 280.847 66.03 280.463C63.5093 280.233 60.9739 280.213 58.45 280.403C55.2793 280.678 52.0862 280.544 48.95 280.003L46.55 279.453C42.84 278.593 37.02 276.592 33.23 276.562C33.23 276.822 33.17 277.083 33.15 277.343C33.31 277.773 33.53 278.213 33.05 278.243L32.72 281.243C32.72 281.963 32.65 282.713 32.58 283.473C32.43 285.143 32.19 286.823 31.94 288.473C31.4933 292.573 31.0533 296.696 30.62 300.843C31.03 300.843 30.9 301.043 30.62 301.283L30.47 302.793C32.54 302.543 36.31 301.963 37.13 301.913C37.95 301.863 38.51 301.812 39.15 301.812Z" fill="white"/>
<path d="M55.62 229.803C56.97 229.533 58.36 229.383 59.7 229.233C61.7258 229.078 63.7337 228.743 65.7 228.233C68.1151 227.435 70.4571 226.432 72.7 225.233C76.04 223.583 79.19 222.023 83.18 221.683C90.31 221.083 95.74 219.793 100.81 217.473C101.04 217.372 101.227 217.193 101.338 216.968C101.45 216.743 101.479 216.487 101.42 216.243C101.369 215.958 101.224 215.699 101.008 215.507C100.793 215.315 100.518 215.2 100.23 215.183C98.12 215.123 95.98 214.953 93.91 214.783C89.4086 214.257 84.8614 214.257 80.36 214.783L79.69 214.893C77.7723 215.343 75.7794 215.371 73.85 214.973C72.9846 214.726 72.1468 214.391 71.35 213.973C70.8 213.703 70.24 213.423 69.65 213.193C67.2513 212.319 64.6983 211.948 62.15 212.103C61.05 212.103 59.96 212.203 58.88 212.263C56.4684 212.483 54.0417 212.483 51.63 212.263L50.73 212.163C49.9551 212.193 49.1845 212.033 48.4867 211.694C47.7889 211.356 47.1855 210.85 46.73 210.223C46.7217 210.126 46.7217 210.029 46.73 209.933C46.7361 209.784 46.7128 209.637 46.6613 209.497C46.6098 209.358 46.5312 209.231 46.43 209.123C44.53 207.493 42.55 207.983 40.64 208.463C40.1 208.593 39.55 208.733 38.99 208.823C38.99 208.573 38.04 208.523 37.15 208.623C36.73 219.183 35.88 230.383 34.78 242.053C38.9 241.453 44.78 236.273 47.44 234.053C49.7199 231.905 52.552 230.433 55.62 229.803V229.803Z" fill="white"/>
</svg>
