<svg width="183" height="508" viewBox="0 0 183 508" fill="none" xmlns="http://www.w3.org/2000/svg">
<path d="M35 121.5C33.4 117.5 28.6667 108.5 26.5 104.5L22.5 91L68 76.5L144 74L161.5 104.5C158.333 110.167 151.7 122.9 150.5 128.5C149.3 134.1 148 148.833 147.5 155.5L144 177.5L107.5 185L45.5 177.5L39 137.5C38.3333 133.833 36.6 125.5 35 121.5Z" fill="white"/>
<path d="M17.2919 95.8145C23.7233 101.519 28.9552 108.446 32.6825 116.192C36.4098 123.939 38.558 132.349 39.0019 140.934C43.5919 220.444 29.1819 313.194 18.9319 403.054H168.582C158.412 314.634 144.282 225.184 148.972 140.614C149.859 123.301 157.559 107.041 170.392 95.3845" stroke="#8C6338" stroke-width="2"/>
<path d="M39.9086 139.512C40.8082 141.646 41.5664 144.079 42.314 146.647C42.4863 147.238 42.6579 147.836 42.8306 148.439C43.9578 152.369 45.1305 156.458 46.8272 159.852C48.7103 163.623 50.6051 166.252 53.3657 167.552C56.1266 168.851 59.5215 168.714 64.1199 167.586C65.3332 167.288 66.4757 166.974 67.5422 166.681C68.1204 166.523 68.6763 166.37 69.2089 166.229C70.7486 165.823 72.1439 165.503 73.5316 165.351C76.2576 165.053 79.0365 165.395 82.7739 167.214C84.6134 168.109 86.1118 169.081 87.4971 170.038C87.8261 170.266 88.1523 170.495 88.4772 170.723C89.5011 171.442 90.5116 172.151 91.5564 172.767C94.4047 174.446 97.5837 175.481 102.799 174.96C106.484 174.61 109.066 173.068 111.387 171.601C111.512 171.522 111.635 171.444 111.758 171.366C113.949 169.977 115.891 168.746 118.497 168.364L118.498 168.364C119.528 168.211 120.718 168.271 122.052 168.442C122.945 168.556 123.853 168.711 124.797 168.873C125.277 168.956 125.766 169.04 126.267 169.12C129.143 169.584 132.334 169.939 135.097 168.787L135.097 168.787C136.873 168.046 138.491 166.66 139.947 164.95C141.409 163.232 142.754 161.133 143.969 158.886C145.317 156.394 146.522 153.689 147.561 151.069C146.241 208.185 159.441 336.468 170.505 422.105C172.529 447.049 173.141 466.631 172.579 480.774C172.298 487.85 171.725 493.539 170.895 497.847C170.124 501.854 169.153 504.537 168.088 506.044H19.55C18.209 503.227 17.2114 499.102 16.5298 493.82C15.8066 488.215 15.4495 481.397 15.3781 473.629C15.2353 458.098 16.2348 438.855 17.6954 418.086C19.4144 401.268 21.3682 383.061 23.3912 364.209C26.8386 332.084 30.4868 298.087 33.516 265.906C38.3216 214.852 41.5812 168.257 40.0001 140.868C39.9744 140.415 39.9439 139.963 39.9086 139.512Z" fill="#FBB03B" stroke="#8C6338" stroke-width="2"/>
<path d="M93.6059 144.515C93.5568 144.513 93.5076 144.512 93.4585 144.511L93.5982 144.514C93.6648 144.516 93.7314 144.517 93.7979 144.519C93.7339 144.517 93.6699 144.516 93.6059 144.515Z" fill="#8C6338" stroke="#8C6338" stroke-width="2"/>
<path d="M127.58 223.043C124.15 223.503 121.3 225.163 118.58 226.763C116.168 228.343 113.517 229.524 110.73 230.263L109.99 230.423C106.878 230.933 103.85 231.865 100.99 233.193C99.69 233.853 98.42 234.633 97.18 235.383C95.0151 236.809 92.6889 237.974 90.25 238.853C87.8705 239.555 85.4348 240.05 82.97 240.333C78.48 240.953 74.25 241.593 70.25 244.953C70.0563 245.125 69.922 245.354 69.8663 245.607C69.8107 245.86 69.8364 246.125 69.94 246.363C70.0315 246.617 70.2001 246.837 70.4224 246.991C70.6447 247.145 70.9095 247.226 71.18 247.223C79.18 246.863 85.46 246.742 92.57 248.562C98.05 249.972 103.5 251.112 109.88 249.562C113.98 248.562 117.25 248.113 120.88 248.693C122.37 248.933 123.88 249.303 125.32 249.693C126.944 250.127 128.59 250.477 130.25 250.743C132.831 251.006 135.433 250.989 138.01 250.693C141.38 250.443 149.22 250.093 151.01 249.693C150.01 239.013 149.06 228.693 148.22 218.693H147.97C147.53 218.693 147.81 218.123 148.14 217.633V217.583C145.19 220.793 137.23 222.663 132.46 222.723C130.829 222.739 129.199 222.845 127.58 223.043V223.043Z" fill="white"/>
<path d="M155.39 293.753C155.02 293.753 148.44 295.133 145.11 294.923C143.521 294.772 141.922 294.755 140.33 294.873C136.419 295.462 132.592 296.516 128.93 298.013C126.57 298.873 124.14 299.753 121.74 300.363C117.18 301.513 112.47 302.303 107.92 303.073C99.5599 304.473 90.9199 305.933 82.9199 309.653C82.6606 309.764 82.4434 309.954 82.2996 310.197C82.1558 310.44 82.0929 310.722 82.1199 311.003C82.1564 311.313 82.2888 311.603 82.4985 311.835C82.7082 312.066 82.9849 312.226 83.2899 312.293C85.723 312.77 88.201 312.982 90.6799 312.923C91.6099 312.923 92.5299 312.923 93.4799 312.983C95.7764 313.15 98.0489 313.559 100.26 314.203L102.42 314.733C105.874 315.408 109.391 315.71 112.91 315.633C116.385 315.549 119.86 315.847 123.27 316.523C125.593 317.119 127.88 317.847 130.12 318.703C133.034 319.847 136.047 320.724 139.12 321.323C141.149 321.586 143.195 321.683 145.24 321.613C149.02 321.613 152.93 321.563 156.03 323.523C156.26 323.658 156.515 323.747 156.78 323.783C156.785 323.892 156.785 324.003 156.78 324.113C156.855 324.088 156.932 324.068 157.01 324.053L157.46 323.733C157.74 323.313 157.84 319.173 157.87 314.503C157.51 307.053 157.04 299.623 156.51 292.253C156.173 292.779 155.799 293.28 155.39 293.753Z" fill="white"/>
<path d="M154.52 344.112C151.61 344.482 149.24 345.982 146.94 347.432L145.54 348.302C143.576 349.377 141.435 350.091 139.22 350.413C137.648 350.691 136.102 351.103 134.6 351.643C132.54 352.495 130.536 353.477 128.6 354.583C127.47 355.203 126.3 355.843 125.14 356.403C124.892 356.511 124.688 356.701 124.563 356.941C124.437 357.181 124.398 357.457 124.45 357.723C124.512 358.043 124.672 358.335 124.909 358.56C125.146 358.784 125.447 358.928 125.77 358.973L128.41 359.223C131.2 359.473 134.08 359.743 136.88 360.223C138.54 360.503 140.19 360.952 141.77 361.382C143.16 361.762 144.6 362.162 146.06 362.442C148.084 362.769 150.13 362.949 152.18 362.983C155.43 363.103 158.75 363.313 161.65 364.643C161.88 364.573 162.12 364.523 162.36 364.473C162.42 358.063 162.36 351.593 162.23 345.103C161.736 344.786 161.217 344.508 160.68 344.273C158.642 343.959 156.572 343.905 154.52 344.112Z" fill="white"/>
<path d="M39.08 355.382C42.405 354.31 45.8674 353.724 49.36 353.642C50.7 353.542 52.09 353.443 53.48 353.283C58.1176 352.651 62.6695 351.501 67.05 349.853C69.89 348.853 72.85 348.153 75.72 347.463C77.8 346.963 79.95 346.462 82.04 345.822C82.3431 345.735 82.6073 345.546 82.7891 345.288C82.9708 345.03 83.0593 344.718 83.04 344.403C83.0385 344.122 82.937 343.851 82.7538 343.638C82.5705 343.426 82.3174 343.285 82.04 343.242C79.496 342.698 76.9958 341.966 74.56 341.052C71.9622 340.064 69.2862 339.294 66.56 338.752C63.6249 338.351 60.6593 338.217 57.7 338.353C55.2045 338.444 52.7058 338.37 50.22 338.132C47.3575 337.674 44.5518 336.913 41.85 335.862C37.94 334.502 33.91 333.122 29.8 333.492C27.63 333.382 26.55 335.262 25.54 336.172C24.9 344.282 24.38 352.372 24 360.392C25.92 359.622 29.51 357.662 30.74 357.392C33.5708 356.954 36.3603 356.282 39.08 355.382V355.382Z" fill="white"/>
<path d="M39.15 292.812H40.02C42.4941 292.883 44.9697 292.742 47.42 292.393C50.3565 291.738 53.1757 290.639 55.78 289.133C57.8738 287.973 60.078 287.025 62.36 286.303C64.1827 285.87 66.0468 285.635 67.92 285.603C69.02 285.543 70.16 285.483 71.27 285.343C73.69 285.033 76.12 284.483 78.47 283.943L79.58 283.693C86.02 282.243 91.79 280.693 97.24 278.973C97.521 278.902 97.7673 278.733 97.9343 278.496C98.1013 278.26 98.1778 277.971 98.15 277.683C98.1216 277.367 97.9845 277.07 97.762 276.844C97.5395 276.618 97.2454 276.476 96.93 276.443C95.83 276.293 94.71 276.053 93.63 275.823C91.8582 275.379 90.0451 275.121 88.22 275.053C87.03 275.053 85.9 275.143 84.79 275.233C82.8297 275.491 80.8425 275.464 78.89 275.153C76.99 274.718 75.1223 274.154 73.3 273.463C70.9616 272.518 68.5222 271.847 66.03 271.463C63.5093 271.233 60.9739 271.213 58.45 271.403C55.2793 271.678 52.0862 271.544 48.95 271.003L46.55 270.453C42.84 269.593 37.02 267.592 33.23 267.562C33.23 267.822 33.17 268.083 33.15 268.343C33.31 268.773 33.53 269.213 33.05 269.243L32.72 272.243C32.72 272.963 32.65 273.713 32.58 274.473C32.43 276.143 32.19 277.823 31.94 279.473C31.4933 283.573 31.0533 287.696 30.62 291.843C31.03 291.843 30.9 292.043 30.62 292.283L30.47 293.793C32.54 293.543 36.31 292.963 37.13 292.913C37.95 292.863 38.51 292.812 39.15 292.812Z" fill="white"/>
<path d="M55.62 220.803C56.97 220.533 58.36 220.383 59.7 220.233C61.7258 220.078 63.7337 219.743 65.7 219.233C68.1151 218.435 70.4571 217.432 72.7 216.233C76.04 214.583 79.19 213.023 83.18 212.683C90.31 212.083 95.74 210.793 100.81 208.473C101.04 208.372 101.227 208.193 101.338 207.968C101.45 207.743 101.479 207.487 101.42 207.243C101.369 206.958 101.224 206.699 101.008 206.507C100.793 206.315 100.518 206.2 100.23 206.183C98.12 206.123 95.98 205.953 93.91 205.783C89.4086 205.257 84.8614 205.257 80.36 205.783L79.69 205.893C77.7723 206.343 75.7794 206.371 73.85 205.973C72.9846 205.726 72.1468 205.391 71.35 204.973C70.8 204.703 70.24 204.423 69.65 204.193C67.2513 203.319 64.6983 202.948 62.15 203.103C61.05 203.103 59.96 203.203 58.88 203.263C56.4684 203.483 54.0417 203.483 51.63 203.263L50.73 203.163C49.9551 203.193 49.1845 203.033 48.4867 202.694C47.7889 202.356 47.1855 201.85 46.73 201.223C46.7217 201.126 46.7217 201.029 46.73 200.933C46.7361 200.784 46.7128 200.637 46.6613 200.497C46.6098 200.358 46.5312 200.231 46.43 200.123C44.53 198.493 42.55 198.983 40.64 199.463C40.1 199.593 39.55 199.733 38.99 199.823C38.99 199.573 38.04 199.523 37.15 199.623C36.73 210.183 35.88 221.383 34.78 233.053C38.9 232.453 44.78 227.273 47.44 225.053C49.7199 222.905 52.552 221.433 55.62 220.803V220.803Z" fill="white"/>
<path d="M90.8071 1.16779C-35.8104 2.91954 0.659072 99.8499 30.2905 108.025C45.9041 112.334 48.4227 103.809 48.4227 92.1422V83.4535H49.4484V92.1422C49.575 97.6607 51.8033 102.91 55.657 106.767C59.5106 110.624 64.6839 112.783 70.0708 112.783C75.4577 112.783 80.631 110.624 84.4846 106.767C88.3383 102.91 90.5666 97.6607 90.6932 92.1422V83.4535H91.6961V92.1422C91.6961 97.7452 93.8682 103.119 97.7346 107.081C101.601 111.043 106.845 113.268 112.313 113.268C115.021 113.27 117.703 112.725 120.206 111.664C122.709 110.603 124.983 109.047 126.898 107.085C128.814 105.123 130.334 102.793 131.37 100.229C132.407 97.6656 132.941 94.9175 132.941 92.1422V83.4535H133.944V92.1422C133.944 103.821 138.582 112.696 148.862 110.933C183.314 105.012 220.616 6.42304 90.8071 1.16779Z" fill="white"/>
<path d="M164.031 22.8429C148.076 9.0157 123.516 1.33133 90.8528 0H90.7958C28.376 0.864198 8.46591 25.6106 2.45984 44.8565C4.83036 46.8302 7.53137 49.1659 8.4887 48.5236C9.83351 47.6126 6.99572 35.9226 8.71663 35.0467C10.1868 34.2993 15.3495 44.8215 17.0704 44.1091C18.609 43.4785 17.23 31.3797 18.9509 30.7841C20.6718 30.1885 24.7974 41.2947 26.5069 40.7808C28.2164 40.267 27.4756 28.1098 29.1965 27.6543C30.9174 27.1989 34.5416 38.5853 36.2625 38.1649C37.9834 37.7444 37.7669 25.5639 39.4878 25.2019C41.2087 24.8399 44.4454 36.4131 46.1549 36.0978C47.8644 35.7825 48.0923 23.5786 49.8132 23.2516C51.5341 22.9246 54.4403 34.673 56.1498 34.4278C57.8593 34.1825 58.4291 21.9903 60.1614 21.7801C61.8937 21.5699 64.4808 33.3767 66.2017 33.1899C67.9226 33.003 68.8115 20.8575 70.5324 20.7057C72.2533 20.5539 74.5669 32.4425 76.2878 32.3841C78.0087 32.3257 79.2053 20.1568 80.9262 20.0634C82.6472 19.97 84.6758 31.9403 86.3853 31.8936C88.0948 31.8469 89.622 19.7598 91.3315 19.7364C93.041 19.7131 94.7505 31.7534 96.4828 31.7534C98.2151 31.7534 100.039 19.7598 101.748 19.8065C103.458 19.8532 104.871 31.987 106.569 31.987C108.267 31.987 110.467 20.1452 112.165 20.3087C113.863 20.4722 114.934 32.5593 116.632 32.7227C118.33 32.8862 120.895 21.0444 122.581 21.2429C124.268 21.4414 124.94 33.6336 126.627 33.8672C128.314 34.1008 131.311 22.4341 132.998 22.7144C134.685 22.9947 134.856 35.2219 136.531 35.5606C138.206 35.8993 141.716 24.4311 143.369 24.8282C145.021 25.2252 144.645 37.4174 146.321 37.8262C147.996 38.2349 152.11 27.1288 153.729 27.666C155.347 28.2032 154.219 40.337 155.825 40.9443C157.432 41.5516 162.367 30.8776 163.929 31.6016C165.49 32.3257 163.382 44.2493 164.909 45.0668C166.436 45.8843 172.419 35.981 173.889 36.8919C175.359 37.8028 171.861 49.2943 173.262 50.3804C174.186 51.0928 177.399 47.9864 179.975 45.8959C176.721 36.9141 171.223 28.9649 164.031 22.8429Z" fill="#FBB03B"/>
<path d="M164.031 22.8429C148.076 9.0157 123.516 1.33133 90.8529 0H90.7959C10.2667 1.16784 0.488324 41.9837 0.0210589 59.5012C-0.674141 85.8125 15.9765 108.2 30.211 109.193C43.3856 110.115 47.591 101.789 48.9016 96.9187C51.1809 106.063 59.2726 112.101 70.0425 112.101C80.8124 112.101 88.9155 106.261 91.172 97.3741C93.4514 106.261 101.429 112.101 112.29 112.101C122.844 112.101 130.776 106.53 133.249 97.9931C134.468 105.105 138.423 111.727 148.805 112.101H149.466C165.912 112.101 182.084 89.9116 182.961 65.9476C183.577 49.306 176.853 33.9957 164.031 22.8429ZM180.682 65.8542C179.839 88.9774 164.339 110.232 148.885 109.741C139.585 109.403 135.061 103.634 135.061 92.1188V83.4301C135.061 83.1322 134.951 82.8453 134.752 82.6282C134.552 82.4111 134.28 82.2802 133.989 82.2623H133.921C133.641 82.2602 133.37 82.3639 133.16 82.5534C132.95 82.743 132.815 83.0052 132.781 83.29L131.767 91.9787V92.1188C131.767 102.489 123.789 109.741 112.279 109.741C100.768 109.741 92.8017 102.489 92.8017 92.1188V83.4301C92.8107 83.2768 92.7902 83.1231 92.7412 82.9779C92.6922 82.8327 92.6158 82.6988 92.5163 82.5838C92.4168 82.4689 92.2962 82.3752 92.1614 82.308C92.0266 82.2408 91.8801 82.2014 91.7305 82.1922C91.5808 82.183 91.4308 82.2041 91.2891 82.2543C91.1474 82.3045 91.0167 82.3828 90.9046 82.4848C90.7924 82.5867 90.7009 82.7103 90.6353 82.8484C90.5698 82.9866 90.5314 83.1366 90.5224 83.29L89.5081 91.9787V92.1188C89.5081 102.489 81.5304 109.741 70.0197 109.741C58.7939 109.741 50.782 102.478 50.5313 91.9787L49.5284 83.3017C49.4941 83.0065 49.3511 82.7359 49.1288 82.5449C48.9064 82.3539 48.6214 82.257 48.3318 82.274C48.0415 82.2919 47.7689 82.4228 47.5697 82.6399C47.3706 82.857 47.2599 83.1439 47.2605 83.4418V92.1305C47.2493 92.2041 47.2493 92.2789 47.2605 92.3524C47.139 96.2538 45.6595 99.982 43.0893 102.863C40.1489 105.899 35.8637 107.242 30.3135 106.857C14.5633 105.759 1.71916 79.9267 2.25481 59.5479C2.71068 42.7077 12.2155 3.42176 90.7504 2.324C122.866 3.63197 147.016 11.1295 162.55 24.618C178.289 38.305 181.092 54.608 180.682 65.8542Z" fill="#8C6338"/>
</svg>
