<svg width="190" height="541" viewBox="0 0 190 541" fill="none" xmlns="http://www.w3.org/2000/svg">
<path d="M17.2918 128.814C23.7232 134.519 28.9551 141.446 32.6824 149.192C36.4097 156.939 38.5579 165.349 39.0018 173.934C43.5918 253.444 29.1818 346.194 18.9318 436.054H168.582C158.412 347.634 144.282 258.184 148.972 173.614C149.859 156.301 157.559 140.041 170.392 128.384C175.029 124.107 178.895 119.063 181.822 113.474C187.822 102.474 187.582 86.2345 181.382 74.7745C176.282 65.3545 167.512 59.4845 157.312 58.6545C156.472 58.5845 155.622 58.5445 154.772 58.5445C153.922 58.5445 152.992 58.5945 152.122 58.6745C151.159 51.3059 148.387 44.2904 144.052 38.2545C137.732 29.7245 128.832 25.0245 118.982 25.0245C118.252 25.0245 117.502 25.0245 116.762 25.1045C112.168 25.4604 107.709 26.8263 103.704 29.1046C99.6983 31.383 96.2456 34.5175 93.5918 38.2845C90.9349 34.5183 87.4801 31.3844 83.4734 29.1062C79.4668 26.8281 75.0069 25.4617 70.4118 25.1045C69.6818 25.1045 68.9318 25.0245 68.2018 25.0245C58.3518 25.0245 49.4418 29.7245 43.1318 38.2545C38.797 44.2904 36.0245 51.3059 35.0618 58.6745C34.1918 58.5945 33.3118 58.5445 32.4018 58.5445C31.4918 58.5445 30.7118 58.5445 29.8618 58.6545C19.6718 59.4845 10.8618 65.3545 5.80177 74.7745C-0.398225 86.2345 -0.588228 102.504 5.36177 113.474C8.38935 119.26 12.43 124.456 17.2918 128.814V128.814Z" fill="white"/>
<path d="M39.9086 172.512C40.8082 174.646 41.5664 177.079 42.314 179.647C42.4863 180.238 42.6579 180.836 42.8306 181.439C43.9578 185.369 45.1305 189.458 46.8272 192.852C48.7103 196.623 50.6051 199.252 53.3657 200.552C56.1266 201.851 59.5215 201.714 64.1199 200.586C65.3332 200.288 66.4757 199.974 67.5422 199.681C68.1204 199.523 68.6763 199.37 69.2089 199.229C70.7486 198.823 72.1439 198.503 73.5316 198.351C76.2576 198.053 79.0365 198.395 82.7739 200.214C84.6134 201.109 86.1118 202.081 87.4971 203.038C87.8261 203.266 88.1523 203.495 88.4772 203.723C89.5011 204.442 90.5116 205.151 91.5564 205.767C94.4047 207.446 97.5837 208.481 102.799 207.96C106.484 207.61 109.066 206.068 111.387 204.601C111.512 204.522 111.635 204.444 111.758 204.366C113.949 202.977 115.891 201.746 118.497 201.364L118.498 201.364C119.528 201.211 120.718 201.271 122.052 201.442C122.945 201.556 123.853 201.711 124.797 201.873C125.277 201.956 125.766 202.04 126.267 202.12C129.143 202.584 132.334 202.939 135.097 201.787L135.097 201.787C136.873 201.046 138.491 199.66 139.947 197.95C141.409 196.232 142.754 194.133 143.969 191.886C145.317 189.394 146.522 186.689 147.561 184.069C146.241 241.185 159.441 369.468 170.505 455.105C172.529 480.049 173.141 499.631 172.579 513.774C172.298 520.85 171.725 526.539 170.895 530.847C170.124 534.854 169.153 537.537 168.088 539.044H19.55C18.209 536.227 17.2114 532.102 16.5298 526.82C15.8066 521.215 15.4495 514.397 15.3781 506.629C15.2353 491.098 16.2348 471.855 17.6954 451.086C19.4144 434.268 21.3682 416.061 23.3912 397.209C26.8386 365.084 30.4868 331.087 33.516 298.906C38.3216 247.852 41.5812 201.257 40.0001 173.868C39.9744 173.415 39.9439 172.963 39.9086 172.512Z" fill="#FBB03B" stroke="#8C6338" stroke-width="2"/>
<path d="M113.552 81.7045C113.312 81.6645 113.072 81.6145 112.832 81.5545C106.422 79.9445 103.392 70.1445 104.692 62.3645C106.222 53.1745 111.692 43.5845 120.112 44.2345C120.352 44.2345 120.592 44.2345 120.822 44.3145C124.822 44.9245 127.212 47.9545 128.502 50.3845C131.312 55.6945 131.812 63.7545 129.622 68.3845C126.222 75.4445 119.752 82.6445 113.552 81.7045Z" fill="#FFC9C9"/>
<path d="M128.028 49.4922C126.691 47.3726 124.483 44.9481 121.027 44.349C121.021 44.3471 121.015 44.3453 121.009 44.3434C124.028 44.8436 126.367 46.7791 128.028 49.4922ZM120.114 44.207L120.306 44.2361C120.239 44.2343 120.179 44.2343 120.129 44.2344C116.129 43.9365 112.66 45.8905 109.818 49.7294L109.809 49.7416L109.8 49.7541C108.647 51.4154 107.666 53.1827 106.87 55.0282C107.67 53.115 108.658 51.2937 109.827 49.7082C112.445 46.1597 115.878 43.9036 120.114 44.207ZM104.665 62.9895C104.542 63.9298 104.475 64.8744 104.464 65.818C104.473 64.8559 104.54 63.9068 104.665 62.9895ZM105.931 74.3149C105.27 72.5917 104.831 70.7029 104.617 68.7911C104.831 70.6619 105.268 72.5081 105.923 74.2897L105.923 74.2897L105.928 74.302C106.348 75.4015 107.065 76.9382 108.172 78.3325C109.278 79.7248 110.815 81.0272 112.881 81.5502C113.124 81.6193 113.371 81.6709 113.621 81.7045C116.915 82.1986 120.152 80.4417 122.866 77.908C125.611 75.3454 128.007 71.8234 129.663 68.3566C130.266 67.1004 130.682 65.5066 130.89 63.7435C130.691 65.514 130.281 67.1069 129.679 68.3628C127.991 71.8905 125.519 75.5158 122.658 78.1142C119.781 80.7264 116.659 82.1757 113.612 81.7159C113.375 81.6791 113.14 81.6298 112.909 81.5681L112.909 81.568L112.895 81.5647C109.717 80.7657 107.352 78.0156 105.931 74.3149Z" fill="#8C6338" stroke="#8C6338" stroke-width="2"/>
<path d="M92.7018 158.615C78.5718 158.615 68.6018 154.705 63.0718 147.005C57.5418 139.305 57.9818 129.365 60.0718 123.245C63.7218 112.485 80.0218 92.6145 93.6518 92.6145C99.6518 92.6145 106.982 96.7445 114.292 104.265C120.122 110.265 125.442 118.065 127.232 123.265C129.382 129.485 129.772 138.835 124.452 146.395C118.942 154.225 108.292 158.455 93.6418 158.635H92.7118L92.7018 158.615Z" fill="#FFC9C9"/>
<mask id="path-6-inside-1_11_20068" fill="white">
<path d="M93.6418 93.6145C106.302 93.6145 122.832 113.614 126.282 123.614C128.342 129.614 128.732 138.614 123.622 145.834C118.312 153.394 107.932 157.474 93.6218 157.654H92.7018C78.9118 157.654 69.2118 153.894 63.8918 146.464C58.5718 139.034 59.0118 129.464 61.0118 123.604C64.4918 113.354 80.6618 93.6545 93.6418 93.6545V93.6145ZM93.6418 91.6545C79.3218 91.6545 62.7618 112.204 59.1118 122.964C54.9118 135.364 57.6118 159.654 92.7018 159.654H93.6418C129.642 159.214 132.482 135.454 128.172 122.964C124.762 113.084 107.962 91.6545 93.6418 91.6545V91.6545Z"/>
</mask>
<path d="M93.6418 93.6145C106.302 93.6145 122.832 113.614 126.282 123.614C128.342 129.614 128.732 138.614 123.622 145.834C118.312 153.394 107.932 157.474 93.6218 157.654H92.7018C78.9118 157.654 69.2118 153.894 63.8918 146.464C58.5718 139.034 59.0118 129.464 61.0118 123.604C64.4918 113.354 80.6618 93.6545 93.6418 93.6545V93.6145ZM93.6418 91.6545C79.3218 91.6545 62.7618 112.204 59.1118 122.964C54.9118 135.364 57.6118 159.654 92.7018 159.654H93.6418C129.642 159.214 132.482 135.454 128.172 122.964C124.762 113.084 107.962 91.6545 93.6418 91.6545V91.6545Z" fill="#8C6338"/>
<path d="M93.6418 93.6145V91.6145H91.6418V93.6145H93.6418ZM126.282 123.614L128.173 122.965L128.172 122.962L126.282 123.614ZM123.622 145.834L121.989 144.679L121.985 144.685L123.622 145.834ZM93.6218 157.654V159.654H93.6344L93.647 159.654L93.6218 157.654ZM61.0118 123.604L62.9046 124.25L62.9056 124.247L61.0118 123.604ZM93.6418 93.6545V95.6545H95.6418V93.6545H93.6418ZM59.1118 122.964L57.2178 122.322L57.2175 122.323L59.1118 122.964ZM93.6418 159.654V161.654H93.654L93.6662 161.654L93.6418 159.654ZM128.172 122.964L130.062 122.312L130.062 122.312L128.172 122.964ZM93.6418 95.6145C96.3036 95.6145 99.3473 96.6771 102.568 98.6105C105.768 100.531 108.998 103.224 111.99 106.267C118.017 112.396 122.798 119.648 124.391 124.267L128.172 122.962C126.316 117.58 121.107 109.833 114.842 103.462C111.687 100.255 108.195 97.3229 104.627 95.1809C101.08 93.0519 97.31 91.6145 93.6418 91.6145V95.6145ZM124.39 124.264C126.314 129.867 126.615 138.143 121.989 144.679L125.254 146.99C130.849 139.086 130.37 129.362 128.173 122.965L124.39 124.264ZM121.985 144.685C117.214 151.478 107.63 155.478 93.5966 155.655L93.647 159.654C108.234 159.471 119.41 155.311 125.258 146.984L121.985 144.685ZM93.6218 155.654H92.7018V159.654H93.6218V155.654ZM92.7018 155.654C79.2127 155.654 70.299 151.977 65.5179 145.3L62.2657 147.629C68.1246 155.812 78.6109 159.654 92.7018 159.654V155.654ZM65.5179 145.3C60.6894 138.557 61.0395 129.715 62.9046 124.25L59.119 122.958C56.984 129.214 56.4542 139.512 62.2657 147.629L65.5179 145.3ZM62.9056 124.247C64.5173 119.5 69.2197 112.263 75.1907 106.188C78.156 103.171 81.368 100.51 84.5744 98.6145C87.7978 96.7093 90.8852 95.6545 93.6418 95.6545V91.6545C89.9084 91.6545 86.107 93.0622 82.5391 95.171C78.9544 97.2898 75.4726 100.195 72.3379 103.384C66.1088 109.721 60.9863 117.459 59.118 122.961L62.9056 124.247ZM95.6418 93.6545V93.6145H91.6418V93.6545H95.6418ZM93.6418 89.6545C85.6342 89.6545 77.415 95.3092 70.9508 101.871C64.4246 108.495 59.168 116.573 57.2178 122.322L61.0058 123.607C62.7056 118.596 67.554 111.018 73.8003 104.678C80.1086 98.2747 87.3294 93.6545 93.6418 93.6545V89.6545ZM57.2175 122.323C54.9824 128.922 54.5445 138.732 59.4544 146.982C64.4507 155.378 74.6709 161.654 92.7018 161.654V157.654C75.6427 157.654 66.9678 151.786 62.8917 144.937C58.7291 137.942 59.0412 129.407 61.0061 123.606L57.2175 122.323ZM92.7018 161.654H93.6418V157.654H92.7018V161.654ZM93.6662 161.654C112.112 161.429 122.583 155.196 127.724 146.88C132.792 138.683 132.357 128.963 130.062 122.312L126.281 123.617C128.296 129.456 128.597 137.861 124.322 144.777C120.12 151.573 111.171 157.44 93.6173 157.655L93.6662 161.654ZM130.062 122.312C128.23 117.003 122.973 108.931 116.431 102.21C113.139 98.8272 109.454 95.7154 105.62 93.4378C101.8 91.1684 97.7077 89.6545 93.6418 89.6545V93.6545C96.7358 93.6545 100.114 94.8193 103.577 96.8768C107.027 98.9261 110.44 101.789 113.565 104.999C119.855 111.463 124.704 119.046 126.281 123.617L130.062 122.312Z" fill="#8C6338" mask="url(#path-6-inside-1_11_20068)"/>
<path d="M147.792 114.934C147.155 114.933 146.52 114.856 145.902 114.704C139.592 113.074 137.142 103.334 138.902 95.6145C140.902 86.9045 146.642 77.5345 154.632 77.5345C154.922 77.5198 155.212 77.5198 155.502 77.5345C157.133 77.7019 158.694 78.2867 160.034 79.2325C161.374 80.1783 162.448 81.4533 163.152 82.9345C166.292 88.7345 165.912 97.2445 163.582 101.534C159.972 108.264 153.692 114.934 147.792 114.934Z" fill="#FFC9C9"/>
<path d="M163.583 101.587C163.582 101.589 163.581 101.59 163.581 101.592C161.121 106.122 158.289 109.439 155.532 111.634C155.473 111.681 155.415 111.727 155.356 111.773M163.583 101.587L163.581 101.592L162.702 101.114L163.581 101.592C161.788 104.878 159.309 108.25 156.512 110.788C156.13 111.134 155.744 111.463 155.356 111.773M163.583 101.587L164.462 102.064L163.584 101.586L163.583 101.587ZM155.356 111.773C152.879 113.748 150.286 114.944 147.792 114.944C150.007 114.944 152.678 113.861 155.356 111.773ZM163.151 82.9783C162.835 82.3937 162.493 81.8531 162.123 81.3582C162.788 82.2433 163.351 83.2526 163.814 84.3533C163.614 83.8826 163.393 83.4233 163.151 82.9783ZM144.451 83.3984C146.941 80.1763 150.032 77.9443 153.632 77.593V77.5935C149.394 78.012 146.29 81.0207 144.45 83.4033L144.443 83.4123L144.437 83.4213C143.107 85.2265 141.972 87.16 141.047 89.1891C141.972 87.1205 143.112 85.1307 144.451 83.3984ZM144.004 113.921C141.876 112.675 140.322 110.38 139.377 107.5C138.19 103.883 138.038 99.5292 138.864 95.7721C138.035 99.6563 138.21 103.689 139.376 107.488L139.378 107.496L139.381 107.505C139.735 108.588 140.359 110.106 141.38 111.491C142.052 112.402 142.915 113.278 144.004 113.921ZM147.786 114.944C147.338 114.947 146.892 114.908 146.453 114.829C146.894 114.905 147.342 114.944 147.791 114.944L147.786 114.944Z" fill="#8C6338" stroke="#8C6338" stroke-width="2"/>
<path d="M72.3316 81.9345C66.0816 82.4445 60.1216 74.8145 57.2316 67.5145C55.3516 62.7745 56.4116 54.7745 59.5816 49.6645C61.0316 47.3245 63.5816 44.4645 67.6616 44.1345C67.8916 44.1345 68.1316 44.1345 68.3716 44.1345C76.8016 44.0645 81.6116 54.0145 82.5116 63.2945C83.2616 71.1445 79.5716 80.7045 73.0616 81.8745C72.8203 81.9193 72.5765 81.9493 72.3316 81.9645V81.9345Z" fill="#FFC9C9"/>
<path d="M58.2822 52.1241C60.131 47.8909 63.1647 44.7106 67.2631 44.2089L67.2556 44.2164C63.3675 44.6972 60.8994 47.5294 59.5517 49.7077C59.0723 50.48 58.6501 51.2903 58.2822 52.1241ZM56.7264 66.0271C56.4235 64.7708 56.271 63.3376 56.2733 61.817C56.2731 63.3376 56.4261 64.7736 56.7264 66.0271ZM63.5468 77.7881C61.9091 76.0885 60.4415 74.0046 59.2134 71.7941C60.3875 73.9024 61.7822 75.8994 63.3279 77.5565C63.4202 77.6555 63.5132 77.7534 63.607 77.8503C63.5869 77.8296 63.5668 77.8089 63.5468 77.7881ZM82.4761 63.2385C82.5226 63.7425 82.5509 64.2563 82.5612 64.7766L81.4817 63.3945L82.4782 63.3109C82.4782 63.3103 82.4781 63.3097 82.4781 63.3091C82.4646 63.1487 82.4499 62.9885 82.4339 62.8285C82.4489 62.9656 82.463 63.1023 82.4761 63.2385ZM81.1483 56.619C80.454 54.4419 79.5142 52.3433 78.3421 50.3648L78.3333 50.35L78.3241 50.3356C75.7417 46.2986 72.3983 44.1445 68.3817 44.1445H68.3805H68.3792H68.378H68.3768H68.3755H68.3743H68.3731H68.3718H68.3706H68.3694H68.3682H68.3669H68.3657H68.3645H68.3632H68.362H68.3607H68.3595H68.3583H68.357H68.3558H68.3546H68.3533H68.3521H68.3509H68.3496H68.3484H68.3472H68.3459H68.3447H68.3434H68.3422H68.341H68.3397H68.3385H68.3373H68.336H68.3348H68.3335H68.3323H68.3311H68.3298H68.3286H68.3274H68.3261H68.3249H68.3236H68.3224H68.3211H68.3199H68.3187H68.3174H68.3162H68.3149H68.3137H68.3125H68.3112H68.31H68.3087H68.3075H68.3062H68.305H68.3038H68.3025H68.3013H68.3H68.2988H68.2975H68.2963H68.2951H68.2938H68.2926H68.2913H68.2901H68.2888H68.2876H68.2863H68.2851H68.2839H68.2826H68.2814H68.2801H68.2789H68.2776H68.2764H68.2751H68.2739H68.2726H68.2714H68.2701H68.2689H68.2676H68.2664H68.2651H68.2639H68.2627H68.2614H68.2602H68.2589H68.2577H68.2564H68.2552H68.2539H68.2527H68.2514H68.2502H68.2489H68.2477H68.2464H68.2452H68.2439H68.2427H68.2414H68.2402H68.2389H68.2377H68.2364H68.2352H68.2339H68.2327H68.2314H68.2302H68.2289H68.2276H68.2264H68.2251H68.2239H68.2226H68.2214H68.2201H68.2189H68.2176H68.2164H68.2151H68.2139H68.2126H68.2114H68.2101H68.2089H68.2076H68.2063H68.2051H68.2038H68.2026H68.2013H68.2001H68.1988H68.1976H68.1963H68.1951H68.1938H68.1926H68.1913H68.19H68.1888H68.1875H68.1863H68.185H68.1838H68.1825H68.1813H68.18H68.1787H68.1775H68.1762H68.175H68.1737H68.1725H68.1712H68.1699H68.1687H68.1674H68.1662H68.1649H68.1637H68.1624H68.1612H68.1599H68.1586H68.1574H68.1561H68.1549H68.1536H68.1524H68.1511H68.1498H68.1486H68.1473H68.1461H68.1448H68.1435H68.1423H68.141H68.1398H68.1385H68.1373H68.136H68.1347H68.1335H68.1322H68.131H68.1297H68.1285H68.1272H68.1259H68.1247H68.1234H68.1222H68.1209H68.1196H68.1184H68.1171H68.1159H68.1146H68.1133H68.1121H68.1108H68.1096H68.1083H68.1071H68.1058H68.1045H68.1033H68.102H68.1008H68.0995H68.0982H68.097H68.0957H68.0945H68.0932H68.0919H68.0907H68.0894H68.0882H68.0869H68.0856H68.0844H68.0831H68.0819H68.0806H68.0793H68.0781H68.0768H68.0756H68.0743H68.073H68.0718H68.0705H68.0693H68.068H68.0667H68.0655H68.0642H68.063H68.0617H68.0604H68.0592H68.0579H68.0567H68.0554H68.0541H68.0529H68.0516H68.0504H68.0491H68.0479H68.0466H68.0453H68.0441H68.0428H68.0416H68.0403H68.039H68.0378H68.0365H68.0353H68.034H68.0327H68.0315H68.0302H68.029H68.0277H68.0264H68.0252H68.0239H68.0227H68.0214H68.0201H68.0189H68.0176H68.0164H68.0151H68.0138H68.0126H68.0113H68.0101H68.0088H68.0076H68.0063H68.005H68.0038H68.0025H68.0013H68H67.9987H67.9975H67.9962H67.995H67.9937H67.9924H67.9912H67.9899H67.9887H67.9874H67.9862H67.9849H67.9836H67.9824H67.9811H67.9799H67.9786H67.9774H67.9761H67.9748H67.9736H67.9723H67.9711H67.9698H67.9685H67.9673H67.966H67.9648H67.9635H67.9623H67.961H67.9597H67.9595L68.5517 44.0961V44.0847C72.7264 44.1312 75.9494 46.6038 78.291 50.277C79.4998 52.1734 80.4502 54.359 81.1483 56.619Z" fill="#8C6338" stroke="#8C6338" stroke-width="2"/>
<path d="M39.3918 114.934C33.4918 114.934 27.2117 108.224 23.6017 101.574C21.2717 97.2844 20.8817 88.7744 24.0317 82.9744C24.7359 81.4932 25.8096 80.2183 27.1495 79.2725C28.4894 78.3267 30.0503 77.7419 31.6818 77.5744C31.9716 77.5595 32.262 77.5595 32.5518 77.5744C40.5518 77.5744 46.3017 86.9445 48.2817 95.6545C50.0417 103.374 47.5917 113.104 41.2817 114.744C40.6631 114.896 40.0287 114.973 39.3918 114.974V114.934Z" fill="#FFC9C9"/>
<path d="M48.2395 95.4414C48.256 95.5138 48.2723 95.5863 48.2883 95.6588L48.2884 95.6595C49.137 99.5143 48.9933 103.52 47.8727 107.302C49.009 103.682 49.1273 99.3615 48.2866 95.6459L48.2395 95.4414ZM48.2395 95.4414C48.2554 95.5097 48.2711 95.5778 48.2866 95.6458L48.2395 95.4414ZM42.7297 83.4287C40.8642 81.0412 37.6837 77.941 33.3307 77.6044H33.4601C37.0991 77.9265 40.222 80.169 42.733 83.4184C44.1843 85.2965 45.4022 87.4773 46.3652 89.733C45.4009 87.5161 44.1885 85.4083 42.7469 83.4513L42.7385 83.4399L42.7297 83.4287ZM45.804 111.521C46.2559 110.908 46.6299 110.269 46.9372 109.653C46.3957 110.745 45.7434 111.707 44.9831 112.502C45.2836 112.186 45.5566 111.856 45.804 111.521ZM33.3719 112.914C34.9105 113.896 36.4224 114.535 37.8267 114.813C36.3465 114.533 34.8468 113.872 33.3719 112.914ZM22.7488 86.0798C24.1619 81.4967 27.0485 78.0397 31.5518 77.6127V77.6192C28.2986 77.9292 25.7606 79.8083 24.0322 83.0087C23.5089 83.9748 23.084 85.0087 22.7488 86.0798Z" fill="#8C6338" stroke="#8C6338" stroke-width="2"/>
<path d="M93.6059 177.515C93.5568 177.513 93.5076 177.512 93.4585 177.511L93.5982 177.514C93.6648 177.516 93.7314 177.517 93.7979 177.519C93.7339 177.517 93.6699 177.516 93.6059 177.515Z" fill="#8C6338" stroke="#8C6338" stroke-width="2"/>
<path d="M24.3901 390.115C23.2211 399.687 22.0509 409.329 20.9073 418.996C22.0427 409.332 23.2071 399.691 24.3901 390.115ZM5.34912 113.455C7.44415 117.456 10.0205 121.177 13.0156 124.538C10.0173 121.183 7.43689 117.466 5.337 113.469L5.33708 113.469L5.33065 113.457C-0.599632 102.53 -0.426554 86.219 5.77132 74.7602C10.5014 66.0196 18.38 60.3564 27.6012 58.907C18.3574 60.3659 10.4951 66.0684 5.79226 74.7585L5.79208 74.7589C-0.408248 86.2269 -0.6172 102.451 5.34912 113.455ZM32.3473 58.5345C31.5475 58.5359 30.7444 58.5744 29.9505 58.6312C30.748 58.5653 31.5476 58.533 32.3473 58.5345ZM35.0512 58.6567C35.0269 58.6538 35.0026 58.6509 34.9785 58.6481L35.0229 58.651L35.1604 57.7445C35.5283 55.3201 36.0933 52.9379 36.8461 50.6205C36.0055 53.2292 35.4029 55.9187 35.0512 58.6567ZM151.536 55.2331C150.274 49.2193 147.791 43.5157 144.228 38.4812C147.796 43.5087 150.281 49.2133 151.536 55.2331ZM152.122 58.6976C152.11 58.602 152.097 58.5065 152.084 58.411L152.119 58.6411L153.036 58.5824C154.458 58.4913 155.885 58.5075 157.305 58.6307L157.31 58.6312C167.496 59.4622 176.265 65.312 181.383 74.7511C187.403 85.8831 187.738 101.595 182.315 112.51C187.741 101.54 187.315 85.9418 181.353 74.8219L181.351 74.8178C176.26 65.4291 167.49 59.5274 157.284 58.6979C155.567 58.5505 153.84 58.5504 152.122 58.6976Z" fill="#8C6338" stroke="#8C6338" stroke-width="2"/>
<path d="M127.58 256.043C124.15 256.503 121.3 258.163 118.58 259.763C116.168 261.343 113.517 262.524 110.73 263.263L109.99 263.423C106.878 263.933 103.85 264.865 100.99 266.193C99.69 266.853 98.42 267.633 97.18 268.383C95.0151 269.809 92.6889 270.974 90.25 271.853C87.8705 272.555 85.4348 273.05 82.97 273.333C78.48 273.953 74.25 274.593 70.25 277.953C70.0563 278.125 69.922 278.354 69.8663 278.607C69.8107 278.86 69.8364 279.125 69.94 279.363C70.0315 279.617 70.2001 279.837 70.4224 279.991C70.6447 280.145 70.9095 280.226 71.18 280.223C79.18 279.863 85.46 279.742 92.57 281.562C98.05 282.972 103.5 284.112 109.88 282.562C113.98 281.562 117.25 281.113 120.88 281.693C122.37 281.933 123.88 282.303 125.32 282.693C126.944 283.127 128.59 283.477 130.25 283.743C132.831 284.006 135.433 283.989 138.01 283.693C141.38 283.443 149.22 283.093 151.01 282.693C150.01 272.013 149.06 261.693 148.22 251.693H147.97C147.53 251.693 147.81 251.123 148.14 250.633V250.583C145.19 253.793 137.23 255.663 132.46 255.723C130.829 255.739 129.199 255.845 127.58 256.043V256.043Z" fill="white"/>
<path d="M155.39 326.753C155.02 326.753 148.44 328.133 145.11 327.923C143.521 327.772 141.922 327.755 140.33 327.873C136.419 328.462 132.592 329.516 128.93 331.013C126.57 331.873 124.14 332.753 121.74 333.363C117.18 334.513 112.47 335.303 107.92 336.073C99.5599 337.473 90.9199 338.933 82.9199 342.653C82.6606 342.764 82.4434 342.954 82.2996 343.197C82.1558 343.44 82.0929 343.722 82.1199 344.003C82.1564 344.313 82.2888 344.603 82.4985 344.835C82.7082 345.066 82.9849 345.226 83.2899 345.293C85.723 345.77 88.201 345.982 90.6799 345.923C91.6099 345.923 92.5299 345.923 93.4799 345.983C95.7764 346.15 98.0489 346.559 100.26 347.203L102.42 347.733C105.874 348.408 109.391 348.71 112.91 348.633C116.385 348.549 119.86 348.847 123.27 349.523C125.593 350.119 127.88 350.847 130.12 351.703C133.034 352.847 136.047 353.724 139.12 354.323C141.149 354.586 143.195 354.683 145.24 354.613C149.02 354.613 152.93 354.563 156.03 356.523C156.26 356.658 156.515 356.747 156.78 356.783C156.785 356.892 156.785 357.003 156.78 357.113C156.855 357.088 156.932 357.068 157.01 357.053L157.46 356.733C157.74 356.313 157.84 352.173 157.87 347.503C157.51 340.053 157.04 332.623 156.51 325.253C156.173 325.779 155.799 326.28 155.39 326.753Z" fill="white"/>
<path d="M154.52 377.112C151.61 377.482 149.24 378.982 146.94 380.432L145.54 381.302C143.576 382.377 141.435 383.091 139.22 383.413C137.648 383.691 136.102 384.103 134.6 384.643C132.54 385.495 130.536 386.477 128.6 387.583C127.47 388.203 126.3 388.843 125.14 389.403C124.892 389.511 124.688 389.701 124.563 389.941C124.437 390.181 124.398 390.457 124.45 390.723C124.512 391.043 124.672 391.335 124.909 391.56C125.146 391.784 125.447 391.928 125.77 391.973L128.41 392.223C131.2 392.473 134.08 392.743 136.88 393.223C138.54 393.503 140.19 393.952 141.77 394.382C143.16 394.762 144.6 395.162 146.06 395.442C148.084 395.769 150.13 395.949 152.18 395.983C155.43 396.103 158.75 396.313 161.65 397.643C161.88 397.573 162.12 397.523 162.36 397.473C162.42 391.063 162.36 384.593 162.23 378.103C161.736 377.786 161.217 377.508 160.68 377.273C158.642 376.959 156.572 376.905 154.52 377.112Z" fill="white"/>
<path d="M39.08 388.382C42.405 387.31 45.8674 386.724 49.36 386.642C50.7 386.542 52.09 386.443 53.48 386.283C58.1176 385.651 62.6695 384.501 67.05 382.853C69.89 381.853 72.85 381.153 75.72 380.463C77.8 379.963 79.95 379.462 82.04 378.822C82.3431 378.735 82.6073 378.546 82.7891 378.288C82.9708 378.03 83.0593 377.718 83.04 377.403C83.0385 377.122 82.937 376.851 82.7538 376.638C82.5705 376.426 82.3174 376.285 82.04 376.242C79.496 375.698 76.9958 374.966 74.56 374.052C71.9622 373.064 69.2862 372.294 66.56 371.752C63.6249 371.351 60.6593 371.217 57.7 371.353C55.2045 371.444 52.7058 371.37 50.22 371.132C47.3575 370.674 44.5518 369.913 41.85 368.862C37.94 367.502 33.91 366.122 29.8 366.492C27.63 366.382 26.55 368.262 25.54 369.172C24.9 377.282 24.38 385.372 24 393.392C25.92 392.622 29.51 390.662 30.74 390.392C33.5708 389.954 36.3603 389.282 39.08 388.382V388.382Z" fill="white"/>
<path d="M39.15 325.812H40.02C42.4941 325.883 44.9697 325.742 47.42 325.393C50.3565 324.738 53.1757 323.639 55.78 322.133C57.8738 320.973 60.078 320.025 62.36 319.303C64.1827 318.87 66.0468 318.635 67.92 318.603C69.02 318.543 70.16 318.483 71.27 318.343C73.69 318.033 76.12 317.483 78.47 316.943L79.58 316.693C86.02 315.243 91.79 313.693 97.24 311.973C97.521 311.902 97.7673 311.733 97.9343 311.496C98.1013 311.26 98.1778 310.971 98.15 310.683C98.1216 310.367 97.9845 310.07 97.762 309.844C97.5395 309.618 97.2454 309.476 96.93 309.443C95.83 309.293 94.71 309.053 93.63 308.823C91.8582 308.379 90.0451 308.121 88.22 308.053C87.03 308.053 85.9 308.143 84.79 308.233C82.8297 308.491 80.8425 308.464 78.89 308.153C76.99 307.718 75.1223 307.154 73.3 306.463C70.9616 305.518 68.5222 304.847 66.03 304.463C63.5093 304.233 60.9739 304.213 58.45 304.403C55.2793 304.678 52.0862 304.544 48.95 304.003L46.55 303.453C42.84 302.593 37.02 300.592 33.23 300.562C33.23 300.822 33.17 301.083 33.15 301.343C33.31 301.773 33.53 302.213 33.05 302.243L32.72 305.243C32.72 305.963 32.65 306.713 32.58 307.473C32.43 309.143 32.19 310.823 31.94 312.473C31.4933 316.573 31.0533 320.696 30.62 324.843C31.03 324.843 30.9 325.043 30.62 325.283L30.47 326.793C32.54 326.543 36.31 325.963 37.13 325.913C37.95 325.863 38.51 325.812 39.15 325.812Z" fill="white"/>
<path d="M55.62 253.803C56.97 253.533 58.36 253.383 59.7 253.233C61.7258 253.078 63.7337 252.743 65.7 252.233C68.1151 251.435 70.4571 250.432 72.7 249.233C76.04 247.583 79.19 246.023 83.18 245.683C90.31 245.083 95.74 243.793 100.81 241.473C101.04 241.372 101.227 241.193 101.338 240.968C101.45 240.743 101.479 240.487 101.42 240.243C101.369 239.958 101.224 239.699 101.008 239.507C100.793 239.315 100.518 239.2 100.23 239.183C98.12 239.123 95.98 238.953 93.91 238.783C89.4086 238.257 84.8614 238.257 80.36 238.783L79.69 238.893C77.7723 239.343 75.7794 239.371 73.85 238.973C72.9846 238.726 72.1468 238.391 71.35 237.973C70.8 237.703 70.24 237.423 69.65 237.193C67.2513 236.319 64.6983 235.948 62.15 236.103C61.05 236.103 59.96 236.203 58.88 236.263C56.4684 236.483 54.0417 236.483 51.63 236.263L50.73 236.163C49.9551 236.193 49.1845 236.033 48.4867 235.694C47.7889 235.356 47.1855 234.85 46.73 234.223C46.7217 234.126 46.7217 234.029 46.73 233.933C46.7361 233.784 46.7128 233.637 46.6613 233.497C46.6098 233.358 46.5312 233.231 46.43 233.123C44.53 231.493 42.55 231.983 40.64 232.463C40.1 232.593 39.55 232.733 38.99 232.823C38.99 232.573 38.04 232.523 37.15 232.623C36.73 243.183 35.88 254.383 34.78 266.053C38.9 265.453 44.78 260.273 47.44 258.053C49.7199 255.905 52.552 254.433 55.62 253.803V253.803Z" fill="white"/>
<path d="M130.98 33.0975C130.084 33.0156 129.206 32.7925 128.379 32.4366C127.97 32.2898 127.571 32.1534 127.204 32.0485C126.837 31.9436 126.658 31.9016 126.365 31.8282C125.885 31.7223 125.415 31.5785 124.959 31.3981C123.836 30.8841 123.113 29.835 121.738 27.7789C124.466 25.5549 126.721 21.1069 128.232 17.8129C129.281 15.484 130.236 13.0607 131.127 10.7108C131.62 9.431 132.113 8.15116 132.627 6.87132C132.879 6.24189 133.099 5.53903 133.32 4.77322C133.649 3.44141 134.187 2.17025 134.914 1.00714C135.17 1.10334 135.394 1.26639 135.565 1.47921C136.677 2.74856 137.789 6.45171 136.771 16.9107L136.687 17.7605C136.352 21.3797 135.313 32.4471 131.295 33.0451L130.98 33.0975Z" fill="white"/>
<path d="M135.145 2.76955C135.806 4.10184 136.624 7.62664 135.722 16.8478V17.0681L135.659 17.729C134.526 29.7721 132.344 31.8911 131.138 32.08H130.981C130.208 31.9887 129.452 31.7874 128.736 31.482C128.337 31.3352 127.917 31.1883 127.508 31.0729L126.627 30.8421C126.21 30.7483 125.8 30.6257 125.4 30.4749C124.686 30.1497 124.172 29.5203 123.134 27.9782C125.704 25.4919 127.77 21.3902 129.197 18.285C130.246 15.9246 131.211 13.4803 132.114 11.12C132.596 9.86112 133.1 8.56031 133.603 7.30145C133.876 6.61957 134.117 5.87474 134.338 5.20335C134.564 4.40478 134.837 3.62015 135.156 2.85347L135.145 2.76955ZM134.526 6.10352e-05C132.953 1.51069 132.428 4.54245 131.662 6.56712C130.194 10.1968 128.914 13.9105 127.288 17.4667C125.893 20.509 123.281 25.8591 120.312 27.59C122.158 30.349 122.976 31.7233 124.508 32.4366C125.289 32.7232 126.088 32.958 126.9 33.1395C128.201 33.6667 129.566 34.0195 130.96 34.1886C131.12 34.2046 131.282 34.2046 131.442 34.1886C136.53 33.3913 137.401 21.2957 137.736 17.3094C138.03 14.2461 139.509 0.146928 134.453 6.10352e-05L134.526 6.10352e-05Z" fill="#8C6338"/>
<path d="M177.296 80.9027C175.114 80.9027 171.306 77.2415 169.586 73.5593C171.257 71.61 173.104 69.8191 175.104 68.2092C176.741 66.8657 178.296 65.426 179.761 63.8976L181.23 62.3555C182.279 61.233 183.412 60.079 184.377 58.8412C184.893 58.1355 185.349 57.3881 185.741 56.6067C186.198 55.5659 186.849 54.6222 187.661 53.8267C187.873 53.6461 188.131 53.5265 188.406 53.4805C188.72 53.7323 189.318 55.9668 187.923 63.0059C187.027 67.7436 185.088 72.2227 182.248 76.119L181.964 76.4966C180.978 77.8394 178.922 80.6194 177.538 80.8502C177.459 80.8766 177.378 80.8942 177.296 80.9027V80.9027Z" fill="white"/>
<path d="M187.755 55.3164C187.714 62.5275 185.523 69.5625 181.461 75.521L181.177 75.9092C179.331 78.4059 178.03 79.7277 177.422 79.8536H177.328C175.827 79.8536 172.575 76.9163 170.855 73.7272C172.387 72.0395 174.045 70.4718 175.817 69.0379C177.486 67.6669 179.072 66.1992 180.569 64.6424C181.041 64.1284 181.524 63.5934 182.017 63.1108C183.066 61.9778 184.241 60.8029 185.258 59.523C185.811 58.7681 186.298 57.968 186.717 57.1312C187.033 56.5076 187.383 55.9017 187.766 55.3164H187.755ZM188.437 52.463C187.95 52.5002 187.486 52.683 187.105 52.9875C185.667 53.9736 184.713 56.806 183.59 58.2327C182.195 59.9846 180.538 61.5687 179.006 63.2262C175.733 66.772 171.212 69.6254 168.379 73.4544C169.953 77.252 174.296 81.9622 177.307 81.9622H177.747C179.688 81.637 181.943 78.3745 183.118 76.8219C186.038 72.8065 188.037 68.1966 188.972 63.3206C189.255 61.8939 191.154 52.5049 188.437 52.5049V52.463Z" fill="#8C6338"/>
<path d="M52.5327 33.0872C48.4728 32.741 46.679 21.8099 46.081 18.2117L45.9447 17.3829C44.2032 7.00785 45.053 3.24175 46.0705 1.89897C46.2315 1.6794 46.4441 1.50286 46.6895 1.38495C47.497 2.491 48.1204 3.72024 48.5358 5.02515C48.819 5.74899 49.0813 6.43087 49.3855 7.04981C49.9835 8.27719 50.5605 9.52557 51.1375 10.7634C52.1865 13.0504 53.2985 15.4002 54.5259 17.6557C56.2568 20.8028 58.8165 25.1249 61.6909 27.0971C60.474 29.2477 59.8236 30.3492 58.7326 30.9366C58.2916 31.1533 57.8315 31.3289 57.3583 31.4612L56.54 31.7339C56.1833 31.8703 55.7952 32.0381 55.3966 32.2165C54.5517 32.6554 53.635 32.9396 52.69 33.0557L52.5327 33.0872Z" fill="white"/>
<path d="M46.5844 3.12634C46.9511 3.87026 47.2768 4.6337 47.56 5.41326C47.8327 6.11612 48.116 6.85046 48.4412 7.51136C49.0392 8.72826 49.6266 9.9976 50.1931 11.2145C51.2422 13.5119 52.3541 15.8828 53.6025 18.1592C55.239 21.1595 57.5889 25.1039 60.327 27.4118C59.3933 29.0274 58.9212 29.6778 58.2289 30.0554C57.838 30.2345 57.4348 30.3852 57.0224 30.5065C56.7287 30.6009 56.4349 30.6953 56.1622 30.8002C55.8894 30.9051 55.3544 31.1254 54.9663 31.2933C54.2494 31.6661 53.4772 31.9211 52.6793 32.0486H52.6164C49.784 31.8073 47.9481 23.1842 47.1089 18.0543L47.004 17.3934V17.2151C45.4619 8.08834 46.0284 4.51108 46.6054 3.13683L46.5844 3.12634ZM47.0355 0.241458C42 0.745001 44.4548 14.7078 44.9374 17.7501C45.5983 21.684 47.2977 33.7061 52.4276 34.1467H52.6793C54.0536 34.1467 55.6377 33.234 56.8755 32.762C57.6705 32.5285 58.4486 32.2411 59.2045 31.9017C60.7151 31.0835 61.4284 29.6568 63.0755 26.7719C59.9913 25.2088 57.0224 20.0999 55.4069 17.1521C53.5396 13.7322 52.0185 10.113 50.298 6.58819C49.3434 4.62647 48.651 1.63668 46.983 0.230957L47.0355 0.241458Z" fill="#8C6338"/>
<path d="M12.5639 80.9026C12.4768 80.913 12.3888 80.913 12.3017 80.9026C10.9169 80.6718 8.86084 77.8918 7.87473 76.5491L7.59147 76.1714C4.75637 72.2889 2.82124 67.8238 1.92658 63.1003C0.520854 56.0192 1.11881 53.7847 1.465 53.512C1.71917 53.5995 1.95941 53.7231 2.17834 53.8791C2.98749 54.6727 3.63892 55.6124 4.09812 56.6486C4.48358 57.4368 4.94005 58.1882 5.46187 58.8936C6.44797 60.1314 7.55997 61.2854 8.60901 62.4079L10.0777 63.95C11.5433 65.4784 13.0987 66.9181 14.7355 68.2616C16.7354 69.8715 18.5826 71.6624 20.2535 73.6117C18.554 77.2414 14.746 80.9026 12.5639 80.9026Z" fill="white"/>
<path d="M2.10473 55.3059C2.485 55.8963 2.83513 56.5055 3.15378 57.1313C3.57191 57.968 4.05964 58.7681 4.61191 59.5231C5.66096 60.8029 6.76249 61.9779 7.8535 63.1108C8.34655 63.6249 8.82912 64.1599 9.30119 64.6424C10.7979 66.1993 12.3847 67.667 14.0533 69.0379C15.8248 70.4719 17.4837 72.0396 19.0154 73.7272C17.295 76.8743 14.0429 79.8537 12.5427 79.8537H12.4483C11.8084 79.7278 10.539 78.406 8.69272 75.9092L8.40946 75.5211C4.34089 69.5619 2.14876 62.5215 2.11517 55.3059H2.10473ZM1.44383 52.463C-1.27321 52.463 0.625557 61.852 0.9088 63.2787C1.8438 68.1547 3.8425 72.7646 6.76251 76.7799C7.91646 78.3325 10.1929 81.5951 12.1336 81.9203C12.2803 81.9306 12.4275 81.9306 12.5742 81.9203C15.585 81.9203 19.9176 77.2101 21.5016 73.4125C18.6692 69.5835 14.1583 66.7301 10.8748 63.1843C9.34315 61.5268 7.72762 59.9427 6.29043 58.1908C5.16794 56.7746 4.19229 53.9946 2.77607 52.9455C2.39462 52.6411 1.93047 52.4583 1.44383 52.421V52.463Z" fill="#8C6338"/>
</svg>
