<svg width="69" height="143" viewBox="0 0 69 143" fill="none" xmlns="http://www.w3.org/2000/svg">
<path d="M9.39799 39.9518C10.354 40.5693 11.1395 41.4173 11.6822 42.4178C12.2248 43.4183 12.5072 44.5391 12.5034 45.6773C12.2976 78.1168 9.44847 110.475 6.73903 142.833H63.0705C60.5823 103.259 57.803 59.0576 56.9685 45.852C56.8948 44.6722 57.1299 43.4936 57.6507 42.4324C58.1714 41.3711 58.9597 40.464 59.938 39.8004C60.899 39.176 61.8244 38.4982 62.7095 37.7702C66.0555 34.6959 68.2138 28.7142 67.6238 24.157C67.2045 20.9119 65.5043 18.3345 62.8415 16.9409C61.5064 16.2274 60.0155 15.8553 58.5017 15.8579C56.8253 15.8702 55.1742 16.2686 53.6767 17.0224C54.5695 13.4435 54.3716 9.23184 52.9897 6.15364C51.6427 3.17248 49.271 1.2161 46.3131 0.645485C45.7386 0.536109 45.1551 0.480235 44.5703 0.478574C39.361 0.478574 35.6423 4.74846 33.5617 9.30171C31.485 4.75622 27.7624 0.494098 22.5609 0.494098C21.976 0.4954 21.3925 0.551283 20.818 0.661015C17.8602 1.23163 15.4884 3.18801 14.1415 6.16529C12.8644 8.98729 12.5888 12.7875 13.2603 16.1685C12.3877 15.9194 11.4855 15.7889 10.5781 15.7803C9.11878 15.8007 7.68548 16.1694 6.39744 16.8555C3.71517 18.2219 1.98003 20.7567 1.51034 23.994C0.854333 28.5434 2.9233 34.5562 6.22664 37.6848C7.23485 38.5067 8.29408 39.2638 9.39799 39.9518V39.9518Z" fill="white"/>
<path d="M63.0707 142.833C60.9746 109.795 58.6921 73.4975 57.5121 54.745C57.4771 54.7915 57.4461 54.842 57.415 54.8925L56.5572 54.5548L56.1302 54.384L55.8701 54.7721C55.6372 55.1099 55.4004 55.4437 55.1636 55.7775C55.0745 55.9043 54.944 55.996 54.7945 56.0371C54.6451 56.0782 54.486 56.066 54.3446 56.0027L53.9564 55.828L53.5333 55.6378L53.2577 56.0259L52.5629 56.9576C52.4686 57.0827 52.3334 57.1707 52.1808 57.2061C52.0283 57.2416 51.8681 57.2223 51.7283 57.1516L51.3091 56.942L50.8899 56.7285L50.5987 57.0973L49.9078 57.959C49.8099 58.0821 49.6715 58.1665 49.5173 58.1971C49.363 58.2276 49.2029 58.2024 49.0655 58.126L48.6113 57.8736L48.1998 57.6407L47.8932 58.0056C47.668 58.2696 47.4429 58.5374 47.2177 58.782C47.1145 58.9031 46.9716 58.9837 46.8145 59.0093C46.6574 59.0349 46.4963 59.0039 46.3599 58.9217L45.8786 58.6267L45.471 58.3783L45.1527 58.7315L44.4889 59.4613C44.3823 59.5799 44.2365 59.6562 44.0783 59.6761C43.92 59.6961 43.7599 59.6584 43.6272 59.5699L43.1187 59.2322L42.7305 58.9644L42.3967 59.3099C42.1793 59.535 41.9658 59.7602 41.7484 59.9814C41.6372 60.0956 41.4887 60.1661 41.33 60.1804C41.1712 60.1946 41.0126 60.1516 40.8828 60.059L40.3394 59.6709L39.9512 59.3875L39.6057 59.7252C39.4 59.9309 39.1904 60.1134 38.9808 60.3346C38.8652 60.446 38.7136 60.5123 38.5534 60.5216C38.3932 60.5309 38.235 60.4824 38.1074 60.3851L37.5406 59.9465L37.1525 59.6515L36.7953 59.9775L36.1859 60.5287C36.0666 60.6356 35.913 60.6963 35.7528 60.6999C35.5927 60.7034 35.4365 60.6496 35.3125 60.5481L34.7342 60.0474L34.346 59.7369L33.9578 60.0513L33.3756 60.5481C33.2542 60.653 33.0992 60.7108 32.9389 60.7108C32.7785 60.7108 32.6235 60.653 32.5022 60.5481L31.8889 60.0047L31.5279 59.6825L31.1397 59.9853L30.5807 60.4278C30.4545 60.5267 30.297 60.5771 30.1368 60.57C29.9767 60.5629 29.8243 60.4987 29.7073 60.389L29.0746 59.7873L28.7253 59.4535L28.3371 59.7407L27.8053 60.1289C27.6765 60.224 27.5179 60.2696 27.3583 60.2575C27.1987 60.2454 27.0487 60.1763 26.9358 60.0629L26.2837 59.403L25.9459 59.0576L25.5578 59.3332L25.057 59.6748C24.925 59.7649 24.7651 59.8046 24.6062 59.7868C24.4474 59.769 24.3002 59.6948 24.1914 59.5777C23.9702 59.337 23.745 59.1003 23.5238 58.8557L23.1977 58.5025L22.8095 58.7587L22.3398 59.0576C22.205 59.1419 22.0445 59.1753 21.8873 59.1518C21.73 59.1283 21.5863 59.0495 21.482 58.9295C21.2529 58.6694 21.0278 58.4093 20.8027 58.1531L20.4921 57.7921L19.6459 58.2851C19.5077 58.3657 19.3454 58.3945 19.1879 58.3666C19.0348 58.3355 18.8974 58.2517 18.7997 58.1298C18.5668 57.8503 18.3378 57.567 18.1088 57.2797L17.8099 56.911L16.9947 57.3457C16.8543 57.4203 16.6919 57.4423 16.5367 57.4078V57.4078C16.3819 57.3737 16.2443 57.2857 16.1485 57.1594L15.442 56.2278L15.1587 55.8396L14.4367 56.189C14.3419 56.2358 14.2376 56.2602 14.1319 56.2602C14.0262 56.2602 13.922 56.2358 13.8272 56.189L13.6952 56.1191C13.6064 56.069 13.5296 56.0001 13.4701 55.9173C13.2566 55.6222 13.047 55.3272 12.8374 55.0283L12.5696 54.6402L12.3716 54.7217C11.7583 84.1296 9.18857 113.475 6.73145 142.837L63.0707 142.833Z" fill="#FBB03B"/>
<path d="M10.9352 86.1985C11.1914 85.8841 11.2768 85.5309 11.5252 85.2708C11.5789 85.235 11.6296 85.1947 11.6766 85.1505C13.7572 83.0854 15.7252 81.7501 17.8873 80.9504C18.5162 80.7175 19.1761 80.5312 19.8282 80.3527C20.7876 80.1147 21.7242 79.7926 22.6269 79.39C23.9428 78.7573 24.8046 77.9227 25.185 76.9018C25.3248 76.4554 25.3788 75.9865 25.3441 75.5199C25.3195 75.1377 25.3549 74.7539 25.4489 74.3826C25.6391 73.7809 26.2253 73.4199 26.7804 73.0706C27.0503 72.9092 27.3084 72.7289 27.5528 72.531C28.0885 72.0613 29.2685 70.8308 28.6164 69.5615C27.9643 68.2922 25.9652 68.0282 24.6221 67.8186L24.234 67.7565C22.1643 67.3923 20.0383 67.5132 18.0232 68.1097C16.5909 68.5367 15.4535 68.8356 13.9163 68.7502C13.3425 68.6931 12.7639 68.7049 12.1929 68.7851C12.1929 68.7502 12.1929 68.7192 12.1929 68.6842C12.0983 68.7253 12.0063 68.772 11.9173 68.824C11.828 68.8822 11.6882 68.9909 11.5291 69.1229C11.2936 74.9066 10.9999 80.6904 10.6479 86.4741C10.753 86.3925 10.8493 86.3001 10.9352 86.1985V86.1985Z" fill="#8C6338"/>
<path d="M7.47276 138.695V138.52C7.52736 138.469 7.57092 138.407 7.60084 138.338C7.91914 137.608 9.00604 137.228 9.9687 136.89C10.3444 136.767 10.7125 136.622 11.0711 136.455L11.2147 136.385C12.0881 135.954 13.1556 135.415 13.4933 134.355C13.7883 133.377 13.3147 132.651 12.814 132.073C12.7025 131.956 12.5817 131.848 12.453 131.75C12.2518 131.617 12.0843 131.439 11.9639 131.23C11.8793 130.897 11.8728 130.548 11.9448 130.211C12.0169 129.875 12.1655 129.559 12.3792 129.289C12.6361 128.962 12.9122 128.649 13.206 128.354C13.5618 127.999 13.8901 127.617 14.1881 127.213L14.4521 126.825C15.1547 125.804 15.7136 124.992 16.8238 124.336C18.1255 123.643 19.5225 123.146 20.9695 122.861L22.2077 122.578C24.3349 122.104 26.532 121.611 28.3331 120.327C29.6218 119.407 30.4564 118.199 30.6233 117.008C30.6853 116.554 30.6506 116.092 30.5215 115.652C30.3923 115.213 30.1717 114.806 29.8741 114.457C29.1053 113.557 28.0802 112.913 26.9357 112.61C26.0336 112.355 25.1116 112.178 24.1797 112.078C23.8386 112.051 23.4959 112.051 23.1549 112.078C22.5882 112.109 21.9399 112.144 21.6022 111.961C20.7637 111.496 20.8996 111.096 21.1053 110.486C21.3094 110.042 21.3479 109.54 21.214 109.07C20.8647 108.099 19.8399 107.812 18.885 107.657C18.6172 107.618 18.2911 107.579 17.9301 107.54C16.5172 107.381 14.3822 107.152 14.0173 106.209C13.8427 105.762 14.0872 105.153 14.7393 104.404C15.0475 104.074 15.3727 103.76 15.7136 103.464C16.9985 102.3 18.5939 100.852 18.0427 99.2838C17.3673 97.2964 14.5491 97.471 12.2822 97.6108C11.5682 97.6761 10.8497 97.6761 10.1356 97.6108C10.0944 97.605 10.0526 97.605 10.0114 97.6108C10.0114 97.5797 10.0114 97.5526 10.0114 97.5215H9.92212C8.98663 111.084 7.85705 124.577 6.73911 137.891C6.70418 138.28 6.66924 138.714 6.63818 139.126H6.65759C6.95531 139.038 7.23247 138.891 7.47276 138.695V138.695Z" fill="#8C6338"/>
<path d="M59.8839 94.0629V94.1289C58.8979 95.6544 57.2482 96.2716 54.5465 96.1202L53.087 96.0309C51.3907 95.9222 49.6439 95.8136 47.8933 95.8757C44.9121 95.9843 41.4147 96.2289 38.0997 97.2265L37.7426 97.3352C36.252 97.7699 33.7599 98.4997 33.298 100.114C33.2266 100.341 33.2063 100.581 33.2385 100.817C33.2707 101.052 33.3547 101.278 33.4843 101.477C34.1831 102.564 36.1666 103.065 37.7038 103.298L38.4801 103.406C39.1284 103.492 39.7999 103.585 40.4481 103.736C41.8145 104.062 42.4938 104.575 43.1382 105.766C43.7825 106.958 44.6908 107.579 46.1737 107.816C47.426 107.968 48.6912 107.982 49.9467 107.859C50.3853 107.831 50.824 107.804 51.2548 107.789C54.3292 107.684 56.5379 108.487 58.2225 110.32C59.3055 111.484 60.3303 112.874 59.7325 114.135C59.3715 114.912 58.4826 115.257 57.6014 115.56C56.9842 115.769 56.3399 115.948 55.7188 116.099C54.6514 116.334 53.6108 116.677 52.6134 117.124C51.977 117.414 51.4141 117.844 50.9666 118.382C50.519 118.92 50.1983 119.551 50.0282 120.23C49.9177 120.804 49.9423 121.397 50.0999 121.961C50.2575 122.525 50.5439 123.044 50.9365 123.479C51.8099 124.507 53.0754 125.284 54.8182 125.85L55.1676 125.963C56.2467 126.304 57.7256 126.77 57.8188 128.016C57.8615 128.606 57.5704 128.894 57.2327 129.227C56.9765 129.45 56.7679 129.722 56.6194 130.027C56.0138 131.413 57.4345 132.441 58.1177 132.938C58.2574 133.037 58.4011 133.13 58.5486 133.218C58.7284 133.324 58.9021 133.441 59.0687 133.567C59.7636 134.13 60.0819 134.891 60.4196 135.698L60.5438 135.997C60.773 136.496 61.0322 136.981 61.3201 137.449C61.7228 138.08 62.0523 138.754 62.3022 139.46C62.3022 139.51 62.3022 139.564 62.3022 139.615L62.3993 139.72C62.6529 139.958 62.9408 140.157 63.2532 140.31L60.3536 93.6631C60.3012 93.6991 60.2519 93.7393 60.2061 93.7834L59.8839 94.0629Z" fill="#8C6338"/>
<path d="M57.8417 68.2999C57.6545 68.4812 57.4806 68.6758 57.3215 68.8822C56.6187 69.8137 55.6347 70.4942 54.5151 70.8231C52.8173 71.4007 51.2264 72.2545 49.8065 73.35C49.5629 73.5169 49.3697 73.7473 49.2479 74.0162C49.126 74.2852 49.0803 74.5824 49.1156 74.8756C49.2514 75.9625 50.4664 77.1076 51.5611 77.5928C51.6984 77.6489 51.8399 77.6943 51.9842 77.7286C52.45 77.8645 53.2341 78.0857 53.3738 78.4739C53.3968 78.5672 53.3968 78.6647 53.3738 78.758C53.3508 78.8513 53.3055 78.9376 53.2419 79.0096C53.1056 79.1364 52.9382 79.2248 52.7566 79.2658C52.5563 79.3112 52.3674 79.397 52.2016 79.5181C51.8134 79.9063 51.4951 80.5079 52.2016 81.3309C52.7799 81.983 53.5718 82.0645 54.3326 82.1421C54.8864 82.1518 55.4303 82.2914 55.9203 82.5497C56.3487 82.8512 56.714 83.2336 56.9955 83.6754C57.154 83.8998 57.3238 84.1162 57.504 84.3237C57.7284 84.5702 57.9668 84.8035 58.2182 85.0224C58.7539 85.5076 59.2585 85.9618 59.4681 86.6915C59.4905 86.7682 59.5304 86.8386 59.5846 86.8972C59.5846 86.9632 59.5846 87.0331 59.604 87.0991C59.6968 87.2088 59.8085 87.3008 59.9339 87.3708L58.7112 67.9156C58.4278 68.0204 58.1367 68.1214 57.8417 68.2145C57.8533 68.2611 57.8378 68.2611 57.8417 68.2999Z" fill="#8C6338"/>
<path d="M44.8651 19.631C42.5361 19.631 39.5316 18.2607 38.3244 16.6421C38.1014 16.3917 37.9419 16.0913 37.8595 15.7664C37.7771 15.4414 37.7741 15.1013 37.8509 14.7749C38.9688 11.0097 41.5462 6.96105 44.5701 6.96105C44.7955 6.96203 45.0203 6.98412 45.2416 7.02704C46.3712 7.24441 47.2446 8.00911 47.8268 9.30172C49.1039 12.1276 48.6032 16.448 47.3727 18.5557C46.8525 19.4446 45.723 19.631 44.8651 19.631Z" fill="#FFC9C9"/>
<path d="M44.5702 7.34144C44.7721 7.34177 44.9736 7.36127 45.1718 7.39967C46.1733 7.58988 46.9535 8.2847 47.5009 9.45698C48.6964 12.1004 48.2578 16.3393 47.0661 18.3849C46.6352 19.1186 45.6415 19.27 44.8846 19.27C42.6526 19.27 39.7957 17.9735 38.6467 16.4363C38.458 16.2298 38.3221 15.9808 38.2504 15.7104C38.1788 15.4401 38.1736 15.1564 38.2352 14.8836C38.7741 13.0169 39.6431 11.2618 40.801 9.70153C41.6395 8.62629 42.9787 7.34533 44.5896 7.34533L44.5702 7.34144ZM44.5896 6.58839C41.2358 6.58839 38.6079 10.9592 37.5093 14.6701C36.733 17.2825 41.5036 20.0114 44.8846 20.0114C46.1345 20.0114 47.1942 19.6232 47.7182 18.7498C49.6591 15.462 49.6785 7.49283 45.331 6.65826C45.0865 6.61229 44.8383 6.5889 44.5896 6.58839V6.58839Z" fill="#8C6338"/>
<path d="M22.262 19.6465C21.408 19.6465 20.2785 19.4602 19.7583 18.5713C18.5162 16.4635 18.0271 12.1431 19.3042 9.31724C19.8864 8.02463 20.7559 7.25993 21.8894 7.04255C22.1106 6.99946 22.3355 6.97736 22.5609 6.97656C25.5848 6.97656 28.1622 11.0252 29.2763 14.7905C29.3539 15.1165 29.3517 15.4565 29.2699 15.7815C29.1882 16.1065 29.0292 16.407 28.8066 16.6576C27.5955 18.2762 24.5988 19.6465 22.262 19.6465Z" fill="#FFC9C9"/>
<path d="M22.5605 6.60005V7.35699C24.1714 7.35699 25.5106 8.63795 26.349 9.71319C27.5056 11.2737 28.3733 13.0288 28.911 14.8953C28.9726 15.1681 28.9674 15.4517 28.8957 15.7221C28.8241 15.9925 28.6882 16.2415 28.4995 16.448C27.335 18.0007 24.4936 19.2816 22.2577 19.2816C21.4814 19.2816 20.5109 19.1302 20.0801 18.3966C18.8884 16.3703 18.4497 12.1315 19.6414 9.48805C20.1732 8.32353 20.9496 7.62094 21.9705 7.43074C22.1687 7.39233 22.3702 7.37284 22.5721 7.37251V6.61558L22.5605 6.60005ZM22.5721 6.61558C22.3219 6.61549 22.0722 6.64019 21.8268 6.68933C17.4832 7.5239 17.5104 15.4892 19.4435 18.777C19.9636 19.6659 21.0233 20.0386 22.2732 20.0386C25.6581 20.0386 30.4248 17.3214 29.6485 14.6973C28.55 10.9864 25.922 6.61558 22.5721 6.61558V6.61558Z" fill="#8C6338"/>
<path d="M12.4648 34.9948C12.0496 35.0072 11.6415 34.8861 11.3003 34.6493C9.30506 33.2286 7.09637 29.4828 7.1119 26.3852C7.1119 24.9683 7.601 23.9125 8.54425 23.2526C9.16739 22.821 9.90959 22.5944 10.6675 22.6044C13.4352 22.6044 16.5872 25.143 18.4504 27.3129C19.1918 28.1824 18.7609 29.4983 18.4504 30.2009C17.3208 32.6658 14.4095 34.9948 12.4648 34.9948Z" fill="#FFC9C9"/>
<path d="M10.6864 22.9848C12.3361 22.9848 15.2901 24.1842 18.182 27.5613C18.7875 28.2678 18.3994 29.4206 18.1121 30.0456C17.0291 32.394 14.2847 34.6144 12.4642 34.6144C12.1339 34.6248 11.8089 34.5296 11.5365 34.3427C9.6228 32.9763 7.49173 29.2964 7.50726 26.3851C7.50726 25.1003 7.94202 24.1493 8.78047 23.5631C9.33945 23.1753 10.0062 22.973 10.6864 22.9848ZM10.6864 22.2084C9.85472 22.1989 9.04073 22.4486 8.35736 22.9226C4.73183 25.4613 8.00413 32.7201 11.1095 34.9366C11.509 35.2171 11.9878 35.3626 12.4759 35.3519C15.8607 35.3519 20.8798 29.5293 18.7642 27.0489C16.6487 24.5685 13.4774 22.2084 10.698 22.2084H10.6864Z" fill="#8C6338"/>
<path d="M56.6074 34.9948C54.6665 34.9948 51.7513 32.6658 50.6179 30.2009C50.2918 29.4983 49.861 28.1824 50.6179 27.3129C52.4772 25.143 55.6292 22.6044 58.3813 22.6044C59.1393 22.5944 59.8815 22.821 60.5046 23.2526C61.4518 23.9125 61.9331 24.9683 61.937 26.3852C61.937 29.4905 59.7438 33.2286 57.7486 34.6493C57.4136 34.8839 57.0123 35.0049 56.6035 34.9948H56.6074Z" fill="#FFC9C9"/>
<path d="M58.3853 22.9848C59.0655 22.973 59.7323 23.1753 60.2912 23.5631C61.1297 24.1493 61.5606 25.1158 61.5644 26.3851C61.5644 29.2848 59.4489 32.9841 57.5352 34.3427C57.2628 34.5296 56.9378 34.6248 56.6075 34.6144C54.787 34.6144 52.0426 32.394 50.9596 30.0456C50.6723 29.4206 50.2842 28.2678 50.8897 27.5613C53.7816 24.1842 56.7356 22.9848 58.3853 22.9848V22.9848ZM58.3853 22.2084C55.606 22.2084 52.3958 24.6228 50.3191 27.0489C48.2424 29.475 53.2226 35.3519 56.6075 35.3519C57.0956 35.3626 57.5743 35.2171 57.9739 34.9366C61.0792 32.7201 64.3515 25.4613 60.726 22.9226C60.0426 22.4486 59.2286 22.1989 58.397 22.2084H58.3853Z" fill="#8C6338"/>
<path d="M45.0357 47.2106C43.7975 47.2106 42.501 46.5856 40.9988 45.8636C39.1433 44.9669 37.0394 43.9538 34.5357 43.9538C32.032 43.9538 29.9281 44.9669 28.0727 45.8636C26.5704 46.5856 25.2739 47.2106 24.0357 47.2106C22.7974 47.2106 21.7571 46.574 20.7013 45.2076C19.7464 43.9654 20.6081 38.6087 23.2011 33.2674C24.6451 30.294 28.6355 23.3729 34.5396 23.3147H34.6056C40.3039 23.3147 44.3099 30.1854 45.7539 33.1432C48.409 38.5427 49.3251 43.9654 48.3701 45.2076C47.3143 46.574 46.2585 47.2106 45.0357 47.2106Z" fill="#FFC9C9"/>
<path d="M34.6094 23.6951C40.0943 23.6951 43.9915 30.4183 45.4122 33.3062C48.1294 38.8532 48.8204 44.0043 48.0673 44.9786C46.7864 46.6399 45.7383 46.834 45.0357 46.834C43.8712 46.834 42.6213 46.2246 41.154 45.522C39.2597 44.6098 37.1131 43.5812 34.524 43.5812C31.9349 43.5812 29.7883 44.6176 27.8979 45.522C26.4384 46.2246 25.1807 46.834 24.0162 46.834C23.3292 46.834 22.2656 46.6399 20.9846 44.9786C20.2316 44.0043 20.8604 38.9037 23.5194 33.4305C24.9323 30.523 28.8373 23.7495 34.524 23.6951H34.59H34.6094ZM34.59 22.9382H34.5202C24.385 23.0352 18.1703 42.5603 20.3868 45.4521C21.6134 47.0398 22.7974 47.6026 24.0201 47.6026C26.9663 47.6026 30.1222 44.342 34.5007 44.342C38.8793 44.342 42.0546 47.6026 44.9814 47.6026C46.2041 47.6026 47.388 47.0398 48.6147 45.4521C50.8272 42.5797 44.3991 22.9382 34.5512 22.9382H34.59Z" fill="#8C6338"/>
<path d="M9.19219 40.2662C10.0963 40.8487 10.8386 41.6501 11.3502 42.596C11.8619 43.542 12.1263 44.6018 12.119 45.6773C11.921 76.4709 9.29699 107.711 6.76223 137.922C6.62508 139.553 6.48792 141.19 6.35077 142.833H7.12711C7.26168 141.215 7.39107 139.599 7.51529 137.985C10.0539 107.758 12.678 76.502 12.8759 45.6812C12.8838 44.4791 12.588 43.2946 12.016 42.2373C11.4439 41.1801 10.6142 40.2845 9.60365 39.6334C7.52305 38.2787 6.7467 37.6926 6.46722 37.4092C3.24539 34.3582 1.22302 28.4813 1.86351 24.0484C2.31379 20.943 3.97905 18.5014 6.55263 17.1894C8.59816 16.166 10.9539 15.9498 13.1515 16.5838C13.2134 16.5979 13.2777 16.5966 13.3389 16.5801C13.4001 16.5636 13.4563 16.5323 13.5027 16.489C13.549 16.4458 13.5841 16.3918 13.6047 16.3318C13.6254 16.2719 13.631 16.2078 13.6212 16.1452C12.9458 12.7021 13.2641 9.04552 14.4713 6.3749C15.7678 3.50631 18.0425 1.62756 20.8761 1.08412C21.4277 0.979259 21.9878 0.925977 22.5492 0.924966C28.6279 0.924966 32.0283 6.9261 33.2045 9.50744C33.2357 9.57291 33.2845 9.62833 33.3456 9.66744C33.4067 9.70655 33.4775 9.72777 33.55 9.7287C33.6218 9.72705 33.6918 9.70549 33.7521 9.66643C33.8124 9.62736 33.8607 9.57233 33.8916 9.50744C35.0561 6.92222 38.4681 0.909442 44.5585 0.909442C45.1187 0.90833 45.6777 0.961626 46.2276 1.06859C49.0652 1.61203 51.3399 3.49078 52.6325 6.35937C53.9251 9.22796 54.2046 13.3465 53.3001 16.9603C53.2833 17.0305 53.2863 17.1041 53.309 17.1727C53.3316 17.2412 53.3729 17.3021 53.4282 17.3485C53.4834 17.3893 53.5484 17.4147 53.6165 17.4222C53.6847 17.4297 53.7537 17.419 53.8164 17.3912C56.817 15.92 59.9728 15.8773 62.6201 17.2748C65.1704 18.6256 66.8008 21.0866 67.2045 24.2036C67.7789 28.6521 65.6517 34.4902 62.4066 37.4946C61.5388 38.2098 60.6316 38.8759 59.6894 39.4898C58.6605 40.1933 57.8313 41.1511 57.2824 42.27C56.7334 43.389 56.4835 44.631 56.5569 45.8752L62.6822 142.833H63.4392L57.3371 45.8287C57.2693 44.7155 57.4915 43.6038 57.9821 42.6022C58.4726 41.6006 59.2148 40.7436 60.1358 40.1148C61.1139 39.4809 62.0549 38.7914 62.954 38.0497V38.0497C66.3815 34.8978 68.5902 28.7724 68.0002 24.1066C67.5616 20.7372 65.7954 18.0744 63.0199 16.6071C60.3687 15.2097 57.2323 15.1359 54.2317 16.3936C54.9654 12.803 54.6432 8.90189 53.3545 6.04495C51.9532 2.93958 49.4728 0.921087 46.4023 0.327184C45.805 0.211221 45.198 0.152724 44.5896 0.152502C38.5846 0.152502 35.0677 5.50151 33.581 8.4749C32.0904 5.50927 28.5736 0.168032 22.5802 0.168032C21.9696 0.163727 21.3599 0.218323 20.7597 0.331064C17.6776 0.924966 15.2089 2.9551 13.8076 6.04883C12.6042 8.71169 12.2549 12.279 12.7983 15.7027C10.5725 15.1886 8.2368 15.473 6.19938 16.5062C3.40454 17.9308 1.59567 20.5665 1.11045 23.928C0.435035 28.5861 2.55833 34.7425 5.93931 37.9449C6.96664 38.7955 8.05373 39.5713 9.19219 40.2662V40.2662Z" fill="#8C6338"/>
</svg>
