<svg width="67" height="137" viewBox="0 0 67 137" fill="none" xmlns="http://www.w3.org/2000/svg">
<path d="M56.0115 51.272C55.8563 49.2535 55.2999 40.856 55.0411 36.9096L52.518 32.2515L45.725 30.3107H31.7508C29.2924 30.246 24.2591 30.1554 23.7933 30.3107L15.0594 33.222L10.0132 35.1628C10.6343 37.4919 11.0483 48.296 11.1777 53.4069L29.2277 58.2591C38.2203 56.7711 56.1668 53.2905 56.0115 51.272Z" fill="white" stroke="#8C6338" stroke-width="0.776343"/>
<mask id="path-2-inside-1_16_28039" fill="white">
<path d="M61.681 136.429C59.5849 103.392 57.3025 67.0939 56.1224 48.3413C56.0875 48.3879 56.0564 48.4383 56.0254 48.4888L55.1675 48.1511L54.7405 47.9803L54.4805 48.3685C54.2476 48.7062 54.0108 49.04 53.774 49.3738C53.6848 49.5006 53.5543 49.5924 53.4049 49.6334C53.2555 49.6745 53.0964 49.6623 52.955 49.599L52.5668 49.4243L52.1437 49.2341L51.8681 49.6223L51.1732 50.5539C51.079 50.679 50.9438 50.767 50.7912 50.8024C50.6386 50.8379 50.4785 50.8186 50.3387 50.748L49.9194 50.5383L49.5002 50.3248L49.2091 50.6936L48.5182 51.5553C48.4203 51.6784 48.2819 51.7628 48.1276 51.7934C47.9733 51.8239 47.8132 51.7987 47.6758 51.7223L47.2216 51.4699L46.8102 51.2371L46.5035 51.6019C46.2784 51.8659 46.0532 52.1337 45.8281 52.3783C45.7249 52.4995 45.582 52.5801 45.4248 52.6057C45.2677 52.6312 45.1066 52.6002 44.9703 52.518L44.4889 52.223L44.0813 51.9746L43.763 52.3278L43.0993 53.0576C42.9927 53.1762 42.8469 53.2525 42.6886 53.2724C42.5304 53.2924 42.3702 53.2547 42.2375 53.1663L41.729 52.8285L41.3408 52.5607L41.007 52.9062C40.7896 53.1313 40.5762 53.3565 40.3588 53.5777C40.2475 53.6919 40.0991 53.7624 39.9403 53.7767C39.7816 53.7909 39.623 53.7479 39.4932 53.6554L38.9497 53.2672L38.5615 52.9838L38.2161 53.3215C38.0103 53.5273 37.8007 53.7097 37.5911 53.931C37.4756 54.0423 37.324 54.1087 37.1638 54.1179C37.0035 54.1272 36.8453 54.0788 36.7177 53.9814L36.151 53.5428L35.7628 53.2478L35.4057 53.5738L34.7963 54.125C34.6769 54.2319 34.5233 54.2926 34.3632 54.2962C34.203 54.2997 34.0468 54.2459 33.9229 54.1445L33.3445 53.6437L32.9563 53.3332L32.5682 53.6476L31.9859 54.1445C31.8646 54.2493 31.7096 54.3071 31.5492 54.3071C31.3888 54.3071 31.2338 54.2493 31.1125 54.1445L30.4992 53.601L30.1382 53.2788L29.75 53.5816L29.1911 54.0241C29.0648 54.123 28.9074 54.1734 28.7472 54.1663C28.587 54.1592 28.4347 54.095 28.3177 53.9853L27.685 53.3836L27.3356 53.0498L26.9474 53.3371L26.4157 53.7252C26.2869 53.8203 26.1282 53.8659 25.9686 53.8538C25.809 53.8417 25.6591 53.7726 25.5461 53.6592L24.894 52.9993L24.5563 52.6539L24.1681 52.9295L23.6674 53.2711C23.5354 53.3612 23.3754 53.401 23.2166 53.3831C23.0577 53.3653 22.9106 53.2911 22.8018 53.174C22.5805 52.9334 22.3554 52.6966 22.1341 52.452L21.8081 52.0988L21.4199 52.355L20.9502 52.6539C20.8154 52.7382 20.6549 52.7716 20.4976 52.7481C20.3404 52.7246 20.1966 52.6458 20.0923 52.5258C19.8633 52.2657 19.6382 52.0056 19.413 51.7494L19.1025 51.3884L18.2563 51.8814C18.1181 51.962 17.9558 51.9909 17.7982 51.9629C17.6451 51.9319 17.5078 51.8481 17.4101 51.7261C17.1772 51.4467 16.9481 51.1633 16.7191 50.876L16.4202 50.5073L15.6051 50.942C15.4646 51.0166 15.3022 51.0386 15.147 51.0041C14.9922 50.97 14.8546 50.882 14.7588 50.7557L14.0524 49.8241L13.769 49.4359L13.047 49.7853C12.9523 49.8322 12.848 49.8565 12.7423 49.8565C12.6366 49.8565 12.5323 49.8322 12.4376 49.7853L12.3056 49.7154C12.2168 49.6653 12.14 49.5964 12.0805 49.5136C11.867 49.2186 11.6574 48.9235 11.4478 48.6247L11.1799 48.2365L10.9819 48.318C10.3686 77.7259 7.79892 107.072 5.3418 136.433L61.681 136.429Z"/>
</mask>
<path d="M61.681 136.429C59.5849 103.392 57.3025 67.0939 56.1224 48.3413C56.0875 48.3879 56.0564 48.4383 56.0254 48.4888L55.1675 48.1511L54.7405 47.9803L54.4805 48.3685C54.2476 48.7062 54.0108 49.04 53.774 49.3738C53.6848 49.5006 53.5543 49.5924 53.4049 49.6334C53.2555 49.6745 53.0964 49.6623 52.955 49.599L52.5668 49.4243L52.1437 49.2341L51.8681 49.6223L51.1732 50.5539C51.079 50.679 50.9438 50.767 50.7912 50.8024C50.6386 50.8379 50.4785 50.8186 50.3387 50.748L49.9194 50.5383L49.5002 50.3248L49.2091 50.6936L48.5182 51.5553C48.4203 51.6784 48.2819 51.7628 48.1276 51.7934C47.9733 51.8239 47.8132 51.7987 47.6758 51.7223L47.2216 51.4699L46.8102 51.2371L46.5035 51.6019C46.2784 51.8659 46.0532 52.1337 45.8281 52.3783C45.7249 52.4995 45.582 52.5801 45.4248 52.6057C45.2677 52.6312 45.1066 52.6002 44.9703 52.518L44.4889 52.223L44.0813 51.9746L43.763 52.3278L43.0993 53.0576C42.9927 53.1762 42.8469 53.2525 42.6886 53.2724C42.5304 53.2924 42.3702 53.2547 42.2375 53.1663L41.729 52.8285L41.3408 52.5607L41.007 52.9062C40.7896 53.1313 40.5762 53.3565 40.3588 53.5777C40.2475 53.6919 40.0991 53.7624 39.9403 53.7767C39.7816 53.7909 39.623 53.7479 39.4932 53.6554L38.9497 53.2672L38.5615 52.9838L38.2161 53.3215C38.0103 53.5273 37.8007 53.7097 37.5911 53.931C37.4756 54.0423 37.324 54.1087 37.1638 54.1179C37.0035 54.1272 36.8453 54.0788 36.7177 53.9814L36.151 53.5428L35.7628 53.2478L35.4057 53.5738L34.7963 54.125C34.6769 54.2319 34.5233 54.2926 34.3632 54.2962C34.203 54.2997 34.0468 54.2459 33.9229 54.1445L33.3445 53.6437L32.9563 53.3332L32.5682 53.6476L31.9859 54.1445C31.8646 54.2493 31.7096 54.3071 31.5492 54.3071C31.3888 54.3071 31.2338 54.2493 31.1125 54.1445L30.4992 53.601L30.1382 53.2788L29.75 53.5816L29.1911 54.0241C29.0648 54.123 28.9074 54.1734 28.7472 54.1663C28.587 54.1592 28.4347 54.095 28.3177 53.9853L27.685 53.3836L27.3356 53.0498L26.9474 53.3371L26.4157 53.7252C26.2869 53.8203 26.1282 53.8659 25.9686 53.8538C25.809 53.8417 25.6591 53.7726 25.5461 53.6592L24.894 52.9993L24.5563 52.6539L24.1681 52.9295L23.6674 53.2711C23.5354 53.3612 23.3754 53.401 23.2166 53.3831C23.0577 53.3653 22.9106 53.2911 22.8018 53.174C22.5805 52.9334 22.3554 52.6966 22.1341 52.452L21.8081 52.0988L21.4199 52.355L20.9502 52.6539C20.8154 52.7382 20.6549 52.7716 20.4976 52.7481C20.3404 52.7246 20.1966 52.6458 20.0923 52.5258C19.8633 52.2657 19.6382 52.0056 19.413 51.7494L19.1025 51.3884L18.2563 51.8814C18.1181 51.962 17.9558 51.9909 17.7982 51.9629C17.6451 51.9319 17.5078 51.8481 17.4101 51.7261C17.1772 51.4467 16.9481 51.1633 16.7191 50.876L16.4202 50.5073L15.6051 50.942C15.4646 51.0166 15.3022 51.0386 15.147 51.0041C14.9922 50.97 14.8546 50.882 14.7588 50.7557L14.0524 49.8241L13.769 49.4359L13.047 49.7853C12.9523 49.8322 12.848 49.8565 12.7423 49.8565C12.6366 49.8565 12.5323 49.8322 12.4376 49.7853L12.3056 49.7154C12.2168 49.6653 12.14 49.5964 12.0805 49.5136C11.867 49.2186 11.6574 48.9235 11.4478 48.6247L11.1799 48.2365L10.9819 48.318C10.3686 77.7259 7.79892 107.072 5.3418 136.433L61.681 136.429Z" fill="#FBB03B" stroke="#8C6338" stroke-width="1.55269" mask="url(#path-2-inside-1_16_28039)"/>
<path d="M9.54603 79.7948C9.80223 79.4804 9.88763 79.1272 10.1361 78.8671C10.1898 78.8313 10.2404 78.791 10.2874 78.7468C12.368 76.6817 14.3361 75.3464 16.4982 74.5467C17.127 74.3138 17.7869 74.1275 18.439 73.949C19.3984 73.711 20.335 73.3889 21.2378 72.9863C22.5537 72.3536 23.4154 71.519 23.7958 70.4981C23.9357 70.0517 23.9897 69.5828 23.955 69.1162C23.9304 68.734 23.9657 68.3502 24.0598 67.9789C24.25 67.3772 24.8361 67.0162 25.3912 66.6669C25.6611 66.5055 25.9192 66.3252 26.1637 66.1273C26.6993 65.6576 27.8794 64.4271 27.2272 63.1578C26.5751 61.8885 24.576 61.6245 23.233 61.4149L22.8448 61.3528C20.7751 60.9886 18.6491 61.1095 16.6341 61.706C15.2017 62.133 14.0643 62.4319 12.5272 62.3465C11.9534 62.2894 11.3748 62.3012 10.8037 62.3814C10.8037 62.3465 10.8037 62.3155 10.8037 62.2805C10.7092 62.3216 10.6171 62.3683 10.5281 62.4203C10.4388 62.4785 10.2991 62.5872 10.1399 62.7192C9.90443 68.5029 9.61073 74.2867 9.25879 80.0704C9.36384 79.9888 9.4601 79.8964 9.54603 79.7948V79.7948Z" fill="#8C6338"/>
<path d="M6.0836 132.291V132.116C6.1382 132.065 6.18176 132.003 6.21168 131.934C6.52998 131.204 7.61688 130.824 8.57954 130.486C8.95523 130.363 9.32333 130.218 9.68194 130.051L9.82556 129.982C10.6989 129.551 11.7664 129.011 12.1041 127.951C12.3992 126.973 11.9256 126.247 11.4248 125.669C11.3133 125.552 11.1926 125.444 11.0638 125.347C10.8626 125.214 10.6952 125.036 10.5748 124.827C10.4902 124.493 10.4836 124.144 10.5557 123.808C10.6277 123.471 10.7764 123.156 10.9901 122.886C11.247 122.558 11.523 122.246 11.8169 121.95C12.1727 121.595 12.501 121.214 12.799 120.809L13.0629 120.421C13.7655 119.4 14.3245 118.589 15.4346 117.933C16.7363 117.24 18.1333 116.742 19.5803 116.458L20.8186 116.174C22.9458 115.701 25.1428 115.208 26.9439 113.923C28.2327 113.003 29.0672 111.796 29.2341 110.604C29.2961 110.15 29.2614 109.688 29.1323 109.249C29.0032 108.809 28.7826 108.402 28.485 108.054C27.7161 107.153 26.6911 106.509 25.5465 106.206C24.6444 105.952 23.7225 105.774 22.7905 105.674C22.4494 105.647 22.1068 105.647 21.7657 105.674C21.199 105.705 20.5507 105.74 20.213 105.558C19.3746 105.092 19.5105 104.692 19.7162 104.083C19.9202 103.639 19.9588 103.136 19.8249 102.666C19.4755 101.695 18.4507 101.408 17.4958 101.253C17.228 101.214 16.9019 101.175 16.5409 101.137C15.128 100.977 12.9931 100.748 12.6282 99.8051C12.4535 99.3587 12.698 98.7493 13.3502 98.0001C13.6584 97.6702 13.9836 97.3567 14.3245 97.0607C15.6093 95.8962 17.2047 94.4483 16.6535 92.8801C15.9781 90.8927 13.16 91.0673 10.893 91.2071C10.179 91.2724 9.46049 91.2724 8.74645 91.2071C8.70525 91.2013 8.66344 91.2013 8.62224 91.2071C8.62224 91.176 8.62224 91.1489 8.62224 91.1178H8.53296C7.59747 104.681 6.46789 118.173 5.34995 131.488C5.31502 131.876 5.28008 132.311 5.24902 132.722H5.26843C5.56615 132.634 5.84331 132.488 6.0836 132.291V132.291Z" fill="#8C6338"/>
<path d="M58.4942 87.6592V87.7252C57.5083 89.2507 55.8585 89.8679 53.1569 89.7165L51.6974 89.6272C50.0011 89.5185 48.2543 89.4099 46.5036 89.472C43.5225 89.5806 40.025 89.8252 36.71 90.8228L36.3529 90.9315C34.8623 91.3662 32.3703 92.096 31.9084 93.7108C31.8369 93.9376 31.8166 94.1773 31.8488 94.4129C31.8811 94.6485 31.965 94.874 32.0947 95.0733C32.7934 96.1602 34.777 96.6609 36.3141 96.8938L37.0905 97.0025C37.7387 97.0879 38.4102 97.181 39.0585 97.3324C40.4248 97.6585 41.1042 98.1709 41.7485 99.3626C42.3929 100.554 43.3012 101.175 44.784 101.412C46.0363 101.564 47.3016 101.578 48.557 101.455C48.9957 101.428 49.4343 101.4 49.8652 101.385C52.9395 101.28 55.1482 102.084 56.8329 103.916C57.9159 105.08 58.9406 106.47 58.3429 107.732C57.9819 108.508 57.0929 108.853 56.2118 109.156C55.5946 109.366 54.9502 109.544 54.3292 109.696C53.2617 109.93 52.2212 110.274 51.2238 110.72C50.5874 111.011 50.0245 111.441 49.5769 111.978C49.1294 112.516 48.8087 113.147 48.6386 113.826C48.5281 114.401 48.5526 114.993 48.7103 115.557C48.8679 116.121 49.1543 116.641 49.5469 117.075C50.4203 118.103 51.6857 118.88 53.4286 119.447L53.778 119.559C54.8571 119.901 56.336 120.367 56.4292 121.613C56.4719 122.203 56.1807 122.49 55.843 122.824C55.5868 123.046 55.3782 123.318 55.2297 123.623C54.6242 125.009 56.0449 126.038 56.7281 126.535C56.8678 126.633 57.0114 126.726 57.1589 126.814C57.3388 126.921 57.5124 127.037 57.6791 127.163C58.3739 127.726 58.6922 128.487 59.0299 129.294L59.1541 129.593C59.3833 130.093 59.6426 130.577 59.9305 131.045C60.3332 131.676 60.6627 132.35 60.9126 133.056C60.9126 133.106 60.9126 133.161 60.9126 133.211L61.0096 133.316C61.2633 133.554 61.5511 133.753 61.8636 133.906L58.9639 87.2594C58.9116 87.2954 58.8622 87.3356 58.8164 87.3797L58.4942 87.6592Z" fill="#8C6338"/>
<path d="M56.4525 61.8962C56.2653 62.0775 56.0915 62.2721 55.9324 62.4785C55.2295 63.41 54.2455 64.0905 53.1259 64.4193C51.4281 64.997 49.8372 65.8508 48.4174 66.9463C48.1738 67.1131 47.9805 67.3436 47.8587 67.6125C47.7369 67.8815 47.6911 68.1787 47.7264 68.4719C47.8623 69.5587 49.0773 70.7038 50.1719 71.1891C50.3092 71.2452 50.4507 71.2906 50.595 71.3249C51.0608 71.4608 51.8449 71.682 51.9847 72.0702C52.0077 72.1635 52.0076 72.261 51.9847 72.3543C51.9617 72.4476 51.9164 72.5339 51.8527 72.6059C51.7165 72.7327 51.549 72.8211 51.3675 72.8621C51.1672 72.9075 50.9783 72.9933 50.8124 73.1144C50.4242 73.5026 50.1059 74.1042 50.8124 74.9272C51.3908 75.5793 52.1826 75.6608 52.9435 75.7384C53.4973 75.7481 54.0411 75.8877 54.5311 76.146C54.9595 76.4475 55.3248 76.8299 55.6063 77.2717C55.7649 77.4961 55.9346 77.7125 56.1148 77.92C56.3392 78.1665 56.5777 78.3998 56.8291 78.6187C57.3647 79.1039 57.8693 79.558 58.079 80.2878C58.1013 80.3645 58.1412 80.4349 58.1954 80.4935C58.1954 80.5595 58.1954 80.6294 58.2148 80.6954C58.3076 80.805 58.4194 80.8971 58.5448 80.9671L57.322 61.5119C57.0387 61.6167 56.7476 61.7177 56.4525 61.8108C56.4642 61.8574 56.4487 61.8574 56.4525 61.8962Z" fill="#8C6338"/>
<path d="M11.0756 28.5911C10.6605 28.6035 10.2523 28.4824 9.9111 28.2456C7.9159 26.8249 5.70721 23.0791 5.72274 19.9815C5.72274 18.5646 6.21183 17.5088 7.15509 16.8489C7.77823 16.4173 8.52043 16.1907 9.27838 16.2007C12.046 16.2007 15.198 18.7393 17.0612 20.9092C17.8026 21.7787 17.3718 23.0946 17.0612 23.7972C15.9316 26.2621 13.0204 28.5911 11.0756 28.5911Z" fill="#FFC9C9"/>
<path d="M9.29771 16.5811C10.9474 16.5811 13.9014 17.7805 16.7933 21.1576C17.3989 21.8641 17.0107 23.0169 16.7234 23.6419C15.6404 25.9903 12.8961 28.2107 11.0755 28.2107C10.7453 28.2211 10.4203 28.1259 10.1478 27.939C8.23412 26.5726 6.10306 22.8927 6.11859 19.9814C6.11859 18.6966 6.55335 17.7456 7.3918 17.1594C7.95078 16.7716 8.61749 16.5693 9.29771 16.5811ZM9.29771 15.8047C8.46605 15.7952 7.65206 16.0449 6.96868 16.519C3.34316 19.0576 6.61546 26.3164 9.72083 28.5329C10.1204 28.8134 10.5991 28.9589 11.0872 28.9482C14.472 28.9482 19.4911 23.1256 17.3756 20.6452C15.26 18.1648 12.0887 15.8047 9.30937 15.8047H9.29771Z" fill="#8C6338"/>
<path d="M55.2182 28.5911C53.2774 28.5911 50.3622 26.2621 49.2287 23.7972C48.9027 23.0946 48.4718 21.7787 49.2287 20.9092C51.0881 18.7393 54.24 16.2007 56.9922 16.2007C57.7501 16.1907 58.4923 16.4173 59.1155 16.8489C60.0626 17.5088 60.5439 18.5646 60.5478 19.9815C60.5478 23.0868 58.3546 26.8249 56.3594 28.2456C56.0245 28.4802 55.6232 28.6013 55.2143 28.5911H55.2182Z" fill="#FFC9C9"/>
<path d="M56.9962 16.5811C57.6764 16.5693 58.3431 16.7716 58.9021 17.1594C59.7405 17.7456 60.1714 18.7121 60.1753 19.9814C60.1753 22.8811 58.0597 26.5804 56.1461 27.939C55.8736 28.1259 55.5486 28.2211 55.2183 28.2107C53.3978 28.2107 50.6534 25.9903 49.5704 23.6419C49.2832 23.0169 48.895 21.8641 49.5006 21.1576C52.3924 17.7805 55.3464 16.5811 56.9962 16.5811V16.5811ZM56.9962 15.8047C54.2168 15.8047 51.0067 18.2191 48.93 20.6452C46.8532 23.0713 51.8335 28.9482 55.2183 28.9482C55.7064 28.9589 56.1851 28.8134 56.5847 28.5329C59.6901 26.3164 62.9624 19.0576 59.3368 16.519C58.6535 16.0449 57.8395 15.7952 57.0078 15.8047H56.9962Z" fill="#8C6338"/>
<path d="M43.6471 40.8069C42.4088 40.8069 41.1123 40.1819 39.6101 39.4599C37.7546 38.5632 35.6507 37.5501 33.147 37.5501C30.6433 37.5501 28.5394 38.5632 26.684 39.4599C25.1818 40.1819 23.8853 40.8069 22.647 40.8069C21.4087 40.8069 20.3684 40.1703 19.3126 38.8039C18.3577 37.5618 19.2194 32.205 21.8124 26.8637C23.2564 23.8904 27.2468 16.9693 33.1509 16.911H33.2169C38.9153 16.911 42.9212 23.7817 44.3652 26.7395C47.0203 32.139 47.9364 37.5618 46.9815 38.8039C45.9257 40.1703 44.8698 40.8069 43.6471 40.8069Z" fill="#FFC9C9"/>
<path d="M33.2208 17.2914C38.7056 17.2914 42.6029 24.0146 44.0236 26.9026C46.7408 32.4495 47.4317 37.6006 46.6787 38.5749C45.3977 40.2362 44.3496 40.4303 43.647 40.4303C42.4825 40.4303 41.2326 39.8209 39.7653 39.1183C37.871 38.2061 35.7245 37.1775 33.1354 37.1775C30.5463 37.1775 28.3997 38.2139 26.5093 39.1183C25.0497 39.8209 23.7921 40.4303 22.6276 40.4303C21.9405 40.4303 20.8769 40.2362 19.5959 38.5749C18.8429 37.6006 19.4717 32.5 22.1307 27.0268C23.5436 24.1194 27.4486 17.3458 33.1354 17.2914H33.2013H33.2208ZM33.2013 16.5345H33.1315C22.9963 16.6315 16.7817 36.1566 18.9981 39.0484C20.2248 40.6361 21.4087 41.1989 22.6314 41.1989C25.5777 41.1989 28.7335 37.9383 33.1121 37.9383C37.4907 37.9383 40.6659 41.1989 43.5927 41.1989C44.8154 41.1989 45.9994 40.6361 47.226 39.0484C49.4386 36.176 43.0105 16.5345 33.1625 16.5345H33.2013Z" fill="#8C6338"/>
<path d="M33.3728 0.809647C-9.75306 1.3919 2.66843 33.6101 12.7609 36.3273C18.0788 37.7597 18.9367 34.9261 18.9367 31.0482V28.1602H19.2861V31.0482C19.3292 32.8825 20.0881 34.6271 21.4007 35.9092C22.7132 37.1912 24.4752 37.909 26.31 37.909C28.1448 37.909 29.9068 37.1912 31.2194 35.9092C32.5319 34.6271 33.2909 32.8825 33.334 31.0482V28.1602H33.6756V31.0482C33.6756 32.9106 34.4154 34.6967 35.7323 36.0135C37.0492 37.3304 38.8353 38.0702 40.6976 38.0702V38.0702C41.6201 38.0708 42.5336 37.8895 43.386 37.5368C44.2384 37.1842 45.013 36.667 45.6654 36.0149C46.3179 35.3628 46.8355 34.5885 47.1886 33.7363C47.5418 32.8841 47.7235 31.9707 47.7235 31.0482V28.1602H48.0651V31.0482C48.0651 34.9299 49.645 37.88 53.1463 37.2939C64.8807 35.3259 77.5856 2.55642 33.3728 0.809647Z" fill="white"/>
<path d="M58.3128 8.01412C52.8784 3.41817 44.5133 0.863992 33.3883 0.421476H33.3689C12.1088 0.708723 5.3274 8.93408 3.28174 15.3311C4.08914 15.9872 5.0091 16.7635 5.33516 16.55C5.79321 16.2472 4.82666 12.3616 5.4128 12.0705C5.91354 11.8221 7.67196 15.3195 8.2581 15.0827C8.78213 14.8731 8.31244 10.8517 8.89858 10.6537C9.48472 10.4557 10.8899 14.1472 11.4722 13.9764C12.0544 13.8056 11.8021 9.76477 12.3882 9.61339C12.9744 9.462 14.2088 13.2467 14.7949 13.1069C15.381 12.9672 15.3073 8.91856 15.8934 8.79822C16.4796 8.67789 17.582 12.5247 18.1642 12.4199C18.7465 12.3151 18.8241 8.25866 19.4103 8.14997C19.9964 8.04128 20.9862 11.9463 21.5685 11.8648C22.1508 11.7833 22.3448 7.73075 22.9349 7.66088C23.5249 7.59101 24.406 11.5154 24.9922 11.4533C25.5783 11.3912 25.8811 7.35422 26.4672 7.30376C27.0534 7.2533 27.8414 11.2049 28.4275 11.1855C29.0136 11.1661 29.4212 7.12132 30.0074 7.09027C30.5935 7.05922 31.2844 11.038 31.8667 11.0225C32.449 11.0069 32.9691 6.98935 33.5514 6.98158C34.1336 6.97382 34.7159 10.9759 35.3059 10.9759C35.8959 10.9759 36.517 6.98934 37.0993 7.00487C37.6815 7.0204 38.1628 11.0535 38.7412 11.0535C39.3196 11.0535 40.0688 7.11744 40.6471 7.17178C41.2255 7.22613 41.5904 11.2437 42.1688 11.298C42.7472 11.3524 43.6205 7.41633 44.195 7.48231C44.7695 7.5483 44.9985 11.6008 45.573 11.6784C46.1475 11.7561 47.1684 7.87825 47.7429 7.97141C48.3174 8.06458 48.3756 12.1287 48.9463 12.2413C49.5169 12.3539 50.7124 8.54203 51.2753 8.674C51.8381 8.80598 51.71 12.8585 52.2807 12.9944C52.8513 13.1302 54.2526 9.4387 54.8038 9.61726C55.355 9.79582 54.9707 13.8289 55.518 14.0308C56.0653 14.2326 57.7461 10.6847 58.2779 10.9254C58.8097 11.1661 58.0916 15.1293 58.6117 15.401C59.1319 15.6727 61.1698 12.3811 61.6705 12.6838C62.1713 12.9866 60.9796 16.8062 61.457 17.1672C61.7715 17.404 62.8661 16.3715 63.7434 15.6766C62.635 12.6912 60.7624 10.049 58.3128 8.01412Z" fill="#FBB03B"/>
<path d="M58.3128 8.01412C52.8784 3.41817 44.5133 0.863996 33.3883 0.42148H33.3689C5.94068 0.809652 2.61017 14.3763 2.45102 20.1988C2.21424 28.9443 7.88542 36.3856 12.7337 36.7155C17.2209 37.0222 18.6533 34.2545 19.0997 32.6358C19.876 35.6752 22.6321 37.6821 26.3003 37.6821C29.9685 37.6821 32.7284 35.7412 33.497 32.7872C34.2733 35.7412 36.9905 37.6821 40.6898 37.6821C44.2843 37.6821 46.986 35.8305 47.8283 32.993C48.2436 35.3569 49.5906 37.5579 53.1268 37.6821H53.352C58.9533 37.6821 64.4614 30.3068 64.7603 22.3415C64.9699 16.8101 62.6797 11.7212 58.3128 8.01412ZM63.984 22.3105C63.6967 29.9963 58.4176 37.061 53.154 36.898C49.9865 36.7854 48.4455 34.8678 48.4455 31.0405V28.1525C48.4457 28.0534 48.408 27.9581 48.3401 27.8859C48.2723 27.8137 48.1795 27.7702 48.0806 27.7643H48.0573C47.9619 27.7636 47.8697 27.798 47.7981 27.861C47.7265 27.924 47.6806 28.0112 47.6691 28.1059L47.3237 30.9939V31.0405C47.3237 34.4874 44.6065 36.898 40.6859 36.898C36.7654 36.898 34.0521 34.4874 34.0521 31.0405V28.1525C34.0551 28.1015 34.0481 28.0504 34.0314 28.0021C34.0148 27.9539 33.9887 27.9094 33.9549 27.8712C33.921 27.833 33.8799 27.8018 33.834 27.7795C33.788 27.7571 33.7382 27.7441 33.6872 27.741C33.6362 27.7379 33.5851 27.745 33.5369 27.7616C33.4886 27.7783 33.4441 27.8043 33.4059 27.8382C33.3677 27.8721 33.3365 27.9132 33.3142 27.9591C33.2919 28.005 33.2788 28.0549 33.2757 28.1059L32.9303 30.9939V31.0405C32.9303 34.4874 30.2131 36.898 26.2925 36.898C22.469 36.898 19.7402 34.4835 19.6548 30.9939L19.3132 28.1098C19.3015 28.0116 19.2528 27.9217 19.1771 27.8582C19.1014 27.7947 19.0043 27.7625 18.9056 27.7682C18.8068 27.7741 18.7139 27.8176 18.6461 27.8898C18.5782 27.9619 18.5406 28.0573 18.5407 28.1563V31.0443C18.5369 31.0688 18.5369 31.0937 18.5407 31.1181C18.4994 32.4149 17.9954 33.6541 17.12 34.6116C16.1185 35.6209 14.659 36.0673 12.7686 35.9392C7.40409 35.5743 3.02939 26.988 3.21183 20.2144C3.3671 14.6169 6.60446 1.55883 33.3534 1.19394C44.292 1.6287 52.5174 4.12076 57.8082 8.60414C63.1688 13.1535 64.1237 18.5724 63.984 22.3105Z" fill="#8C6338"/>
</svg>
