<svg width="71" height="150" viewBox="0 0 71 150" fill="none" xmlns="http://www.w3.org/2000/svg">
<path d="M49.0677 12.2468C48.736 12.2165 48.4111 12.134 48.1051 12.0023C47.9537 11.9479 47.8062 11.8975 47.6703 11.8586C47.5345 11.8198 47.4685 11.8043 47.3598 11.7771C47.1825 11.7379 47.0085 11.6847 46.8396 11.618C46.4243 11.4278 46.1565 11.0396 45.6479 10.2788C46.6572 9.45586 47.4918 7.81001 48.0507 6.59115C48.4389 5.72941 48.7921 4.83273 49.1221 3.96323C49.3045 3.48966 49.487 3.01609 49.6772 2.54252C49.7703 2.30961 49.8518 2.04954 49.9334 1.76617C50.0551 1.27337 50.2542 0.803014 50.5234 0.372639C50.6178 0.408236 50.7009 0.468567 50.764 0.547315C51.1755 1.017 51.587 2.38725 51.2105 6.25732L51.1794 6.57174C51.0552 7.91093 50.6709 12.0061 49.1842 12.2274L49.0677 12.2468Z" fill="white"/>
<path d="M50.6088 1.02476C50.8534 1.51774 51.1562 2.82199 50.8224 6.23402V6.31554L50.7991 6.56009C50.3798 11.0163 49.5724 11.8004 49.1261 11.8703H49.0678C48.7818 11.8365 48.5021 11.762 48.2371 11.649C48.0896 11.5947 47.9344 11.5403 47.783 11.4976L47.4569 11.4122C47.3025 11.3775 47.1508 11.3321 47.0027 11.2764C46.7388 11.156 46.5486 10.9231 46.1643 10.3525C47.1153 9.43256 47.88 7.91481 48.4079 6.76582C48.7961 5.89244 49.1532 4.98799 49.487 4.11461C49.6656 3.6488 49.8519 3.16747 50.0382 2.70166C50.1392 2.44935 50.2285 2.17375 50.31 1.92532C50.3939 1.62983 50.4949 1.3395 50.6127 1.05581L50.6088 1.02476ZM50.3798 -1.43051e-05C49.7976 0.558953 49.6035 1.68077 49.3201 2.42994C48.7767 3.77302 48.3031 5.14715 47.7014 6.46305C47.1852 7.58875 46.2186 9.56842 45.1201 10.2089C45.8033 11.2298 46.1061 11.7383 46.6728 12.0023C46.9618 12.1083 47.2574 12.1952 47.5578 12.2623C48.0393 12.4574 48.5444 12.5879 49.06 12.6505C49.1194 12.6564 49.1792 12.6564 49.2386 12.6505C51.1212 12.3555 51.4434 7.87987 51.5676 6.40482C51.6763 5.27136 52.2237 0.0543297 50.3527 -1.43051e-05H50.3798Z" fill="#8C6338"/>
<path d="M66.2051 29.9358C65.3977 29.9358 63.9887 28.5811 63.3521 27.2186C63.9703 26.4973 64.6538 25.8346 65.3938 25.2389C65.9995 24.7418 66.575 24.2091 67.1173 23.6435L67.6608 23.0729C68.0489 22.6576 68.4682 22.2306 68.8253 21.7725C69.0162 21.5114 69.185 21.2349 69.3299 20.9457C69.4988 20.5606 69.7399 20.2114 70.0403 19.9171C70.1189 19.8503 70.2141 19.806 70.3159 19.789C70.4323 19.8822 70.6536 20.709 70.1373 23.3136C69.8057 25.0666 69.0883 26.724 68.0373 28.1657L67.9325 28.3055C67.5676 28.8023 66.8068 29.831 66.2944 29.9164C66.2655 29.9262 66.2355 29.9327 66.2051 29.9358V29.9358Z" fill="white"/>
<path d="M70.0753 20.4683C70.0602 23.1366 69.2493 25.7397 67.7463 27.9445L67.6414 28.0881C66.9583 29.0119 66.4769 29.501 66.2518 29.5476H66.2169C65.6618 29.5476 64.4584 28.4607 63.8218 27.2807C64.3886 26.6562 65.0024 26.0761 65.6579 25.5456C66.2753 25.0383 66.8625 24.4952 67.4163 23.9191C67.591 23.7289 67.7696 23.531 67.952 23.3524C68.3402 22.9332 68.7749 22.4984 69.1514 22.0248C69.3558 21.7455 69.5363 21.4494 69.691 21.1398C69.8081 20.9091 69.9376 20.6849 70.0792 20.4683H70.0753ZM70.3276 19.4125C70.1475 19.4263 69.9758 19.4939 69.8346 19.6065C69.3028 19.9714 68.9496 21.0195 68.5343 21.5474C68.018 22.1956 67.4047 22.7818 66.8379 23.3951C65.6268 24.7071 63.9538 25.7629 62.9058 27.1798C63.488 28.5849 65.095 30.3278 66.2091 30.3278H66.3721C67.0902 30.2075 67.9248 29.0003 68.3596 28.4258C69.44 26.94 70.1796 25.2343 70.5256 23.43C70.6304 22.9021 71.333 19.428 70.3276 19.428V19.4125Z" fill="#8C6338"/>
<path d="M20.0401 12.2429C18.5379 12.1148 17.8741 8.07007 17.6529 6.73865L17.6024 6.43199C16.958 2.59297 17.2725 1.19943 17.649 0.702575C17.7085 0.621326 17.7872 0.556004 17.878 0.512374C18.1768 0.921638 18.4075 1.37648 18.5612 1.85933C18.666 2.12717 18.763 2.37948 18.8756 2.6085C19.0968 3.06266 19.3104 3.52459 19.5239 3.98263C19.912 4.82884 20.3235 5.69835 20.7776 6.53291C21.4181 7.69743 22.3653 9.2967 23.4289 10.0265C22.9786 10.8222 22.7379 11.2298 22.3342 11.4472C22.171 11.5273 22.0008 11.5923 21.8257 11.6413L21.5229 11.7422C21.3909 11.7926 21.2473 11.8548 21.0998 11.9207C20.7872 12.0831 20.448 12.1883 20.0983 12.2313L20.0401 12.2429Z" fill="white"/>
<path d="M17.8393 1.15675C17.975 1.43202 18.0955 1.71451 18.2003 2.00297C18.3012 2.26304 18.406 2.53476 18.5263 2.77931C18.7476 3.22959 18.965 3.69928 19.1746 4.14955C19.5628 4.99965 19.9742 5.87692 20.4361 6.71925C21.0417 7.82942 21.9112 9.28895 22.9243 10.1429C22.5789 10.7407 22.4042 10.9814 22.148 11.1211C22.0034 11.1874 21.8542 11.2432 21.7016 11.288C21.5929 11.323 21.4842 11.3579 21.3833 11.3967C21.2824 11.4355 21.0844 11.5171 20.9408 11.5792C20.6755 11.7171 20.3898 11.8115 20.0946 11.8586H20.0713C19.0232 11.7694 18.3439 8.5786 18.0334 6.68044L17.9946 6.43589V6.3699C17.4239 2.9928 17.6336 1.66914 17.847 1.16063L17.8393 1.15675ZM18.0062 0.0892823C16.143 0.275605 17.0513 5.44216 17.2298 6.56786C17.4744 8.02351 18.1032 12.472 20.0014 12.635H20.0946C20.6031 12.635 21.1892 12.2973 21.6472 12.1226C21.9414 12.0362 22.2293 11.9299 22.509 11.8043C23.068 11.5015 23.3319 10.9736 23.9413 9.90614C22.8001 9.32777 21.7016 7.43737 21.1038 6.34661C20.4129 5.08117 19.85 3.74197 19.2134 2.43772C18.8602 1.71184 18.604 0.605547 17.9868 0.0853968L18.0062 0.0892823Z" fill="#8C6338"/>
<path d="M5.25076 29.9358C5.21853 29.9396 5.18595 29.9396 5.15372 29.9358C4.64133 29.8504 3.88052 28.8217 3.51564 28.3249L3.41083 28.1851C2.36178 26.7485 1.64574 25.0963 1.31469 23.3485C0.794543 20.7284 1.0158 19.9015 1.1439 19.8006C1.23795 19.833 1.32684 19.8788 1.40785 19.9365C1.70725 20.2301 1.9483 20.5779 2.11821 20.9613C2.26084 21.2529 2.42974 21.5309 2.62283 21.7919C2.98771 22.25 3.39917 22.677 3.78734 23.0923L4.33079 23.6629C4.87311 24.2285 5.44862 24.7612 6.05428 25.2583C6.79431 25.854 7.4778 26.5167 8.09607 27.238C7.46723 28.5811 6.05816 29.9358 5.25076 29.9358Z" fill="white"/>
<path d="M1.38085 20.4644C1.52156 20.6829 1.65111 20.9083 1.76902 21.1398C1.92374 21.4494 2.10421 21.7455 2.30856 22.0249C2.69673 22.4984 3.10432 22.9332 3.50802 23.3524C3.69046 23.5426 3.86902 23.7406 4.0437 23.9191C4.59753 24.4952 5.18467 25.0383 5.80211 25.5456C6.45758 26.0762 7.07142 26.6562 7.63817 27.2807C7.00157 28.4452 5.79822 29.5476 5.24314 29.5476H5.20822C4.97143 29.501 4.50174 29.0119 3.81855 28.0881L3.71374 27.9445C2.20828 25.7394 1.39714 23.1343 1.38471 20.4644H1.38085ZM1.1363 19.4125C0.130934 19.4125 0.833521 22.8866 0.938327 23.4145C1.2843 25.2188 2.02386 26.9245 3.10433 28.4103C3.53132 28.9848 4.37365 30.192 5.09177 30.3123C5.14605 30.3161 5.20052 30.3161 5.25479 30.3123C6.36885 30.3123 7.972 28.5694 8.55814 27.1643C7.51008 25.7474 5.84094 24.6916 4.62596 23.3796C4.05923 22.7663 3.46145 22.1801 2.92965 21.5319C2.51431 21.0078 2.15329 19.9792 1.62926 19.591C1.48811 19.4784 1.31637 19.4107 1.1363 19.3969V19.4125Z" fill="#8C6338"/>
<path d="M10.4366 46.3244C11.3926 46.942 12.1781 47.79 12.7207 48.7904C13.2634 49.7909 13.5457 50.9118 13.5419 52.0499C13.3362 84.4894 10.487 116.847 7.7776 149.205H64.1091C61.6209 109.631 58.8416 65.4302 58.007 52.2246C57.9334 51.0448 58.1685 49.8662 58.6892 48.805C59.21 47.7438 59.9983 46.8366 60.9765 46.173C61.9376 45.5487 62.8629 44.8709 63.7481 44.1429C67.0941 41.0686 69.2523 35.0868 68.6623 30.5297C68.2431 27.2846 66.5429 24.7071 63.88 23.3136C62.545 22.6 61.0541 22.2279 59.5403 22.2306C57.8638 22.2428 56.2128 22.6413 54.7153 23.3951C55.6081 19.8162 55.4102 15.6045 54.0283 12.5263C52.6813 9.54514 50.3096 7.58875 47.3517 7.01814C46.7772 6.90876 46.1937 6.85289 45.6088 6.85123C40.3996 6.85123 36.6809 11.1211 34.6003 15.6744C32.5235 11.1289 28.801 6.86675 23.5995 6.86675C23.0146 6.86805 22.4311 6.92394 21.8566 7.03367C18.8987 7.60428 16.527 9.56066 15.18 12.5379C13.903 15.3599 13.6273 19.1601 14.2989 22.5411C13.4262 22.2921 12.5241 22.1615 11.6166 22.153C10.1574 22.1734 8.72406 22.542 7.43601 23.2282C4.75374 24.5946 3.01861 27.1293 2.54892 30.3667C1.89291 34.916 3.96187 40.9288 7.26521 44.0575C8.27342 44.8793 9.33265 45.6365 10.4366 46.3244V46.3244Z" fill="white"/>
<path d="M64.1088 149.205C62.0127 116.168 59.7302 79.8702 58.5502 61.1176C58.5152 61.1642 58.4842 61.2147 58.4531 61.2651L57.5952 60.9274L57.1683 60.7566L56.9082 61.1448C56.6753 61.4825 56.4385 61.8163 56.2017 62.1502C56.1125 62.2769 55.9821 62.3687 55.8326 62.4098C55.6832 62.4509 55.5241 62.4387 55.3827 62.3753L54.9945 62.2006L54.5714 62.0104L54.2958 62.3986L53.601 63.3302C53.5067 63.4553 53.3715 63.5433 53.2189 63.5788C53.0664 63.6143 52.9062 63.595 52.7664 63.5243L52.3472 63.3147L51.9279 63.1012L51.6368 63.4699L50.9459 64.3317C50.848 64.4548 50.7096 64.5391 50.5553 64.5697C50.4011 64.6003 50.241 64.5751 50.1035 64.4986L49.6494 64.2463L49.2379 64.0134L48.9313 64.3783C48.7061 64.6422 48.481 64.9101 48.2558 65.1546C48.1526 65.2758 48.0097 65.3564 47.8526 65.382C47.6954 65.4076 47.5343 65.3765 47.398 65.2944L46.9167 64.9993L46.5091 64.7509L46.1908 65.1042L45.527 65.8339C45.4204 65.9525 45.2746 66.0288 45.1164 66.0488C44.9581 66.0687 44.798 66.031 44.6652 65.9426L44.1567 65.6049L43.7686 65.3371L43.4347 65.6825C43.2174 65.9077 43.0039 66.1328 42.7865 66.3541C42.6752 66.4682 42.5268 66.5388 42.3681 66.553C42.2093 66.5673 42.0507 66.5242 41.9209 66.4317L41.3774 66.0435L40.9893 65.7602L40.6438 66.0979C40.4381 66.3036 40.2285 66.486 40.0188 66.7073C39.9033 66.8187 39.7517 66.885 39.5915 66.8943C39.4313 66.9035 39.273 66.8551 39.1455 66.7578L38.5787 66.3191L38.1905 66.0241L37.8334 66.3502L37.224 66.9014C37.1047 67.0083 36.9511 67.069 36.7909 67.0725C36.6308 67.0761 36.4746 67.0223 36.3506 66.9208L35.7722 66.4201L35.3841 66.1095L34.9959 66.4239L34.4136 66.9208C34.2923 67.0257 34.1373 67.0834 33.9769 67.0834C33.8166 67.0834 33.6616 67.0257 33.5403 66.9208L32.9269 66.3774L32.5659 66.0552L32.1778 66.3579L31.6188 66.8005C31.4926 66.8993 31.3351 66.9498 31.1749 66.9426C31.0147 66.9355 30.8624 66.8713 30.7454 66.7616L30.1127 66.16L29.7634 65.8262L29.3752 66.1134L28.8434 66.5016C28.7146 66.5966 28.556 66.6422 28.3964 66.6301C28.2368 66.618 28.0868 66.549 27.9739 66.4356L27.3217 65.7757L26.984 65.4302L26.5959 65.7058L26.0951 66.0474C25.9631 66.1375 25.8032 66.1773 25.6443 66.1595C25.4855 66.1417 25.3383 66.0675 25.2295 65.9504C25.0083 65.7097 24.7831 65.4729 24.5618 65.2284L24.2358 64.8751L23.8476 65.1313L23.3779 65.4302C23.2431 65.5145 23.0826 65.5479 22.9254 65.5244C22.7681 65.501 22.6244 65.4221 22.5201 65.3021C22.291 65.042 22.0659 64.782 21.8408 64.5258L21.5302 64.1648L20.684 64.6578C20.5458 64.7383 20.3835 64.7672 20.226 64.7393C20.0729 64.7082 19.9355 64.6244 19.8378 64.5025C19.6049 64.223 19.3759 63.9396 19.1468 63.6524L18.848 63.2836L18.0328 63.7184C17.8924 63.793 17.73 63.815 17.5748 63.7805V63.7805C17.42 63.7464 17.2824 63.6583 17.1866 63.5321L16.4801 62.6004L16.1967 62.2123L15.4748 62.5616C15.38 62.6085 15.2757 62.6329 15.17 62.6329C15.0643 62.6329 14.9601 62.6085 14.8653 62.5616L14.7333 62.4918C14.6445 62.4416 14.5677 62.3727 14.5082 62.2899C14.2947 61.9949 14.0851 61.6999 13.8755 61.401L13.6076 61.0128L13.4097 61.0943C12.7964 90.5022 10.2267 119.848 7.76953 149.209L64.1088 149.205Z" fill="#FBB03B"/>
<path d="M11.9743 92.5712C12.2304 92.2567 12.3159 91.9035 12.5643 91.6434C12.618 91.6076 12.6686 91.5673 12.7157 91.5231C14.7963 89.458 16.7643 88.1227 18.9264 87.3231C19.5552 87.0902 20.2151 86.9039 20.8673 86.7253C21.8267 86.4874 22.7632 86.1652 23.666 85.7626C24.9819 85.1299 25.8436 84.2953 26.224 83.2745C26.3639 82.828 26.4179 82.3591 26.3832 81.8926C26.3586 81.5103 26.394 81.1265 26.488 80.7552C26.6782 80.1535 27.2643 79.7926 27.8194 79.4432C28.0893 79.2818 28.3475 79.1015 28.5919 78.9036C29.1276 78.434 30.3076 77.2035 29.6555 75.9341C29.0033 74.6648 27.0043 74.4008 25.6612 74.1912L25.273 74.1291C23.2033 73.765 21.0773 73.8859 19.0623 74.4824C17.6299 74.9093 16.4926 75.2082 14.9554 75.1229C14.3816 75.0658 13.803 75.0775 13.2319 75.1578C13.2319 75.1229 13.2319 75.0918 13.2319 75.0569C13.1374 75.098 13.0454 75.1447 12.9563 75.1966C12.867 75.2548 12.7273 75.3635 12.5681 75.4955C12.3327 81.2793 12.039 87.063 11.687 92.8468C11.7921 92.7651 11.8883 92.6727 11.9743 92.5712V92.5712Z" fill="#8C6338"/>
<path d="M8.51134 145.068V144.893C8.56593 144.841 8.60949 144.779 8.63942 144.71C8.95772 143.981 10.0446 143.6 11.0073 143.263C11.383 143.139 11.7511 142.994 12.1097 142.828L12.2533 142.758C13.1267 142.327 14.1942 141.787 14.5319 140.728C14.8269 139.75 14.3533 139.024 13.8526 138.445C13.7411 138.328 13.6203 138.221 13.4916 138.123C13.2903 137.99 13.1229 137.812 13.0025 137.603C12.9179 137.269 12.9114 136.921 12.9834 136.584C13.0554 136.247 13.2041 135.932 13.4178 135.662C13.6747 135.334 13.9508 135.022 14.2446 134.727C14.6004 134.372 14.9287 133.99 15.2267 133.585L15.4907 133.197C16.1932 132.176 16.7522 131.365 17.8624 130.709C19.1641 130.016 20.5611 129.519 22.008 129.234L23.2463 128.951C25.3735 128.477 27.5706 127.984 29.3717 126.699C30.6604 125.779 31.495 124.572 31.6619 123.38C31.7238 122.926 31.6891 122.465 31.56 122.025C31.4309 121.586 31.2103 121.178 30.9127 120.83C30.1439 119.93 29.1188 119.285 27.9742 118.982C27.0721 118.728 26.1502 118.55 25.2182 118.451C24.8772 118.424 24.5345 118.424 24.1935 118.451C23.6267 118.482 22.9785 118.517 22.6408 118.334C21.8023 117.868 21.9382 117.469 22.1439 116.859C22.348 116.415 22.3865 115.912 22.2526 115.442C21.9032 114.472 20.8785 114.185 19.9236 114.029C19.6557 113.99 19.3297 113.952 18.9687 113.913C17.5557 113.754 15.4208 113.525 15.0559 112.581C14.8812 112.135 15.1258 111.526 15.7779 110.776C16.0861 110.447 16.4113 110.133 16.7522 109.837C18.0371 108.673 19.6324 107.225 19.0812 105.656C18.4058 103.669 15.5877 103.844 13.3208 103.983C12.6067 104.049 11.8882 104.049 11.1742 103.983C11.133 103.978 11.0912 103.978 11.05 103.983C11.05 103.952 11.05 103.925 11.05 103.894H10.9607C10.0252 117.457 8.89562 130.95 7.77769 144.264C7.74275 144.652 7.70781 145.087 7.67676 145.498H7.69616C7.99388 145.411 8.27104 145.264 8.51134 145.068V145.068Z" fill="#8C6338"/>
<path d="M60.922 100.436V100.502C59.936 102.027 58.2863 102.644 55.5846 102.493L54.1251 102.404C52.4288 102.295 50.682 102.186 48.9314 102.248C45.9502 102.357 42.4528 102.602 39.1378 103.599L38.7807 103.708C37.2901 104.143 34.798 104.872 34.3361 106.487C34.2647 106.714 34.2444 106.954 34.2766 107.189C34.3088 107.425 34.3928 107.65 34.5224 107.85C35.2211 108.936 37.2047 109.437 38.7419 109.67L39.5182 109.779C40.1664 109.864 40.838 109.957 41.4862 110.109C42.8526 110.435 43.5319 110.947 44.1763 112.139C44.8206 113.331 45.7289 113.952 47.2117 114.188C48.4641 114.34 49.7293 114.355 50.9848 114.231C51.4234 114.204 51.862 114.177 52.2929 114.161C55.3672 114.056 57.5759 114.86 59.2606 116.692C60.3436 117.857 61.3684 119.246 60.7706 120.508C60.4096 121.284 59.5207 121.63 58.6395 121.932C58.0223 122.142 57.378 122.321 56.7569 122.472C55.6895 122.707 54.6489 123.05 53.6515 123.497C53.0151 123.787 52.4522 124.217 52.0047 124.755C51.5571 125.292 51.2364 125.924 51.0663 126.602C50.9558 127.177 50.9804 127.77 51.138 128.334C51.2956 128.897 51.582 129.417 51.9746 129.851C52.848 130.88 54.1134 131.656 55.8563 132.223L56.2057 132.335C57.2848 132.677 58.7637 133.143 58.8569 134.389C58.8996 134.979 58.6085 135.266 58.2708 135.6C58.0146 135.823 57.8059 136.095 57.6575 136.4C57.0519 137.785 58.4726 138.814 59.1558 139.311C59.2955 139.409 59.4392 139.502 59.5867 139.59C59.7665 139.697 59.9402 139.814 60.1068 139.94C60.8016 140.503 61.1199 141.263 61.4576 142.071L61.5819 142.37C61.8111 142.869 62.0703 143.354 62.3582 143.821C62.7609 144.452 63.0904 145.127 63.3403 145.832C63.3403 145.883 63.3403 145.937 63.3403 145.987L63.4373 146.092C63.691 146.33 63.9788 146.529 64.2913 146.682L61.3917 100.036C61.3393 100.072 61.29 100.112 61.2442 100.156L60.922 100.436Z" fill="#8C6338"/>
<path d="M58.8803 74.6726C58.6931 74.8539 58.5192 75.0484 58.3601 75.2548C57.6573 76.1863 56.6733 76.8668 55.5536 77.1957C53.8558 77.7733 52.265 78.6271 50.8451 79.7227C50.6015 79.8895 50.4083 80.1199 50.2864 80.3889C50.1646 80.6578 50.1189 80.9551 50.1542 81.2482C50.29 82.3351 51.505 83.4802 52.5996 83.9654C52.737 84.0215 52.8784 84.0669 53.0228 84.1013C53.4886 84.2371 54.2727 84.4584 54.4124 84.8466C54.4354 84.9399 54.4354 85.0373 54.4124 85.1307C54.3894 85.224 54.3441 85.3103 54.2804 85.3822C54.1442 85.5091 53.9768 85.5975 53.7952 85.6384C53.5949 85.6838 53.406 85.7697 53.2401 85.8907C52.852 86.2789 52.5337 86.8806 53.2401 87.7035C53.8185 88.3556 54.6104 88.4372 55.3712 88.5148C55.925 88.5244 56.4688 88.664 56.9588 88.9224C57.3873 89.2238 57.7525 89.6063 58.034 90.0481C58.1926 90.2725 58.3623 90.4888 58.5425 90.6963C58.7669 90.9428 59.0054 91.1761 59.2568 91.395C59.7925 91.8802 60.2971 92.3344 60.5067 93.0642C60.5291 93.1408 60.569 93.2112 60.6232 93.2699C60.6232 93.3359 60.6232 93.4057 60.6426 93.4717C60.7353 93.5814 60.8471 93.6734 60.9725 93.7435L59.7498 74.2883C59.4664 74.3931 59.1753 74.494 58.8803 74.5872C58.8919 74.6338 58.8764 74.6338 58.8803 74.6726Z" fill="#8C6338"/>
<path d="M45.9042 26.0036C43.5751 26.0036 40.5707 24.6334 39.3635 23.0147C39.1405 22.7644 38.981 22.464 38.8986 22.139C38.8161 21.814 38.8132 21.474 38.8899 21.1476C40.0078 17.3823 42.5853 13.3337 45.6092 13.3337C45.8346 13.3347 46.0594 13.3568 46.2807 13.3997C47.4103 13.6171 48.2837 14.3818 48.8659 15.6744C50.143 18.5003 49.6423 22.8206 48.4118 24.9284C47.8916 25.8173 46.762 26.0036 45.9042 26.0036Z" fill="#FFC9C9"/>
<path d="M45.6088 13.7141C45.8107 13.7144 46.0122 13.7339 46.2104 13.7723C47.2119 13.9625 47.9921 14.6574 48.5394 15.8296C49.735 18.4731 49.2964 22.7119 48.1047 24.7576C47.6738 25.4912 46.6801 25.6426 45.9232 25.6426C43.6912 25.6426 40.8342 24.3461 39.6852 22.809C39.4966 22.6025 39.3607 22.3535 39.289 22.0831C39.2174 21.8127 39.2122 21.5291 39.2738 21.2563C39.8127 19.3895 40.6817 17.6344 41.8396 16.0742C42.678 14.9989 44.0172 13.718 45.6282 13.718L45.6088 13.7141ZM45.6282 12.961C42.2744 12.961 39.6464 17.3319 38.5479 21.0428C37.7716 23.6552 42.5422 26.384 45.9232 26.384C47.1731 26.384 48.2328 25.9959 48.7568 25.1225C50.6977 21.8347 50.7171 13.8655 46.3696 13.0309C46.1251 12.9849 45.8769 12.9616 45.6282 12.961V12.961Z" fill="#8C6338"/>
<path d="M23.3006 26.0191C22.4466 26.0191 21.317 25.8328 20.7969 24.9439C19.5547 22.8361 19.0656 18.5158 20.3427 15.6899C20.925 14.3973 21.7945 13.6326 22.9279 13.4152C23.1492 13.3721 23.3741 13.35 23.5995 13.3492C26.6234 13.3492 29.2008 17.3978 30.3149 21.1631C30.3924 21.4892 30.3903 21.8291 30.3085 22.1541C30.2267 22.4792 30.0678 22.7797 29.8452 23.0302C28.6341 24.6489 25.6374 26.0191 23.3006 26.0191Z" fill="#FFC9C9"/>
<path d="M23.5995 12.9727V13.7296C25.2105 13.7296 26.5497 15.0106 27.3881 16.0858C28.5447 17.6464 29.4123 19.4014 29.95 21.2679C30.0117 21.5407 30.0064 21.8244 29.9348 22.0948C29.8632 22.3651 29.7272 22.6141 29.5386 22.8206C28.3741 24.3733 25.5326 25.6543 23.2968 25.6543C22.5204 25.6543 21.55 25.5029 21.1191 24.7692C19.9274 22.743 19.4888 18.5041 20.6805 15.8607C21.2123 14.6962 21.9886 13.9936 23.0095 13.8034C23.2078 13.765 23.4092 13.7455 23.6112 13.7452V12.9882L23.5995 12.9727ZM23.6112 12.9882C23.3609 12.9881 23.1113 13.0128 22.8659 13.062C18.5223 13.8966 18.5494 21.8618 20.4825 25.1497C21.0027 26.0386 22.0624 26.4112 23.3123 26.4112C26.6972 26.4112 31.4639 23.694 30.6876 21.07C29.589 17.359 26.9611 12.9882 23.6112 12.9882V12.9882Z" fill="#8C6338"/>
<path d="M13.5034 41.3675C13.0882 41.3799 12.68 41.2588 12.3388 41.022C10.3436 39.6013 8.13495 35.8554 8.15047 32.7578C8.15047 31.341 8.63957 30.2852 9.58283 29.6253C10.206 29.1937 10.9482 28.9671 11.7061 28.977C14.4738 28.977 17.6257 31.5157 19.489 33.6855C20.2304 34.555 19.7995 35.871 19.489 36.5735C18.3594 39.0384 15.4481 41.3675 13.5034 41.3675Z" fill="#FFC9C9"/>
<path d="M11.7254 29.3574C13.3752 29.3574 16.3292 30.5569 19.221 33.934C19.8266 34.6404 19.4384 35.7933 19.1512 36.4183C18.0682 38.7667 15.3238 40.987 13.5033 40.987C13.173 40.9975 12.848 40.9023 12.5755 40.7153C10.6619 39.349 8.53079 35.6691 8.54632 32.7578C8.54632 31.4729 8.98109 30.5219 9.81954 29.9358C10.3785 29.548 11.0452 29.3457 11.7254 29.3574ZM11.7254 28.5811C10.8938 28.5716 10.0798 28.8212 9.39642 29.2953C5.77089 31.8339 9.04319 39.0928 12.1486 41.3092C12.5481 41.5898 13.0268 41.7353 13.5149 41.7246C16.8998 41.7246 21.9188 35.902 19.8033 33.4216C17.6878 30.9411 14.5164 28.5811 11.7371 28.5811H11.7254Z" fill="#8C6338"/>
<path d="M57.6459 41.3675C55.7051 41.3675 52.7899 39.0384 51.6565 36.5735C51.3304 35.871 50.8995 34.555 51.6565 33.6855C53.5158 31.5157 56.6678 28.977 59.4199 28.977C60.1778 28.9671 60.9201 29.1937 61.5432 29.6253C62.4903 30.2852 62.9717 31.341 62.9756 32.7578C62.9756 35.8632 60.7824 39.6013 58.7872 41.022C58.4522 41.2565 58.0509 41.3776 57.6421 41.3675H57.6459Z" fill="#FFC9C9"/>
<path d="M59.4244 29.3574C60.1046 29.3457 60.7713 29.548 61.3303 29.9358C62.1688 30.5219 62.5996 31.4885 62.6035 32.7578C62.6035 35.6574 60.488 39.3567 58.5743 40.7153C58.3018 40.9023 57.9768 40.9975 57.6465 40.987C55.826 40.987 53.0816 38.7667 51.9986 36.4183C51.7114 35.7933 51.3232 34.6404 51.9288 33.934C54.8207 30.5569 57.7746 29.3574 59.4244 29.3574V29.3574ZM59.4244 28.5811C56.6451 28.5811 53.4349 30.9955 51.3582 33.4216C49.2815 35.8476 54.2617 41.7246 57.6465 41.7246C58.1346 41.7353 58.6134 41.5898 59.0129 41.3092C62.1183 39.0928 65.3906 31.8339 61.7651 29.2953C61.0817 28.8212 60.2677 28.5716 59.436 28.5811H59.4244Z" fill="#8C6338"/>
<path d="M46.0748 53.5832C44.8365 53.5832 43.5401 52.9583 42.0378 52.2363C40.1824 51.3396 38.0785 50.3265 35.5748 50.3265C33.0711 50.3265 30.9672 51.3396 29.1117 52.2363C27.6095 52.9583 26.313 53.5832 25.0747 53.5832C23.8365 53.5832 22.7961 52.9466 21.7403 51.5802C20.7854 50.3381 21.6472 44.9813 24.2401 39.6401C25.6841 36.6667 29.6746 29.7456 35.5787 29.6874H35.6446C41.343 29.6874 45.3489 36.558 46.7929 39.5159C49.448 44.9153 50.3641 50.3381 49.4092 51.5802C48.3534 52.9466 47.2975 53.5832 46.0748 53.5832Z" fill="#FFC9C9"/>
<path d="M35.6485 30.0678C41.1334 30.0678 45.0306 36.7909 46.4513 39.6789C49.1685 45.2259 49.8594 50.3769 49.1064 51.3512C47.8254 53.0126 46.7774 53.2067 46.0748 53.2067C44.9103 53.2067 43.6603 52.5973 42.1931 51.8947C40.2988 50.9825 38.1522 49.9538 35.5631 49.9538C32.974 49.9538 30.8274 50.9902 28.937 51.8947C27.4775 52.5973 26.2198 53.2067 25.0553 53.2067C24.3682 53.2067 23.3046 53.0126 22.0237 51.3512C21.2706 50.3769 21.8994 45.2763 24.5584 39.8031C25.9714 36.8957 29.8764 30.1221 35.5631 30.0678H35.6291H35.6485ZM35.6291 29.3108H35.5592C25.4241 29.4079 19.2094 48.9329 21.4259 51.8248C22.6525 53.4124 23.8364 53.9753 25.0592 53.9753C28.0054 53.9753 31.1612 50.7146 35.5398 50.7146C39.9184 50.7146 43.0936 53.9753 46.0204 53.9753C47.2432 53.9753 48.4271 53.4124 49.6537 51.8248C51.8663 48.9523 45.4382 29.3108 35.5903 29.3108H35.6291Z" fill="#8C6338"/>
<path d="M10.2308 46.6388C11.1348 47.2213 11.8771 48.0227 12.3888 48.9687C12.9004 49.9146 13.1649 50.9745 13.1576 52.0499C12.9596 82.8436 10.3356 114.084 7.80081 144.295C7.66365 145.925 7.5265 147.562 7.38935 149.205H8.16569C8.30025 147.588 8.42965 145.972 8.55386 144.357C11.0925 114.13 13.7165 82.8746 13.9145 52.0538C13.9224 50.8518 13.6266 49.6672 13.0545 48.61C12.4825 47.5527 11.6527 46.6571 10.6422 46.0061C8.56163 44.6514 7.78528 44.0652 7.50579 43.7819C4.28397 40.7308 2.2616 34.8539 2.90208 30.421C3.35236 27.3156 5.01762 24.874 7.5912 23.562C9.63674 22.5386 11.9925 22.3224 14.1901 22.9565C14.2519 22.9705 14.3163 22.9693 14.3775 22.9527C14.4387 22.9362 14.4949 22.905 14.5413 22.8617C14.5876 22.8184 14.6226 22.7644 14.6433 22.7045C14.664 22.6446 14.6696 22.5805 14.6598 22.5178C13.9844 19.0747 14.3027 15.4182 15.5099 12.7475C16.8064 9.87896 19.0811 8.00021 21.9147 7.45676C22.4662 7.35191 23.0263 7.29862 23.5877 7.29761C29.6665 7.29761 33.0669 13.2987 34.2431 15.8801C34.2742 15.9456 34.3231 16.001 34.3842 16.0401C34.4452 16.0792 34.516 16.1004 34.5885 16.1013C34.6604 16.0997 34.7303 16.0781 34.7907 16.0391C34.851 16 34.8993 15.945 34.9301 15.8801C36.0946 13.2949 39.5067 7.28209 45.5971 7.28209C46.1573 7.28098 46.7163 7.33427 47.2662 7.44123C50.1037 7.98468 52.3784 9.86343 53.671 12.732C54.9637 15.6006 55.2432 19.7191 54.3387 23.333C54.3218 23.4032 54.3249 23.4767 54.3475 23.5453C54.3702 23.6139 54.4114 23.6748 54.4668 23.7212C54.522 23.7619 54.5869 23.7874 54.6551 23.7949C54.7233 23.8024 54.7923 23.7917 54.855 23.7639C57.8555 22.2927 61.0114 22.25 63.6587 23.6474C66.209 24.9982 67.8393 27.4593 68.243 30.5763C68.8175 35.0247 66.6903 40.8628 63.4452 43.8673C62.5773 44.5824 61.6702 45.2485 60.728 45.8625C59.6991 46.5659 58.8699 47.5237 58.3209 48.6427C57.772 49.7617 57.522 51.0037 57.5955 52.2479L63.7208 149.205H64.4778L58.3757 52.2013C58.3078 51.0881 58.5301 49.9764 59.0206 48.9748C59.5112 47.9733 60.2533 47.1162 61.1744 46.4874C62.1525 45.8535 63.0934 45.1641 63.9925 44.4224V44.4224C67.4201 41.2704 69.6288 35.145 69.0388 30.4792C68.6001 27.1099 66.8339 24.447 64.0585 22.9797C61.4073 21.5823 58.2709 21.5086 55.2703 22.7663C56.004 19.1757 55.6818 15.2745 54.393 12.4176C52.9917 9.31223 50.5113 7.29373 47.4409 6.69983C46.8436 6.58387 46.2366 6.52537 45.6281 6.52515C39.6231 6.52515 36.1063 11.8742 34.6196 14.8476C33.129 11.8819 29.6122 6.54068 23.6188 6.54068C23.0081 6.53637 22.3985 6.59097 21.7983 6.70371C18.7162 7.29761 16.2474 9.32775 14.8461 12.4215C13.6428 15.0843 13.2934 18.6516 13.8369 22.0753C11.6111 21.5613 9.27538 21.8457 7.23795 22.8788C4.44312 24.3034 2.63424 26.9391 2.14903 30.3007C1.47361 34.9587 3.59691 41.1151 6.97788 44.3175C8.00521 45.1682 9.0923 45.9439 10.2308 46.6388V46.6388Z" fill="#8C6338"/>
</svg>
