<svg width="643" height="368" viewBox="0 0 643 368" fill="none" xmlns="http://www.w3.org/2000/svg">
<path d="M440.432 37.7544C430.235 49.9211 417.719 59.9365 403.612 67.2171C389.506 74.4976 374.091 78.8976 358.267 80.1607C211.737 92.7425 39.7857 70.9366 -126.616 56.6602L-118.882 332.898C43.8063 309.556 208.191 278.851 364.541 283.137C396.546 283.88 426.958 297.253 449.138 320.339C457.274 328.677 466.784 335.553 477.251 340.667C497.866 351.174 527.831 349.892 548.665 337.855C565.789 327.954 576.171 311.462 577.176 292.591C577.262 291.037 577.292 289.466 577.248 287.897C577.204 286.328 577.064 284.614 576.871 283.012C590.423 280.854 603.23 275.374 614.147 267.06C629.566 254.953 637.782 238.282 637.273 220.1C637.235 218.752 637.197 217.368 637.011 216.006C636.116 207.544 633.364 199.384 628.952 192.109C624.539 184.833 618.575 178.622 611.484 173.918C618.299 168.819 623.905 162.279 627.903 154.766C631.902 147.252 634.193 138.949 634.615 130.449C634.577 129.101 634.686 127.713 634.649 126.365C634.14 108.183 625.003 91.9789 608.932 80.7722C597.566 73.0825 584.473 68.3273 570.822 66.9312C570.924 65.3211 570.971 63.6941 570.924 62.0143C570.877 60.3346 570.837 58.8948 570.59 57.3314C568.531 38.5647 557.24 22.6057 539.59 13.7523C518.116 2.89999 488.074 3.39012 468.132 14.9401C457.609 20.8277 448.227 28.5548 440.432 37.7544V37.7544Z" fill="white"/>
<path d="M-126.598 56.6594L-118.864 332.898C41.2125 309.942 202.808 279.888 356.871 283.001C341.557 278.405 318.684 269.716 313.504 258.223C309.446 249.211 315.077 236.565 313.563 227.999C311.628 216.969 302.144 212.099 300.589 199.451C298.227 181.044 307.249 177.337 313.703 163.079C320.297 148.504 315.914 141.089 312.151 127.413C307.564 110.75 311.028 104.482 324.624 97.2112C338.493 89.7845 359.22 87.1537 369.917 78.5966C366.076 79.2953 362.193 79.8288 358.286 80.1599C211.774 92.7412 39.8037 70.9173 -126.598 56.6594Z" fill="#FBB03B"/>
<path d="M532.367 213.005C532.429 212.56 532.508 212.115 532.607 211.668C535.247 199.753 553.181 193.654 567.609 195.651C584.652 198 602.637 207.602 601.872 223.178C601.884 223.621 601.897 224.064 601.761 224.493C600.842 231.908 595.372 236.476 590.953 238.983C581.297 244.444 566.445 245.784 557.785 241.98C544.577 236.069 530.952 224.498 532.367 213.005Z" fill="#FFC9C9"/>
<path d="M599.926 224.267C599.115 230.94 594.096 235.089 590.043 237.475C579.713 243.306 565.68 243.533 558.59 240.369C545.944 234.756 532.912 223.889 534.205 213.342C534.246 212.953 534.316 212.569 534.413 212.191C535.889 205.517 542.529 201.84 546.346 200.255C553.005 197.592 560.236 196.677 567.349 197.598C575.483 198.625 583.277 201.489 590.14 205.975C597.036 210.788 600.357 216.57 600.025 223.193C600.036 223.599 600.047 223.986 599.929 224.378L599.926 224.267ZM603.636 224.828C603.697 224.346 603.738 223.865 603.762 223.384C604.621 205.902 584.288 196.219 567.838 193.945C553.095 191.901 533.774 197.929 530.789 211.387C530.671 211.883 530.58 212.385 530.517 212.891C528.938 225.774 543.553 237.76 557.078 243.774C570.602 249.787 601.204 244.182 603.581 224.83L603.636 224.828Z" fill="#8C6338"/>
<path d="M389.322 178.494C388.591 152.411 395.293 133.805 409.221 123.2C423.149 112.594 441.52 112.892 452.925 116.434C472.975 122.615 510.495 151.677 511.2 176.836C511.51 187.912 504.265 201.655 490.762 215.538C479.988 226.609 465.865 236.833 456.359 240.405C444.988 244.696 427.749 245.899 413.519 236.469C398.781 226.703 390.423 207.263 389.333 180.23L389.285 178.513L389.322 178.494Z" fill="#FFC9C9"/>
<path d="M509.353 176.869C510.008 200.239 473.944 231.785 455.663 238.67C444.695 242.783 428.102 243.968 414.51 234.908C400.281 225.497 392.213 206.548 391.141 180.142L391.094 178.444C390.381 152.989 396.82 134.89 410.26 124.685C423.7 114.481 441.388 114.799 452.309 118.188C471.409 124.082 508.609 152.912 509.28 176.872L509.353 176.869ZM512.971 176.768C512.231 150.335 473.442 120.829 453.392 114.648C430.286 107.536 385.588 113.775 387.402 178.547L387.45 180.282C390.123 246.712 434.128 250.726 456.961 242.125C475.022 235.32 513.711 203.201 512.971 176.768V176.768Z" fill="#8C6338"/>
<path d="M472.797 277.927C472.767 276.751 472.876 275.576 473.124 274.426C475.807 262.694 493.659 257.668 508.001 260.518C524.182 263.76 541.775 273.871 542.187 288.62C542.23 289.154 542.245 289.69 542.232 290.226C542.008 293.246 541.009 296.157 539.332 298.679C537.656 301.202 535.358 303.249 532.66 304.626C522.116 310.722 506.388 310.46 498.348 306.381C485.739 300.065 473.102 288.817 472.797 277.927Z" fill="#FFC9C9"/>
<path d="M543.959 288.57L540.268 288.674L540.308 290.132C540.016 295.534 537.108 299.883 531.654 303.028C521.62 308.851 506.705 308.604 499.078 304.735C482.475 296.314 474.827 285.093 474.625 277.876C474.597 276.855 474.693 275.835 474.909 274.838C476.409 268.349 482.95 265.099 486.699 263.756C493.434 261.482 500.643 260.987 507.626 262.321C515.566 263.842 523.1 267.011 529.741 271.622C534.455 275.055 540.102 280.79 540.323 288.672L544.015 288.569L543.959 288.57ZM544.015 288.569C543.554 272.122 524.127 261.822 508.338 258.698C493.643 255.785 474.366 260.703 471.321 274.015C471.018 275.313 470.887 276.646 470.933 277.979C471.268 289.959 484.803 301.606 497.415 308.033C511.395 315.123 542.901 310.823 543.99 290.324C543.973 289.734 543.957 289.143 543.941 288.571L544.015 288.569Z" fill="#8C6338"/>
<path d="M529.812 136.929C528.548 125.419 542.324 114.023 555.65 108.311C564.302 104.596 579.124 106.139 588.721 111.726C593.115 114.282 598.526 118.841 599.346 126.356C599.358 126.78 599.37 127.223 599.383 127.666C599.948 143.223 581.829 152.616 564.746 154.757C550.295 156.547 532.457 150.23 529.961 138.274C529.866 137.831 529.798 137.382 529.757 136.931L529.812 136.929Z" fill="#FFC9C9"/>
<path d="M597.485 126.556C597.496 126.943 597.508 127.349 597.518 127.737C597.704 134.364 594.355 140.11 587.412 144.831C580.481 149.203 572.651 151.949 564.508 152.861C557.379 153.69 550.158 152.677 543.532 149.92C539.792 148.289 533.147 144.54 531.741 137.855L531.56 136.678C530.396 126.106 543.582 115.411 556.305 109.956C563.424 106.893 577.457 107.294 587.71 113.27C591.748 115.614 596.687 119.817 597.428 126.502L597.485 126.556ZM601.112 126.103C598.981 106.729 568.661 100.632 554.862 106.56C541.062 112.488 526.499 124.183 528.006 137.073C528.06 137.585 528.143 138.095 528.252 138.599C531.068 152.098 550.306 158.302 565.072 156.522C581.493 154.473 601.956 145.033 601.318 127.538C601.305 127.058 601.292 126.578 601.278 126.098L601.112 126.103Z" fill="#8C6338"/>
<path d="M467.195 77.8314C466.89 66.9406 478.952 55.0016 491.04 47.9942C498.839 43.4716 514.527 42.3119 525.396 47.8267C528.167 49.0499 530.576 50.966 532.391 53.3904C534.206 55.8149 535.366 58.6658 535.76 61.6688C535.802 62.2029 535.817 62.739 535.805 63.2747C536.218 78.0419 519.219 89.14 503.244 93.245C489.084 96.8927 470.997 92.8731 467.644 81.3103C467.332 80.1763 467.157 79.0091 467.122 77.8335L467.195 77.8314Z" fill="#FFC9C9"/>
<path d="M533.958 63.3264C534.179 71.2084 528.806 77.2518 524.346 80.942C517.974 85.9174 510.63 89.5024 502.787 91.4659C495.89 93.1879 488.664 93.0975 481.812 91.2034C477.994 90.0726 471.281 87.1939 469.421 80.7987C469.149 79.815 468.997 78.8021 468.967 77.7818C468.76 70.3983 475.829 58.9316 491.879 49.5965C499.278 45.3067 514.156 44.2435 524.5 49.4775C530.121 52.3128 533.268 56.4921 533.862 61.8697C533.876 62.3496 533.889 62.848 533.903 63.328L533.958 63.3264ZM537.595 63.2246C537.579 62.6524 537.562 62.0617 537.546 61.471C535.312 41.065 503.651 38.5338 490.053 46.3962C477.819 53.4816 464.958 65.9048 465.294 77.8847C465.323 79.2178 465.527 80.5413 465.903 81.8209C469.688 94.9419 489.21 98.7551 503.718 95.0422C519.309 91.0403 538.129 79.6695 537.669 63.2225L537.595 63.2246Z" fill="#8C6338"/>
<path d="M366.434 138.29C365.733 138.906 365.191 139.681 364.853 140.551C364.433 141.375 364.032 142.236 363.687 143.096C362.96 144.834 362.288 146.571 361.71 148.361C360.531 151.888 359.534 155.474 358.722 159.103C357.098 166.328 356.295 173.712 356.327 181.117C356.354 188.49 357.418 195.824 359.487 202.901C361.661 210.059 364.798 216.888 368.811 223.201C363.535 217.617 359.436 211.028 356.76 203.827C354.07 196.566 352.674 188.89 352.634 181.146C352.615 173.438 353.733 165.769 355.95 158.387C357.034 154.713 358.404 151.129 360.046 147.668C360.885 145.964 361.798 144.257 362.769 142.641C363.282 141.832 363.813 141.023 364.383 140.25C364.898 139.441 365.602 138.768 366.434 138.29V138.29Z" fill="#8C6338"/>
<path d="M438.995 36.5754C428.943 48.5325 416.619 58.3782 402.738 65.543C388.857 72.7078 373.693 77.0496 358.123 78.3173C238.094 88.6238 98.569 75.5901 -36.3624 63.0004C-66.2216 60.1417 -96.4474 57.3857 -126.65 54.8137L-126.546 58.5055C-96.4917 61.0816 -66.4126 63.8787 -36.7216 66.6682C98.3949 79.2712 238.087 92.3188 358.447 81.9845C374.506 80.6663 390.144 76.18 404.459 68.7846C418.774 61.3891 431.482 51.2311 441.849 38.897C449.526 29.8805 458.747 22.3034 469.081 16.5207C488.514 5.262 517.818 4.79255 538.786 15.3819C555.857 24.0114 566.798 39.3705 568.785 57.5297C568.938 59.0402 569.054 60.5518 569.096 62.047C569.138 63.5421 569.179 65.0188 569.008 66.8156C568.984 67.2862 569.14 67.7484 569.446 68.1073C569.751 68.4663 570.182 68.6948 570.651 68.7462C584.021 70.0813 596.849 74.7251 607.976 82.2583C623.558 93.1462 632.402 108.804 632.894 126.396C632.931 127.706 632.968 129.035 632.857 130.35C632.43 138.577 630.201 146.611 626.329 153.882C622.456 161.154 617.034 167.486 610.445 172.432C610.217 172.61 610.034 172.839 609.911 173.101C609.788 173.363 609.728 173.65 609.736 173.939C609.744 174.228 609.82 174.511 609.957 174.766C610.095 175.02 610.291 175.239 610.528 175.404C617.386 179.975 623.155 185.997 627.429 193.044C631.703 200.091 634.376 207.99 635.261 216.184C637.124 235.233 629.124 253.007 613.035 265.613C602.34 273.745 589.796 279.098 576.525 281.193C576.06 281.27 575.642 281.522 575.357 281.898C575.072 282.273 574.942 282.744 574.993 283.212C575.342 286.276 575.429 289.363 575.251 292.442C574.283 310.665 564.218 326.612 547.658 336.202C527.312 347.855 498.03 349.119 477.998 338.965C467.725 333.929 458.384 327.181 450.375 319.011C439.254 307.371 425.944 298.043 411.208 291.56C396.472 285.077 380.601 281.569 364.506 281.236C235.093 277.691 98.1749 298.391 -34.3102 318.412C-62.2901 322.631 -90.6008 326.916 -119.028 331L-118.925 334.692C-90.3497 330.603 -61.8919 326.297 -33.7469 322.036C98.5731 302.056 235.4 281.377 364.406 284.915C380.019 285.236 395.415 288.637 409.711 294.922C424.007 301.208 436.921 310.254 447.712 321.543C456.035 330.055 465.754 337.081 476.447 342.315C497.529 352.994 528.29 351.781 549.633 339.453C567.303 329.223 578.021 312.186 579.063 292.686C579.223 289.966 579.177 287.238 578.927 284.524C592.166 282.161 604.648 276.669 615.333 268.505C632.397 255.095 640.937 236.161 638.89 215.824C638.005 207.511 635.382 199.476 631.192 192.242C627.002 185.008 621.338 178.735 614.567 173.831C621.053 168.556 626.357 161.976 630.136 154.519C633.915 147.062 636.084 138.893 636.502 130.544C636.462 129.122 636.57 127.697 636.531 126.312C636.005 107.521 626.596 90.8074 610.035 79.2634C598.906 71.689 586.13 66.8789 572.769 65.2324C572.867 62.5094 572.76 59.783 572.448 57.0761C570.317 37.6833 558.662 21.2542 540.448 12.0471C518.449 0.932414 487.668 1.44321 467.235 13.2841C456.512 19.3067 446.948 27.194 438.995 36.5754V36.5754Z" fill="#8C6338"/>
<path d="M211.282 247.91C210.256 241.603 207.044 236.428 203.95 231.489C200.909 227.119 198.591 222.287 197.084 217.18L196.751 215.822C195.648 210.104 193.771 204.563 191.172 199.352C189.887 196.987 188.381 194.683 186.933 192.433C184.188 188.51 181.918 184.277 180.169 179.82C178.75 175.464 177.71 170.994 177.061 166.458C175.685 158.202 174.285 150.427 167.876 143.217C167.548 142.869 167.118 142.633 166.647 142.543C166.177 142.453 165.691 142.515 165.257 142.718C164.792 142.9 164.395 143.223 164.122 143.641C163.849 144.059 163.713 144.552 163.734 145.051C164.812 159.8 165.358 171.386 162.366 184.604C160.046 194.793 158.224 204.912 161.414 216.608C163.472 224.125 164.472 230.138 163.589 236.868C163.223 239.631 162.618 242.438 161.972 245.116C161.254 248.136 160.692 251.192 160.289 254.27C159.937 259.048 160.102 263.85 160.782 268.592C161.418 274.8 162.469 289.253 163.3 292.537C182.963 290.139 201.963 287.852 220.379 285.785L220.366 285.323C220.343 284.511 221.41 284.998 222.331 285.582L222.423 285.58C216.346 280.3 212.482 265.703 212.125 256.902C212.011 253.891 211.73 250.889 211.282 247.91V247.91Z" fill="#8C6338"/>
<path d="M82.1961 302.899C82.177 302.216 79.2896 290.141 79.5051 283.983C79.701 281.042 79.6492 278.09 79.3503 275.158C78.0596 267.968 75.9161 260.958 72.9651 254.277C71.2557 249.965 69.5057 245.525 68.2556 241.126C65.8972 232.768 64.1955 224.115 62.5391 215.756C59.5227 200.397 56.3812 184.523 49.101 169.949C48.8825 169.476 48.5194 169.085 48.064 168.832C47.6086 168.579 47.0846 168.477 46.5677 168.542C45.9973 168.625 45.4672 168.884 45.0512 169.283C44.6352 169.683 44.354 170.201 44.247 170.768C43.4907 175.284 43.2288 179.869 43.466 184.442C43.5141 186.158 43.5616 187.857 43.4999 189.613C43.3088 193.861 42.6714 198.077 41.5983 202.192L40.7317 206.206C39.6626 212.617 39.2874 219.125 39.6125 225.616C39.9464 232.027 39.575 238.455 38.505 244.785C37.5237 249.104 36.2984 253.363 34.835 257.543C32.8722 262.981 31.4091 268.587 30.4639 274.291C30.0819 278.049 30.0086 281.833 30.2449 285.603C30.4402 292.58 30.7346 299.795 27.2768 305.619C27.0378 306.051 26.8879 306.526 26.8357 307.017C26.6331 307.032 26.4297 307.038 26.2265 307.034C26.2757 307.172 26.3167 307.312 26.3491 307.455L26.9631 308.269C27.7529 308.764 35.4 308.735 44.0219 308.549C57.7553 307.5 71.446 306.248 85.0228 304.889C84.034 304.294 83.0893 303.629 82.1961 302.899Z" fill="#8C6338"/>
<path d="M-37.5777 91.388C-35.427 97.4701 -34.1663 103.831 -33.8346 110.274C-33.5808 112.742 -33.3244 115.303 -32.9572 117.86C-31.5527 126.388 -29.1936 134.731 -25.9245 142.732C-23.9318 147.923 -22.4867 153.35 -21.0647 158.612C-20.0342 162.426 -19.0002 166.369 -17.7108 170.194C-17.5327 170.749 -17.171 171.227 -16.6852 171.549C-16.1994 171.871 -15.6185 172.018 -15.038 171.966C-14.5199 171.949 -14.0249 171.748 -13.642 171.398C-13.259 171.049 -13.013 170.575 -12.9483 170.06C-12.075 165.336 -10.853 160.683 -9.29238 156.14C-7.60174 151.293 -6.31992 146.314 -5.46029 141.254C-4.87067 135.815 -4.77686 130.334 -5.17989 124.878C-5.47769 120.277 -5.47111 115.661 -5.16031 111.06C-4.46247 105.752 -3.20283 100.534 -1.40266 95.4923C0.905686 88.2046 3.24474 80.6943 2.34935 73.1268C2.44025 69.1155 -1.08584 67.2191 -2.8178 65.4017C-17.8211 64.6395 -32.7813 64.0977 -47.605 63.8108C-46.0845 67.3151 -42.281 73.8406 -41.719 76.0971C-40.7634 81.2997 -39.3782 86.4142 -37.5777 91.388V91.388Z" fill="#8C6338"/>
<path d="M77.9239 88.2834L77.9689 89.8894C77.9673 94.46 78.3545 99.0224 79.1266 103.527C80.4861 108.914 82.6612 114.061 85.5763 118.791C87.8252 122.596 89.6891 126.615 91.1402 130.79C92.0336 134.132 92.5632 137.561 92.7197 141.017C92.8873 143.045 93.0569 145.146 93.3727 147.188C94.07 151.639 95.2109 156.096 96.3291 160.406L96.848 162.442C99.8573 174.254 103.017 184.825 106.473 194.796C106.618 195.311 106.942 195.757 107.388 196.053C107.834 196.349 108.371 196.476 108.901 196.409C109.483 196.341 110.023 196.072 110.429 195.65C110.835 195.228 111.082 194.677 111.127 194.093C111.347 192.055 111.733 189.975 112.101 187.97C112.829 184.676 113.211 181.316 113.243 177.944C113.181 175.747 112.957 173.666 112.733 171.622C112.156 168.017 112.103 164.347 112.576 160.727C113.28 157.197 114.225 153.72 115.407 150.321C117.029 145.956 118.141 141.418 118.723 136.798C119.017 132.133 118.923 127.452 118.442 122.803C117.769 116.964 117.852 111.063 118.689 105.246L119.581 100.787C120.976 93.8948 124.367 83.0483 124.227 76.0508C123.747 76.0642 123.264 75.9669 122.783 75.9434C121.997 76.261 121.197 76.6898 121.116 75.8054L115.562 75.3513C114.233 75.3885 112.845 75.298 111.438 75.2081C108.348 75.0175 105.234 74.6613 102.176 74.2851C94.5843 73.6725 86.9503 73.0734 79.2736 72.4878C79.2948 73.2446 78.9189 73.015 78.4614 72.5105L75.6664 72.3117C76.2348 76.1198 77.5003 83.0489 77.6349 84.5599C77.7696 86.071 77.8909 87.1021 77.9239 88.2834Z" fill="#8C6338"/>
<path d="M211.698 114.964C212.266 117.442 212.615 120 212.961 122.466C213.351 126.197 214.072 129.886 215.117 133.489C216.713 137.906 218.687 142.177 221.016 146.256C224.235 152.336 227.277 158.07 228.111 165.417C229.587 178.547 232.249 188.504 236.793 197.743C236.991 198.162 237.33 198.498 237.751 198.692C238.172 198.886 238.648 198.926 239.095 198.805C239.618 198.696 240.088 198.415 240.432 198.007C240.776 197.599 240.972 197.087 240.99 196.554C240.992 192.656 241.195 188.697 241.402 184.867C242.139 176.531 241.904 168.137 240.702 159.855L240.464 158.624C239.533 155.108 239.379 151.43 240.015 147.848C240.425 146.238 241 144.674 241.731 143.182C242.201 142.153 242.689 141.104 243.083 140.003C244.572 135.53 245.125 130.799 244.708 126.103C244.651 124.072 244.41 122.066 244.243 120.075C243.712 115.635 243.587 111.155 243.869 106.692L244.007 105.026C243.91 103.597 244.167 102.166 244.755 100.861C245.344 99.5552 246.246 98.4152 247.381 97.542C247.559 97.5216 247.738 97.5166 247.916 97.527C248.19 97.5306 248.462 97.4798 248.716 97.3776C248.97 97.2753 249.201 97.1237 249.396 96.9314C252.307 93.3399 251.3 89.7104 250.315 86.2095C250.047 85.2195 249.76 84.2115 249.565 83.1824C250.027 83.1695 250.07 81.4133 249.839 79.7756C230.325 79.5461 209.607 78.5559 188.009 77.1285C189.329 84.7026 199.195 95.2888 203.43 100.084C207.512 104.182 210.375 109.333 211.698 114.964V114.964Z" fill="#8C6338"/>
</svg>
