<svg width="700" height="416" viewBox="0 0 700 416" fill="none" xmlns="http://www.w3.org/2000/svg">
<path d="M558.534 338.102L382.89 318.824L403.582 312.63L537.991 318.793L558.534 338.102Z" fill="#FBB03B"/>
<path d="M242.602 331.48C246.083 326.609 250.737 322.69 256.134 320.083C261.532 317.476 267.501 316.264 273.492 316.558C444.222 325.469 613.887 348.239 783.586 370.275L797.147 74.5333C588.207 78.0431 354.838 81.9644 285.116 83.158C278.887 83.2599 272.738 81.7409 267.277 78.7509C261.816 75.7609 257.23 71.4031 253.971 66.1073C250.916 60.9108 247.57 55.8893 243.951 51.0665C228.571 32.7576 197.6 19.9829 173.466 21.9804C156.281 23.398 142.303 31.7018 134.325 45.3455C130.247 52.1823 127.93 59.9198 127.579 67.8678C127.24 76.6722 128.94 85.4365 132.548 93.4801C113.922 87.929 91.7013 87.9515 75.1632 94.4634C59.1445 100.815 48.274 112.795 44.5579 128.186C43.8438 131.176 43.4091 134.226 43.2596 137.296C42.0056 164.644 63.5895 185.198 87.0595 197.221C62.6295 207.026 39.2951 225.541 38.043 252.849C37.909 255.92 38.0628 258.997 38.5021 262.039C40.7941 277.706 50.5227 290.63 65.8725 298.42C80.4217 305.806 100.362 308.17 118.323 305.461C116.802 309.982 115.897 314.687 115.634 319.449C115.39 327.115 116.986 334.729 120.288 341.657C126.835 356.069 139.762 365.79 156.692 369.038C180.485 373.58 212.638 364.169 229.904 347.582C234.473 342.487 238.714 337.109 242.602 331.48V331.48Z" fill="white"/>
<path d="M1019.25 371.353L1031.65 100.844C978.908 71.6677 726.76 70.5374 688.538 70.9277C574.403 70.7961 461.922 82.6586 383.847 78.099C381.671 81.04 379.691 83.7247 380.281 84.6497C381.654 86.7534 397.525 80.2159 398.749 82.4557C399.972 84.6954 385.945 94.6439 387.083 96.9818C388.22 99.3196 404.734 94.7912 405.686 97.1614C406.639 99.5316 391.605 107.842 392.453 110.269C393.301 112.695 410.227 109.859 410.95 112.321C411.674 114.783 395.97 121.695 396.59 124.193C397.21 126.691 414.338 125.231 414.795 127.721C415.252 130.212 399.151 135.984 399.607 138.515C400.062 141.046 417.239 140.731 417.613 143.259C417.987 145.786 401.503 150.561 401.815 153.105C402.127 155.65 419.28 156.314 419.51 158.856C419.741 161.397 403.031 165.304 403.201 167.842C403.37 170.381 420.503 171.921 420.61 174.477C420.718 177.033 403.841 180.137 403.907 182.691C403.974 185.245 420.99 187.556 420.997 190.086C421.003 192.617 403.994 195.041 403.96 197.57C403.925 200.099 420.805 203.159 420.71 205.685C420.614 208.212 403.514 209.958 403.378 212.482C403.242 215.007 419.989 218.734 419.792 221.255C419.595 223.777 402.444 224.848 402.186 227.346C401.929 229.844 418.565 234.219 418.264 236.777C417.963 239.334 400.764 239.668 400.429 242.081C400.094 244.495 416.407 249.671 416.089 252.167C415.77 254.662 398.502 254.299 398.041 256.768C397.581 259.236 413.741 265.1 413.22 267.545C412.7 269.991 395.552 268.776 394.969 271.259C394.385 273.743 410.222 280.428 409.581 282.827C408.94 285.226 391.874 283.117 391.092 285.489C390.31 287.862 405.686 295.669 404.804 297.995C403.922 300.322 387.14 296.9 386.219 299.184C385.298 301.468 399.768 310.785 398.729 312.982C397.689 315.179 381.388 309.738 380.171 311.804C379.616 312.779 381.399 315.289 383.618 318.085C461.803 317.588 565.893 339.606 673.118 353.808C711.916 359.546 971.282 393.762 1019.25 371.353Z" fill="#FBB03B"/>
<path d="M491.949 120.321C492.566 127.349 495.68 133.308 498.685 138.996C501.677 144.056 503.837 149.564 505.079 155.31L505.336 156.832C506.084 163.217 507.699 169.47 510.137 175.419C511.36 178.128 512.829 180.787 514.241 183.383C516.943 187.925 519.098 192.771 520.661 197.82C521.869 202.731 522.65 207.738 522.995 212.784C523.838 221.985 524.746 230.66 531.216 239.119C531.549 239.53 532.003 239.825 532.513 239.962C533.024 240.099 533.564 240.071 534.058 239.882C534.585 239.72 535.048 239.397 535.383 238.958C535.717 238.52 535.907 237.988 535.925 237.437C535.939 221.112 536.281 208.311 540.652 194.002C544.035 182.973 546.865 171.981 544.305 158.843C542.651 150.4 542.04 143.699 543.56 136.36C544.188 133.348 545.082 130.308 546.011 127.412C547.048 124.145 547.915 120.826 548.61 117.47C549.386 112.238 549.595 106.938 549.233 101.662C549.038 94.7754 549.058 78.7765 548.41 75.0938C526.567 76.133 505.461 77.104 485.018 77.8809L484.995 78.39C484.953 79.2861 483.819 78.6626 482.852 77.9448L482.75 77.9401C489.012 84.2476 492.077 100.633 491.753 110.353C491.634 113.676 491.699 117.004 491.949 120.321V120.321Z" fill="white"/>
<path d="M638.361 74.3615C638.326 75.115 640.522 88.6441 639.784 95.406C639.328 98.6282 639.145 101.883 639.235 105.136C640.071 113.156 641.86 121.049 644.565 128.645C646.096 133.532 647.662 138.563 648.68 143.507C650.596 152.901 651.765 162.567 652.908 171.905C654.979 189.061 657.145 206.792 663.974 223.432C664.176 223.97 664.544 224.43 665.025 224.746C665.505 225.061 666.074 225.216 666.648 225.187C667.283 225.142 667.888 224.899 668.379 224.494C668.869 224.088 669.221 223.54 669.385 222.925C670.585 218.014 671.247 212.988 671.358 207.934C671.445 206.04 671.531 204.166 671.742 202.237C672.298 197.576 673.343 192.986 674.859 188.544L676.14 184.194C677.839 177.223 678.782 170.089 678.953 162.915C679.107 155.83 680.039 148.782 681.733 141.9C683.165 137.226 684.86 132.636 686.812 128.154C689.416 122.326 691.483 116.273 692.988 110.07C693.714 105.963 694.103 101.804 694.15 97.6336C694.503 89.9356 694.766 81.9682 699.047 75.8381C699.346 75.3822 699.549 74.8711 699.647 74.335C699.871 74.3341 700.095 74.3444 700.319 74.3658C700.276 74.21 700.242 74.0517 700.218 73.8918L699.608 72.9455C698.779 72.3361 690.357 71.7458 680.85 71.2486C665.644 71.2861 650.469 71.5494 635.411 71.9405C636.451 72.6756 637.437 73.4846 638.361 74.3615Z" fill="white"/>
<path d="M624.752 329.325L624.833 327.554C625.207 322.522 625.152 317.467 624.669 312.444C623.61 306.403 621.635 300.559 618.81 295.115C616.644 290.742 614.919 286.165 613.661 281.45C612.95 277.698 612.646 273.88 612.755 270.062C612.735 267.816 612.72 265.489 612.538 263.215C612.133 258.258 611.24 253.258 610.36 248.422L609.954 246.138C607.603 232.887 604.985 220.992 601.991 209.732C601.874 209.154 601.553 208.636 601.086 208.274C600.62 207.912 600.039 207.729 599.449 207.759C598.803 207.787 598.186 208.039 597.705 208.471C597.224 208.903 596.907 209.488 596.81 210.128C596.401 212.354 595.808 214.612 595.239 216.79C594.17 220.357 593.475 224.025 593.166 227.736C593.054 230.159 593.132 232.469 593.212 234.738C593.554 238.754 593.314 242.798 592.498 246.746C591.436 250.574 590.112 254.325 588.534 257.972C586.393 262.646 584.799 267.551 583.782 272.59C583.079 277.702 582.801 282.864 582.952 288.022C583.218 294.504 582.646 300.994 581.251 307.331L579.906 312.167C577.809 319.642 573.192 331.308 572.777 339.024C573.307 339.048 573.83 339.194 574.358 339.259C575.249 338.974 576.165 338.567 576.182 339.547L582.26 340.499C583.727 340.566 585.247 340.779 586.789 340.993C590.176 341.454 593.574 342.1 596.911 342.763C605.219 344.055 613.575 345.336 621.98 346.606C622.018 345.771 622.413 346.055 622.876 346.647L625.937 347.094C625.621 342.855 624.792 335.123 624.767 333.448C624.741 331.774 624.692 330.629 624.752 329.325Z" fill="white"/>
<path d="M479.828 284.987C479.404 282.212 479.228 279.367 479.048 276.624C478.923 272.485 478.429 268.364 477.572 264.312C476.174 259.319 474.348 254.456 472.116 249.776C469.068 242.82 466.185 236.26 465.865 228.102C465.309 213.526 463.189 202.347 458.938 191.806C458.753 191.328 458.407 190.931 457.96 190.683C457.512 190.435 456.992 190.352 456.49 190.448C455.906 190.526 455.364 190.797 454.953 191.218C454.541 191.64 454.283 192.187 454.22 192.773C453.901 197.064 453.354 201.407 452.815 205.606C451.325 214.724 450.901 223.985 451.55 233.201L451.711 234.576C452.45 238.523 452.32 242.584 451.329 246.476C450.746 248.216 449.985 249.891 449.059 251.474C448.458 252.569 447.835 253.683 447.312 254.863C445.308 259.667 444.314 264.831 444.391 270.035C444.289 272.276 444.391 274.505 444.412 276.71C444.635 281.642 444.408 286.584 443.735 291.474L443.447 293.298C443.438 294.879 443.038 296.433 442.284 297.823C441.529 299.212 440.444 300.394 439.123 301.263C438.926 301.271 438.728 301.262 438.532 301.236C438.231 301.209 437.928 301.243 437.64 301.335C437.352 301.427 437.085 301.575 436.855 301.771C433.358 305.488 434.171 309.566 434.97 313.501C435.184 314.613 435.418 315.746 435.549 316.895C435.04 316.871 434.849 318.801 434.97 320.623C456.436 322.464 479.166 325.241 502.829 328.571C501.992 320.125 491.992 307.666 487.719 302.042C483.558 297.199 480.826 291.293 479.828 284.987V284.987Z" fill="white"/>
<path d="M75.9111 117.288C75.6722 119.022 75.161 120.706 74.3965 122.28C74.075 123.061 73.7747 123.823 73.5384 124.526C73.3021 125.23 73.2048 125.572 73.0361 126.136C72.7878 127.057 72.4668 127.957 72.076 128.827C70.9781 130.96 68.8772 132.272 64.7633 134.756C60.6887 129.264 52.2547 124.489 45.9946 121.263C41.5669 119.02 36.9476 116.951 32.4652 115.01C30.0245 113.939 27.5839 112.868 25.1451 111.756C23.9456 111.212 22.6008 110.721 21.1337 110.226C18.5776 109.469 16.1578 108.311 13.9646 106.795C14.1741 106.308 14.5106 105.886 14.9389 105.574C17.5021 103.529 24.7899 101.699 45.0033 104.606L46.6454 104.844C53.6415 105.818 75.0341 108.82 75.8373 116.673L75.9111 117.288Z" fill="white"/>
<path d="M17.4065 106.504C20.0517 105.339 26.9672 104.064 44.7877 106.637L45.2154 106.656L46.4928 106.837C69.771 110.109 73.6905 114.533 73.9497 116.892L73.9357 117.197C73.6898 118.69 73.2316 120.14 72.5751 121.502C72.2545 122.263 71.932 123.065 71.6716 123.849L71.1451 125.539C70.926 126.34 70.6513 127.126 70.3231 127.889C69.6282 129.245 68.3606 130.187 65.2745 132.065C60.6767 126.855 52.898 122.478 46.9969 119.432C42.5082 117.185 37.849 115.094 33.3472 113.132C30.9464 112.083 28.4659 110.99 26.0669 109.901C24.7675 109.31 23.343 108.776 22.0593 108.288C20.5292 107.777 19.0303 107.177 17.5704 106.491L17.4065 106.504ZM11.975 107.458C14.7675 110.648 20.6064 111.936 24.4686 113.603C31.3842 116.777 38.4795 119.592 45.2385 123.065C51.0202 126.045 61.1738 131.592 64.2698 137.509C69.7901 134.17 72.5308 132.704 74.0519 129.794C74.6778 128.304 75.2047 126.774 75.6293 125.214C76.7686 122.735 77.5749 120.116 78.0272 117.426C78.0725 117.116 78.0869 116.802 78.0702 116.489C76.9753 106.541 53.5719 103.774 45.8631 102.768C39.9426 101.925 12.7037 97.7982 11.9685 107.601L11.975 107.458Z" fill="#8C6338"/>
<path d="M172.837 31.6317C172.643 35.8677 165.197 42.9344 157.895 45.9465C154.26 42.5293 150.948 38.784 148 34.7582C145.538 31.4611 142.882 28.3135 140.045 25.3323L137.182 22.3439C135.096 20.2075 132.957 17.9053 130.64 15.9215C129.316 14.8573 127.906 13.9052 126.424 13.0752C124.444 12.0964 122.67 10.7473 121.198 9.10091C120.866 8.67247 120.657 8.16221 120.592 7.62425C121.109 7.03572 125.5 6.07373 139.04 9.40887C148.158 11.5705 156.681 15.7326 163.992 21.5937L164.7 22.1772C167.218 24.211 172.432 28.45 172.757 31.1587C172.801 31.3129 172.828 31.4716 172.837 31.6317V31.6317Z" fill="white"/>
<path d="M124.098 9.05066C138.093 9.77175 151.555 14.6525 162.761 23.0682L163.489 23.6526C168.172 27.4591 170.622 30.102 170.812 31.2944L170.804 31.4777C170.67 34.3899 164.678 40.4416 158.334 43.4975C155.194 40.3739 152.299 37.014 149.673 33.4475C147.16 30.0861 144.452 26.875 141.563 23.8308C140.607 22.8686 139.611 21.8842 138.718 20.8841C136.612 18.7467 134.436 16.3613 132.042 14.272C130.626 13.1327 129.116 12.1145 127.529 11.2283C126.346 10.5587 125.201 9.82491 124.099 9.03027L124.098 9.05066ZM118.619 7.47288C118.649 8.42092 118.962 9.33835 119.519 10.106C121.305 12.9838 126.719 15.0891 129.389 17.3951C132.666 20.2596 135.593 23.6183 138.674 26.7391C145.266 33.4086 150.403 42.44 157.584 48.2794C165.097 45.5627 174.627 37.5509 174.895 31.7062L174.934 30.8507C174.476 27.0543 168.343 22.3854 165.434 19.9663C157.899 13.9403 149.127 9.64988 139.745 7.40074C137 6.72388 118.943 2.20207 118.701 7.47662L118.619 7.47288Z" fill="#8C6338"/>
<path d="M68.908 269.577C67.8746 277.427 46.4945 279.937 39.4561 280.777L37.8351 280.968C17.5391 283.425 10.3037 281.441 7.78752 279.346C7.37559 279.014 7.05181 278.585 6.84475 278.098C9.06379 276.629 11.5056 275.528 14.0758 274.838C15.5062 274.353 16.8532 273.904 18.0818 273.369C20.5178 272.317 22.9926 271.308 25.447 270.298C29.98 268.465 34.6407 266.516 39.1285 264.334C45.3921 261.254 54.0103 256.67 58.0948 251.265C62.1613 253.819 64.2418 255.18 65.2851 257.35C65.6664 258.225 65.9663 259.134 66.181 260.064L66.6376 261.677C66.8706 262.382 67.1619 263.15 67.4727 263.94C68.2495 265.619 68.7197 267.424 68.8609 269.269L68.908 269.577Z" fill="white"/>
<path d="M10.2158 278.457C11.6926 277.812 13.2037 277.247 14.7422 276.767C16.1309 276.3 17.5817 275.815 18.8937 275.243C21.3092 274.19 23.8257 273.163 26.2385 272.172C30.7918 270.34 35.4933 268.392 40.0236 266.171C45.9937 263.261 53.8601 259.051 58.5842 253.941C61.6373 255.897 62.8579 256.871 63.5294 258.249C63.8422 259.024 64.0989 259.82 64.2977 260.631C64.4548 261.21 64.612 261.789 64.7913 262.327C64.9707 262.866 65.3507 263.924 65.642 264.693C66.3019 266.118 66.7283 267.639 66.9047 269.2L66.8991 269.322C66.1786 274.799 49.2751 277.595 39.2419 278.768L37.9496 278.913L37.6034 278.897C19.7485 281.078 12.8545 279.66 10.238 278.417L10.2158 278.457ZM4.65557 277.325C5.18486 287.145 32.5092 283.622 38.458 282.956C46.1538 282.023 69.6434 279.794 70.9553 269.875L70.9778 269.386C71.1001 266.719 69.4693 263.562 68.6631 261.117C68.2807 259.553 67.792 258.017 67.2005 256.519C65.7465 253.514 63.0403 252.002 57.5865 248.548C54.2776 254.396 44.0956 259.705 38.2292 262.579C31.424 265.899 24.2626 268.53 17.2668 271.556C13.3736 273.235 7.50791 274.313 4.63052 277.426L4.65557 277.325Z" fill="#8C6338"/>
<path d="M158.173 351.424C158.186 351.594 158.178 351.765 158.15 351.933C157.579 354.601 151.999 358.345 149.305 360.14L148.546 360.656C140.757 365.814 131.916 369.173 122.667 370.49C108.796 372.588 104.511 371.228 104.012 370.532C104.205 370.047 104.466 369.591 104.789 369.18C106.401 367.68 108.284 366.499 110.336 365.7C111.9 365.022 113.4 364.202 114.815 363.252C117.306 361.448 119.645 359.392 121.918 357.455L125.042 354.742C128.14 352.032 131.073 349.141 133.827 346.083C137.13 342.344 140.771 338.918 144.704 335.847C151.599 339.47 158.368 347.188 158.173 351.424Z" fill="white"/>
<path d="M107.552 369.45C108.732 368.764 109.946 368.139 111.189 367.576C112.85 366.839 114.447 365.963 115.962 364.958C118.54 363.035 120.919 361.002 123.215 358.985C124.257 358.073 125.339 357.184 126.317 356.311C129.473 353.543 132.463 350.594 135.273 347.476C138.215 344.165 141.406 341.084 144.818 338.261C150.775 341.881 156.269 348.46 156.135 351.372L156.127 351.555C155.826 352.786 153.146 355.133 148.135 358.495L147.357 359.01C135.426 366.378 121.563 370.007 107.553 369.43L107.552 369.45ZM101.974 370.48C101.732 375.754 120.128 372.904 122.923 372.481C132.472 371.1 141.599 367.63 149.654 362.319C152.77 360.217 159.307 356.089 160.111 352.35C160.144 352.066 160.157 351.78 160.15 351.495C160.418 345.65 151.66 336.82 144.429 333.407C136.743 338.564 130.802 347.067 123.627 353.126C120.273 355.952 117.054 358.947 113.525 361.581C110.676 363.634 105.192 365.281 103.03 367.936C102.404 368.65 102.008 369.535 101.893 370.476L101.974 370.48Z" fill="#8C6338"/>
<path d="M147.324 137.195C146.764 149.414 138.852 164.847 130.07 170.791C128.702 171.901 127.088 172.665 125.363 173.02C123.639 173.374 121.854 173.308 120.16 172.827C100.675 166.056 80.0542 151.559 80.7816 135.695C80.841 134.512 81.011 133.338 81.2894 132.188C82.7016 126.314 86.9236 121.916 93.8452 119.172C108.978 113.151 131.524 116.818 142.286 123.781C146.825 126.723 147.53 132.695 147.324 137.195Z" fill="#FFC9C9"/>
<path d="M82.7768 135.786C82.8271 134.727 82.9779 133.675 83.2271 132.644C84.4659 127.435 88.2989 123.509 94.5808 120.92C108.737 115.283 130.87 118.604 141.316 125.348C145.061 127.785 145.616 133.035 145.434 137.006C144.897 148.716 137.408 163.393 129.067 169.051C127.938 169.991 126.599 170.645 125.164 170.955C123.728 171.266 122.239 171.225 120.822 170.836C111.158 167.56 102.159 162.579 94.252 156.128C88.8126 151.471 82.4143 144.137 82.8019 135.685L82.7768 135.786ZM78.8307 135.503C78.0239 153.099 100.323 167.937 119.527 174.593C133.046 179.295 148.511 154.923 149.324 137.185C149.625 130.627 147.843 124.974 143.387 122.015C126.605 111.041 84.8 109.022 79.3756 131.63C79.0756 132.902 78.8932 134.198 78.8307 135.503V135.503Z" fill="#8C6338"/>
<path d="M141.967 255.785C141.762 260.265 140.513 266.146 135.724 268.661C124.367 274.671 101.583 276.198 87.0645 268.818C80.423 265.452 76.6203 260.707 75.7525 254.708C75.5797 253.536 75.5178 252.351 75.5679 251.169C76.2953 235.304 98.1561 222.756 118.178 217.817C119.907 217.488 121.69 217.582 123.376 218.089C125.062 218.596 126.6 219.502 127.861 220.73C136.062 227.474 142.53 243.525 141.967 255.785Z" fill="#FFC9C9"/>
<path d="M73.5924 251.078L77.5636 251.26C77.9511 242.809 84.9937 236.091 90.8365 231.951C99.3019 226.258 108.719 222.128 118.64 219.756C120.086 219.499 121.573 219.594 122.974 220.035C124.375 220.476 125.649 221.249 126.687 222.289C134.553 228.772 140.59 243.987 140.052 255.717C139.865 259.79 138.838 264.845 134.885 266.929C123.968 272.694 101.624 273.975 88.0417 267.087C82.0601 264.017 78.5608 259.775 77.8085 254.373C77.6547 253.324 77.6009 252.262 77.6478 251.203L73.6766 251.021L73.5924 251.078ZM73.6766 251.021C73.616 252.334 73.6855 253.649 73.8843 254.948C77.2178 277.938 119.013 279.711 136.728 270.361C141.516 267.845 143.726 262.375 144.027 255.818C144.841 238.059 131.733 212.398 117.779 215.839C98.0457 220.71 74.4825 233.446 73.6766 251.021V251.021Z" fill="#8C6338"/>
<path d="M220.134 310.878C220.099 313.059 219.366 315.171 218.041 316.904C210.108 327.03 189.924 337.717 173.677 336.89C166.243 336.549 160.822 333.729 157.587 328.622C155.472 325.249 154.462 321.301 154.696 317.326C155.362 302.806 169.439 286.88 181.271 277.627C186.012 273.947 192.812 276.524 196.423 278.322C209.083 284.841 220.602 300.675 220.134 310.878Z" fill="#FFC9C9"/>
<path d="M156.697 317.316C157.094 308.661 164.097 293.452 182.511 279.092C186.363 276.085 192.318 278.399 195.527 280.056C207.588 286.303 218.576 301.235 218.138 310.787C218.114 312.522 217.536 314.204 216.49 315.589C208.861 325.3 189.042 335.595 173.772 334.813C167.031 334.504 162.146 331.994 159.273 327.455C157.373 324.429 156.472 320.882 156.697 317.316ZM152.624 317.129C152.374 321.49 153.488 325.821 155.811 329.52C168.257 349.152 207.127 333.73 219.503 317.972C221.071 315.943 221.949 313.466 222.011 310.903C222.825 293.145 193.485 265.412 179.962 275.914C166.44 286.417 153.295 302.487 152.627 317.068L152.624 317.129Z" fill="#8C6338"/>
<path d="M230.753 79.2868C230.286 89.4693 217.366 104.203 204.162 109.557C200.397 111.098 193.39 113.042 189.01 108.862C178.073 98.5852 165.513 81.4381 166.175 66.9993C166.305 63.0203 167.672 59.1809 170.087 56.0155C173.777 51.2051 179.432 48.9339 186.866 49.2543C203.158 50.0014 222.242 62.407 229.215 73.2164C230.365 75.0303 230.904 77.1647 230.752 79.3071L230.753 79.2868Z" fill="#FFC9C9"/>
<path d="M168.172 67.0704C168.274 63.4988 169.496 60.0495 171.665 57.2102C174.942 52.9524 180.116 50.9244 186.776 51.2094C201.989 51.907 220.888 63.8959 227.555 74.2627C228.471 75.737 228.892 77.465 228.758 79.1953C228.32 88.7465 216.011 102.61 203.429 107.727C200.082 109.084 193.94 110.843 190.379 107.496C173.357 91.5119 167.775 75.7255 168.172 67.0704V67.0704ZM164.099 66.8836C163.43 81.465 175.325 98.8876 187.554 110.367C199.782 121.845 231.813 97.131 232.627 79.3727C232.801 76.8146 232.153 74.2679 230.777 72.1043C219.895 55.279 182.6 36.365 168.409 54.7753C165.758 58.2465 164.252 62.4569 164.102 66.8225L164.099 66.8836Z" fill="#8C6338"/>
<path d="M292.058 142.934C291.76 149.43 288.17 156.082 284.02 163.789C278.87 173.308 273.048 184.102 272.446 197.238C271.844 210.373 276.653 221.655 280.911 231.605C284.337 239.66 287.304 246.612 287.006 253.108C286.708 259.605 283.118 264.91 275.696 270.12C268.949 274.831 241.053 269.022 213.654 254.133C198.402 245.842 163.051 223.241 164.166 192.252L164.182 191.906C165.553 162.01 202.563 142.646 218.428 135.782C247.395 123.151 276.065 119.65 282.352 124.958C289.267 130.826 292.352 136.519 292.058 142.934Z" fill="#FFC9C9"/>
<path d="M166.179 191.977C167.498 163.202 203.708 144.372 219.201 137.614C248.957 124.692 276.147 122.307 281.078 126.492C289.486 133.612 290.252 139.157 290.083 142.843C289.803 148.953 286.305 155.364 282.266 162.893C277.024 172.611 271.111 183.626 270.488 197.209C269.865 210.793 274.786 222.304 279.077 232.439C282.412 240.266 285.306 247.01 285.026 253.12C284.861 256.725 283.587 262.258 274.562 268.579C269.27 272.295 242.661 267.769 214.586 252.502C199.673 244.39 165.075 222.273 166.158 192.425L166.174 192.079L166.179 191.977ZM162.203 191.897L162.186 192.264C160.257 245.46 261.198 282.762 276.903 271.829C285.528 265.775 288.765 259.699 289.059 253.284C289.768 237.827 273.421 220.486 274.474 197.514C275.527 174.543 293.398 158.668 294.102 143.313C294.396 136.898 291.728 130.552 283.694 123.734C269.156 111.435 164.563 140.435 162.193 192.101L162.203 191.897Z" fill="#8C6338"/>
<path d="M247.003 329.314C250.276 324.711 254.659 321.01 259.745 318.553C264.831 316.096 270.455 314.964 276.096 315.261C437.604 323.707 600.871 344.989 758.762 365.556C767.282 366.667 775.836 367.781 784.425 368.895L784.611 364.822C776.158 363.727 767.711 362.66 759.269 361.62C601.297 341.029 437.949 319.743 276.298 311.29C269.994 310.96 263.708 312.227 258.024 314.974C252.339 317.721 247.441 321.858 243.782 327.003C236.174 337.593 232.912 341.525 231.359 342.923C214.577 359.092 183.257 368.289 160.155 363.862C143.971 360.752 131.562 351.428 125.298 337.611C120.421 326.633 119.853 314.222 123.708 302.845C123.797 302.524 123.806 302.186 123.734 301.861C123.662 301.536 123.511 301.233 123.295 300.98C123.08 300.726 122.805 300.529 122.495 300.406C122.186 300.284 121.851 300.238 121.52 300.275C103.294 302.99 84.1864 300.441 70.4656 293.465C55.7278 285.973 46.4183 273.587 44.2489 258.59C43.8314 255.671 43.6866 252.72 43.8164 249.774C45.2787 217.882 77.5811 201.486 91.4068 195.937C91.7577 195.789 92.0603 195.546 92.2802 195.235C92.5 194.924 92.6284 194.557 92.6507 194.177C92.6593 193.8 92.5631 193.428 92.3726 193.102C92.1822 192.776 91.905 192.509 91.5721 192.332C78.2891 185.6 47.5645 166.253 49.0296 134.3C49.1586 131.361 49.5727 128.441 50.2661 125.582C53.7998 110.826 64.2037 99.3437 79.5645 93.2522C94.9252 87.1607 116.6 86.6852 135.342 92.2996C135.706 92.405 136.093 92.4066 136.458 92.3044C136.823 92.2022 137.153 92.0002 137.409 91.721C137.637 91.4414 137.786 91.1066 137.841 90.7507C137.897 90.3948 137.858 90.0304 137.727 89.6948C130.73 73.5987 131.265 57.0315 139.234 43.4787C146.934 30.4239 160.238 22.4626 176.688 21.0945C200.165 19.1506 230.282 31.7152 245.264 49.4631C248.807 54.1884 252.083 59.1079 255.078 64.1987C258.521 69.7658 263.346 74.3468 269.085 77.4959C274.823 80.6451 281.279 82.2552 287.825 82.1694L797.976 73.3581L798.158 69.3868L287.768 78.0648C281.911 78.153 276.132 76.7196 270.996 73.9049C265.859 71.0903 261.541 66.9906 258.464 62.007C255.374 56.7229 251.983 51.6206 248.308 46.7251V46.7251C232.596 27.9846 200.991 14.9233 176.37 16.8963C158.588 18.387 144.193 27.0126 135.827 41.2206C127.858 54.7937 126.716 71.231 132.593 87.2757C113.932 82.5629 93.3873 83.3148 78.0886 89.3887C61.4595 95.9934 50.2729 108.521 46.4184 124.487C45.6664 127.593 45.2134 130.763 45.0659 133.955C43.6213 165.46 70.8383 185.198 86.0803 193.713C70.1628 200.819 41.2945 217.985 39.8527 249.429C39.6832 252.632 39.8229 255.843 40.27 259.019C42.6444 275.332 52.7014 288.772 68.5953 296.869C82.2762 303.822 100.908 306.513 119 304.486C115.768 316.04 116.698 328.362 121.628 339.3C128.43 354.305 141.823 364.429 159.342 367.784C183.618 372.448 216.427 362.789 234.042 345.822C238.752 340.636 243.083 335.12 247.003 329.314V329.314Z" fill="#8C6338"/>
</svg>
