<svg width="627" height="25" viewBox="0 0 627 25" fill="none" xmlns="http://www.w3.org/2000/svg">
<path d="M466.76 18.2913C466.767 17.6422 466.939 17.0055 467.26 16.4413C467.436 16.2171 467.666 16.0416 467.928 15.9313C468.191 15.821 468.477 15.7797 468.76 15.8113C469.179 15.7973 469.59 15.9319 469.92 16.1913C470.068 16.3123 470.187 16.4649 470.269 16.638C470.35 16.811 470.391 17.0001 470.39 17.1913C470.392 17.453 470.368 17.7142 470.32 17.9713C470.268 18.238 470.251 18.5103 470.27 18.7813C470.315 19.1319 470.473 19.4583 470.72 19.7113C471.007 20.0099 471.346 20.2538 471.72 20.4313C472.149 20.6524 472.607 20.8139 473.08 20.9113C473.592 21.0281 474.115 21.0852 474.64 21.0813C475.18 21.0844 475.719 21.0375 476.25 20.9413C476.762 20.8558 477.254 20.676 477.7 20.4113C478.134 20.152 478.495 19.7874 478.75 19.3513C479.043 18.816 479.185 18.211 479.16 17.6013C479.159 17.1354 479.038 16.6775 478.81 16.2713C478.576 15.8521 478.279 15.471 477.93 15.1413C477.565 14.7901 477.166 14.4753 476.74 14.2013C476.31 13.9213 475.89 13.6813 475.49 13.4713C474.92 13.1813 474.34 12.9013 473.75 12.6213C473.16 12.3413 472.58 12.0613 472.01 11.7513C471.455 11.4548 470.92 11.1207 470.41 10.7513C469.911 10.3904 469.466 9.95933 469.09 9.47135C468.697 8.95934 468.392 8.38459 468.19 7.77134C467.957 7.05137 467.846 6.29776 467.86 5.5413C467.836 4.68107 468.047 3.83058 468.47 3.08133C468.867 2.40324 469.41 1.8224 470.06 1.38132C470.752 0.917187 471.52 0.578674 472.33 0.381322C473.187 0.168626 474.067 0.0611597 474.95 0.0613148C475.728 0.059467 476.505 0.12979 477.27 0.271337C477.967 0.397005 478.641 0.6262 479.27 0.951329C479.845 1.25623 480.344 1.68692 480.73 2.21134C481.138 2.77434 481.383 3.43842 481.44 4.13132C481.463 4.38324 481.425 4.63701 481.33 4.87131C481.251 5.07785 481.124 5.26281 480.96 5.41129C480.798 5.55351 480.612 5.66532 480.41 5.74131C480.211 5.81257 480.001 5.84974 479.79 5.85129C479.513 5.85804 479.237 5.80699 478.98 5.70133C478.777 5.61483 478.594 5.48908 478.44 5.33133C478.303 5.18398 478.198 5.01049 478.13 4.82132C478.064 4.64403 478.021 4.45932 478 4.27134C477.848 4.03176 477.647 3.8272 477.41 3.6713C477.159 3.51636 476.891 3.39214 476.61 3.30131C476.311 3.2064 476.002 3.14272 475.69 3.1113C475.382 3.07204 475.071 3.05201 474.76 3.05131C474.34 3.05337 473.921 3.10032 473.51 3.19132C473.113 3.27408 472.732 3.41921 472.38 3.62131C472.054 3.81584 471.775 4.07853 471.56 4.39133C471.342 4.72677 471.234 5.12165 471.25 5.52134C471.239 6.01668 471.367 6.50514 471.62 6.93131C471.872 7.34356 472.189 7.7118 472.56 8.02134C472.954 8.35204 473.379 8.64342 473.83 8.89133C474.29 9.15133 474.74 9.3913 475.18 9.6113C475.71 9.8813 476.26 10.1613 476.83 10.4713C477.4 10.7813 477.95 11.1013 478.5 11.4713C479.038 11.8206 479.552 12.2048 480.04 12.6213C480.523 13.0358 480.956 13.5057 481.33 14.0213C481.699 14.5419 481.995 15.1105 482.21 15.7113C482.426 16.3558 482.534 17.0316 482.53 17.7113C482.541 18.4283 482.429 19.1419 482.2 19.8213C481.995 20.4121 481.691 20.9634 481.3 21.4513C480.926 21.9191 480.476 22.3213 479.97 22.6413C479.453 22.9746 478.9 23.2465 478.32 23.4513C477.726 23.662 477.113 23.816 476.49 23.9113C475.864 24.0026 475.233 24.0494 474.6 24.0513C474.031 24.0502 473.463 24.0067 472.9 23.9213C472.293 23.8266 471.694 23.6828 471.11 23.4913C470.524 23.3033 469.961 23.0518 469.43 22.7413C468.906 22.4459 468.43 22.0715 468.02 21.6313C467.616 21.1961 467.294 20.6913 467.07 20.1413C466.842 19.5521 466.737 18.9226 466.76 18.2913Z" fill="#73512E"/>
<path d="M486.34 12.3513C486.324 11.0357 486.486 9.72395 486.82 8.45136C487.101 7.36216 487.535 6.31837 488.11 5.35132C488.631 4.47543 489.282 3.68321 490.04 3.00135C490.762 2.35626 491.566 1.80829 492.43 1.37134C493.283 0.9427 494.187 0.623496 495.12 0.42133C496.035 0.214562 496.971 0.110588 497.91 0.111332C498.748 0.112102 499.585 0.189126 500.41 0.341374C501.23 0.503981 502.039 0.721093 502.83 0.991337L503.56 1.26136C503.793 1.33946 504.014 1.447 504.22 1.58136C504.41 1.70846 504.571 1.87569 504.69 2.07135C504.817 2.30382 504.879 2.56643 504.87 2.83136C504.879 3.13692 504.821 3.44081 504.7 3.72138C504.595 3.9428 504.441 4.13758 504.25 4.29132C504.075 4.43015 503.875 4.53225 503.66 4.59137C503.457 4.64196 503.249 4.66876 503.04 4.67133C502.888 4.66978 502.737 4.64963 502.59 4.61133C502.43 4.61133 502.27 4.51135 502.1 4.44135C501.938 4.36732 501.781 4.28384 501.63 4.19135L501.19 3.91132C500.867 3.77183 500.532 3.66144 500.19 3.58136C499.893 3.50725 499.593 3.45044 499.29 3.41132L498.43 3.35132H497.6C496.964 3.35533 496.33 3.42914 495.71 3.57135C495.077 3.71688 494.466 3.94199 493.89 4.24134C493.298 4.55647 492.748 4.94269 492.25 5.39136C491.729 5.86772 491.284 6.42076 490.93 7.03138C490.538 7.70707 490.242 8.43401 490.05 9.19135C489.824 10.0766 489.716 10.9879 489.73 11.9014C489.687 13.3312 489.929 14.7553 490.44 16.0914C490.847 17.1416 491.478 18.0903 492.29 18.8713C493.027 19.5649 493.908 20.0873 494.87 20.4014C495.808 20.7145 496.791 20.8732 497.78 20.8713C498.221 20.8749 498.662 20.8481 499.1 20.7913C499.507 20.7459 499.911 20.6758 500.31 20.5814C500.649 20.5091 500.983 20.4156 501.31 20.3013C501.543 20.223 501.764 20.1155 501.97 19.9813C502.212 19.7576 502.477 19.5599 502.76 19.3914C502.998 19.2486 503.272 19.1758 503.55 19.1813C503.769 19.1814 503.987 19.2083 504.2 19.2614C504.394 19.3069 504.575 19.3958 504.73 19.5214C504.885 19.6561 505.008 19.8235 505.09 20.0114C505.188 20.2455 505.236 20.4976 505.23 20.7513C505.227 21.1734 505.074 21.5807 504.8 21.9014C504.423 22.3324 503.955 22.674 503.43 22.9014C503.134 23.0589 502.827 23.1927 502.51 23.3013C502.065 23.4655 501.611 23.6024 501.15 23.7114C500.65 23.8414 500.15 23.9414 499.56 24.0314C499.014 24.1136 498.462 24.157 497.91 24.1613C496.761 24.172 495.616 24.0206 494.51 23.7114C493.508 23.4383 492.549 23.0277 491.66 22.4913C490.82 21.9762 490.059 21.343 489.4 20.6113C488.744 19.8908 488.186 19.0873 487.74 18.2214C487.293 17.3394 486.957 16.4057 486.74 15.4413C486.485 14.4307 486.351 13.3935 486.34 12.3513Z" fill="#73512E"/>
<path d="M511.17 22.4714C511.166 21.9659 511.203 21.461 511.28 20.9614C511.354 20.438 511.391 19.91 511.39 19.3813C511.39 16.8413 511.367 14.2847 511.32 11.7114C511.273 9.13803 511.253 6.49471 511.26 3.78137C511.259 3.4957 511.229 3.21084 511.17 2.93134C511.108 2.62866 511.078 2.32032 511.08 2.01135C511.077 1.7644 511.111 1.51837 511.18 1.28137C511.25 1.05253 511.374 0.843473 511.54 0.671327C511.74 0.484012 511.979 0.34393 512.24 0.261353C512.606 0.152319 512.988 0.101674 513.37 0.111329C513.575 0.103702 513.779 0.146174 513.963 0.235047C514.148 0.32392 514.308 0.456519 514.43 0.621339C514.708 1.01871 514.845 1.49724 514.82 1.98132C514.819 2.14917 514.802 2.31655 514.77 2.48132L514.68 3.00134C514.68 3.86134 514.68 4.78136 514.68 5.77136C514.68 6.76136 514.68 7.89132 514.68 9.16132C514.68 10.4313 514.68 11.4614 514.68 12.6514C514.68 13.8414 514.68 14.9814 514.68 16.0814C514.68 17.1814 514.73 18.2014 514.77 19.1514C514.81 20.1014 514.84 20.9213 514.89 21.6113C514.89 21.7647 514.91 21.9047 514.95 22.0314C514.95 22.1714 514.95 22.3114 514.95 22.4514C514.95 22.6738 514.923 22.8953 514.87 23.1113C514.818 23.3067 514.722 23.4879 514.59 23.6414C514.444 23.8035 514.258 23.9242 514.05 23.9913C513.775 24.0782 513.488 24.1187 513.2 24.1113C512.863 24.1169 512.527 24.0799 512.2 24.0013C511.969 23.9476 511.754 23.8415 511.57 23.6913C511.417 23.5491 511.304 23.37 511.24 23.1713C511.183 22.9426 511.16 22.7069 511.17 22.4714Z" fill="#73512E"/>
<path d="M521.27 18.2913C521.272 17.6415 521.444 17.0036 521.77 16.4413C521.946 16.2171 522.175 16.0416 522.438 15.9313C522.701 15.821 522.987 15.7797 523.27 15.8113C523.686 15.7971 524.094 15.9318 524.42 16.1913C524.571 16.3103 524.693 16.4623 524.776 16.6357C524.859 16.809 524.902 16.9991 524.9 17.1913C524.901 17.453 524.878 17.7142 524.83 17.9713C524.778 18.238 524.761 18.5103 524.78 18.7813C524.825 19.1319 524.983 19.4583 525.23 19.7113C525.517 20.0099 525.856 20.2538 526.23 20.4313C526.659 20.6524 527.117 20.8139 527.59 20.9113C528.102 21.0281 528.625 21.0852 529.15 21.0813C529.69 21.0844 530.229 21.0375 530.76 20.9413C531.272 20.8558 531.764 20.676 532.21 20.4113C532.625 20.1455 532.969 19.7814 533.21 19.3513C533.503 18.816 533.645 18.211 533.62 17.6013C533.619 17.1354 533.498 16.6775 533.27 16.2713C533.036 15.8521 532.739 15.471 532.39 15.1413C532.025 14.7901 531.626 14.4753 531.2 14.2013C530.77 13.9213 530.35 13.6813 529.95 13.4713C529.38 13.1813 528.8 12.9013 528.21 12.6213C527.62 12.3413 527.03 12.0613 526.47 11.7513C525.913 11.4572 525.378 11.123 524.87 10.7513C524.371 10.3904 523.926 9.95933 523.55 9.47135C523.156 8.95934 522.852 8.38459 522.65 7.77134C522.417 7.05137 522.306 6.29776 522.32 5.5413C522.296 4.68107 522.507 3.83058 522.93 3.08133C523.327 2.40324 523.87 1.8224 524.52 1.38132C525.212 0.917187 525.98 0.578674 526.79 0.381322C527.647 0.168626 528.527 0.0611597 529.41 0.0613148C530.188 0.059467 530.965 0.12979 531.73 0.271337C532.427 0.397005 533.101 0.6262 533.73 0.951329C534.303 1.25902 534.802 1.68922 535.19 2.21134C535.598 2.77434 535.843 3.43842 535.9 4.13132C535.923 4.38324 535.885 4.63701 535.79 4.87131C535.711 5.07785 535.584 5.26281 535.42 5.41129C535.256 5.55135 535.07 5.66292 534.87 5.74131C534.671 5.81257 534.461 5.84974 534.25 5.85129C533.972 5.85804 533.697 5.80699 533.44 5.70133C533.237 5.61483 533.054 5.48908 532.9 5.33133C532.763 5.18398 532.658 5.01049 532.59 4.82132C532.521 4.64435 532.474 4.45967 532.45 4.27134C532.301 4.03278 532.103 3.82829 531.87 3.6713C531.618 3.51821 531.35 3.39409 531.07 3.30131C530.771 3.2064 530.462 3.14272 530.15 3.1113C529.841 3.07204 529.531 3.05201 529.22 3.05131C528.799 3.05337 528.38 3.10032 527.97 3.19132C527.573 3.27408 527.192 3.41921 526.84 3.62131C526.512 3.81292 526.232 4.07616 526.02 4.39133C525.802 4.72677 525.694 5.12165 525.71 5.52134C525.699 6.01668 525.827 6.50514 526.08 6.93131C526.332 7.34356 526.649 7.7118 527.02 8.02134C527.414 8.35204 527.839 8.64342 528.29 8.89133C528.75 9.15133 529.2 9.3913 529.64 9.6113C530.17 9.8813 530.72 10.1613 531.29 10.4713C531.86 10.7813 532.41 11.1013 532.96 11.4713C533.498 11.8206 534.012 12.2048 534.5 12.6213C534.983 13.0358 535.416 13.5057 535.79 14.0213C536.159 14.5419 536.455 15.1105 536.67 15.7113C536.886 16.3558 536.994 17.0316 536.99 17.7113C537.001 18.4283 536.889 19.1419 536.66 19.8213C536.455 20.4121 536.151 20.9634 535.76 21.4513C535.386 21.9191 534.936 22.3213 534.43 22.6413C533.913 22.9746 533.36 23.2465 532.78 23.4513C532.185 23.6608 531.573 23.8148 530.95 23.9113C530.324 24.0026 529.692 24.0494 529.06 24.0513C528.491 24.0502 527.923 24.0067 527.36 23.9213C526.753 23.8266 526.154 23.6828 525.57 23.4913C524.984 23.3033 524.421 23.0518 523.89 22.7413C523.364 22.4485 522.888 22.0738 522.48 21.6313C522.116 21.2033 521.829 20.7163 521.63 20.1913C521.378 19.5902 521.255 18.9429 521.27 18.2913Z" fill="#73512E"/>
<path d="M541.53 18.2913C541.532 17.6415 541.704 17.0036 542.03 16.4413C542.206 16.2171 542.436 16.0416 542.698 15.9313C542.961 15.821 543.247 15.7797 543.53 15.8113C543.946 15.7971 544.354 15.9318 544.68 16.1913C544.831 16.3103 544.953 16.4623 545.036 16.6357C545.119 16.809 545.162 16.9991 545.16 17.1913C545.162 17.453 545.138 17.7142 545.09 17.9713C545.038 18.238 545.021 18.5103 545.04 18.7813C545.085 19.1319 545.243 19.4583 545.49 19.7113C545.777 20.0099 546.116 20.2538 546.49 20.4313C546.92 20.6524 547.377 20.8139 547.85 20.9113C548.362 21.0281 548.885 21.0852 549.41 21.0813C549.95 21.0844 550.489 21.0375 551.02 20.9413C551.532 20.8558 552.024 20.676 552.47 20.4113C552.886 20.1455 553.229 19.7814 553.47 19.3513C553.763 18.816 553.905 18.211 553.88 17.6013C553.879 17.1354 553.758 16.6775 553.53 16.2713C553.296 15.8521 552.999 15.471 552.65 15.1413C552.285 14.7901 551.886 14.4753 551.46 14.2013C551.02 13.9213 550.61 13.6813 550.21 13.4713C549.64 13.1813 549.06 12.9013 548.47 12.6213C547.88 12.3413 547.29 12.0613 546.73 11.7513C546.173 11.4572 545.639 11.123 545.13 10.7513C544.629 10.3931 544.184 9.96165 543.81 9.47135C543.417 8.95934 543.112 8.38459 542.91 7.77134C542.678 7.05137 542.566 6.29776 542.58 5.5413C542.557 4.68248 542.764 3.83321 543.18 3.08133C543.583 2.40498 544.129 1.82479 544.78 1.38132C545.47 0.919157 546.234 0.580755 547.04 0.381322C547.901 0.169085 548.784 0.0616319 549.67 0.0613148C550.448 0.059467 551.225 0.12979 551.99 0.271337C552.688 0.394466 553.362 0.623789 553.99 0.951329C554.568 1.25614 555.071 1.68671 555.46 2.21134C555.865 2.77517 556.107 3.4393 556.16 4.13132C556.186 4.38243 556.152 4.63608 556.06 4.87131C555.981 5.07785 555.854 5.26281 555.69 5.41129C555.527 5.55135 555.341 5.66292 555.14 5.74131C554.941 5.81257 554.732 5.84974 554.52 5.85129C554.243 5.85804 553.967 5.80699 553.71 5.70133C553.507 5.61483 553.324 5.48908 553.17 5.33133C553.033 5.18398 552.928 5.01049 552.86 4.82132C552.791 4.64435 552.744 4.45967 552.72 4.27134C552.571 4.03278 552.374 3.82829 552.14 3.6713C551.888 3.51821 551.62 3.39409 551.34 3.30131C551.041 3.2064 550.733 3.14272 550.42 3.1113C550.112 3.07204 549.801 3.05201 549.49 3.05131C549.07 3.05337 548.651 3.10032 548.24 3.19132C547.843 3.27408 547.462 3.41921 547.11 3.62131C546.782 3.81292 546.502 4.07616 546.29 4.39133C546.069 4.72561 545.957 5.12057 545.97 5.52134C545.963 6.01758 546.094 6.50596 546.35 6.93131C546.602 7.34356 546.919 7.7118 547.29 8.02134C547.684 8.35204 548.109 8.64342 548.56 8.89133C549.02 9.15133 549.47 9.3913 549.91 9.6113C550.44 9.8813 550.99 10.1613 551.56 10.4713C552.13 10.7813 552.68 11.1013 553.22 11.4713C553.761 11.8206 554.279 12.2047 554.77 12.6213C555.254 13.0358 555.686 13.5057 556.06 14.0213C556.429 14.5419 556.725 15.1105 556.94 15.7113C557.156 16.3558 557.265 17.0316 557.26 17.7113C557.271 18.4283 557.159 19.1419 556.93 19.8213C556.725 20.4121 556.421 20.9634 556.03 21.4513C555.656 21.9191 555.207 22.3213 554.7 22.6413C554.184 22.9746 553.63 23.2465 553.05 23.4513C552.456 23.6608 551.843 23.8148 551.22 23.9113C550.594 24.0026 549.963 24.0494 549.33 24.0513C548.761 24.0502 548.193 24.0067 547.63 23.9213C547.023 23.8278 546.424 23.684 545.84 23.4913C545.254 23.3033 544.691 23.0518 544.16 22.7413C543.633 22.451 543.156 22.076 542.75 21.6313C542.346 21.1961 542.024 20.6913 541.8 20.1413C541.586 19.5493 541.494 18.9199 541.53 18.2913Z" fill="#73512E"/>
<path d="M561.63 12.1013C561.61 10.4478 561.863 8.80223 562.38 7.23133C562.846 5.84633 563.572 4.56328 564.52 3.45136C565.438 2.3951 566.579 1.55501 567.86 0.991343C569.223 0.389449 570.7 0.0892582 572.19 0.111338C573.716 0.0796696 575.231 0.379931 576.63 0.991343C577.881 1.55215 578.987 2.39398 579.86 3.45136C580.768 4.56839 581.447 5.85263 581.86 7.23133C582.324 8.81232 582.55 10.4537 582.53 12.1013C582.544 13.7038 582.298 15.298 581.8 16.8214C581.35 18.2086 580.64 19.498 579.71 20.6213C578.78 21.7334 577.613 22.6232 576.295 23.2254C574.976 23.8275 573.539 24.1268 572.09 24.1013C571.075 24.1104 570.064 23.9689 569.09 23.6813C568.184 23.4128 567.324 23.0081 566.54 22.4813C565.768 21.9594 565.071 21.3335 564.47 20.6213C563.855 19.8808 563.337 19.0641 562.93 18.1914C562.482 17.2786 562.146 16.3149 561.93 15.3214C561.718 14.2615 561.617 13.1822 561.63 12.1013ZM565.04 12.1013C565.04 12.8463 565.11 13.5896 565.25 14.3214C565.382 15.038 565.59 15.7385 565.87 16.4113C566.126 17.0638 566.461 17.682 566.87 18.2514C567.256 18.8088 567.725 19.3045 568.26 19.7214C568.784 20.1496 569.375 20.4876 570.01 20.7214C570.677 20.962 571.381 21.0806 572.09 21.0714C572.825 21.0837 573.556 20.9652 574.25 20.7214C574.885 20.4876 575.476 20.1496 576 19.7214C576.525 19.306 576.981 18.8098 577.35 18.2514C577.76 17.683 578.096 17.0647 578.35 16.4113C578.613 15.7368 578.805 15.0363 578.92 14.3214C579.048 13.5883 579.112 12.8455 579.11 12.1013C579.116 10.9514 578.975 9.80537 578.69 8.69136C578.436 7.67902 578.003 6.72047 577.41 5.86134C576.827 5.00623 576.037 4.31283 575.114 3.8459C574.191 3.37896 573.164 3.15376 572.13 3.19136C571.093 3.17367 570.066 3.39616 569.13 3.84138C568.259 4.26285 567.498 4.88277 566.91 5.65138C566.272 6.48586 565.803 7.43702 565.53 8.45137C565.198 9.6391 565.036 10.8681 565.05 12.1013H565.04Z" fill="#73512E"/>
<path d="M587.75 22.0013C587.75 21.7813 587.75 21.5713 587.75 21.3613C587.75 21.1513 587.75 20.9513 587.81 20.7713V5.77135C587.81 4.97135 587.81 4.15133 587.81 3.31133C587.683 2.89258 587.612 2.45878 587.6 2.02135C587.6 1.80735 587.633 1.59464 587.7 1.39134C587.76 1.18563 587.862 0.994799 588 0.831347C588.134 0.664299 588.305 0.530759 588.5 0.441333C588.715 0.337862 588.952 0.286451 589.19 0.291308C589.614 0.289969 590.039 0.313349 590.46 0.361316C590.942 0.415992 591.426 0.442721 591.91 0.441333C592.36 0.441333 592.81 0.441325 593.26 0.371325C593.71 0.301325 594.18 0.301308 594.69 0.291308C596.069 0.278915 597.445 0.426571 598.79 0.731311C599.912 0.988478 600.972 1.46423 601.91 2.13134C602.77 2.74816 603.459 3.57424 603.91 4.53136C604.404 5.62335 604.643 6.81329 604.61 8.01134C604.631 9.16678 604.452 10.3171 604.08 11.4113C603.759 12.3411 603.301 13.2175 602.72 14.0113C602.199 14.7141 601.576 15.3343 600.87 15.8513C600.253 16.3091 599.581 16.6887 598.87 16.9813C598.954 17.5018 599.095 18.0115 599.29 18.5013C599.475 18.9535 599.728 19.375 600.04 19.7513C600.335 20.1052 600.699 20.3945 601.11 20.6013C601.538 20.8166 602.011 20.9263 602.49 20.9213C602.831 20.9204 603.17 20.8595 603.49 20.7413C603.828 20.6001 604.111 20.3549 604.3 20.0413C604.441 19.8388 604.613 19.6599 604.81 19.5113C605.031 19.3449 605.303 19.2601 605.58 19.2713C605.808 19.258 606.036 19.291 606.251 19.3683C606.466 19.4457 606.663 19.5658 606.83 19.7214C606.979 19.8705 607.096 20.0485 607.173 20.2446C607.251 20.4407 607.287 20.6506 607.28 20.8613C607.279 21.2971 607.154 21.7235 606.92 22.0914C606.661 22.4915 606.32 22.8323 605.92 23.0914C605.426 23.4127 604.882 23.6493 604.31 23.7913C603.63 23.9791 602.926 24.07 602.22 24.0613C601.567 24.0674 600.918 23.9626 600.3 23.7513C599.747 23.5612 599.227 23.2844 598.76 22.9313C598.307 22.5892 597.9 22.1892 597.55 21.7413C597.204 21.3093 596.903 20.8436 596.65 20.3513C596.409 19.8882 596.205 19.4067 596.04 18.9113C595.892 18.4685 595.768 18.0178 595.67 17.5613H593.45H592.38H591.22V19.7413C591.239 20.2025 591.299 20.661 591.4 21.1113C591.501 21.561 591.551 22.0205 591.55 22.4813C591.557 22.7352 591.498 22.9865 591.38 23.2114C591.269 23.4064 591.119 23.5765 590.94 23.7114C590.764 23.8482 590.564 23.95 590.35 24.0113C590.159 24.0684 589.96 24.0986 589.76 24.1013C589.476 24.1014 589.194 24.0471 588.93 23.9413C588.692 23.8396 588.474 23.6937 588.29 23.5113C588.11 23.318 587.964 23.0946 587.86 22.8513C587.771 22.5772 587.734 22.289 587.75 22.0013ZM591.25 14.3414H592.16H593.16H594.01H594.49C595.622 14.3814 596.751 14.1943 597.81 13.7913C598.586 13.4713 599.273 12.9668 599.81 12.3213C600.29 11.7049 600.631 10.9919 600.81 10.2313C600.991 9.434 601.082 8.61888 601.08 7.80132C601.1 7.16749 600.984 6.53683 600.74 5.95134C600.526 5.47628 600.217 5.05066 599.83 4.70134C599.445 4.37645 599.009 4.11637 598.54 3.93132C598.068 3.74415 597.579 3.6035 597.08 3.51134C596.601 3.42135 596.117 3.36457 595.63 3.34136H594.38H592.83H591.13C591.13 3.72136 591.13 4.07136 591.13 4.34136C591.13 4.61136 591.13 4.95132 591.13 5.24132C591.13 5.53132 591.13 5.83135 591.13 6.14135V7.14135C591.13 7.82134 591.13 8.45131 591.13 9.04131C591.13 9.63131 591.13 10.1913 591.13 10.7413C591.13 11.2913 591.13 11.8513 591.13 12.4113C591.13 12.9713 591.22 13.7314 591.25 14.3414Z" fill="#73512E"/>
<path d="M610.5 18.2913C610.505 17.6406 610.681 17.0026 611.01 16.4413C611.186 16.2171 611.416 16.0416 611.678 15.9313C611.941 15.821 612.227 15.7797 612.51 15.8113C612.916 15.8042 613.312 15.9385 613.63 16.1913C613.781 16.3103 613.903 16.4623 613.986 16.6357C614.069 16.809 614.112 16.9991 614.11 17.1913C614.108 17.4533 614.081 17.7145 614.03 17.9713C613.995 18.2402 613.995 18.5125 614.03 18.7813C614.075 19.1319 614.233 19.4583 614.48 19.7113C614.767 20.0099 615.106 20.2538 615.48 20.4313C615.909 20.6524 616.367 20.8139 616.84 20.9113C617.348 21.0276 617.869 21.0846 618.39 21.0813C618.93 21.0848 619.469 21.038 620 20.9413C620.513 20.859 621.005 20.6791 621.45 20.4113C621.887 20.1534 622.252 19.7886 622.51 19.3513C622.8 18.815 622.938 18.2101 622.91 17.6013C622.913 17.1361 622.796 16.6781 622.57 16.2713C622.31 15.8681 621.994 15.5044 621.63 15.1913C621.265 14.8401 620.866 14.5253 620.44 14.2513C620 13.9713 619.59 13.7313 619.19 13.5213C618.62 13.2313 618.04 12.9513 617.44 12.6713C616.84 12.3913 616.27 12.1113 615.71 11.8013C615.152 11.5094 614.617 11.175 614.11 10.8013C613.605 10.4433 613.157 10.0119 612.78 9.52134C612.386 9.0112 612.085 8.43576 611.89 7.82132C611.657 7.10136 611.546 6.34781 611.56 5.59134C611.537 4.73253 611.744 3.8832 612.16 3.13132C612.563 2.45497 613.109 1.87478 613.76 1.43131C614.448 0.96658 615.213 0.62797 616.02 0.43131C616.881 0.219073 617.764 0.11162 618.65 0.111303C619.428 0.109455 620.205 0.179778 620.97 0.321325C621.667 0.445515 622.342 0.674784 622.97 1.00132C623.548 1.30612 624.05 1.7367 624.44 2.26133C624.845 2.82516 625.087 3.48929 625.14 4.18131C625.166 4.43242 625.132 4.68607 625.04 4.9213C624.957 5.12848 624.827 5.31345 624.66 5.46134C624.5 5.60122 624.317 5.71277 624.12 5.7913C623.921 5.86166 623.711 5.89886 623.5 5.90134C623.223 5.90809 622.947 5.85698 622.69 5.75132C622.487 5.66481 622.304 5.53907 622.15 5.38132C622.01 5.23658 621.904 5.06231 621.84 4.87131C621.771 4.69434 621.724 4.50966 621.7 4.32132C621.551 4.08277 621.353 3.87834 621.12 3.72135C620.868 3.56826 620.6 3.44408 620.32 3.35129C620.021 3.25739 619.712 3.19374 619.4 3.16129C619.092 3.12203 618.781 3.10199 618.47 3.10129C618.05 3.10282 617.63 3.14978 617.22 3.24131C616.823 3.32407 616.442 3.4692 616.09 3.6713C615.762 3.86291 615.482 4.12615 615.27 4.44132C615.049 4.7756 614.937 5.17056 614.95 5.57132C614.943 6.06757 615.074 6.55595 615.33 6.9813C615.582 7.39355 615.899 7.76179 616.27 8.07132C616.662 8.39971 617.084 8.69096 617.53 8.94132C618 9.20132 618.45 9.44129 618.89 9.66129C619.33 9.88129 619.97 10.2113 620.53 10.5213C621.104 10.8256 621.661 11.1594 622.2 11.5213C622.741 11.8706 623.259 12.2547 623.75 12.6713C624.233 13.0858 624.666 13.5557 625.04 14.0713C625.41 14.5897 625.703 15.159 625.91 15.7613C626.131 16.4046 626.239 17.0812 626.23 17.7613C626.239 18.4774 626.131 19.19 625.91 19.8713C625.705 20.4621 625.401 21.0134 625.01 21.5013C624.634 21.9669 624.184 22.3687 623.68 22.6913C623.163 23.0246 622.61 23.2964 622.03 23.5013C621.436 23.7108 620.823 23.8648 620.2 23.9613C619.571 24.0523 618.936 24.0991 618.3 24.1013C617.734 24.0998 617.169 24.0564 616.61 23.9713C616.002 23.8778 615.404 23.7339 614.82 23.5413C614.232 23.3514 613.665 23.1 613.13 22.7913C612.607 22.4983 612.135 22.1236 611.73 21.6813C611.323 21.2486 611.001 20.7431 610.78 20.1913C610.556 19.5844 610.46 18.9372 610.5 18.2913Z" fill="#73512E"/>
<path d="M238.55 22.4313C238.546 22.0967 238.57 21.7622 238.62 21.4313C238.62 21.1013 238.69 20.7713 238.7 20.4313L238.63 3.24133C238.558 3.05373 238.504 2.85944 238.47 2.66132C238.431 2.42659 238.411 2.18923 238.41 1.95136C238.409 1.74713 238.443 1.5442 238.51 1.35132C238.577 1.15597 238.683 0.975892 238.82 0.82135C238.958 0.6633 239.128 0.537068 239.32 0.451355C239.536 0.35133 239.772 0.303362 240.01 0.311341C240.45 0.311341 240.89 0.311338 241.32 0.371338C241.778 0.420617 242.239 0.443995 242.7 0.441345C243.084 0.442597 243.468 0.419209 243.85 0.371338C244.255 0.330164 244.663 0.310139 245.07 0.311341C246.405 0.298749 247.735 0.494449 249.01 0.891358C250.163 1.24739 251.233 1.82857 252.16 2.60132C253.054 3.3638 253.771 4.31266 254.26 5.38135C254.786 6.56385 255.045 7.84747 255.02 9.14136C255.043 10.3281 254.87 11.5104 254.51 12.6414C254.209 13.5683 253.741 14.4325 253.13 15.1913C252.558 15.8914 251.864 16.481 251.08 16.9313C250.285 17.393 249.435 17.7525 248.55 18.0013C247.631 18.2646 246.691 18.4453 245.74 18.5413C244.786 18.6406 243.829 18.6907 242.87 18.6913H242V19.5214C242 19.7314 242 19.8914 242 20.0214V20.6713C242.001 21.0071 242.034 21.342 242.1 21.6713C242.169 22.0001 242.203 22.3354 242.2 22.6713C242.207 22.9138 242.145 23.1532 242.02 23.3613C241.904 23.5392 241.75 23.6894 241.57 23.8013C241.391 23.9163 241.195 24.0039 240.99 24.0613C240.797 24.1105 240.599 24.1374 240.4 24.1414C240.162 24.1398 239.926 24.1028 239.7 24.0314C239.482 23.958 239.279 23.8462 239.1 23.7014C238.929 23.5585 238.789 23.3814 238.69 23.1813C238.581 22.9472 238.533 22.6891 238.55 22.4313ZM242.02 15.4313H242.64H243.25H243.76H244.1C245.064 15.4459 246.026 15.3553 246.97 15.1613C247.668 15.0143 248.341 14.7685 248.97 14.4313C249.479 14.1558 249.93 13.7859 250.3 13.3414C250.633 12.9415 250.897 12.4885 251.08 12.0013C251.261 11.511 251.382 11.0007 251.44 10.4813C251.5 9.96348 251.53 9.44262 251.53 8.92133C251.544 8.18939 251.426 7.46095 251.18 6.77136C250.969 6.21247 250.657 5.69717 250.26 5.25134C249.89 4.8433 249.449 4.50466 248.96 4.25134C248.49 4.00636 247.993 3.81515 247.48 3.68134C247 3.54491 246.507 3.45448 246.01 3.41132C245.591 3.36628 245.171 3.34297 244.75 3.34137H243.36H241.87C241.87 4.65137 241.87 5.80132 241.92 6.79132C241.97 7.78132 241.92 8.66133 241.92 9.43134C241.92 10.2013 241.92 10.8613 241.92 11.4313C241.92 12.0013 241.92 12.5114 241.92 12.9614C241.92 13.4114 241.92 13.8213 241.92 14.1913L242.02 15.4313Z" fill="#73512E"/>
<path d="M257.12 22.5213C257.115 22.1835 257.159 21.8467 257.25 21.5213C257.349 21.1603 257.516 20.8212 257.74 20.5213C257.91 20.2313 258.15 19.7913 258.44 19.2013C258.73 18.6113 259.07 17.9213 259.44 17.1213C259.81 16.3213 260.2 15.4513 260.63 14.5113L261.92 11.6213C262.36 10.6213 262.8 9.62131 263.23 8.62131C263.66 7.62131 264.08 6.71129 264.47 5.85129L265.53 3.50132C265.85 2.81132 266.12 2.24131 266.34 1.81131C266.372 1.58782 266.432 1.36933 266.52 1.16129C266.609 0.950175 266.73 0.754464 266.88 0.581334C267.027 0.403579 267.211 0.260175 267.42 0.16129C267.646 0.0488283 267.897 -0.00609616 268.15 0.00131725C268.45 -0.00906365 268.75 0.0420019 269.03 0.151342C269.24 0.247179 269.428 0.386953 269.58 0.561315C269.726 0.746601 269.843 0.952071 269.93 1.1713C270.02 1.4013 270.11 1.64134 270.2 1.90134L270.43 2.55131C270.476 2.71772 270.539 2.87871 270.62 3.03135C271.29 4.36135 271.94 5.71135 272.57 7.03135C273.2 8.35135 273.84 9.7713 274.46 11.1713C275.08 12.5713 275.72 13.9913 276.35 15.4313C276.98 16.8713 277.66 18.3313 278.35 19.8113L278.63 20.2313L278.91 20.6313C279.027 20.789 279.131 20.9563 279.22 21.1313C279.32 21.3121 279.401 21.5032 279.46 21.7013C279.527 21.8942 279.561 22.0971 279.56 22.3013C279.583 22.5399 279.549 22.7806 279.461 23.0033C279.372 23.226 279.231 23.4243 279.05 23.5813C278.69 23.8422 278.254 23.9759 277.81 23.9613C277.323 23.9634 276.849 23.7974 276.47 23.4913C276.302 23.3516 276.166 23.1777 276.07 22.9813C275.968 22.7878 275.9 22.578 275.87 22.3613C275.6 21.7513 275.34 21.1813 275.1 20.6513L274.4 19.1013L273.75 17.6413L273.12 16.2113H272.45H271.45H269.72H267.93H266.05L264.05 16.2713H263.74H263.42C263.14 16.9413 262.88 17.5913 262.63 18.2013C262.38 18.8113 262.16 19.3913 261.96 19.9013L261.42 21.2913C261.27 21.6913 261.15 22.0213 261.07 22.2913C261.01 22.5113 260.95 22.7313 260.87 22.9413C260.801 23.1473 260.693 23.3377 260.55 23.5013C260.391 23.6788 260.192 23.8159 259.97 23.9013C259.652 24.027 259.311 24.0816 258.97 24.0613C258.491 24.0826 258.019 23.9416 257.63 23.6613C257.462 23.5242 257.328 23.3498 257.24 23.1518C257.151 22.9539 257.11 22.738 257.12 22.5213ZM264.77 13.0913H268.85H271.68L270.13 9.71134C269.55 8.46467 268.863 7.00467 268.07 5.33133C267.84 5.84133 267.6 6.40133 267.34 7.01133C267.08 7.62133 266.81 8.25129 266.52 8.91129C266.23 9.57129 265.95 10.2513 265.66 10.9113C265.37 11.5713 265.07 12.3913 264.77 13.0913Z" fill="#73512E"/>
<path d="M283.17 22.4313C283.168 22.0971 283.188 21.763 283.23 21.4313C283.28 21.1001 283.31 20.7662 283.32 20.4313L283.26 3.21137C283.183 3.02531 283.129 2.8305 283.1 2.63135C283.053 2.39755 283.03 2.15972 283.03 1.92133C283.032 1.71654 283.07 1.51369 283.14 1.32135C283.208 1.12833 283.309 0.948858 283.44 0.791322C283.58 0.635471 283.75 0.509608 283.94 0.421327C284.156 0.321302 284.392 0.273395 284.63 0.281373C285.07 0.281373 285.51 0.301371 285.95 0.341371C286.408 0.39065 286.869 0.413966 287.33 0.411317C287.711 0.412922 288.092 0.389592 288.47 0.341371C288.875 0.300673 289.283 0.28065 289.69 0.281373C291.026 0.268782 292.355 0.46442 293.63 0.861329C294.786 1.21737 295.86 1.79855 296.79 2.57135C297.684 3.33384 298.401 4.28263 298.89 5.35132C299.421 6.55992 299.673 7.87213 299.63 9.19135C299.653 10.3781 299.48 11.5604 299.12 12.6913C298.815 13.6167 298.348 14.4802 297.74 15.2413C297.166 15.9392 296.472 16.5285 295.69 16.9813C294.894 17.4412 294.044 17.8006 293.16 18.0513C292.241 18.3137 291.301 18.4945 290.35 18.5914C289.393 18.6907 288.432 18.7407 287.47 18.7413H286.63V19.5714C286.63 19.7814 286.63 19.9414 286.63 20.0714C286.63 20.2014 286.63 20.3114 286.63 20.4014V20.7214C286.626 21.0574 286.659 21.3929 286.73 21.7214C286.791 22.0512 286.821 22.386 286.82 22.7214C286.827 22.9638 286.765 23.2032 286.64 23.4113C286.528 23.5887 286.377 23.739 286.2 23.8513C286.018 23.9681 285.819 24.0559 285.61 24.1113C285.42 24.1604 285.226 24.1873 285.03 24.1913C284.789 24.1898 284.55 24.1527 284.32 24.0814C284.105 24.0079 283.905 23.8961 283.73 23.7513C283.558 23.6061 283.416 23.4296 283.31 23.2313C283.198 22.9804 283.15 22.7055 283.17 22.4313ZM286.64 15.4313H287.26H287.87H288.38H288.72C289.684 15.4453 290.646 15.3548 291.59 15.1613C292.288 15.0143 292.961 14.7685 293.59 14.4313C294.099 14.1558 294.55 13.7859 294.92 13.3414C295.253 12.9415 295.517 12.4885 295.7 12.0013C295.881 11.511 296.002 11.0007 296.06 10.4813C296.12 9.96348 296.15 9.44262 296.15 8.92133C296.164 8.18939 296.046 7.46095 295.8 6.77136C295.586 6.21191 295.271 5.69664 294.87 5.25134C294.501 4.84578 294.065 4.50741 293.58 4.25134C293.109 4.00794 292.613 3.8168 292.1 3.68134C291.616 3.54579 291.121 3.45538 290.62 3.41132C290.202 3.36628 289.781 3.34297 289.36 3.34137H287.98H286.49C286.49 4.65137 286.49 5.80132 286.49 6.79132C286.49 7.78132 286.49 8.66134 286.49 9.43134C286.49 10.2013 286.49 10.8613 286.49 11.4313C286.49 12.0013 286.49 12.5114 286.49 12.9614C286.49 13.4114 286.49 13.8213 286.49 14.1913C286.49 14.5613 286.63 15.0813 286.63 15.4413L286.64 15.4313Z" fill="#73512E"/>
<path d="M304.17 21.9913C304.17 21.8091 304.193 21.6276 304.24 21.4513C304.24 21.2613 304.33 21.0813 304.38 20.9213L304.52 20.4413L304.17 2.54132C304.155 2.15404 304.213 1.76745 304.34 1.40136C304.434 1.16512 304.59 0.958066 304.79 0.801325C304.972 0.671187 305.187 0.594969 305.41 0.581355C305.64 0.581355 305.88 0.581355 306.12 0.581355H314.01L314.61 0.491328H315.09C315.4 0.484546 315.71 0.521563 316.01 0.601313C316.215 0.655357 316.404 0.75835 316.56 0.901362C316.696 1.03841 316.79 1.21209 316.83 1.40136C316.881 1.6344 316.905 1.87271 316.9 2.11132C316.91 2.42068 316.862 2.72919 316.76 3.02136C316.678 3.22877 316.544 3.41134 316.37 3.55133C316.2 3.68036 316.001 3.76615 315.79 3.80133C315.559 3.84245 315.325 3.86253 315.09 3.86132H314.63C314.45 3.86132 314.26 3.86132 314.06 3.86132H307.63V8.61132H315.42H315.84L316.46 8.55132C316.7 8.55132 316.96 8.55132 317.24 8.55132C317.49 8.54824 317.738 8.60666 317.96 8.72137C318.163 8.82082 318.343 8.96027 318.49 9.13134C318.634 9.28413 318.747 9.46433 318.82 9.66131C318.893 9.832 318.93 10.0158 318.93 10.2013C318.949 10.4269 318.911 10.6536 318.818 10.8601C318.725 11.0666 318.581 11.246 318.4 11.3813C317.993 11.6454 317.514 11.7748 317.03 11.7513H307.63V20.7513C308.63 20.7513 309.63 20.7513 310.63 20.7513C311.63 20.7513 312.63 20.8013 313.76 20.8013C314.034 20.8012 314.308 20.7845 314.58 20.7513L315.3 20.6514L315.94 20.5713C316.176 20.555 316.414 20.555 316.65 20.5713C316.928 20.5681 317.206 20.5915 317.48 20.6414C317.717 20.6754 317.945 20.7571 318.15 20.8813C318.337 20.9902 318.49 21.1497 318.59 21.3414C318.71 21.5689 318.769 21.8241 318.76 22.0814C318.775 22.4281 318.699 22.7728 318.54 23.0814C318.395 23.3157 318.182 23.5005 317.93 23.6113C317.652 23.7256 317.359 23.7965 317.06 23.8213C316.74 23.8213 316.4 23.8213 316.06 23.8213H305.95C305.71 23.8236 305.471 23.7933 305.24 23.7313C305.036 23.6735 304.845 23.5749 304.68 23.4413C304.516 23.2967 304.389 23.115 304.31 22.9113C304.192 22.6199 304.144 22.3047 304.17 21.9913Z" fill="#73512E"/>
<path d="M324.05 22.0214C324.05 21.8014 324.05 21.5813 324.05 21.3713C324.05 21.1614 324.05 20.9713 324.11 20.7913V8.25135C324.11 7.42135 324.11 6.60133 324.11 5.79133C324.11 4.98133 324.11 4.17137 324.11 3.33137C324.046 3.14268 323.999 2.94853 323.97 2.75135C323.923 2.51756 323.9 2.27972 323.9 2.04133C323.899 1.82733 323.933 1.61463 324 1.41133C324.059 1.20561 324.162 1.01478 324.3 0.85133C324.437 0.687184 324.607 0.55426 324.8 0.461376C325.015 0.357906 325.251 0.306495 325.49 0.311352C325.914 0.310013 326.338 0.333393 326.76 0.381359C327.241 0.436036 327.726 0.462764 328.21 0.461376C328.66 0.461376 329.11 0.461369 329.56 0.391369C330.01 0.321369 330.49 0.321352 331 0.311352C332.376 0.297055 333.75 0.44815 335.09 0.761364C336.216 1.01095 337.28 1.4836 338.22 2.15138C339.075 2.77358 339.762 3.59819 340.22 4.55134C340.714 5.64333 340.953 6.83333 340.92 8.03138C340.942 9.19018 340.763 10.344 340.39 11.4414C340.069 12.3711 339.611 13.2475 339.03 14.0413C338.506 14.7444 337.879 15.3647 337.17 15.8814C336.554 16.3413 335.882 16.721 335.17 17.0114C335.257 17.5322 335.402 18.0419 335.6 18.5314C335.779 18.9867 336.033 19.4091 336.35 19.7814C336.645 20.1374 337.009 20.43 337.42 20.6414C337.849 20.8532 338.322 20.9595 338.8 20.9514C339.141 20.9505 339.48 20.8896 339.8 20.7714C340.138 20.6301 340.421 20.3849 340.61 20.0714C340.751 19.8688 340.923 19.6899 341.12 19.5413C341.343 19.3784 341.615 19.2972 341.89 19.3114C342.117 19.2984 342.345 19.3306 342.559 19.4061C342.774 19.4817 342.971 19.599 343.14 19.7514C343.289 19.9005 343.406 20.0786 343.483 20.2747C343.561 20.4708 343.597 20.6807 343.59 20.8914C343.588 21.3271 343.464 21.7535 343.23 22.1213C342.968 22.5189 342.628 22.8591 342.23 23.1213C341.732 23.4346 341.189 23.6706 340.62 23.8214C339.938 23.9998 339.235 24.0872 338.53 24.0814C337.874 24.0916 337.22 23.9867 336.6 23.7714C336.047 23.5809 335.527 23.3042 335.06 22.9514C334.612 22.61 334.209 22.2136 333.86 21.7714C333.519 21.3362 333.217 20.871 332.96 20.3814C332.717 19.9142 332.51 19.4295 332.34 18.9313C332.192 18.4885 332.068 18.0379 331.97 17.5814H329.75H328.68H327.52V19.7614C327.539 20.2225 327.599 20.681 327.7 21.1314C327.8 21.5811 327.851 22.0406 327.85 22.5014C327.856 22.7584 327.798 23.0129 327.68 23.2413C327.57 23.4367 327.42 23.607 327.24 23.7413C327.062 23.8714 326.862 23.9695 326.65 24.0314C326.183 24.1722 325.681 24.1475 325.23 23.9614C324.99 23.8633 324.772 23.717 324.59 23.5314C324.407 23.3397 324.262 23.116 324.16 22.8713C324.07 22.5975 324.033 22.3091 324.05 22.0214ZM327.56 14.3513H328.47H329.47H330.33H330.81C331.939 14.3855 333.063 14.1987 334.12 13.8013C334.876 13.5001 335.545 13.0164 336.069 12.3935C336.592 11.7706 336.953 11.0277 337.12 10.2313C337.309 9.43863 337.403 8.62627 337.4 7.81135C337.415 7.17785 337.3 6.54804 337.06 5.96138C336.849 5.48228 336.535 5.05553 336.14 4.71138C335.758 4.3799 335.321 4.11609 334.85 3.93135C334.379 3.74156 333.89 3.60084 333.39 3.51136C332.911 3.42406 332.427 3.37056 331.94 3.35133C331.47 3.35133 331.05 3.35133 330.69 3.35133C330.33 3.35133 329.69 3.35133 329.14 3.35133C328.59 3.35133 328.05 3.35133 327.44 3.35133C327.44 3.73133 327.44 4.08133 327.44 4.35133C327.44 4.62133 327.44 4.96135 327.44 5.25135C327.44 5.54135 327.44 5.85138 327.44 6.15138V7.15138C327.44 7.83138 327.44 8.46133 327.44 9.04133C327.44 9.62133 327.44 10.1914 327.44 10.7514C327.44 11.3114 327.44 11.8613 327.44 12.4213C327.44 12.9813 327.53 13.7413 327.56 14.3513Z" fill="#73512E"/>
<path d="M0.150017 22.0214C0.150017 21.8014 0.150017 21.5813 0.150017 21.3713C0.150017 21.1614 0.150014 20.9713 0.210014 20.7913V5.79133C0.210014 4.99133 0.210014 4.17137 0.210014 3.33137C0.145877 3.14268 0.099018 2.94853 0.0700148 2.75135C0.0234244 2.51756 -2.94994e-05 2.27972 7.49941e-06 2.04133C-0.000578576 1.82733 0.0331902 1.61463 0.100014 1.41133C0.159452 1.20561 0.261688 1.01478 0.400017 0.85133C0.536987 0.687184 0.707462 0.55426 0.900017 0.461376C1.11505 0.357906 1.35143 0.306495 1.59002 0.311352C2.01435 0.310013 2.43839 0.333393 2.86001 0.381359C3.34139 0.436036 3.82553 0.462764 4.31001 0.461376C4.76 0.461376 5.21001 0.461369 5.66001 0.391369C6.11001 0.321369 6.59001 0.321352 7.10001 0.311352C8.47645 0.297055 9.84961 0.44815 11.19 0.761364C12.3157 1.01095 13.38 1.4836 14.32 2.15138C15.175 2.77358 15.8622 3.59819 16.32 4.55134C16.814 5.64333 17.0533 6.83333 17.02 8.03138C17.0423 9.19018 16.863 10.344 16.49 11.4414C16.1692 12.3711 15.7107 13.2475 15.13 14.0413C14.6083 14.7467 13.9809 15.3673 13.27 15.8814C12.6539 16.3413 11.9819 16.721 11.27 17.0114C11.3574 17.5322 11.5016 18.0419 11.7 18.5314C11.8829 18.9848 12.136 19.4066 12.45 19.7814C12.7449 20.1374 13.1089 20.43 13.52 20.6414C13.9487 20.8532 14.4219 20.9595 14.9 20.9514C15.2413 20.9505 15.5798 20.8896 15.9 20.7714C16.2376 20.6301 16.5214 20.3849 16.71 20.0714C16.8509 19.8688 17.023 19.6899 17.22 19.5413C17.4426 19.3784 17.7145 19.2972 17.99 19.3114C18.2172 19.2973 18.4449 19.329 18.6596 19.4046C18.8744 19.4801 19.0717 19.5981 19.24 19.7514C19.3891 19.9005 19.5059 20.0786 19.5833 20.2747C19.6607 20.4708 19.697 20.6807 19.69 20.8914C19.6884 21.3271 19.5636 21.7535 19.33 22.1213C19.0678 22.5189 18.7276 22.8591 18.33 23.1213C17.8318 23.4346 17.2889 23.6706 16.72 23.8214C16.038 24.0007 15.3351 24.0881 14.63 24.0814C13.9735 24.0916 13.3203 23.9867 12.7 23.7714C12.1467 23.5809 11.6269 23.3042 11.16 22.9514C10.712 22.61 10.3088 22.2136 9.96001 21.7714C9.61857 21.3362 9.31733 20.871 9.06001 20.3814C8.8163 19.916 8.61226 19.431 8.45002 18.9313C8.2988 18.4886 8.17194 18.038 8.07001 17.5814H5.85001H4.78001H3.63001V19.7614C3.64862 20.2225 3.70885 20.681 3.81 21.1314C3.91036 21.5811 3.96067 22.0406 3.96001 22.5014C3.97157 22.7589 3.9128 23.0147 3.79002 23.2413C3.67956 23.4367 3.52973 23.607 3.35001 23.7413C3.17515 23.8712 2.97883 23.9694 2.77001 24.0314C2.57518 24.0892 2.37322 24.1195 2.17001 24.1213C1.8851 24.1278 1.60213 24.0732 1.34002 23.9614C1.09954 23.8633 0.881722 23.717 0.70002 23.5314C0.517264 23.3397 0.371476 23.116 0.270012 22.8713C0.176553 22.5982 0.135837 22.3097 0.150017 22.0214ZM3.65002 14.3513H4.56001H5.56001H6.41001H6.89001C8.01871 14.3866 9.14336 14.1997 10.2 13.8013C10.9558 13.5001 11.6253 13.0164 12.1488 12.3935C12.6722 11.7706 13.0334 11.0277 13.2 10.2313C13.389 9.43863 13.483 8.62627 13.48 7.81135C13.5004 7.17746 13.3845 6.5466 13.14 5.96138C12.9287 5.48228 12.6146 5.05553 12.22 4.71138C11.8396 4.3821 11.407 4.11846 10.94 3.93135C10.4682 3.74417 9.97919 3.60352 9.48002 3.51136C8.9976 3.42459 8.50977 3.3711 8.02001 3.35133C7.55001 3.35133 7.13001 3.35133 6.77001 3.35133C6.41001 3.35133 5.77001 3.35133 5.22001 3.35133C4.67001 3.35133 4.13001 3.35133 3.52001 3.35133C3.52001 3.73133 3.52001 4.08133 3.52001 4.35133C3.52001 4.62133 3.52001 4.96135 3.52001 5.25135C3.52001 5.54135 3.52001 5.85138 3.52001 6.15138V7.15138C3.52001 7.83138 3.52001 8.46133 3.52001 9.04133C3.52001 9.62133 3.52001 10.1914 3.52001 10.7514C3.52001 11.3114 3.52001 11.8613 3.52001 12.4213C3.52001 12.9813 3.63001 13.7413 3.63001 14.3513H3.65002Z" fill="#73512E"/>
<path d="M22.77 12.1013C22.751 10.4511 23.0044 8.80904 23.52 7.24133C23.9828 5.84996 24.7132 4.5625 25.67 3.45135C26.5845 2.3953 27.7218 1.55511 29 0.991333C30.3907 0.410441 31.8829 0.111328 33.39 0.111328C34.8972 0.111328 36.3893 0.410441 37.78 0.991333C39.033 1.54963 40.1388 2.39186 41.01 3.45135C41.9234 4.56826 42.6035 5.85699 43.01 7.24133C43.4687 8.82009 43.6944 10.4573 43.68 12.1013C43.6902 13.7068 43.4438 15.3036 42.95 16.8314C42.4979 18.223 41.7852 19.516 40.85 20.6414C39.9192 21.7516 38.7518 22.6394 37.4333 23.2399C36.1147 23.8403 34.6786 24.1381 33.23 24.1113C32.2148 24.1204 31.2038 23.9789 30.23 23.6913C29.3242 23.4228 28.4644 23.0181 27.68 22.4913C26.9004 21.9752 26.1998 21.3486 25.6 20.6313C24.983 19.8935 24.4622 19.0804 24.05 18.2114C23.6063 17.2968 23.2707 16.3336 23.05 15.3414C22.8432 14.2742 22.7493 13.1882 22.77 12.1013ZM26.18 12.1013C26.18 12.8496 26.2503 13.5962 26.39 14.3314C26.527 15.0468 26.7347 15.7469 27.01 16.4213C27.2734 17.0702 27.6088 17.6874 28.01 18.2614C28.4021 18.8142 28.87 19.309 29.4 19.7313C29.929 20.1572 30.5234 20.4949 31.16 20.7313C31.828 20.9671 32.5317 21.0855 33.24 21.0814C33.9747 21.0888 34.7053 20.9704 35.4 20.7313C36.0346 20.497 36.626 20.1591 37.15 19.7313C37.6756 19.3135 38.1342 18.8178 38.51 18.2614C38.8993 17.6883 39.2183 17.0705 39.46 16.4213C39.7235 15.7468 39.9146 15.0463 40.03 14.3314C40.1582 13.595 40.2218 12.8488 40.22 12.1013C40.2258 10.9547 40.0847 9.81209 39.8 8.70135C39.5504 7.68444 39.1166 6.72185 38.52 5.86133C37.9581 5.05148 37.2151 4.38379 36.35 3.91132C35.389 3.41839 34.3197 3.17432 33.24 3.20135C32.2043 3.18305 31.1781 3.40199 30.24 3.84137C29.372 4.26805 28.6128 4.88708 28.02 5.65137C27.3896 6.49427 26.9216 7.44717 26.64 8.46136C26.3195 9.64767 26.1647 10.8726 26.18 12.1013Z" fill="#73512E"/>
<path d="M47.46 12.3613C47.4412 11.0461 47.5993 9.73444 47.93 8.46137C48.2117 7.36923 48.646 6.32221 49.22 5.35132C49.7451 4.47509 50.3991 3.68291 51.16 3.00135C51.8788 2.35184 52.6829 1.80344 53.55 1.37134C54.4024 0.941204 55.3064 0.621931 56.24 0.42133C57.1556 0.214562 58.0913 0.110588 59.03 0.111332C59.8686 0.112102 60.7053 0.189126 61.53 0.341374C62.3535 0.504125 63.1652 0.721231 63.96 0.991337L64.68 1.26136C64.9144 1.3354 65.1367 1.4432 65.34 1.58136C65.5327 1.70578 65.6937 1.87358 65.81 2.07135C65.9382 2.30712 66.0004 2.57318 65.99 2.84137C65.9984 3.14685 65.9404 3.45047 65.82 3.73133C65.7188 3.94962 65.5681 4.14134 65.38 4.29132C65.2043 4.42815 65.004 4.53005 64.79 4.59137C64.5883 4.64927 64.3798 4.67951 64.17 4.68134C64.0173 4.68105 63.8655 4.65743 63.72 4.61133C63.5495 4.56668 63.3824 4.50988 63.22 4.44135C63.0498 4.3721 62.8859 4.28846 62.73 4.19135C62.57 4.10135 62.42 4.00132 62.29 3.91132C61.9671 3.77183 61.6325 3.66144 61.29 3.58136C60.9936 3.50725 60.693 3.45044 60.39 3.41132L59.53 3.35132H58.7C58.0642 3.35197 57.4304 3.42242 56.81 3.56134C56.1766 3.70868 55.5648 3.93723 54.99 4.24134C54.3967 4.54939 53.8455 4.93255 53.35 5.38135C52.8286 5.85717 52.3834 6.41031 52.03 7.02137C51.6362 7.69742 51.3368 8.42413 51.14 9.18134C50.9195 10.0676 50.812 10.9781 50.82 11.8914C50.7807 13.3242 51.0219 14.751 51.53 16.0914C51.9402 17.1424 52.575 18.0911 53.39 18.8713C54.1284 19.5654 55.0087 20.0908 55.97 20.4113C56.9093 20.7197 57.8913 20.8784 58.88 20.8814C59.3212 20.8799 59.7619 20.8532 60.2 20.8013C60.63 20.7413 61.04 20.6714 61.41 20.5914C61.7492 20.5161 62.0832 20.4192 62.41 20.3013C62.6444 20.2273 62.8667 20.1195 63.07 19.9813C63.3139 19.7599 63.5784 19.5624 63.86 19.3914C64.0998 19.2531 64.3732 19.1838 64.65 19.1913C64.872 19.1888 65.0935 19.2123 65.31 19.2614C65.5077 19.3056 65.6919 19.3968 65.8468 19.5274C66.0017 19.658 66.1229 19.824 66.2 20.0114C66.2954 20.2495 66.3397 20.505 66.33 20.7614C66.3315 21.1813 66.1784 21.5871 65.9 21.9014C65.5251 22.33 65.0609 22.6713 64.54 22.9014C64.2414 23.0627 63.9305 23.1997 63.61 23.3113C63.1644 23.4723 62.7104 23.6092 62.25 23.7214C61.75 23.8414 61.25 23.9514 60.66 24.0314C60.1143 24.1186 59.5626 24.162 59.01 24.1613C57.8587 24.1695 56.7115 24.0216 55.6 23.7214C54.5994 23.4492 53.643 23.0349 52.76 22.4913C51.917 21.9768 51.1525 21.3437 50.49 20.6113C49.8353 19.89 49.2773 19.0867 48.83 18.2214C48.3834 17.3394 48.0475 16.4057 47.83 15.4413C47.5862 14.4328 47.462 13.399 47.46 12.3613Z" fill="#73512E"/>
<path d="M71.25 22.2814C71.25 18.8947 71.25 15.5213 71.25 12.1613C71.25 8.80132 71.25 5.42471 71.25 2.03138C71.2013 1.49986 71.3589 0.969944 71.69 0.551336C72.0718 0.231682 72.5634 0.073797 73.06 0.111334C73.2845 0.112143 73.5074 0.149337 73.72 0.22138C73.9232 0.286788 74.113 0.388413 74.28 0.521368C74.4363 0.659384 74.5652 0.825607 74.66 1.01136C74.7542 1.21144 74.8021 1.43022 74.8 1.65137C74.8 3.08137 74.8 4.44133 74.8 5.73133C74.8 7.02133 74.8 8.31134 74.8 9.62134L82.8 2.07136C82.9519 1.86288 83.1263 1.67172 83.32 1.50135C83.5597 1.26923 83.8135 1.05213 84.08 0.851324C84.3409 0.659059 84.6149 0.485342 84.9 0.331365C85.1217 0.199541 85.3724 0.123977 85.63 0.111334C85.8531 0.110379 86.0753 0.1407 86.29 0.201361C86.4913 0.259364 86.6784 0.358046 86.84 0.491339C86.998 0.629278 87.1243 0.799869 87.21 0.991339C87.3119 1.2278 87.3597 1.48404 87.35 1.74134C87.3603 2.0149 87.3126 2.28752 87.21 2.54133C87.123 2.76388 86.994 2.96763 86.83 3.14136C86.6704 3.31621 86.4927 3.47372 86.3 3.61133C86.1 3.74133 85.9 3.87134 85.69 3.99134C84.2567 5.26467 82.8133 6.5047 81.36 7.71137C79.9067 8.91804 78.43 10.158 76.93 11.4313C77.6229 11.6242 78.2787 11.9318 78.87 12.3414C79.5171 12.7754 80.126 13.2638 80.69 13.8013C81.2681 14.3558 81.8062 14.9506 82.3 15.5814C82.79 16.2114 83.23 16.8114 83.61 17.4014L84.47 18.7114C84.7255 19.0961 85.0061 19.4635 85.31 19.8113C85.549 20.0928 85.821 20.3446 86.12 20.5613C86.3423 20.739 86.6157 20.8406 86.9 20.8513C87.11 20.8513 87.35 20.8513 87.61 20.8513C87.8606 20.863 88.1075 20.9172 88.34 21.0114C88.5676 21.111 88.7669 21.2656 88.92 21.4614C89.0868 21.7123 89.1675 22.0106 89.15 22.3113C89.1733 22.664 89.0822 23.0147 88.89 23.3113C88.7288 23.5453 88.5077 23.7317 88.25 23.8513C87.9721 23.9781 87.6744 24.056 87.37 24.0814C87.05 24.0814 86.73 24.0814 86.42 24.0814C85.8509 24.0786 85.2923 23.9269 84.8 23.6414C84.256 23.3245 83.7609 22.9304 83.33 22.4714C82.8431 21.9589 82.3951 21.4107 81.99 20.8314C81.56 20.2214 81.14 19.6013 80.72 18.9813C80.3 18.3613 79.93 17.8313 79.48 17.2513C79.0521 16.6732 78.5771 16.1314 78.06 15.6314C77.5739 15.1509 77.0451 14.7158 76.48 14.3314C75.9677 13.9877 75.404 13.7277 74.81 13.5613V18.4514C74.81 19.4847 74.81 20.4047 74.81 21.2114C74.81 21.4914 74.86 21.7314 74.87 21.9514V22.5714C74.8875 22.7889 74.85 23.0074 74.7609 23.2066C74.6717 23.4058 74.5339 23.5794 74.36 23.7114C73.9527 23.982 73.4681 24.112 72.98 24.0814C72.8177 24.0785 72.6564 24.055 72.5 24.0114C72.2983 23.965 72.11 23.8726 71.95 23.7413C71.7625 23.5882 71.6092 23.3974 71.5 23.1813C71.3495 22.9042 71.264 22.5965 71.25 22.2814Z" fill="#73512E"/>
</svg>
