<svg width="174" height="468" viewBox="0 0 174 468" fill="none" xmlns="http://www.w3.org/2000/svg">
<path d="M158.04 298.886L158.041 298.898C158.134 300.55 158.3 303.077 158.514 306.325C159.517 321.536 161.561 352.556 161.938 383.524C162.166 402.315 161.78 421.052 160.18 436.2C159.38 443.776 158.28 450.425 156.811 455.721C155.397 460.821 153.679 464.529 151.673 466.642H19.8195C18.3712 464.152 17.2013 460.167 16.3083 454.925C15.3642 449.383 14.748 442.558 14.3939 434.865C13.6857 419.483 14.0286 400.718 14.8567 381.988C16.5127 344.534 20.1052 307.306 21.0745 297.742L21.0752 297.735L21.0759 297.727C22.4872 281.332 24.2718 265.086 26.0049 249.31C27.0653 239.657 28.1064 230.179 29.0308 220.951C31.4419 196.882 33.0549 174.543 32.1032 155.419C32.5734 155.019 32.996 154.68 33.3526 154.436C33.35 154.512 33.3459 154.595 33.3405 154.682C33.2919 155.469 33.1463 156.489 32.9923 157.568L32.9871 157.604C32.8354 158.667 32.6757 159.789 32.6282 160.676C32.6047 161.114 32.6042 161.558 32.6668 161.934C32.6981 162.122 32.7532 162.346 32.8632 162.559C32.9752 162.775 33.18 163.046 33.5338 163.194C33.8866 163.342 34.2225 163.298 34.4539 163.227C34.6818 163.157 34.88 163.041 35.0366 162.933C35.3503 162.715 35.6692 162.406 35.9684 162.084C36.5692 161.437 37.2607 160.551 37.9164 159.71L37.933 159.689C38.6122 158.819 39.2546 157.996 39.7945 157.413C39.8198 157.386 39.8446 157.359 39.8687 157.334C39.8712 157.366 39.8736 157.399 39.8759 157.433C39.929 158.221 39.9112 159.26 39.8922 160.362L39.8921 160.371C39.8736 161.44 39.8541 162.571 39.9167 163.459C39.9478 163.9 40.0025 164.342 40.111 164.711C40.1652 164.895 40.2463 165.109 40.3775 165.306C40.5101 165.505 40.735 165.746 41.0883 165.862C41.4499 165.98 41.7811 165.913 42.012 165.821C42.2372 165.732 42.4269 165.598 42.5746 165.474C42.8702 165.228 43.1598 164.888 43.4268 164.539C43.9638 163.837 44.5658 162.884 45.1352 161.984L45.1473 161.965C45.7369 161.032 46.2931 160.153 46.7712 159.525C46.7859 159.506 46.8003 159.487 46.8146 159.469C46.8196 159.5 46.8245 159.533 46.8295 159.566C46.9455 160.354 47.0099 161.396 47.0777 162.499L47.0787 162.515C47.1443 163.584 47.2137 164.712 47.3458 165.591C47.4115 166.027 47.501 166.464 47.6392 166.823C47.7084 167.003 47.8074 167.21 47.9569 167.397C48.1088 167.586 48.3584 167.808 48.7261 167.889C49.0936 167.969 49.4129 167.871 49.6299 167.763C49.8434 167.656 50.0201 167.509 50.1578 167.374C50.4332 167.106 50.6972 166.747 50.939 166.378C51.4193 165.646 51.9462 164.669 52.4464 163.74L52.4749 163.687C52.9983 162.716 53.4928 161.801 53.9283 161.141C53.9457 161.115 53.9629 161.089 53.9797 161.064C53.9857 161.092 53.9918 161.12 53.9978 161.149C54.1589 161.922 54.2808 162.953 54.4088 164.049L54.4152 164.103C54.5377 165.152 54.6668 166.258 54.8443 167.117C54.9335 167.549 55.0467 167.982 55.2047 168.333C55.2838 168.509 55.3943 168.711 55.5539 168.889C55.7163 169.07 55.9769 169.277 56.3465 169.338C56.7161 169.399 57.0295 169.287 57.2416 169.168C57.45 169.051 57.6197 168.895 57.7511 168.753C58.0136 168.472 58.2597 168.099 58.4829 167.718C58.9305 166.955 59.4117 165.939 59.8669 164.978L59.8796 164.951C60.3518 163.954 60.7974 163.015 61.1962 162.333C61.2054 162.317 61.2145 162.302 61.2235 162.287C61.2284 162.305 61.2334 162.324 61.2383 162.344C61.4357 163.112 61.6074 164.141 61.7894 165.232L61.7909 165.241C61.9673 166.299 62.154 167.419 62.379 168.28C62.4904 168.707 62.6267 169.134 62.8053 169.476C62.8947 169.648 63.0186 169.846 63.1928 170.015C63.3717 170.19 63.6511 170.378 64.0285 170.408C64.3939 170.438 64.6924 170.307 64.8918 170.179C65.0896 170.052 65.2497 169.89 65.3745 169.742C65.6238 169.448 65.8539 169.064 66.0617 168.673C66.4818 167.881 66.9239 166.834 67.3408 165.847L67.3453 165.836C67.7713 164.827 68.1721 163.878 68.5363 163.183C68.7549 163.923 68.9606 164.911 69.1797 165.963L69.1943 166.033C69.4133 167.084 69.6469 168.199 69.9108 169.056C70.0412 169.48 70.1968 169.902 70.3916 170.24C70.4892 170.409 70.621 170.6 70.7998 170.762C70.9824 170.928 71.2605 171.103 71.6283 171.129C71.9957 171.155 72.2956 171.022 72.4996 170.885C72.6995 170.75 72.8574 170.58 72.9784 170.427C73.22 170.121 73.4354 169.726 73.6264 169.326C74.0127 168.516 74.4073 167.447 74.779 166.44L74.7831 166.429C75.1641 165.397 75.5222 164.426 75.8571 163.715C75.8625 163.703 75.868 163.691 75.8734 163.68C75.8783 163.694 75.8831 163.707 75.888 163.721C76.1482 164.467 76.4046 165.475 76.6767 166.544L76.68 166.557C76.9433 167.593 77.2222 168.69 77.518 169.53C77.6648 169.947 77.8359 170.361 78.0412 170.689C78.144 170.853 78.2815 171.039 78.4645 171.194C78.6508 171.351 78.9357 171.519 79.3073 171.531C79.6784 171.543 79.9733 171.394 80.1695 171.249C80.362 171.107 80.5113 170.931 80.6246 170.774C80.8508 170.46 81.0484 170.059 81.2219 169.653C81.5705 168.837 81.9189 167.766 82.2483 166.755L82.2555 166.732C82.5966 165.684 82.9182 164.698 83.227 163.972C83.2347 163.954 83.2423 163.936 83.2498 163.919C83.2564 163.935 83.2631 163.952 83.2698 163.968C83.56 164.702 83.8566 165.697 84.171 166.754L84.1789 166.781C84.4822 167.8 84.8029 168.879 85.1302 169.703C85.2933 170.114 85.4806 170.521 85.6986 170.84C85.8078 171 85.9525 171.18 86.1415 171.328C86.3339 171.478 86.6255 171.635 86.9976 171.632C87.3689 171.629 87.6575 171.468 87.8476 171.315C88.0342 171.165 88.1763 170.983 88.2831 170.822C88.4966 170.5 88.678 170.091 88.8353 169.678C89.151 168.85 89.4565 167.767 89.7453 166.743L89.752 166.719C90.0513 165.659 90.3336 164.66 90.6133 163.923C90.6205 163.904 90.6276 163.885 90.6347 163.867C90.642 163.883 90.6494 163.9 90.6568 163.916C90.976 164.637 91.3119 165.619 91.6682 166.662L91.6768 166.687C92.0205 167.694 92.3841 168.759 92.7442 169.569C92.9236 169.973 93.1271 170.372 93.3579 170.682C93.4735 170.838 93.6255 171.012 93.8204 171.152C94.019 171.294 94.3166 171.438 94.6879 171.42C95.0593 171.402 95.3416 171.23 95.5256 171.069C95.7061 170.911 95.8405 170.723 95.9404 170.557C96.1398 170.225 96.3033 169.809 96.4423 169.389C96.7203 168.551 96.9773 167.461 97.2204 166.429L97.2291 166.392C97.4821 165.319 97.7211 164.309 97.9695 163.56C97.9771 163.537 97.9848 163.515 97.9923 163.492C98.0022 163.512 98.0123 163.532 98.0224 163.553C98.3718 164.258 98.7481 165.224 99.1476 166.252L99.157 166.276C99.5423 167.267 99.9502 168.316 100.345 169.11C100.542 169.506 100.762 169.897 101.008 170.198C101.131 170.348 101.291 170.516 101.492 170.647C101.698 170.781 102 170.91 102.367 170.878C102.737 170.845 103.012 170.663 103.191 170.494C103.367 170.328 103.494 170.134 103.588 169.963C103.774 169.622 103.92 169.198 104.041 168.772C104.285 167.916 104.495 166.804 104.693 165.755L104.696 165.738C104.901 164.653 105.094 163.632 105.308 162.873C105.314 162.851 105.32 162.83 105.326 162.809C105.337 162.829 105.348 162.848 105.359 162.868C105.741 163.558 106.163 164.506 106.611 165.514L106.619 165.532C107.051 166.506 107.509 167.537 107.942 168.313C108.157 168.699 108.396 169.079 108.655 169.367C108.785 169.512 108.952 169.672 109.159 169.793C109.371 169.917 109.679 170.033 110.045 169.982C110.413 169.932 110.679 169.737 110.85 169.558C111.017 169.384 111.134 169.184 111.219 169.009C111.388 168.66 111.512 168.229 111.611 167.799C111.81 166.936 111.962 165.823 112.106 164.771L112.11 164.742C112.26 163.65 112.401 162.623 112.577 161.854C112.584 161.826 112.59 161.799 112.597 161.772C112.612 161.795 112.627 161.819 112.642 161.843C113.061 162.511 113.532 163.435 114.032 164.417L114.046 164.443C114.528 165.389 115.038 166.391 115.509 167.141C115.744 167.514 116.003 167.881 116.277 168.155C116.414 168.293 116.591 168.443 116.805 168.554C117.023 168.666 117.338 168.764 117.701 168.693C118.065 168.622 118.32 168.412 118.481 168.224C118.638 168.041 118.744 167.834 118.818 167.654C118.967 167.296 119.067 166.858 119.141 166.423C119.291 165.551 119.38 164.431 119.464 163.372L119.466 163.341C119.554 162.241 119.637 161.207 119.769 160.429C119.775 160.395 119.781 160.362 119.787 160.33C119.806 160.356 119.826 160.383 119.846 160.411C120.305 161.05 120.832 161.941 121.391 162.889L121.419 162.937C121.954 163.844 122.518 164.802 123.029 165.517C123.286 165.876 123.565 166.226 123.852 166.485C123.996 166.614 124.177 166.754 124.393 166.853C124.612 166.953 124.927 167.039 125.285 166.956C125.652 166.871 125.902 166.646 126.055 166.446C126.203 166.252 126.297 166.038 126.36 165.855C126.485 165.489 126.556 165.047 126.601 164.611C126.691 163.737 126.706 162.617 126.719 161.559L126.719 161.524C126.733 160.424 126.747 159.387 126.828 158.602C126.832 158.566 126.835 158.531 126.839 158.497C126.863 158.525 126.888 158.554 126.913 158.584C127.417 159.192 128.008 160.046 128.634 160.954L128.646 160.971C129.251 161.847 129.892 162.775 130.46 163.457C130.743 163.796 131.049 164.124 131.358 164.36C131.513 164.477 131.709 164.603 131.937 164.683C132.171 164.765 132.496 164.817 132.845 164.697C133.196 164.576 133.42 164.333 133.553 164.123C133.684 163.918 133.759 163.698 133.807 163.509C133.904 163.133 133.939 162.686 133.949 162.245C133.97 161.357 133.893 160.231 133.821 159.168L133.82 159.151C133.745 158.051 133.675 157.016 133.691 156.226C133.692 156.183 133.693 156.141 133.694 156.1C133.723 156.128 133.753 156.158 133.784 156.189C134.341 156.749 135.007 157.547 135.712 158.395L135.728 158.414C136.409 159.232 137.129 160.097 137.756 160.724C138.067 161.037 138.401 161.336 138.73 161.543C138.894 161.646 139.101 161.754 139.336 161.812C139.576 161.873 139.906 161.896 140.245 161.741C140.583 161.587 140.782 161.323 140.895 161.1C141.004 160.883 141.057 160.656 141.086 160.464C141.143 160.081 141.133 159.633 141.098 159.195C141.03 158.316 140.841 157.212 140.663 156.167L140.658 156.137C140.473 155.052 140.299 154.03 140.236 153.241C140.231 153.181 140.227 153.124 140.224 153.07C140.264 153.101 140.307 153.134 140.351 153.169C140.969 153.663 141.72 154.38 142.517 155.144L142.547 155.173C143.312 155.906 144.12 156.68 144.809 157.229C145.153 157.504 145.518 157.765 145.868 157.933C146.043 158.017 146.261 158.101 146.501 158.133C146.748 158.166 147.08 158.15 147.399 157.956C147.519 157.883 147.618 157.797 147.699 157.705C147.978 175.277 149.725 195.727 151.746 217.774C151.986 220.389 152.23 223.027 152.475 225.686C154.624 248.958 156.92 273.814 158.04 298.886ZM33.9586 154.103C33.9583 154.104 33.9528 154.105 33.9428 154.107C33.9537 154.104 33.9588 154.103 33.9586 154.103ZM147.673 150.231C147.66 151.534 147.657 152.855 147.662 154.194C147.499 153.593 147.305 152.954 147.118 152.337L147.109 152.308C146.792 151.264 146.493 150.28 146.329 149.512C146.318 149.46 146.308 149.411 146.299 149.364C146.694 149.587 147.158 149.888 147.673 150.231ZM145.592 149.039C145.577 149.038 145.569 149.036 145.569 149.035C145.568 149.035 145.576 149.035 145.592 149.039Z" fill="#FBB03B" stroke="#8C6338" stroke-width="2"/>
<path d="M22.347 103.38C24.81 104.971 26.8335 107.156 28.2314 109.733C29.6294 112.31 30.3568 115.198 30.347 118.13C29.817 201.7 22.4771 285.06 15.4971 368.42H160.617C154.207 266.47 147.047 152.6 144.897 118.58C144.707 115.541 145.313 112.504 146.655 109.77C147.996 107.037 150.027 104.7 152.547 102.99C155.023 101.382 157.407 99.6355 159.687 97.76C168.307 89.84 173.867 74.43 172.347 62.69C171.267 54.33 166.887 47.69 160.027 44.1C156.588 42.2617 152.747 41.3032 148.847 41.31C144.528 41.3415 140.275 42.368 136.417 44.31C138.717 35.09 138.207 24.24 134.647 16.31C131.177 8.63 125.067 3.59 117.447 2.12C115.967 1.83822 114.464 1.69428 112.957 1.69C99.5371 1.69 89.957 12.69 84.597 24.42C79.247 12.71 69.6571 1.73 56.2571 1.73C54.7503 1.73335 53.2471 1.87732 51.7671 2.16C44.1471 3.63 38.0371 8.67 34.5671 16.34C31.2771 23.61 30.5671 33.4 32.2971 42.11C30.049 41.4685 27.7248 41.1321 25.3871 41.11C21.6277 41.1626 17.9353 42.1123 14.6171 43.88C7.70706 47.4 3.23703 53.93 2.02703 62.27C0.337033 73.99 5.66706 89.48 14.1771 97.54C16.7744 99.6572 19.5032 101.608 22.347 103.38V103.38Z" fill="white"/>
<path d="M160.617 368.42C155.217 283.31 149.337 189.8 146.297 141.49C146.207 141.61 146.127 141.74 146.047 141.87L143.837 141L142.737 140.56L142.067 141.56C141.467 142.43 140.857 143.29 140.247 144.15C140.017 144.477 139.681 144.713 139.296 144.819C138.911 144.925 138.501 144.893 138.137 144.73L137.137 144.28L136.047 143.79L135.337 144.79L133.547 147.19C133.304 147.512 132.956 147.739 132.563 147.83C132.17 147.922 131.757 147.872 131.397 147.69L130.317 147.15L129.237 146.6L128.487 147.55L126.707 149.77C126.455 150.087 126.098 150.304 125.701 150.383C125.304 150.462 124.891 150.397 124.537 150.2L123.367 149.55L122.307 148.95L121.517 149.89C120.937 150.57 120.357 151.26 119.777 151.89C119.511 152.202 119.143 152.41 118.738 152.476C118.333 152.542 117.918 152.462 117.567 152.25L116.327 151.49L115.277 150.85L114.457 151.76L112.747 153.64C112.472 153.946 112.097 154.142 111.689 154.194C111.282 154.245 110.869 154.148 110.527 153.92L109.217 153.05L108.217 152.36L107.357 153.25C106.797 153.83 106.247 154.41 105.687 154.98C105.4 155.274 105.018 155.456 104.609 155.493C104.2 155.529 103.791 155.418 103.457 155.18L102.057 154.18L101.057 153.45L100.167 154.32C99.6371 154.85 99.0971 155.32 98.5571 155.89C98.2594 156.177 97.8689 156.348 97.4561 156.372C97.0434 156.395 96.6358 156.271 96.3071 156.02L94.847 154.89L93.847 154.13L92.9271 154.97L91.3571 156.39C91.0496 156.665 90.6539 156.822 90.2413 156.831C89.8287 156.84 89.4264 156.701 89.1071 156.44L87.6171 155.15L86.6171 154.35L85.6171 155.16L84.1171 156.44C83.8045 156.71 83.4052 156.859 82.9921 156.859C82.5789 156.859 82.1796 156.71 81.8671 156.44L80.287 155.04L79.3571 154.21L78.3571 154.99L76.9171 156.13C76.5918 156.385 76.1862 156.515 75.7736 156.496C75.3609 156.478 74.9684 156.313 74.6671 156.03L73.037 154.48L72.1371 153.62L71.1371 154.36L69.7671 155.36C69.4353 155.605 69.0266 155.722 68.6155 155.691C68.2043 155.66 67.818 155.482 67.527 155.19L65.847 153.49L64.9771 152.6L63.9771 153.31L62.6871 154.19C62.347 154.422 61.9349 154.525 61.5257 154.479C61.1165 154.433 60.7373 154.242 60.4571 153.94C59.8871 153.32 59.3071 152.71 58.7371 152.08L57.8971 151.17L56.8971 151.83L55.6871 152.6C55.3397 152.817 54.9263 152.903 54.5212 152.843C54.116 152.782 53.7458 152.579 53.4771 152.27C52.8871 151.6 52.3071 150.93 51.7271 150.27L50.9271 149.34L48.7471 150.61C48.391 150.818 47.9729 150.892 47.5671 150.82C47.1726 150.74 46.8188 150.524 46.5671 150.21C45.9671 149.49 45.377 148.76 44.787 148.02L44.0171 147.07L41.9171 148.19C41.5553 148.382 41.1369 148.439 40.7371 148.35V148.35C40.3383 148.262 39.9839 148.035 39.7371 147.71L37.9171 145.31L37.1871 144.31L35.3271 145.21C35.083 145.331 34.8144 145.394 34.5421 145.394C34.2697 145.394 34.0011 145.331 33.7571 145.21L33.4171 145.03C33.1883 144.901 32.9903 144.723 32.837 144.51C32.287 143.75 31.7471 142.99 31.2071 142.22L30.5171 141.22L30.0071 141.43C28.4271 217.19 21.8071 292.79 15.4771 368.43L160.617 368.42Z" fill="#FBB03B"/>
<path d="M26.3071 222.52C26.9671 221.71 27.1871 220.8 27.8271 220.13C27.9655 220.038 28.0959 219.934 28.2171 219.82C33.5771 214.5 38.6471 211.06 44.2171 209C45.8371 208.4 47.5371 207.92 49.2171 207.46C51.6887 206.847 54.1014 206.017 56.4271 204.98C59.8171 203.35 62.0372 201.2 63.0172 198.57C63.3775 197.42 63.5166 196.212 63.4271 195.01C63.3638 194.025 63.4549 193.037 63.6971 192.08C64.1871 190.53 65.6971 189.6 67.1271 188.7C67.8224 188.284 68.4874 187.82 69.1171 187.31C70.4971 186.1 73.5371 182.93 71.8571 179.66C70.1771 176.39 65.0271 175.71 61.5671 175.17L60.5671 175.01C55.2352 174.072 49.7583 174.383 44.5671 175.92C40.8771 177.02 37.9471 177.79 33.9871 177.57C32.5088 177.423 31.0182 177.453 29.5471 177.66C29.5471 177.57 29.5471 177.49 29.5471 177.4C29.3036 177.506 29.0665 177.626 28.8371 177.76C28.6071 177.91 28.2471 178.19 27.8371 178.53C27.2304 193.43 26.4738 208.33 25.5671 223.23C25.8378 223.02 26.0858 222.782 26.3071 222.52V222.52Z" fill="#8C6338"/>
<path d="M17.3873 357.76V357.31C17.528 357.177 17.6402 357.017 17.7173 356.84C18.5373 354.96 21.3373 353.98 23.8173 353.11C24.7852 352.793 25.7334 352.419 26.6573 351.99L27.0273 351.81C29.2773 350.7 32.0273 349.31 32.8973 346.58C33.6573 344.06 32.4373 342.19 31.1473 340.7C30.86 340.399 30.549 340.121 30.2173 339.87C29.6989 339.527 29.2675 339.068 28.9573 338.53C28.7395 337.67 28.7226 336.772 28.9082 335.905C29.0938 335.038 29.4767 334.225 30.0273 333.53C30.6891 332.685 31.4003 331.881 32.1573 331.12C33.0738 330.205 33.9196 329.223 34.6873 328.18L35.3673 327.18C37.1773 324.55 38.6173 322.46 41.4773 320.77C44.8307 318.984 48.4296 317.704 52.1573 316.97L55.3473 316.24C60.8273 315.02 66.4873 313.75 71.1273 310.44C74.4473 308.07 76.5973 304.96 77.0273 301.89C77.1869 300.721 77.0975 299.531 76.7649 298.399C76.4323 297.266 75.864 296.217 75.0973 295.32C73.1166 293.001 70.4759 291.34 67.5273 290.56C65.2033 289.905 62.8282 289.447 60.4273 289.19C59.5487 289.121 58.6659 289.121 57.7873 289.19C56.3273 289.27 54.6573 289.36 53.7873 288.89C51.6273 287.69 51.9773 286.66 52.5073 285.09C53.0329 283.946 53.1322 282.651 52.7873 281.44C51.8873 278.94 49.2473 278.2 46.7873 277.8C46.0973 277.7 45.2573 277.6 44.3273 277.5C40.6873 277.09 35.1873 276.5 34.2473 274.07C33.7973 272.92 34.4273 271.35 36.1073 269.42C36.9013 268.57 37.7391 267.762 38.6173 267C41.9273 264 46.0373 260.27 44.6173 256.23C42.8773 251.11 35.6173 251.56 29.7773 251.92C27.9378 252.088 26.0868 252.088 24.2473 251.92C24.1412 251.905 24.0335 251.905 23.9273 251.92C23.9273 251.84 23.9273 251.77 23.9273 251.69H23.6973C21.2873 286.63 18.3773 321.39 15.4973 355.69C15.4073 356.69 15.3173 357.81 15.2373 358.87H15.2873C16.0543 358.644 16.7683 358.266 17.3873 357.76V357.76Z" fill="#8C6338"/>
<path d="M152.407 242.78V242.95C149.867 246.88 145.617 248.47 138.657 248.08L134.897 247.85C130.527 247.57 126.027 247.29 121.517 247.45C113.837 247.73 104.827 248.36 96.2872 250.93L95.3672 251.21C91.5272 252.33 85.1072 254.21 83.9172 258.37C83.7332 258.954 83.6809 259.572 83.7639 260.179C83.8469 260.786 84.0632 261.367 84.3972 261.88C86.1972 264.68 91.3072 265.97 95.2672 266.57L97.2672 266.85C98.9372 267.07 100.667 267.31 102.337 267.7C105.857 268.54 107.607 269.86 109.267 272.93C110.927 276 113.267 277.6 117.087 278.21C120.313 278.601 123.573 278.638 126.807 278.32C127.937 278.25 129.067 278.18 130.177 278.14C138.097 277.87 143.787 279.94 148.127 284.66C150.917 287.66 153.557 291.24 152.017 294.49C151.087 296.49 148.797 297.38 146.527 298.16C144.937 298.7 143.277 299.16 141.677 299.55C138.927 300.154 136.247 301.039 133.677 302.19C132.038 302.938 130.588 304.045 129.435 305.43C128.282 306.815 127.455 308.442 127.017 310.19C126.733 311.671 126.796 313.198 127.202 314.65C127.608 316.103 128.346 317.441 129.357 318.56C131.607 321.21 134.867 323.21 139.357 324.67L140.257 324.96C143.037 325.84 146.847 327.04 147.087 330.25C147.197 331.77 146.447 332.51 145.577 333.37C144.917 333.943 144.38 334.644 143.997 335.43C142.437 339 146.097 341.65 147.857 342.93C148.217 343.183 148.587 343.423 148.967 343.65C149.431 343.924 149.878 344.225 150.307 344.55C152.097 346 152.917 347.96 153.787 350.04L154.107 350.81C154.698 352.096 155.366 353.345 156.107 354.55C157.145 356.175 157.993 357.913 158.637 359.73C158.637 359.86 158.637 360 158.637 360.13L158.887 360.4C159.541 361.013 160.282 361.526 161.087 361.92L153.617 241.75C153.482 241.843 153.355 241.946 153.237 242.06L152.407 242.78Z" fill="#8C6338"/>
<path d="M147.147 176.41C146.665 176.877 146.217 177.378 145.807 177.91C143.996 180.31 141.461 182.063 138.577 182.91C134.203 184.398 130.105 186.598 126.447 189.42C125.819 189.85 125.322 190.443 125.008 191.136C124.694 191.829 124.576 192.595 124.667 193.35C125.017 196.15 128.147 199.1 130.967 200.35C131.321 200.495 131.685 200.612 132.057 200.7C133.257 201.05 135.277 201.62 135.637 202.62C135.696 202.86 135.696 203.112 135.637 203.352C135.578 203.592 135.461 203.815 135.297 204C134.946 204.327 134.515 204.554 134.047 204.66C133.531 204.777 133.044 204.998 132.617 205.31C131.617 206.31 130.797 207.86 132.617 209.98C134.107 211.66 136.147 211.87 138.107 212.07C139.534 212.095 140.935 212.455 142.197 213.12C143.301 213.897 144.242 214.882 144.967 216.02C145.376 216.598 145.813 217.156 146.277 217.69C146.855 218.325 147.469 218.926 148.117 219.49C149.497 220.74 150.797 221.91 151.337 223.79C151.395 223.988 151.497 224.169 151.637 224.32C151.637 224.49 151.637 224.67 151.687 224.84C151.926 225.122 152.214 225.36 152.537 225.54L149.387 175.42C148.657 175.69 147.907 175.95 147.147 176.19C147.177 176.31 147.137 176.31 147.147 176.41Z" fill="#8C6338"/>
<path d="M113.717 51.03C107.717 51.03 99.9772 47.5 96.8672 43.33C96.2927 42.6851 95.8819 41.9113 95.6695 41.0741C95.4572 40.2368 95.4495 39.3608 95.6472 38.52C98.5272 28.82 105.167 18.39 112.957 18.39C113.538 18.3925 114.117 18.4495 114.687 18.56C117.597 19.12 119.847 21.09 121.347 24.42C124.637 31.7 123.347 42.83 120.177 48.26C118.837 50.55 115.927 51.03 113.717 51.03Z" fill="#FFC9C9"/>
<path d="M112.957 19.37C113.478 19.3708 113.997 19.4211 114.507 19.52C117.087 20.01 119.097 21.8 120.507 24.82C123.587 31.63 122.457 42.55 119.387 47.82C118.277 49.71 115.717 50.1 113.767 50.1C108.017 50.1 100.657 46.76 97.6973 42.8C97.2113 42.2681 96.8611 41.6265 96.6765 40.93C96.492 40.2336 96.4785 39.5028 96.6373 38.8C98.0255 33.9909 100.264 29.4695 103.247 25.45C105.407 22.68 108.857 19.38 113.007 19.38L112.957 19.37ZM113.007 17.43C104.367 17.43 97.5973 28.69 94.7673 38.25C92.7673 44.98 105.057 52.01 113.767 52.01C116.987 52.01 119.717 51.01 121.067 48.76C126.067 40.29 126.117 19.76 114.917 17.61C114.287 17.4916 113.648 17.4313 113.007 17.43V17.43Z" fill="#8C6338"/>
<path d="M55.4871 51.07C53.2871 51.07 50.3771 50.59 49.0371 48.3C45.8371 42.87 44.5771 31.74 47.8671 24.46C49.3671 21.13 51.6071 19.16 54.5271 18.6C55.0971 18.489 55.6764 18.432 56.2571 18.43C64.0471 18.43 70.6871 28.86 73.5571 38.56C73.7569 39.4 73.7513 40.2757 73.5407 41.1131C73.33 41.9504 72.9206 42.7246 72.3471 43.37C69.2271 47.54 61.5071 51.07 55.4871 51.07Z" fill="#FFC9C9"/>
<path d="M56.2571 17.46V19.41C60.4071 19.41 63.8571 22.71 66.0171 25.48C68.9966 29.5002 71.2319 34.0216 72.6171 38.83C72.7759 39.5328 72.7624 40.2636 72.5779 40.9601C72.3933 41.6565 72.0431 42.2981 71.5571 42.83C68.5571 46.83 61.2371 50.13 55.4771 50.13C53.4771 50.13 50.9771 49.74 49.8671 47.85C46.7971 42.63 45.6671 31.71 48.7371 24.9C50.1071 21.9 52.1071 20.09 54.7371 19.6C55.2479 19.5011 55.7668 19.4509 56.2871 19.45V17.5L56.2571 17.46ZM56.2871 17.5C55.6424 17.4998 54.9993 17.5634 54.3671 17.69C43.1771 19.84 43.2471 40.36 48.2271 48.83C49.5671 51.12 52.2971 52.08 55.5171 52.08C64.2371 52.08 76.5171 45.08 74.5171 38.32C71.6871 28.76 64.9171 17.5 56.2871 17.5V17.5Z" fill="#8C6338"/>
<path d="M30.2472 90.61C29.1778 90.642 28.1262 90.33 27.2472 89.72C22.1072 86.06 16.4172 76.41 16.4572 68.43C16.4572 64.78 17.7172 62.06 20.1472 60.36C21.7526 59.2481 23.6646 58.6644 25.6172 58.69C32.7472 58.69 40.8672 65.23 45.6672 70.82C47.5772 73.06 46.4672 76.45 45.6672 78.26C42.7572 84.61 35.2572 90.61 30.2472 90.61Z" fill="#FFC9C9"/>
<path d="M25.6671 59.67C29.9171 59.67 37.5271 62.76 44.9771 71.46C46.5371 73.28 45.5371 76.25 44.7971 77.86C42.0071 83.91 34.9372 89.63 30.2472 89.63C29.3963 89.6569 28.559 89.4117 27.8571 88.93C22.9271 85.41 17.4371 75.93 17.4771 68.43C17.4771 65.12 18.5972 62.67 20.7572 61.16C22.1972 60.1609 23.9147 59.6397 25.6671 59.67ZM25.6671 57.67C23.5246 57.6456 21.4276 58.2887 19.6671 59.51C10.3271 66.05 18.7572 84.75 26.7572 90.46C27.7865 91.1827 29.0197 91.5576 30.2771 91.53C38.9971 91.53 51.9271 76.53 46.4771 70.14C41.0271 63.75 32.8572 57.67 25.6972 57.67H25.6671Z" fill="#8C6338"/>
<path d="M143.967 90.61C138.967 90.61 131.457 84.61 128.537 78.26C127.697 76.45 126.587 73.06 128.537 70.82C133.327 65.23 141.447 58.69 148.537 58.69C150.49 58.6644 152.402 59.2481 154.007 60.36C156.447 62.06 157.687 64.78 157.697 68.43C157.697 76.43 152.047 86.06 146.907 89.72C146.044 90.3243 145.01 90.6361 143.957 90.61H143.967Z" fill="#FFC9C9"/>
<path d="M148.547 59.67C150.3 59.6397 152.017 60.1609 153.457 61.16C155.617 62.67 156.727 65.16 156.737 68.43C156.737 75.9 151.287 85.43 146.357 88.93C145.655 89.4117 144.818 89.6569 143.967 89.63C139.277 89.63 132.207 83.91 129.417 77.86C128.677 76.25 127.677 73.28 129.237 71.46C136.687 62.76 144.297 59.67 148.547 59.67V59.67ZM148.547 57.67C141.387 57.67 133.117 63.89 127.767 70.14C122.417 76.39 135.247 91.53 143.967 91.53C145.225 91.5576 146.458 91.1827 147.487 90.46C155.487 84.75 163.917 66.05 154.577 59.51C152.817 58.2887 150.72 57.6456 148.577 57.67H148.547Z" fill="#8C6338"/>
<path d="M114.157 122.08C110.967 122.08 107.627 120.47 103.757 118.61C98.9773 116.3 93.5573 113.69 87.1073 113.69C80.6573 113.69 75.2373 116.3 70.4573 118.61C66.5873 120.47 63.2473 122.08 60.0573 122.08C56.8673 122.08 54.1872 120.44 51.4672 116.92C49.0072 113.72 51.2272 99.92 57.9072 86.16C61.6272 78.5 71.9073 60.67 87.1173 60.52H87.2873C101.967 60.52 112.287 78.22 116.007 85.84C122.847 99.75 125.207 113.72 122.747 116.92C120.027 120.44 117.307 122.08 114.157 122.08Z" fill="#FFC9C9"/>
<path d="M87.2972 61.5C101.427 61.5 111.467 78.82 115.127 86.26C122.127 100.55 123.907 113.82 121.967 116.33C118.667 120.61 115.967 121.11 114.157 121.11C111.157 121.11 107.937 119.54 104.157 117.73C99.2771 115.38 93.7472 112.73 87.0772 112.73C80.4072 112.73 74.8772 115.4 70.0072 117.73C66.2472 119.54 63.0072 121.11 60.0072 121.11C58.2372 121.11 55.4972 120.61 52.1972 116.33C50.2572 113.82 51.8771 100.68 58.7271 86.58C62.3671 79.09 72.4272 61.64 87.0772 61.5H87.2472H87.2972ZM87.2472 59.55H87.0672C60.9572 59.8 44.9471 110.1 50.6571 117.55C53.8171 121.64 56.8672 123.09 60.0172 123.09C67.6072 123.09 75.7372 114.69 87.0172 114.69C98.2972 114.69 106.477 123.09 114.017 123.09C117.167 123.09 120.217 121.64 123.377 117.55C129.077 110.15 112.517 59.55 87.1472 59.55H87.2472Z" fill="#8C6338"/>
<path d="M21.8171 104.19C24.1461 105.691 26.0584 107.755 27.3765 110.192C28.6947 112.629 29.3759 115.359 29.3571 118.13C28.8471 197.46 22.0871 277.94 15.5571 355.77C15.2038 359.97 14.8504 364.187 14.4971 368.42H16.4971C16.8438 364.253 17.1771 360.09 17.4971 355.93C24.0371 278.06 30.7971 197.54 31.3071 118.14C31.3274 115.043 30.5653 111.992 29.0916 109.268C27.6179 106.544 25.4804 104.237 22.8771 102.56C17.5171 99.07 15.5171 97.56 14.7971 96.83C6.49708 88.97 1.28709 73.83 2.93709 62.41C4.09709 54.41 8.38711 48.12 15.0171 44.74C20.2868 42.1035 26.3556 41.5466 32.0171 43.18C32.1764 43.2163 32.3421 43.213 32.4998 43.1704C32.6575 43.1278 32.8023 43.0473 32.9217 42.9358C33.0411 42.8243 33.1314 42.6853 33.1846 42.5309C33.2378 42.3765 33.2524 42.2114 33.2271 42.05C31.4871 33.18 32.3071 23.76 35.4171 16.88C38.7571 9.48999 44.6171 4.64998 51.9171 3.24998C53.3379 2.97985 54.7808 2.84259 56.2271 2.83998C71.8871 2.83998 80.6471 18.3 83.6771 24.95C83.7574 25.1186 83.8833 25.2614 84.0406 25.3622C84.1979 25.4629 84.3803 25.5176 84.5671 25.52C84.7522 25.5157 84.9324 25.4602 85.0878 25.3596C85.2432 25.2589 85.3676 25.1171 85.4471 24.95C88.4471 18.29 97.2371 2.79999 112.927 2.79999C114.37 2.79712 115.81 2.93442 117.227 3.20998C124.537 4.60998 130.397 9.44998 133.727 16.84C137.057 24.23 137.777 34.84 135.447 44.15C135.404 44.3309 135.412 44.5203 135.47 44.6969C135.528 44.8736 135.634 45.0305 135.777 45.15C135.919 45.255 136.087 45.3206 136.262 45.3399C136.438 45.3592 136.616 45.3316 136.777 45.26C144.507 41.47 152.637 41.36 159.457 44.96C166.027 48.44 170.227 54.78 171.267 62.81C172.747 74.27 167.267 89.31 158.907 97.05C156.671 98.8923 154.334 100.608 151.907 102.19C149.256 104.002 147.12 106.47 145.706 109.352C144.292 112.235 143.648 115.435 143.837 118.64L159.617 368.42H161.567L145.847 118.52C145.672 115.652 146.245 112.788 147.509 110.208C148.772 107.628 150.684 105.42 153.057 103.8C155.577 102.167 158.001 100.391 160.317 98.48V98.48C169.147 90.36 174.837 74.58 173.317 62.56C172.187 53.88 167.637 47.02 160.487 43.24C153.657 39.64 145.577 39.45 137.847 42.69C139.737 33.44 138.907 23.39 135.587 16.03C131.977 8.02998 125.587 2.82999 117.677 1.29999C116.138 1.00125 114.575 0.850547 113.007 0.849976C97.5371 0.849976 88.4771 14.63 84.6471 22.29C80.8071 14.65 71.7471 0.889984 56.3071 0.889984C54.7339 0.878893 53.1633 1.01954 51.6171 1.30998C43.6771 2.83998 37.3171 8.06998 33.7071 16.04C30.6071 22.9 29.7071 32.09 31.1071 40.91C25.373 39.5857 19.3558 40.3184 14.1071 42.98C6.90707 46.65 2.24709 53.44 0.99709 62.1C-0.74291 74.1 4.72709 89.96 13.4371 98.21C16.0837 100.401 18.8842 102.4 21.8171 104.19V104.19Z" fill="#8C6338"/>
</svg>
