<svg width="172" height="451" viewBox="0 0 172 451" fill="none" xmlns="http://www.w3.org/2000/svg">
<path d="M157.296 281.846L157.296 281.858C157.821 291.206 159.354 323.108 159.121 357.802C158.891 392.157 156.927 429.073 150.61 449.602H22.1689C14.1741 423.511 13.1837 386.318 14.4675 353.092C15.5699 324.561 18.3427 299.067 19.7409 286.211C19.984 283.976 20.1855 282.123 20.3295 280.702L20.3303 280.695L20.3309 280.687C21.7422 264.292 23.5268 248.046 25.2599 232.27C26.3203 222.617 27.3615 213.139 28.2859 203.911C30.697 179.842 32.31 157.503 31.3582 138.379C31.8284 137.979 32.2511 137.64 32.6077 137.396C32.605 137.473 32.601 137.555 32.5956 137.642C32.547 138.429 32.4014 139.449 32.2473 140.528L32.2422 140.564C32.0904 141.627 31.9308 142.749 31.8832 143.636C31.8598 144.074 31.8593 144.518 31.9219 144.894C31.9532 145.082 32.0082 145.306 32.1182 145.519C32.2302 145.735 32.4351 146.006 32.7888 146.154C33.1417 146.302 33.4775 146.258 33.709 146.187C33.9369 146.117 34.135 146.001 34.2916 145.893C34.6053 145.675 34.9242 145.366 35.2234 145.044C35.8242 144.397 36.5157 143.511 37.1715 142.67L37.188 142.649C37.8673 141.779 38.5097 140.956 39.0496 140.373C39.0749 140.346 39.0996 140.32 39.1238 140.294C39.1263 140.326 39.1287 140.359 39.1309 140.393C39.184 141.182 39.1663 142.22 39.1473 143.322L39.1471 143.331C39.1287 144.4 39.1091 145.531 39.1718 146.419C39.2028 146.86 39.2575 147.302 39.366 147.671C39.4203 147.855 39.5014 148.069 39.6325 148.266C39.7651 148.465 39.9901 148.706 40.3433 148.822C40.7049 148.94 41.0362 148.873 41.267 148.781C41.4922 148.692 41.6819 148.558 41.8297 148.434C42.1252 148.188 42.4149 147.848 42.6818 147.499C43.2188 146.797 43.8209 145.845 44.3902 144.944L44.4023 144.925C44.9919 143.992 45.5481 143.113 46.0263 142.485C46.0409 142.466 46.0554 142.447 46.0696 142.429C46.0746 142.46 46.0796 142.493 46.0845 142.526C46.2005 143.314 46.2649 144.356 46.3327 145.459L46.3337 145.475C46.3994 146.544 46.4687 147.672 46.6009 148.551C46.6665 148.987 46.756 149.424 46.8943 149.783C46.9634 149.963 47.0625 150.17 47.2119 150.357C47.3638 150.546 47.6134 150.768 47.9811 150.849C48.3486 150.929 48.6679 150.831 48.8849 150.723C49.0984 150.616 49.2751 150.469 49.4128 150.335C49.6882 150.066 49.9522 149.707 50.1941 149.338C50.6743 148.606 51.2012 147.629 51.7014 146.7L51.7299 146.647C52.2533 145.676 52.7479 144.761 53.1833 144.101C53.2007 144.075 53.2179 144.049 53.2347 144.024C53.2407 144.052 53.2468 144.08 53.2528 144.109C53.4139 144.882 53.5358 145.913 53.6638 147.009L53.6702 147.063C53.7927 148.112 53.9219 149.218 54.0993 150.077C54.1885 150.51 54.3018 150.942 54.4598 151.293C54.5388 151.469 54.6493 151.671 54.8089 151.849C54.9713 152.03 55.2319 152.237 55.6015 152.298C55.9712 152.359 56.2845 152.247 56.4966 152.128C56.7051 152.011 56.8747 151.855 57.0061 151.714C57.2686 151.432 57.5147 151.059 57.738 150.678C58.1856 149.915 58.6667 148.899 59.122 147.938L59.1346 147.911C59.6068 146.914 60.0524 145.975 60.4513 145.293C60.4604 145.277 60.4695 145.262 60.4786 145.247C60.4835 145.265 60.4884 145.284 60.4934 145.304C60.6907 146.072 60.8625 147.101 61.0444 148.192L61.0459 148.201C61.2223 149.259 61.4091 150.379 61.6341 151.24C61.7454 151.667 61.8817 152.094 62.0603 152.436C62.1497 152.608 62.2736 152.806 62.4478 152.975C62.6267 153.15 62.9061 153.338 63.2835 153.368C63.649 153.398 63.9474 153.267 64.1468 153.139C64.3446 153.012 64.5047 152.85 64.6295 152.702C64.8788 152.408 65.1089 152.024 65.3167 151.633C65.7368 150.841 66.1789 149.794 66.5958 148.807L66.6003 148.796C67.0263 147.787 67.4272 146.838 67.7913 146.143C68.0099 146.883 68.2156 147.871 68.4347 148.923L68.4493 148.993C68.6683 150.044 68.9019 151.159 69.1658 152.016C69.2962 152.44 69.4519 152.862 69.6466 153.2C69.7442 153.369 69.876 153.56 70.0548 153.722C70.2374 153.888 70.5155 154.063 70.8833 154.089C71.2507 154.115 71.5506 153.982 71.7546 153.845C71.9545 153.71 72.1124 153.54 72.2335 153.387C72.475 153.081 72.6905 152.686 72.8814 152.286C73.2677 151.476 73.6623 150.407 74.034 149.4L74.0382 149.389C74.4192 148.357 74.7773 147.386 75.1121 146.675C75.1176 146.663 75.123 146.651 75.1284 146.64C75.1333 146.654 75.1381 146.667 75.143 146.681C75.4032 147.427 75.6597 148.435 75.9317 149.504L75.935 149.518C76.1984 150.553 76.4773 151.65 76.773 152.49C76.9198 152.907 77.0909 153.321 77.2962 153.649C77.399 153.813 77.5366 153.999 77.7195 154.154C77.9058 154.311 78.1907 154.479 78.5623 154.491C78.9334 154.503 79.2284 154.354 79.4245 154.209C79.6171 154.067 79.7663 153.891 79.8796 153.734C80.1058 153.42 80.3034 153.019 80.4769 152.613C80.8255 151.797 81.1739 150.726 81.5033 149.715L81.5105 149.692C81.8516 148.644 82.1732 147.658 82.482 146.932C82.4897 146.914 82.4973 146.896 82.5049 146.879C82.5114 146.895 82.5181 146.912 82.5248 146.928C82.815 147.662 83.1116 148.657 83.426 149.714L83.4339 149.741C83.7372 150.76 84.058 151.839 84.3852 152.663C84.5483 153.074 84.7356 153.481 84.9536 153.8C85.0628 153.96 85.2075 154.14 85.3965 154.288C85.589 154.438 85.8805 154.595 86.2526 154.592C86.6239 154.589 86.9126 154.428 87.1026 154.275C87.2892 154.125 87.4313 153.943 87.5381 153.782C87.7516 153.46 87.933 153.051 88.0903 152.638C88.406 151.81 88.7115 150.727 89.0004 149.703L89.007 149.679C89.3063 148.619 89.5886 147.62 89.8683 146.883C89.8755 146.864 89.8827 146.845 89.8897 146.827C89.897 146.843 89.9044 146.86 89.9118 146.876C90.231 147.597 90.5669 148.579 90.9232 149.622L90.9318 149.647C91.2755 150.654 91.6392 151.719 91.9992 152.529C92.1786 152.933 92.3821 153.332 92.6129 153.642C92.7285 153.798 92.8805 153.972 93.0754 154.112C93.274 154.254 93.5716 154.398 93.9429 154.38C94.3143 154.362 94.5966 154.19 94.7806 154.029C94.9611 153.871 95.0955 153.683 95.1954 153.517C95.3948 153.185 95.5583 152.769 95.6973 152.349C95.9753 151.512 96.2323 150.421 96.4755 149.389L96.4842 149.352C96.7371 148.279 96.9761 147.269 97.2245 146.52C97.2322 146.497 97.2398 146.475 97.2473 146.452C97.2572 146.472 97.2673 146.492 97.2774 146.513C97.6268 147.218 98.0031 148.184 98.4026 149.212L98.412 149.236C98.7973 150.227 99.2052 151.276 99.5999 152.07C99.7966 152.466 100.018 152.857 100.263 153.158C100.386 153.308 100.546 153.476 100.747 153.607C100.953 153.741 101.255 153.87 101.622 153.838C101.992 153.805 102.267 153.623 102.446 153.454C102.622 153.288 102.749 153.094 102.843 152.923C103.029 152.582 103.175 152.158 103.296 151.732C103.54 150.876 103.75 149.764 103.948 148.715L103.951 148.698C104.156 147.613 104.349 146.592 104.563 145.833C104.569 145.811 104.575 145.79 104.581 145.769C104.592 145.789 104.603 145.808 104.614 145.828C104.996 146.518 105.418 147.466 105.866 148.474L105.874 148.492C106.306 149.466 106.764 150.497 107.197 151.273C107.412 151.659 107.651 152.039 107.91 152.327C108.04 152.472 108.207 152.632 108.414 152.753C108.626 152.877 108.934 152.993 109.3 152.942C109.668 152.892 109.934 152.697 110.105 152.518C110.272 152.344 110.389 152.144 110.474 151.969C110.643 151.62 110.767 151.189 110.866 150.759C111.065 149.896 111.217 148.783 111.361 147.731L111.365 147.702C111.515 146.61 111.656 145.583 111.832 144.815C111.839 144.786 111.845 144.759 111.852 144.732C111.867 144.755 111.882 144.779 111.897 144.803C112.316 145.471 112.787 146.395 113.287 147.377L113.301 147.403C113.783 148.349 114.293 149.351 114.764 150.101C114.999 150.475 115.258 150.841 115.532 151.115C115.669 151.253 115.846 151.403 116.06 151.514C116.278 151.626 116.593 151.724 116.956 151.653C117.32 151.582 117.575 151.372 117.736 151.184C117.893 151.001 117.999 150.794 118.073 150.614C118.222 150.256 118.322 149.819 118.396 149.383C118.546 148.511 118.635 147.391 118.719 146.332L118.721 146.301C118.809 145.201 118.892 144.167 119.024 143.389C119.03 143.355 119.036 143.322 119.042 143.29C119.061 143.316 119.081 143.343 119.101 143.371C119.56 144.01 120.087 144.901 120.646 145.85L120.674 145.897C121.209 146.804 121.773 147.762 122.284 148.477C122.541 148.836 122.82 149.186 123.107 149.445C123.251 149.574 123.433 149.714 123.648 149.813C123.867 149.913 124.182 149.999 124.54 149.916C124.907 149.831 125.157 149.606 125.31 149.406C125.458 149.212 125.552 148.998 125.615 148.815C125.74 148.449 125.811 148.007 125.856 147.571C125.946 146.697 125.961 145.577 125.974 144.519L125.975 144.484C125.988 143.384 126.002 142.347 126.083 141.562C126.087 141.526 126.09 141.491 126.094 141.457C126.118 141.485 126.143 141.514 126.168 141.544C126.672 142.152 127.263 143.006 127.889 143.914L127.901 143.931C128.506 144.807 129.147 145.735 129.715 146.417C129.998 146.756 130.304 147.084 130.613 147.32C130.768 147.437 130.964 147.563 131.192 147.643C131.426 147.725 131.751 147.778 132.1 147.657C132.451 147.536 132.675 147.293 132.808 147.083C132.939 146.878 133.014 146.658 133.062 146.469C133.159 146.093 133.194 145.646 133.204 145.205C133.225 144.317 133.148 143.191 133.076 142.128L133.075 142.111C133 141.012 132.93 139.976 132.946 139.186C132.947 139.143 132.948 139.101 132.949 139.06C132.978 139.088 133.008 139.118 133.039 139.149C133.596 139.709 134.262 140.507 134.967 141.355L134.983 141.374C135.664 142.192 136.384 143.057 137.011 143.684C137.322 143.997 137.656 144.296 137.985 144.503C138.149 144.606 138.356 144.714 138.591 144.773C138.831 144.833 139.161 144.856 139.5 144.701C139.838 144.547 140.037 144.283 140.15 144.06C140.259 143.843 140.312 143.616 140.341 143.424C140.398 143.041 140.388 142.593 140.353 142.155C140.285 141.276 140.096 140.172 139.918 139.127L139.913 139.097C139.728 138.012 139.554 136.99 139.491 136.201C139.486 136.141 139.482 136.084 139.479 136.03C139.519 136.061 139.562 136.094 139.606 136.129C140.224 136.623 140.975 137.34 141.772 138.104L141.803 138.133C142.567 138.866 143.375 139.64 144.064 140.189C144.408 140.465 144.773 140.725 145.123 140.893C145.298 140.977 145.516 141.061 145.756 141.093C146.003 141.126 146.335 141.11 146.654 140.916C146.774 140.843 146.873 140.757 146.954 140.665C147.233 158.237 148.98 178.687 151.001 200.734C151.241 203.349 151.485 205.987 151.73 208.646C153.879 231.919 156.175 256.774 157.296 281.846ZM33.2136 137.063C33.2134 137.064 33.2079 137.065 33.1978 137.067C33.2088 137.064 33.2138 137.063 33.2136 137.063ZM146.928 133.192C146.915 134.494 146.912 135.815 146.917 137.154C146.754 136.553 146.56 135.914 146.373 135.297L146.364 135.268C146.047 134.224 145.748 133.24 145.584 132.472C145.573 132.42 145.563 132.371 145.554 132.324C145.949 132.547 146.413 132.848 146.928 133.192ZM144.847 131.999C144.832 131.998 144.824 131.996 144.824 131.995C144.823 131.995 144.831 131.995 144.847 131.999Z" fill="#FBB03B" stroke="#8C6338" stroke-width="2"/>
<path d="M145 131C144.6 125.8 143.167 104.167 142.5 94L136 82L118.5 77H82.5C76.1667 76.8333 63.2 76.6 62 77L39.5 84.5L26.5 89.5C28.1 95.5 29.1667 123.333 29.5 136.5L76 149C99.1667 145.167 145.4 136.2 145 131Z" fill="white" stroke="#8C6338" stroke-width="2"/>
<mask id="path-3-inside-1_11_20192" fill="white">
<path d="M159.606 350.38C154.206 265.27 148.326 171.76 145.286 123.45C145.196 123.57 145.116 123.7 145.036 123.83L142.826 122.96L141.726 122.52L141.056 123.52C140.456 124.39 139.846 125.25 139.236 126.11C139.007 126.437 138.67 126.673 138.285 126.779C137.9 126.885 137.491 126.853 137.126 126.69L136.126 126.24L135.036 125.75L134.326 126.75L132.536 129.15C132.294 129.472 131.945 129.699 131.552 129.79C131.159 129.882 130.746 129.832 130.386 129.65L129.306 129.11L128.226 128.56L127.476 129.51L125.696 131.73C125.444 132.047 125.088 132.264 124.69 132.343C124.293 132.422 123.88 132.357 123.526 132.16L122.356 131.51L121.296 130.91L120.506 131.85C119.926 132.53 119.346 133.22 118.766 133.85C118.5 134.162 118.132 134.37 117.727 134.436C117.323 134.502 116.908 134.422 116.556 134.21L115.316 133.45L114.266 132.81L113.446 133.72L111.736 135.6C111.462 135.906 111.086 136.102 110.678 136.154C110.271 136.205 109.858 136.108 109.516 135.88L108.206 135.01L107.206 134.32L106.346 135.21C105.786 135.79 105.236 136.37 104.676 136.94C104.39 137.234 104.007 137.416 103.598 137.453C103.189 137.489 102.781 137.378 102.446 137.14L101.046 136.14L100.046 135.41L99.1563 136.28C98.6263 136.81 98.0863 137.28 97.5463 137.85C97.2487 138.137 96.8581 138.308 96.4454 138.332C96.0326 138.356 95.625 138.231 95.2963 137.98L93.8363 136.85L92.8363 136.09L91.9163 136.93L90.3463 138.35C90.0389 138.625 89.6432 138.782 89.2306 138.791C88.818 138.8 88.4157 138.661 88.0963 138.4L86.6063 137.11L85.6063 136.31L84.6063 137.12L83.1063 138.4C82.7938 138.67 82.3945 138.819 81.9813 138.819C81.5682 138.819 81.1688 138.67 80.8563 138.4L79.2763 137L78.3463 136.17L77.3463 136.95L75.9063 138.09C75.5811 138.345 75.1755 138.475 74.7628 138.456C74.3501 138.438 73.9576 138.273 73.6563 137.99L72.0263 136.44L71.1263 135.58L70.1263 136.32L68.7563 137.32C68.4246 137.565 68.0159 137.682 67.6047 137.651C67.1936 137.62 66.8073 137.442 66.5163 137.15L64.8363 135.45L63.9663 134.56L62.9663 135.27L61.6763 136.15C61.3362 136.382 60.9242 136.485 60.515 136.439C60.1057 136.393 59.7266 136.202 59.4464 135.9C58.8764 135.28 58.2963 134.67 57.7263 134.04L56.8864 133.13L55.8864 133.79L54.6763 134.56C54.329 134.777 53.9156 134.863 53.5104 134.803C53.1053 134.742 52.735 134.539 52.4663 134.23C51.8763 133.56 51.2963 132.89 50.7163 132.23L49.9163 131.3L47.7363 132.57C47.3803 132.778 46.9621 132.852 46.5563 132.78C46.1619 132.7 45.808 132.484 45.5563 132.17C44.9563 131.45 44.3663 130.72 43.7763 129.98L43.0063 129.03L40.9063 130.15C40.5446 130.342 40.1262 130.399 39.7263 130.31C39.3276 130.222 38.9731 129.995 38.7263 129.67L36.9063 127.27L36.1763 126.27L34.3163 127.17C34.0723 127.291 33.8036 127.354 33.5313 127.354C33.259 127.354 32.9904 127.291 32.7463 127.17L32.4063 126.99C32.1775 126.861 31.9796 126.683 31.8263 126.47C31.2763 125.71 30.7364 124.95 30.1964 124.18L29.5063 123.18L28.9963 123.39C27.4163 199.15 20.7963 274.75 14.4663 350.39L159.606 350.38Z"/>
</mask>
<path d="M159.606 350.38C154.206 265.27 148.326 171.76 145.286 123.45C145.196 123.57 145.116 123.7 145.036 123.83L142.826 122.96L141.726 122.52L141.056 123.52C140.456 124.39 139.846 125.25 139.236 126.11C139.007 126.437 138.67 126.673 138.285 126.779C137.9 126.885 137.491 126.853 137.126 126.69L136.126 126.24L135.036 125.75L134.326 126.75L132.536 129.15C132.294 129.472 131.945 129.699 131.552 129.79C131.159 129.882 130.746 129.832 130.386 129.65L129.306 129.11L128.226 128.56L127.476 129.51L125.696 131.73C125.444 132.047 125.088 132.264 124.69 132.343C124.293 132.422 123.88 132.357 123.526 132.16L122.356 131.51L121.296 130.91L120.506 131.85C119.926 132.53 119.346 133.22 118.766 133.85C118.5 134.162 118.132 134.37 117.727 134.436C117.323 134.502 116.908 134.422 116.556 134.21L115.316 133.45L114.266 132.81L113.446 133.72L111.736 135.6C111.462 135.906 111.086 136.102 110.678 136.154C110.271 136.205 109.858 136.108 109.516 135.88L108.206 135.01L107.206 134.32L106.346 135.21C105.786 135.79 105.236 136.37 104.676 136.94C104.39 137.234 104.007 137.416 103.598 137.453C103.189 137.489 102.781 137.378 102.446 137.14L101.046 136.14L100.046 135.41L99.1563 136.28C98.6263 136.81 98.0863 137.28 97.5463 137.85C97.2487 138.137 96.8581 138.308 96.4454 138.332C96.0326 138.356 95.625 138.231 95.2963 137.98L93.8363 136.85L92.8363 136.09L91.9163 136.93L90.3463 138.35C90.0389 138.625 89.6432 138.782 89.2306 138.791C88.818 138.8 88.4157 138.661 88.0963 138.4L86.6063 137.11L85.6063 136.31L84.6063 137.12L83.1063 138.4C82.7938 138.67 82.3945 138.819 81.9813 138.819C81.5682 138.819 81.1688 138.67 80.8563 138.4L79.2763 137L78.3463 136.17L77.3463 136.95L75.9063 138.09C75.5811 138.345 75.1755 138.475 74.7628 138.456C74.3501 138.438 73.9576 138.273 73.6563 137.99L72.0263 136.44L71.1263 135.58L70.1263 136.32L68.7563 137.32C68.4246 137.565 68.0159 137.682 67.6047 137.651C67.1936 137.62 66.8073 137.442 66.5163 137.15L64.8363 135.45L63.9663 134.56L62.9663 135.27L61.6763 136.15C61.3362 136.382 60.9242 136.485 60.515 136.439C60.1057 136.393 59.7266 136.202 59.4464 135.9C58.8764 135.28 58.2963 134.67 57.7263 134.04L56.8864 133.13L55.8864 133.79L54.6763 134.56C54.329 134.777 53.9156 134.863 53.5104 134.803C53.1053 134.742 52.735 134.539 52.4663 134.23C51.8763 133.56 51.2963 132.89 50.7163 132.23L49.9163 131.3L47.7363 132.57C47.3803 132.778 46.9621 132.852 46.5563 132.78C46.1619 132.7 45.808 132.484 45.5563 132.17C44.9563 131.45 44.3663 130.72 43.7763 129.98L43.0063 129.03L40.9063 130.15C40.5446 130.342 40.1262 130.399 39.7263 130.31C39.3276 130.222 38.9731 129.995 38.7263 129.67L36.9063 127.27L36.1763 126.27L34.3163 127.17C34.0723 127.291 33.8036 127.354 33.5313 127.354C33.259 127.354 32.9904 127.291 32.7463 127.17L32.4063 126.99C32.1775 126.861 31.9796 126.683 31.8263 126.47C31.2763 125.71 30.7364 124.95 30.1964 124.18L29.5063 123.18L28.9963 123.39C27.4163 199.15 20.7963 274.75 14.4663 350.39L159.606 350.38Z" fill="#FBB03B" stroke="#8C6338" stroke-width="4" mask="url(#path-3-inside-1_11_20192)"/>
<path d="M25.2964 204.48C25.9564 203.67 26.1764 202.76 26.8164 202.09C26.9548 201.998 27.0852 201.894 27.2064 201.78C32.5664 196.46 37.6364 193.02 43.2064 190.96C44.8264 190.36 46.5264 189.88 48.2064 189.42C50.678 188.807 53.0907 187.977 55.4164 186.94C58.8064 185.31 61.0264 183.16 62.0064 180.53C62.3667 179.38 62.5058 178.172 62.4164 176.97C62.353 175.985 62.4441 174.997 62.6864 174.04C63.1764 172.49 64.6864 171.56 66.1164 170.66C66.8117 170.244 67.4767 169.78 68.1064 169.27C69.4864 168.06 72.5264 164.89 70.8464 161.62C69.1664 158.35 64.0164 157.67 60.5564 157.13L59.5564 156.97C54.2245 156.032 48.7476 156.343 43.5564 157.88C39.8664 158.98 36.9364 159.75 32.9764 159.53C31.4981 159.383 30.0075 159.413 28.5364 159.62C28.5364 159.53 28.5364 159.45 28.5364 159.36C28.2928 159.466 28.0557 159.586 27.8264 159.72C27.5964 159.87 27.2364 160.15 26.8264 160.49C26.2197 175.39 25.4631 190.29 24.5564 205.19C24.827 204.98 25.075 204.742 25.2964 204.48V204.48Z" fill="#8C6338"/>
<path d="M16.3766 339.72V339.27C16.5172 339.137 16.6295 338.977 16.7065 338.8C17.5265 336.92 20.3266 335.94 22.8066 335.07C23.7744 334.753 24.7227 334.379 25.6465 333.95L26.0165 333.77C28.2665 332.66 31.0166 331.27 31.8866 328.54C32.6466 326.02 31.4266 324.15 30.1366 322.66C29.8493 322.359 29.5382 322.081 29.2065 321.83C28.6882 321.487 28.2568 321.028 27.9466 320.49C27.7287 319.63 27.7119 318.732 27.8975 317.865C28.083 316.998 28.466 316.185 29.0165 315.49C29.6783 314.645 30.3896 313.841 31.1465 313.08C32.0631 312.165 32.9089 311.183 33.6766 310.14L34.3566 309.14C36.1666 306.51 37.6066 304.42 40.4666 302.73C43.82 300.944 47.4188 299.664 51.1465 298.93L54.3365 298.2C59.8165 296.98 65.4766 295.71 70.1166 292.4C73.4366 290.03 75.5865 286.92 76.0165 283.85C76.1762 282.681 76.0868 281.491 75.7542 280.359C75.4215 279.226 74.8532 278.177 74.0865 277.28C72.1058 274.961 69.4651 273.3 66.5165 272.52C64.1925 271.865 61.8175 271.407 59.4166 271.15C58.5379 271.081 57.6552 271.081 56.7766 271.15C55.3166 271.23 53.6466 271.32 52.7766 270.85C50.6166 269.65 50.9666 268.62 51.4966 267.05C52.0222 265.906 52.1215 264.611 51.7766 263.4C50.8766 260.9 48.2366 260.16 45.7766 259.76C45.0866 259.66 44.2466 259.56 43.3166 259.46C39.6766 259.05 34.1766 258.46 33.2366 256.03C32.7866 254.88 33.4166 253.31 35.0966 251.38C35.8905 250.53 36.7284 249.722 37.6066 248.96C40.9166 245.96 45.0266 242.23 43.6066 238.19C41.8666 233.07 34.6065 233.52 28.7665 233.88C26.9271 234.048 25.0761 234.048 23.2366 233.88C23.1304 233.865 23.0227 233.865 22.9166 233.88C22.9166 233.8 22.9166 233.73 22.9166 233.65H22.6866C20.2766 268.59 17.3666 303.35 14.4866 337.65C14.3966 338.65 14.3066 339.77 14.2266 340.83H14.2766C15.0435 340.604 15.7576 340.226 16.3766 339.72V339.72Z" fill="#8C6338"/>
<path d="M151.396 224.74V224.91C148.856 228.84 144.606 230.43 137.646 230.04L133.886 229.81C129.516 229.53 125.016 229.25 120.506 229.41C112.826 229.69 103.816 230.32 95.2764 232.89L94.3565 233.17C90.5165 234.29 84.0964 236.17 82.9064 240.33C82.7225 240.914 82.6701 241.532 82.7531 242.139C82.8361 242.746 83.0524 243.327 83.3865 243.84C85.1865 246.64 90.2965 247.93 94.2565 248.53L96.2565 248.81C97.9265 249.03 99.6564 249.27 101.326 249.66C104.846 250.5 106.596 251.82 108.256 254.89C109.916 257.96 112.256 259.56 116.076 260.17C119.303 260.562 122.562 260.598 125.796 260.28C126.926 260.21 128.056 260.14 129.166 260.1C137.086 259.83 142.776 261.9 147.116 266.62C149.906 269.62 152.546 273.2 151.006 276.45C150.076 278.45 147.786 279.34 145.516 280.12C143.926 280.66 142.266 281.12 140.666 281.51C137.917 282.114 135.236 282.999 132.666 284.15C131.027 284.898 129.577 286.005 128.424 287.39C127.271 288.775 126.445 290.402 126.006 292.15C125.722 293.631 125.785 295.158 126.191 296.61C126.597 298.063 127.335 299.401 128.346 300.52C130.596 303.17 133.856 305.17 138.346 306.63L139.246 306.92C142.026 307.8 145.836 309 146.076 312.21C146.186 313.73 145.436 314.47 144.566 315.33C143.906 315.903 143.369 316.604 142.986 317.39C141.426 320.96 145.086 323.61 146.846 324.89C147.206 325.143 147.576 325.383 147.956 325.61C148.42 325.884 148.867 326.185 149.296 326.51C151.086 327.96 151.906 329.92 152.776 332L153.096 332.77C153.687 334.056 154.355 335.305 155.096 336.51C156.134 338.135 156.983 339.873 157.626 341.69C157.626 341.82 157.626 341.96 157.626 342.09L157.876 342.36C158.53 342.973 159.271 343.486 160.076 343.88L152.606 223.71C152.472 223.803 152.344 223.906 152.226 224.02L151.396 224.74Z" fill="#8C6338"/>
<path d="M146.136 158.37C145.654 158.837 145.206 159.338 144.796 159.87C142.986 162.27 140.451 164.023 137.566 164.87C133.192 166.358 129.094 168.558 125.436 171.38C124.809 171.81 124.311 172.403 123.997 173.096C123.683 173.789 123.565 174.555 123.656 175.31C124.006 178.11 127.136 181.06 129.956 182.31C130.31 182.455 130.675 182.572 131.046 182.66C132.246 183.01 134.266 183.58 134.626 184.58C134.686 184.82 134.686 185.072 134.626 185.312C134.567 185.552 134.45 185.775 134.286 185.96C133.935 186.287 133.504 186.514 133.036 186.62C132.52 186.737 132.034 186.958 131.606 187.27C130.606 188.27 129.786 189.82 131.606 191.94C133.096 193.62 135.136 193.83 137.096 194.03C138.523 194.055 139.924 194.415 141.186 195.08C142.29 195.857 143.231 196.842 143.956 197.98C144.365 198.558 144.802 199.116 145.266 199.65C145.844 200.285 146.459 200.886 147.106 201.45C148.486 202.7 149.786 203.87 150.326 205.75C150.384 205.948 150.487 206.129 150.626 206.28C150.626 206.45 150.626 206.63 150.676 206.8C150.915 207.083 151.203 207.32 151.526 207.5L148.376 157.38C147.646 157.65 146.896 157.91 146.136 158.15C146.166 158.27 146.126 158.27 146.136 158.37Z" fill="#8C6338"/>
<path d="M29.2365 72.57C28.167 72.602 27.1155 72.29 26.2365 71.68C21.0965 68.02 15.4065 58.37 15.4465 50.39C15.4465 46.74 16.7065 44.02 19.1365 42.32C20.7418 41.2081 22.6538 40.6244 24.6065 40.65C31.7365 40.65 39.8565 47.19 44.6565 52.78C46.5665 55.02 45.4565 58.41 44.6565 60.22C41.7465 66.57 34.2465 72.57 29.2365 72.57Z" fill="#FFC9C9"/>
<path d="M24.6564 41.63C28.9064 41.63 36.5164 44.72 43.9664 53.42C45.5264 55.24 44.5264 58.21 43.7864 59.82C40.9964 65.87 33.9264 71.59 29.2364 71.59C28.3856 71.6169 27.5483 71.3717 26.8464 70.89C21.9164 67.37 16.4264 57.89 16.4664 50.39C16.4664 47.08 17.5864 44.63 19.7464 43.12C21.1864 42.1209 22.904 41.5997 24.6564 41.63ZM24.6564 39.63C22.5139 39.6056 20.4169 40.2487 18.6564 41.47C9.3164 48.01 17.7464 66.71 25.7464 72.42C26.7757 73.1427 28.009 73.5176 29.2664 73.49C37.9864 73.49 50.9164 58.49 45.4664 52.1C40.0164 45.71 31.8464 39.63 24.6864 39.63H24.6564Z" fill="#8C6338"/>
<path d="M142.956 72.57C137.956 72.57 130.446 66.57 127.526 60.22C126.686 58.41 125.576 55.02 127.526 52.78C132.316 47.19 140.436 40.65 147.526 40.65C149.479 40.6244 151.391 41.2081 152.997 42.32C155.437 44.02 156.677 46.74 156.687 50.39C156.687 58.39 151.036 68.02 145.896 71.68C145.034 72.2843 144 72.5962 142.947 72.57H142.956Z" fill="#FFC9C9"/>
<path d="M147.537 41.63C149.289 41.5997 151.007 42.1209 152.447 43.12C154.607 44.63 155.717 47.12 155.727 50.39C155.727 57.86 150.277 67.39 145.347 70.89C144.645 71.3717 143.807 71.6169 142.956 71.59C138.266 71.59 131.197 65.87 128.407 59.82C127.667 58.21 126.667 55.24 128.227 53.42C135.677 44.72 143.287 41.63 147.537 41.63V41.63ZM147.537 39.63C140.377 39.63 132.107 45.85 126.757 52.1C121.407 58.35 134.236 73.49 142.956 73.49C144.214 73.5176 145.447 73.1427 146.477 72.42C154.477 66.71 162.907 48.01 153.567 41.47C151.806 40.2487 149.709 39.6056 147.567 39.63H147.537Z" fill="#8C6338"/>
<path d="M113.147 104.04C109.957 104.04 106.617 102.43 102.747 100.57C97.9665 98.26 92.5465 95.65 86.0965 95.65C79.6465 95.65 74.2266 98.26 69.4466 100.57C65.5766 102.43 62.2365 104.04 59.0465 104.04C55.8565 104.04 53.1765 102.4 50.4565 98.88C47.9965 95.68 50.2165 81.88 56.8965 68.12C60.6165 60.46 70.8965 42.63 86.1065 42.48H86.2765C100.957 42.48 111.277 60.18 114.997 67.8C121.837 81.71 124.197 95.68 121.737 98.88C119.017 102.4 116.297 104.04 113.147 104.04Z" fill="#FFC9C9"/>
<path d="M86.2864 43.46C100.416 43.46 110.456 60.78 114.116 68.22C121.116 82.51 122.896 95.78 120.956 98.29C117.656 102.57 114.956 103.07 113.146 103.07C110.146 103.07 106.926 101.5 103.146 99.69C98.2664 97.34 92.7364 94.69 86.0664 94.69C79.3964 94.69 73.8664 97.36 68.9964 99.69C65.2364 101.5 61.9964 103.07 58.9964 103.07C57.2264 103.07 54.4864 102.57 51.1864 98.29C49.2464 95.78 50.8664 82.64 57.7164 68.54C61.3564 61.05 71.4164 43.6 86.0664 43.46H86.2364H86.2864ZM86.2364 41.51H86.0564C59.9464 41.76 43.9364 92.06 49.6464 99.51C52.8064 103.6 55.8564 105.05 59.0064 105.05C66.5964 105.05 74.7264 96.65 86.0064 96.65C97.2864 96.65 105.466 105.05 113.006 105.05C116.156 105.05 119.206 103.6 122.366 99.51C128.066 92.11 111.506 41.51 86.1364 41.51H86.2364Z" fill="#8C6338"/>
<path d="M86.6784 1C-24.4216 2.5 7.57836 85.5 33.5784 92.5C47.2784 96.19 49.4884 88.89 49.4884 78.9V71.46H50.3884V78.9C50.4995 83.6255 52.4547 88.1199 55.836 91.4227C59.2174 94.7255 63.7566 96.5746 68.4834 96.5746C73.2101 96.5746 77.7493 94.7255 81.1307 91.4227C84.5121 88.1199 86.4673 83.6255 86.5784 78.9V71.46H87.4584V78.9C87.4584 83.6978 89.3643 88.299 92.7568 91.6916C96.1493 95.0841 100.751 96.99 105.548 96.99V96.99C107.925 96.9913 110.278 96.5244 112.474 95.6159C114.67 94.7073 116.666 93.375 118.346 91.6951C120.027 90.0151 121.361 88.0205 122.27 85.8251C123.18 83.6296 123.648 81.2765 123.648 78.9V71.46H124.528V78.9C124.528 88.9 128.598 96.5 137.618 94.99C167.848 89.92 200.578 5.5 86.6784 1Z" fill="white"/>
<path d="M150.928 19.56C136.928 7.72001 115.378 1.14 86.7184 0H86.6684C31.8984 0.74 14.4284 21.93 9.15845 38.41C11.2384 40.1 13.6084 42.1 14.4484 41.55C15.6284 40.77 13.1384 30.76 14.6484 30.01C15.9384 29.37 20.4684 38.38 21.9784 37.77C23.3284 37.23 22.1184 26.87 23.6284 26.36C25.1384 25.85 28.7584 35.36 30.2584 34.92C31.7584 34.48 31.1084 24.07 32.6184 23.68C34.1284 23.29 37.3084 33.04 38.8184 32.68C40.3284 32.32 40.1384 21.89 41.6484 21.58C43.1584 21.27 45.9984 31.18 47.4984 30.91C48.9984 30.64 49.1985 20.19 50.7085 19.91C52.2185 19.63 54.7684 29.69 56.2684 29.48C57.7684 29.27 58.2684 18.83 59.7884 18.65C61.3084 18.47 63.5784 28.58 65.0884 28.42C66.5984 28.26 67.3784 17.86 68.8884 17.73C70.3984 17.6 72.4284 27.78 73.9384 27.73C75.4484 27.68 76.4984 17.26 78.0084 17.18C79.5184 17.1 81.2984 27.35 82.7984 27.31C84.2984 27.27 85.6384 16.92 87.1384 16.9C88.6384 16.88 90.1384 27.19 91.6584 27.19C93.1784 27.19 94.7784 16.92 96.2784 16.96C97.7784 17 99.0184 27.39 100.508 27.39C101.998 27.39 103.928 17.25 105.418 17.39C106.908 17.53 107.848 27.88 109.338 28.02C110.828 28.16 113.078 18.02 114.558 18.19C116.038 18.36 116.628 28.8 118.108 29C119.588 29.2 122.218 19.21 123.698 19.45C125.178 19.69 125.328 30.16 126.798 30.45C128.268 30.74 131.348 20.92 132.798 21.26C134.248 21.6 133.918 32.04 135.388 32.39C136.858 32.74 140.468 23.23 141.888 23.69C143.308 24.15 142.318 34.54 143.728 35.06C145.138 35.58 149.468 26.44 150.838 27.06C152.208 27.68 150.358 37.89 151.698 38.59C153.038 39.29 158.288 30.81 159.578 31.59C160.868 32.37 157.798 42.21 159.028 43.14C159.838 43.75 162.658 41.09 164.918 39.3C162.063 31.609 157.239 24.8022 150.928 19.56Z" fill="#FBB03B"/>
<path d="M150.928 19.56C136.928 7.72001 115.378 1.14 86.7185 0H86.6685C16.0085 1 7.42848 35.95 7.01848 50.95C6.40848 73.48 21.0185 92.65 33.5085 93.5C45.0685 94.29 48.7585 87.16 49.9085 82.99C51.9085 90.82 59.0085 95.99 68.4585 95.99C77.9085 95.99 85.0185 90.99 86.9985 83.38C88.9985 90.99 95.9985 95.99 105.528 95.99C114.788 95.99 121.748 91.22 123.918 83.91C124.988 90 128.458 95.67 137.568 95.99H138.148C152.578 95.99 166.768 76.99 167.538 56.47C168.078 42.22 162.178 29.11 150.928 19.56ZM165.538 56.39C164.798 76.19 151.198 94.39 137.638 93.97C129.478 93.68 125.508 88.74 125.508 78.88V71.44C125.509 71.1848 125.412 70.9392 125.237 70.7533C125.062 70.5674 124.823 70.4553 124.568 70.44H124.508C124.263 70.4382 124.025 70.5269 123.841 70.6893C123.656 70.8516 123.538 71.0761 123.508 71.32L122.618 78.76V78.88C122.618 87.76 115.618 93.97 105.518 93.97C95.4185 93.97 88.4285 87.76 88.4285 78.88V71.44C88.4363 71.3087 88.4183 71.1771 88.3753 71.0527C88.3323 70.9284 88.2653 70.8137 88.178 70.7153C88.0907 70.6169 87.9849 70.5366 87.8666 70.4791C87.7483 70.4215 87.6198 70.3879 87.4885 70.38C87.3572 70.3721 87.2256 70.3902 87.1012 70.4332C86.9769 70.4761 86.8622 70.5432 86.7638 70.6305C86.6654 70.7178 86.5851 70.8236 86.5276 70.9419C86.47 71.0602 86.4363 71.1887 86.4285 71.32L85.5385 78.76V78.88C85.5385 87.76 78.5385 93.97 68.4385 93.97C58.5885 93.97 51.5585 87.75 51.3385 78.76L50.4585 71.33C50.4283 71.0772 50.3029 70.8455 50.1078 70.682C49.9127 70.5184 49.6626 70.4355 49.4085 70.45C49.1538 70.4653 48.9146 70.5774 48.7398 70.7633C48.5651 70.9492 48.468 71.1949 48.4685 71.45V78.89C48.4587 78.953 48.4587 79.017 48.4685 79.08C48.3619 82.4207 47.0637 85.6131 44.8085 88.08C42.2285 90.68 38.4685 91.83 33.5985 91.5C19.7785 90.56 8.50847 68.44 8.97847 50.99C9.37847 36.57 17.7185 2.93001 86.6285 1.99001C114.808 3.11001 135.998 9.53 149.628 21.08C163.438 32.8 165.898 46.76 165.538 56.39Z" fill="#8C6338"/>
</svg>
