<svg width="182" height="484" viewBox="0 0 182 484" fill="none" xmlns="http://www.w3.org/2000/svg">
<path d="M161.03 314.846L161.03 314.858C161.123 316.51 161.29 319.037 161.504 322.285C162.506 337.496 164.55 368.516 164.927 399.484C165.156 418.275 164.77 437.012 163.17 452.16C162.37 459.736 161.269 466.385 159.8 471.681C158.387 476.781 156.668 480.489 154.662 482.602H22.8087C21.3605 480.112 20.1905 476.127 19.2975 470.885C18.3534 465.343 17.7373 458.518 17.3831 450.825C16.6749 435.443 17.0178 416.678 17.8459 397.948C19.502 360.494 23.0944 323.266 24.0637 313.702L24.0645 313.695L24.0651 313.687C25.4764 297.292 27.2611 281.046 28.9941 265.27C30.0546 255.617 31.0957 246.139 32.0201 236.911C34.4312 212.842 36.0442 190.503 35.0924 171.379C35.5626 170.979 35.9853 170.64 36.3419 170.396C36.3392 170.473 36.3352 170.555 36.3298 170.642C36.2812 171.429 36.1356 172.449 35.9815 173.528L35.9764 173.564C35.8246 174.627 35.665 175.749 35.6174 176.636C35.594 177.074 35.5935 177.518 35.6561 177.894C35.6874 178.082 35.7425 178.306 35.8524 178.519C35.9644 178.735 36.1693 179.006 36.523 179.154C36.8759 179.302 37.2117 179.258 37.4432 179.187C37.6711 179.117 37.8692 179.001 38.0258 178.893C38.3395 178.675 38.6584 178.366 38.9576 178.044C39.5584 177.397 40.2499 176.511 40.9057 175.67L40.9222 175.649C41.6015 174.779 42.2439 173.956 42.7838 173.373C42.8091 173.346 42.8338 173.32 42.858 173.294C42.8605 173.326 42.8629 173.359 42.8651 173.393C42.9182 174.182 42.9005 175.22 42.8815 176.322L42.8813 176.331C42.8629 177.4 42.8433 178.531 42.906 179.419C42.937 179.86 42.9917 180.302 43.1002 180.671C43.1545 180.855 43.2356 181.069 43.3668 181.266C43.4993 181.465 43.7243 181.706 44.0775 181.822C44.4391 181.94 44.7704 181.873 45.0012 181.781C45.2264 181.692 45.4161 181.558 45.5639 181.434C45.8594 181.188 46.1491 180.848 46.4161 180.499C46.9531 179.797 47.5551 178.844 48.1245 177.944L48.1366 177.925C48.7262 176.992 49.2823 176.113 49.7605 175.485C49.7752 175.466 49.7896 175.447 49.8038 175.429C49.8088 175.46 49.8138 175.493 49.8187 175.526C49.9347 176.314 49.9991 177.356 50.067 178.459L50.0679 178.475C50.1336 179.544 50.2029 180.672 50.3351 181.551C50.4007 181.987 50.4903 182.424 50.6285 182.783C50.6976 182.963 50.7967 183.17 50.9461 183.357C51.098 183.546 51.3477 183.768 51.7154 183.849C52.0829 183.929 52.4022 183.831 52.6192 183.723C52.8326 183.616 53.0094 183.469 53.1471 183.335C53.4224 183.066 53.6864 182.707 53.9283 182.338C54.4086 181.606 54.9354 180.629 55.4356 179.7L55.4642 179.647C55.9875 178.676 56.4821 177.761 56.9175 177.101C56.935 177.075 56.9521 177.049 56.969 177.024C56.975 177.052 56.981 177.08 56.9871 177.109C57.1481 177.882 57.2701 178.913 57.3981 180.009L57.4044 180.063C57.5269 181.112 57.6561 182.218 57.8335 183.077C57.9227 183.51 58.036 183.942 58.194 184.293C58.273 184.469 58.3836 184.671 58.5432 184.849C58.7055 185.03 58.9661 185.237 59.3357 185.298C59.7054 185.359 60.0188 185.247 60.2308 185.128C60.4393 185.011 60.609 184.855 60.7403 184.714C61.0029 184.432 61.249 184.059 61.4722 183.678C61.9198 182.915 62.4009 181.899 62.8562 180.938L62.8688 180.911C63.3411 179.914 63.7866 178.975 64.1855 178.293C64.1947 178.277 64.2038 178.262 64.2128 178.247C64.2177 178.265 64.2226 178.284 64.2276 178.304C64.4249 179.072 64.5967 180.101 64.7787 181.192L64.7802 181.201C64.9566 182.259 65.1433 183.379 65.3683 184.24C65.4797 184.667 65.616 185.094 65.7946 185.436C65.884 185.608 66.0078 185.806 66.1821 185.975C66.3609 186.15 66.6403 186.338 67.0178 186.368C67.3832 186.398 67.6817 186.267 67.881 186.139C68.0789 186.012 68.2389 185.85 68.3637 185.702C68.613 185.408 68.8431 185.024 69.0509 184.633C69.4711 183.841 69.9132 182.794 70.3301 181.807L70.3345 181.796C70.7606 180.787 71.1614 179.838 71.5256 179.143C71.7441 179.883 71.9498 180.871 72.169 181.923L72.1836 181.993C72.4026 183.044 72.6362 184.159 72.9001 185.016C73.0305 185.44 73.1861 185.862 73.3808 186.2C73.4784 186.369 73.6102 186.56 73.789 186.722C73.9716 186.888 74.2498 187.063 74.6176 187.089C74.9849 187.115 75.2848 186.982 75.4888 186.845C75.6887 186.71 75.8466 186.54 75.9677 186.387C76.2092 186.081 76.4247 185.686 76.6156 185.286C77.0019 184.476 77.3966 183.407 77.7682 182.4L77.7723 182.389C78.1533 181.357 78.5115 180.386 78.8463 179.675C78.8518 179.663 78.8573 179.651 78.8627 179.64C78.8675 179.654 78.8724 179.667 78.8772 179.681C79.1374 180.427 79.3939 181.435 79.6659 182.504L79.6692 182.517C79.9326 183.553 80.2115 184.65 80.5073 185.49C80.6541 185.907 80.8251 186.321 81.0305 186.649C81.1333 186.813 81.2708 186.999 81.4537 187.154C81.64 187.311 81.925 187.479 82.2966 187.491C82.6677 187.503 82.9626 187.354 83.1587 187.209C83.3513 187.067 83.5006 186.891 83.6139 186.734C83.8401 186.42 84.0377 186.019 84.2112 185.613C84.5597 184.797 84.9082 183.726 85.2375 182.715L85.2447 182.692C85.5858 181.644 85.9075 180.658 86.2162 179.932C86.2239 179.914 86.2315 179.896 86.2391 179.879C86.2457 179.895 86.2523 179.912 86.259 179.928C86.5492 180.662 86.8458 181.657 87.1603 182.714L87.1682 182.741C87.4714 183.76 87.7922 184.839 88.1194 185.663C88.2825 186.074 88.4698 186.481 88.6879 186.8C88.797 186.96 88.9418 187.14 89.1307 187.288C89.3232 187.438 89.6148 187.595 89.9869 187.592C90.3581 187.589 90.6468 187.428 90.8368 187.275C91.0234 187.125 91.1655 186.943 91.2724 186.782C91.4858 186.46 91.6673 186.051 91.8245 185.638C92.1402 184.81 92.4458 183.727 92.7346 182.703L92.7413 182.679C93.0405 181.619 93.3228 180.62 93.6026 179.883C93.6098 179.864 93.6169 179.845 93.624 179.827C93.6313 179.843 93.6386 179.86 93.6461 179.876C93.9652 180.597 94.3011 181.579 94.6575 182.622L94.6661 182.647C95.0098 183.654 95.3734 184.719 95.7334 185.529C95.9129 185.933 96.1163 186.332 96.3472 186.642C96.4628 186.798 96.6148 186.972 96.8097 187.112C97.0082 187.254 97.3058 187.398 97.6772 187.38C98.0486 187.362 98.3309 187.19 98.5149 187.029C98.6954 186.871 98.8297 186.683 98.9296 186.517C99.129 186.185 99.2925 185.769 99.4315 185.349C99.7096 184.512 99.9665 183.421 100.21 182.389L100.218 182.352C100.471 181.279 100.71 180.269 100.959 179.52C100.966 179.497 100.974 179.475 100.982 179.452C100.991 179.472 101.002 179.492 101.012 179.513C101.361 180.218 101.737 181.184 102.137 182.212L102.146 182.236C102.532 183.227 102.939 184.276 103.334 185.07C103.531 185.466 103.752 185.857 103.997 186.158C104.12 186.308 104.28 186.476 104.481 186.607C104.687 186.741 104.989 186.87 105.356 186.838C105.726 186.805 106.001 186.623 106.181 186.454C106.356 186.288 106.483 186.094 106.577 185.923C106.763 185.582 106.909 185.158 107.031 184.732C107.274 183.876 107.484 182.764 107.682 181.715L107.685 181.698C107.89 180.613 108.083 179.592 108.297 178.833C108.303 178.811 108.309 178.79 108.315 178.769C108.326 178.789 108.337 178.808 108.348 178.828C108.731 179.518 109.152 180.466 109.6 181.474L109.608 181.492C110.041 182.466 110.499 183.497 110.931 184.273C111.146 184.659 111.385 185.039 111.644 185.327C111.774 185.472 111.941 185.632 112.149 185.753C112.36 185.877 112.668 185.993 113.035 185.942C113.402 185.892 113.669 185.697 113.839 185.518C114.006 185.344 114.124 185.144 114.208 184.969C114.377 184.62 114.501 184.189 114.6 183.759C114.799 182.896 114.951 181.783 115.096 180.731L115.1 180.702C115.249 179.61 115.391 178.583 115.567 177.815C115.573 177.786 115.58 177.759 115.586 177.732C115.601 177.755 115.616 177.779 115.631 177.803C116.05 178.471 116.521 179.395 117.022 180.377L117.035 180.403C117.517 181.349 118.027 182.351 118.498 183.101C118.733 183.475 118.992 183.841 119.266 184.115C119.404 184.253 119.58 184.403 119.794 184.514C120.013 184.626 120.327 184.724 120.69 184.653C121.054 184.582 121.31 184.372 121.47 184.184C121.627 184.001 121.733 183.794 121.807 183.614C121.956 183.256 122.056 182.819 122.13 182.383C122.28 181.511 122.369 180.391 122.453 179.332L122.456 179.301C122.543 178.201 122.626 177.167 122.759 176.389C122.764 176.355 122.77 176.322 122.776 176.29C122.795 176.316 122.815 176.343 122.835 176.371C123.294 177.01 123.821 177.901 124.38 178.85L124.408 178.897C124.943 179.804 125.507 180.762 126.018 181.477C126.275 181.836 126.554 182.186 126.841 182.445C126.985 182.574 127.167 182.714 127.382 182.813C127.601 182.913 127.916 182.999 128.274 182.916C128.641 182.831 128.891 182.606 129.044 182.406C129.192 182.212 129.286 181.998 129.349 181.815C129.475 181.449 129.545 181.007 129.59 180.571C129.681 179.697 129.695 178.577 129.708 177.519L129.709 177.484C129.723 176.384 129.737 175.347 129.817 174.562C129.821 174.526 129.825 174.491 129.828 174.457C129.852 174.485 129.877 174.514 129.902 174.544C130.407 175.152 130.997 176.006 131.623 176.914L131.635 176.931C132.24 177.807 132.881 178.735 133.45 179.417C133.733 179.756 134.038 180.084 134.348 180.32C134.503 180.437 134.698 180.563 134.926 180.643C135.16 180.725 135.485 180.778 135.835 180.657C136.185 180.536 136.409 180.293 136.543 180.083C136.673 179.878 136.748 179.658 136.797 179.469C136.893 179.093 136.928 178.646 136.938 178.205C136.959 177.317 136.882 176.191 136.81 175.128L136.809 175.111C136.734 174.012 136.664 172.976 136.68 172.186C136.681 172.143 136.682 172.101 136.684 172.06C136.713 172.088 136.742 172.118 136.773 172.149C137.331 172.709 137.996 173.507 138.702 174.355L138.717 174.374C139.398 175.192 140.119 176.057 140.745 176.684C141.057 176.997 141.39 177.296 141.719 177.503C141.884 177.606 142.09 177.714 142.325 177.773C142.565 177.833 142.896 177.856 143.234 177.701C143.572 177.547 143.772 177.283 143.884 177.06C143.993 176.843 144.046 176.616 144.075 176.424C144.132 176.041 144.122 175.593 144.088 175.155C144.019 174.276 143.83 173.172 143.652 172.127L143.647 172.097C143.462 171.012 143.288 169.99 143.225 169.201C143.22 169.141 143.216 169.084 143.213 169.03C143.254 169.061 143.296 169.094 143.34 169.129C143.958 169.623 144.709 170.34 145.506 171.104L145.536 171.133C146.301 171.866 147.109 172.64 147.798 173.189C148.143 173.465 148.508 173.725 148.857 173.893C149.033 173.977 149.25 174.061 149.491 174.093C149.737 174.126 150.069 174.11 150.388 173.916C150.508 173.843 150.607 173.757 150.688 173.665C150.967 191.237 152.714 211.687 154.735 233.734C154.975 236.349 155.219 238.987 155.464 241.646C157.614 264.919 159.909 289.774 161.03 314.846ZM36.9478 170.063C36.9476 170.064 36.9421 170.065 36.932 170.067C36.943 170.064 36.948 170.063 36.9478 170.063ZM150.663 166.192C150.649 167.494 150.646 168.815 150.652 170.154C150.488 169.553 150.294 168.914 150.107 168.297L150.098 168.268C149.781 167.224 149.482 166.24 149.318 165.472C149.307 165.42 149.297 165.371 149.288 165.324C149.683 165.547 150.147 165.848 150.663 166.192ZM148.581 164.999C148.567 164.998 148.558 164.996 148.558 164.995C148.557 164.995 148.565 164.995 148.581 164.999Z" fill="#FBB03B" stroke="#8C6338" stroke-width="2"/>
<path d="M124.856 31.55C124.002 31.4719 123.165 31.2593 122.376 30.92C121.986 30.78 121.606 30.65 121.256 30.55C120.906 30.45 120.736 30.41 120.456 30.34C120 30.2391 119.551 30.102 119.116 29.93C118.046 29.44 117.356 28.44 116.046 26.48C118.646 24.36 120.796 20.12 122.236 16.98C123.236 14.76 124.146 12.45 124.996 10.21C125.466 8.99002 125.936 7.77002 126.426 6.55002C126.666 5.95002 126.876 5.28002 127.086 4.55002C127.4 3.28048 127.913 2.06875 128.606 0.960022C128.85 1.05173 129.064 1.20715 129.226 1.41002C130.286 2.62002 131.346 6.15003 130.376 16.12L130.296 16.93C129.976 20.38 128.986 30.93 125.156 31.5L124.856 31.55Z" fill="white"/>
<path d="M128.826 2.64C129.456 3.91 130.237 7.27 129.377 16.06V16.27L129.317 16.9C128.237 28.38 126.157 30.4 125.007 30.58H124.857C124.12 30.493 123.399 30.3011 122.716 30.01C122.336 29.87 121.937 29.73 121.547 29.62L120.706 29.4C120.309 29.3106 119.918 29.1937 119.536 29.05C118.856 28.74 118.367 28.14 117.377 26.67C119.827 24.3 121.796 20.39 123.156 17.43C124.156 15.18 125.077 12.85 125.937 10.6C126.397 9.40001 126.877 8.16001 127.357 6.96001C127.617 6.31001 127.847 5.60001 128.057 4.96001C128.273 4.19878 128.533 3.45083 128.836 2.72L128.826 2.64ZM128.237 0C126.737 1.44 126.237 4.33001 125.507 6.26001C124.107 9.72001 122.886 13.26 121.336 16.65C120.006 19.55 117.517 24.65 114.687 26.3C116.447 28.93 117.227 30.24 118.687 30.92C119.431 31.1932 120.193 31.417 120.966 31.59C122.207 32.0926 123.508 32.4288 124.836 32.59C124.989 32.6053 125.144 32.6053 125.297 32.59C130.147 31.83 130.977 20.3 131.297 16.5C131.577 13.58 132.987 0.14 128.167 0H128.237Z" fill="#8C6338"/>
<path d="M169.007 77.12C166.927 77.12 163.296 73.63 161.656 70.12C163.249 68.2619 165.01 66.5547 166.917 65.02C168.477 63.7394 169.959 62.367 171.357 60.91L172.757 59.44C173.757 58.37 174.837 57.27 175.757 56.09C176.248 55.4174 176.683 54.7049 177.057 53.96C177.492 52.9679 178.113 52.0684 178.887 51.31C179.089 51.1379 179.334 51.0238 179.596 50.98C179.896 51.22 180.467 53.35 179.137 60.06C178.282 64.5762 176.434 68.846 173.727 72.56L173.456 72.92C172.516 74.2 170.557 76.85 169.237 77.07C169.162 77.0952 169.085 77.112 169.007 77.12V77.12Z" fill="white"/>
<path d="M178.976 52.73C178.937 59.604 176.848 66.3101 172.976 71.99L172.706 72.36C170.946 74.74 169.706 76 169.126 76.12H169.036C167.606 76.12 164.506 73.32 162.866 70.28C164.326 68.6713 165.908 67.1769 167.596 65.81C169.187 64.5031 170.7 63.1041 172.126 61.62C172.576 61.13 173.036 60.62 173.506 60.16C174.506 59.08 175.626 57.96 176.596 56.74C177.123 56.0203 177.588 55.2576 177.986 54.46C178.288 53.8655 178.622 53.288 178.986 52.73H178.976ZM179.626 50.01C179.162 50.0456 178.72 50.2198 178.356 50.51C176.986 51.45 176.076 54.15 175.006 55.51C173.676 57.18 172.096 58.69 170.636 60.27C167.516 63.65 163.206 66.37 160.506 70.02C162.006 73.64 166.146 78.13 169.016 78.13H169.436C171.286 77.82 173.436 74.71 174.556 73.23C177.34 69.4024 179.245 65.008 180.136 60.36C180.406 59 182.216 50.05 179.626 50.05V50.01Z" fill="#8C6338"/>
<path d="M50.0764 31.54C46.2064 31.21 44.4965 20.79 43.9265 17.36L43.7965 16.57C42.1365 6.68001 42.9465 3.09 43.9165 1.81C44.0699 1.60069 44.2726 1.43241 44.5065 1.32001C45.2762 2.37434 45.8705 3.54611 46.2664 4.79001C46.5364 5.48001 46.7864 6.13 47.0764 6.72C47.6464 7.89 48.1965 9.08001 48.7465 10.26C49.7465 12.44 50.8065 14.68 51.9765 16.83C53.6265 19.83 56.0665 23.95 58.8065 25.83C57.6465 27.88 57.0265 28.93 55.9865 29.49C55.5661 29.6965 55.1276 29.8639 54.6765 29.99L53.8964 30.25C53.5564 30.38 53.1865 30.54 52.8065 30.71C52.0011 31.1284 51.1273 31.3993 50.2265 31.51L50.0764 31.54Z" fill="white"/>
<path d="M44.4063 2.98004C44.7559 3.68917 45.0664 4.41692 45.3363 5.16003C45.5963 5.83003 45.8664 6.53003 46.1764 7.16003C46.7464 8.32003 47.3064 9.53003 47.8464 10.69C48.8464 12.88 49.9063 15.14 51.0963 17.31C52.6563 20.17 54.8964 23.93 57.5064 26.13C56.6164 27.67 56.1664 28.29 55.5064 28.65C55.1338 28.8207 54.7495 28.9644 54.3564 29.08C54.0764 29.17 53.7964 29.26 53.5364 29.36C53.2764 29.46 52.7663 29.67 52.3963 29.83C51.713 30.1854 50.9769 30.4285 50.2163 30.55H50.1563C47.4563 30.32 45.7063 22.1 44.9063 17.21L44.8064 16.58V16.41C43.3364 7.71003 43.8764 4.30004 44.4264 2.99004L44.4063 2.98004ZM44.8363 0.230042C40.0363 0.710041 42.3763 14.02 42.8363 16.92C43.4663 20.67 45.0864 32.13 49.9764 32.55H50.2163C51.5263 32.55 53.0363 31.68 54.2163 31.23C54.9741 31.0075 55.7159 30.7335 56.4364 30.41C57.8764 29.63 58.5564 28.27 60.1264 25.52C57.1864 24.03 54.3564 19.16 52.8164 16.35C51.0364 13.09 49.5864 9.64003 47.9464 6.28003C47.0364 4.41003 46.3764 1.56003 44.7864 0.220032L44.8363 0.230042Z" fill="#8C6338"/>
<path d="M11.9765 77.12C11.8934 77.1299 11.8095 77.1299 11.7265 77.12C10.4065 76.9 8.44649 74.25 7.50649 72.97L7.23647 72.61C4.53392 68.909 2.68927 64.6527 1.83644 60.15C0.496442 53.4 1.06644 51.27 1.39644 51.01C1.63873 51.0934 1.86774 51.2113 2.07643 51.36C2.84775 52.1165 3.46872 53.0123 3.90645 54C4.27389 54.7513 4.70901 55.4676 5.20644 56.14C6.14644 57.32 7.20644 58.42 8.20644 59.49L9.60646 60.96C11.0036 62.4169 12.4862 63.7894 14.0465 65.07C15.9529 66.6046 17.7137 68.3119 19.3065 70.17C17.6865 73.63 14.0565 77.12 11.9765 77.12Z" fill="white"/>
<path d="M2.00632 52.72C2.36881 53.2828 2.70257 53.8635 3.00632 54.46C3.40491 55.2577 3.86983 56.0204 4.39628 56.74C5.39628 57.96 6.4463 59.08 7.4863 60.16C7.9563 60.65 8.41631 61.16 8.86631 61.62C10.2931 63.1041 11.8056 64.5031 13.3963 65.81C15.0849 67.1769 16.6662 68.6713 18.1263 70.28C16.4863 73.28 13.3863 76.12 11.9563 76.12H11.8663C11.2563 76 10.0463 74.74 8.28629 72.36L8.01627 71.99C4.13793 66.3095 2.04829 59.5982 2.01627 52.72H2.00632ZM1.37632 50.01C-1.21368 50.01 0.596309 58.96 0.866309 60.32C1.75759 64.9681 3.66284 69.3624 6.44633 73.19C7.54633 74.67 9.71632 77.78 11.5663 78.09C11.7061 78.0999 11.8465 78.0999 11.9863 78.09C14.8563 78.09 18.9863 73.6 20.4963 69.98C17.7963 66.33 13.4963 63.61 10.3663 60.23C8.90631 58.65 7.36631 57.14 5.99631 55.47C4.92631 54.12 3.99628 51.47 2.64628 50.47C2.28266 50.1798 1.84021 50.0056 1.37632 49.97V50.01Z" fill="#8C6338"/>
<path d="M25.3363 119.34C27.7993 120.931 29.8228 123.116 31.2207 125.693C32.6186 128.27 33.3461 131.158 33.3363 134.09C32.8063 217.66 25.4663 301.02 18.4863 384.38H163.606C157.196 282.43 150.036 168.56 147.886 134.54C147.697 131.501 148.302 128.464 149.644 125.73C150.985 122.997 153.016 120.66 155.536 118.95C158.012 117.342 160.396 115.596 162.676 113.72C171.296 105.8 176.856 90.39 175.336 78.65C174.256 70.29 169.876 63.65 163.016 60.06C159.577 58.2217 155.736 57.2632 151.836 57.27C147.517 57.3015 143.264 58.3281 139.406 60.27C141.706 51.05 141.196 40.2 137.636 32.27C134.166 24.59 128.056 19.55 120.436 18.08C118.956 17.7982 117.453 17.6543 115.946 17.65C102.526 17.65 92.9463 28.65 87.5863 40.38C82.2363 28.67 72.6463 17.69 59.2463 17.69C57.7396 17.6934 56.2364 17.8373 54.7563 18.12C47.1363 19.59 41.0263 24.63 37.5563 32.3C34.2663 39.57 33.5563 49.36 35.2863 58.07C33.0382 57.4285 30.7141 57.0921 28.3763 57.07C24.617 57.1227 20.9246 58.0723 17.6063 59.84C10.6963 63.36 6.22629 69.89 5.01629 78.23C3.32629 89.95 8.65631 105.44 17.1663 113.5C19.7636 115.617 22.4924 117.568 25.3363 119.34V119.34Z" fill="white"/>
<path d="M163.606 384.38C158.206 299.27 152.326 205.76 149.286 157.45C149.196 157.57 149.116 157.7 149.036 157.83L146.826 156.96L145.726 156.52L145.056 157.52C144.456 158.39 143.846 159.25 143.236 160.11C143.007 160.437 142.67 160.673 142.285 160.779C141.9 160.885 141.491 160.853 141.126 160.69L140.126 160.24L139.036 159.75L138.326 160.75L136.536 163.15C136.294 163.472 135.945 163.699 135.552 163.79C135.159 163.882 134.746 163.832 134.386 163.65L133.306 163.11L132.226 162.56L131.476 163.51L129.696 165.73C129.444 166.047 129.088 166.264 128.69 166.343C128.293 166.422 127.88 166.357 127.526 166.16L126.356 165.51L125.296 164.91L124.506 165.85C123.926 166.53 123.346 167.22 122.766 167.85C122.5 168.162 122.132 168.37 121.727 168.436C121.323 168.502 120.908 168.422 120.556 168.21L119.316 167.45L118.266 166.81L117.446 167.72L115.736 169.6C115.462 169.906 115.086 170.102 114.678 170.154C114.271 170.205 113.858 170.108 113.516 169.88L112.206 169.01L111.206 168.32L110.346 169.21C109.786 169.79 109.236 170.37 108.676 170.94C108.39 171.234 108.007 171.416 107.598 171.453C107.189 171.489 106.781 171.378 106.446 171.14L105.046 170.14L104.046 169.41L103.156 170.28C102.626 170.81 102.086 171.28 101.546 171.85C101.249 172.137 100.858 172.308 100.445 172.332C100.033 172.356 99.625 172.231 99.2963 171.98L97.8363 170.85L96.8363 170.09L95.9163 170.93L94.3463 172.35C94.0389 172.625 93.6432 172.782 93.2306 172.791C92.818 172.8 92.4157 172.661 92.0963 172.4L90.6063 171.11L89.6063 170.31L88.6063 171.12L87.1063 172.4C86.7938 172.67 86.3945 172.819 85.9813 172.819C85.5682 172.819 85.1688 172.67 84.8563 172.4L83.2763 171L82.3463 170.17L81.3463 170.95L79.9063 172.09C79.5811 172.345 79.1755 172.475 78.7628 172.456C78.3501 172.438 77.9576 172.273 77.6563 171.99L76.0263 170.44L75.1263 169.58L74.1263 170.32L72.7563 171.32C72.4246 171.565 72.0159 171.682 71.6047 171.651C71.1936 171.62 70.8073 171.442 70.5163 171.15L68.8363 169.45L67.9663 168.56L66.9663 169.27L65.6763 170.15C65.3362 170.382 64.9242 170.485 64.515 170.439C64.1057 170.393 63.7266 170.202 63.4464 169.9C62.8764 169.28 62.2963 168.67 61.7263 168.04L60.8864 167.13L59.8864 167.79L58.6763 168.56C58.329 168.777 57.9156 168.863 57.5104 168.803C57.1053 168.742 56.735 168.539 56.4663 168.23C55.8763 167.56 55.2963 166.89 54.7163 166.23L53.9163 165.3L51.7363 166.57C51.3803 166.778 50.9621 166.852 50.5563 166.78C50.1619 166.7 49.808 166.484 49.5563 166.17C48.9563 165.45 48.3663 164.72 47.7763 163.98L47.0063 163.03L44.9063 164.15C44.5446 164.342 44.1262 164.399 43.7263 164.31V164.31C43.3276 164.222 42.9731 163.995 42.7263 163.67L40.9063 161.27L40.1763 160.27L38.3163 161.17C38.0723 161.291 37.8036 161.354 37.5313 161.354C37.259 161.354 36.9904 161.291 36.7463 161.17L36.4063 160.99C36.1775 160.861 35.9796 160.683 35.8263 160.47C35.2763 159.71 34.7364 158.95 34.1964 158.18L33.5063 157.18L32.9963 157.39C31.4163 233.15 24.7963 308.75 18.4663 384.39L163.606 384.38Z" fill="#FBB03B"/>
<path d="M29.2964 238.48C29.9564 237.67 30.1764 236.76 30.8164 236.09C30.9548 235.998 31.0852 235.894 31.2064 235.78C36.5664 230.46 41.6364 227.02 47.2064 224.96C48.8264 224.36 50.5264 223.88 52.2064 223.42C54.678 222.807 57.0907 221.977 59.4164 220.94C62.8064 219.31 65.0264 217.16 66.0064 214.53C66.3667 213.38 66.5058 212.172 66.4164 210.97C66.353 209.985 66.4441 208.997 66.6864 208.04C67.1764 206.49 68.6864 205.56 70.1164 204.66C70.8117 204.244 71.4767 203.78 72.1064 203.27C73.4864 202.06 76.5264 198.89 74.8464 195.62C73.1664 192.35 68.0164 191.67 64.5564 191.13L63.5564 190.97C58.2245 190.032 52.7476 190.343 47.5564 191.88C43.8664 192.98 40.9364 193.75 36.9764 193.53C35.4981 193.383 34.0075 193.413 32.5364 193.62C32.5364 193.53 32.5364 193.45 32.5364 193.36C32.2928 193.466 32.0557 193.586 31.8264 193.72C31.5964 193.87 31.2364 194.15 30.8264 194.49C30.2197 209.39 29.4631 224.29 28.5564 239.19C28.827 238.98 29.075 238.742 29.2964 238.48V238.48Z" fill="#8C6338"/>
<path d="M20.3766 373.72V373.27C20.5172 373.137 20.6295 372.977 20.7065 372.8C21.5265 370.92 24.3266 369.94 26.8066 369.07C27.7744 368.753 28.7227 368.379 29.6465 367.95L30.0165 367.77C32.2665 366.66 35.0166 365.27 35.8866 362.54C36.6466 360.02 35.4266 358.15 34.1366 356.66C33.8493 356.359 33.5382 356.081 33.2065 355.83C32.6882 355.487 32.2568 355.028 31.9466 354.49C31.7287 353.63 31.7119 352.732 31.8975 351.865C32.083 350.998 32.466 350.185 33.0165 349.49C33.6783 348.645 34.3896 347.841 35.1465 347.08C36.0631 346.165 36.9089 345.183 37.6766 344.14L38.3566 343.14C40.1666 340.51 41.6066 338.42 44.4666 336.73C47.82 334.944 51.4188 333.664 55.1465 332.93L58.3365 332.2C63.8165 330.98 69.4766 329.71 74.1166 326.4C77.4366 324.03 79.5865 320.92 80.0165 317.85C80.1762 316.681 80.0868 315.491 79.7542 314.359C79.4215 313.226 78.8532 312.177 78.0865 311.28C76.1058 308.961 73.4651 307.3 70.5165 306.52C68.1925 305.865 65.8175 305.407 63.4166 305.15C62.5379 305.081 61.6552 305.081 60.7766 305.15C59.3166 305.23 57.6466 305.32 56.7766 304.85C54.6166 303.65 54.9666 302.62 55.4966 301.05C56.0222 299.906 56.1215 298.611 55.7766 297.4C54.8766 294.9 52.2366 294.16 49.7766 293.76C49.0866 293.66 48.2466 293.56 47.3166 293.46C43.6766 293.05 38.1766 292.46 37.2366 290.03C36.7866 288.88 37.4166 287.31 39.0966 285.38C39.8905 284.53 40.7284 283.722 41.6066 282.96C44.9166 279.96 49.0266 276.23 47.6066 272.19C45.8666 267.07 38.6065 267.52 32.7665 267.88C30.9271 268.048 29.0761 268.048 27.2366 267.88C27.1304 267.865 27.0227 267.865 26.9166 267.88C26.9166 267.8 26.9166 267.73 26.9166 267.65H26.6866C24.2766 302.59 21.3666 337.35 18.4866 371.65C18.3966 372.65 18.3066 373.77 18.2266 374.83H18.2766C19.0435 374.604 19.7576 374.226 20.3766 373.72V373.72Z" fill="#8C6338"/>
<path d="M155.396 258.74V258.91C152.856 262.84 148.606 264.43 141.646 264.04L137.886 263.81C133.516 263.53 129.016 263.25 124.506 263.41C116.826 263.69 107.816 264.32 99.2764 266.89L98.3565 267.17C94.5165 268.29 88.0964 270.17 86.9064 274.33C86.7225 274.914 86.6701 275.532 86.7531 276.139C86.8361 276.746 87.0524 277.327 87.3865 277.84C89.1865 280.64 94.2965 281.93 98.2565 282.53L100.256 282.81C101.926 283.03 103.656 283.27 105.326 283.66C108.846 284.5 110.596 285.82 112.256 288.89C113.916 291.96 116.256 293.56 120.076 294.17C123.303 294.562 126.562 294.598 129.796 294.28C130.926 294.21 132.056 294.14 133.166 294.1C141.086 293.83 146.776 295.9 151.116 300.62C153.906 303.62 156.546 307.2 155.006 310.45C154.076 312.45 151.786 313.34 149.516 314.12C147.926 314.66 146.266 315.12 144.666 315.51C141.917 316.114 139.236 316.999 136.666 318.15C135.027 318.898 133.577 320.005 132.424 321.39C131.271 322.775 130.445 324.402 130.006 326.15C129.722 327.631 129.785 329.158 130.191 330.61C130.597 332.063 131.335 333.401 132.346 334.52C134.596 337.17 137.856 339.17 142.346 340.63L143.246 340.92C146.026 341.8 149.836 343 150.076 346.21C150.186 347.73 149.436 348.47 148.566 349.33C147.906 349.903 147.369 350.604 146.986 351.39C145.426 354.96 149.086 357.61 150.846 358.89C151.206 359.143 151.576 359.383 151.956 359.61C152.42 359.884 152.867 360.185 153.296 360.51C155.086 361.96 155.906 363.92 156.776 366L157.096 366.77C157.687 368.056 158.355 369.305 159.096 370.51C160.134 372.135 160.983 373.873 161.626 375.69C161.626 375.82 161.626 375.96 161.626 376.09L161.876 376.36C162.53 376.973 163.271 377.486 164.076 377.88L156.606 257.71C156.472 257.803 156.344 257.906 156.226 258.02L155.396 258.74Z" fill="#8C6338"/>
<path d="M150.136 192.37C149.654 192.837 149.206 193.338 148.796 193.87C146.986 196.27 144.451 198.023 141.566 198.87C137.192 200.358 133.094 202.558 129.436 205.38C128.809 205.81 128.311 206.403 127.997 207.096C127.683 207.789 127.565 208.555 127.656 209.31C128.006 212.11 131.136 215.06 133.956 216.31C134.31 216.455 134.675 216.572 135.046 216.66C136.246 217.01 138.266 217.58 138.626 218.58C138.686 218.82 138.686 219.072 138.626 219.312C138.567 219.552 138.45 219.775 138.286 219.96C137.935 220.287 137.504 220.514 137.036 220.62C136.52 220.737 136.034 220.958 135.606 221.27C134.606 222.27 133.786 223.82 135.606 225.94C137.096 227.62 139.136 227.83 141.096 228.03C142.523 228.055 143.924 228.415 145.186 229.08C146.29 229.857 147.231 230.842 147.956 231.98C148.365 232.558 148.802 233.116 149.266 233.65C149.844 234.285 150.459 234.886 151.106 235.45C152.486 236.7 153.786 237.87 154.326 239.75C154.384 239.948 154.487 240.129 154.626 240.28C154.626 240.45 154.626 240.63 154.676 240.8C154.915 241.083 155.203 241.32 155.526 241.5L152.376 191.38C151.646 191.65 150.896 191.91 150.136 192.15C150.166 192.27 150.126 192.27 150.136 192.37Z" fill="#8C6338"/>
<path d="M116.706 66.99C110.706 66.99 102.966 63.46 99.8565 59.29C99.2819 58.6451 98.8711 57.8713 98.6588 57.0341C98.4464 56.1969 98.4388 55.3208 98.6365 54.48C101.516 44.78 108.156 34.35 115.946 34.35C116.527 34.3526 117.106 34.4095 117.676 34.52C120.586 35.08 122.836 37.05 124.336 40.38C127.626 47.66 126.336 58.79 123.166 64.22C121.826 66.51 118.916 66.99 116.706 66.99Z" fill="#FFC9C9"/>
<path d="M115.947 35.33C116.467 35.3309 116.986 35.3811 117.497 35.48C120.077 35.97 122.087 37.76 123.497 40.78C126.577 47.59 125.447 58.51 122.377 63.78C121.267 65.67 118.707 66.06 116.757 66.06C111.007 66.06 103.647 62.72 100.687 58.76C100.201 58.2281 99.8503 57.5865 99.6658 56.8901C99.4812 56.1936 99.4678 55.4628 99.6265 54.76C101.015 49.9509 103.253 45.4295 106.237 41.41C108.397 38.64 111.847 35.34 115.997 35.34L115.947 35.33ZM115.997 33.39C107.357 33.39 100.587 44.65 97.7565 54.21C95.7565 60.94 108.047 67.97 116.757 67.97C119.977 67.97 122.707 66.97 124.057 64.72C129.057 56.25 129.107 35.72 117.907 33.57C117.277 33.4516 116.637 33.3913 115.997 33.39V33.39Z" fill="#8C6338"/>
<path d="M58.4763 67.03C56.2763 67.03 53.3663 66.55 52.0263 64.26C48.8263 58.83 47.5663 47.7 50.8563 40.42C52.3563 37.09 54.5963 35.12 57.5163 34.56C58.0863 34.449 58.6656 34.3921 59.2464 34.39C67.0364 34.39 73.6763 44.82 76.5463 54.52C76.7462 55.36 76.7406 56.2358 76.5299 57.0731C76.3193 57.9104 75.9098 58.6846 75.3363 59.33C72.2163 63.5 64.4963 67.03 58.4763 67.03Z" fill="#FFC9C9"/>
<path d="M59.2464 33.42V35.3701C63.3964 35.3701 66.8464 38.67 69.0064 41.44C71.9859 45.4602 74.2212 49.9816 75.6064 54.7901C75.7651 55.4929 75.7517 56.2236 75.5671 56.9201C75.3825 57.6166 75.0323 58.2581 74.5464 58.7901C71.5464 62.7901 64.2263 66.0901 58.4663 66.0901C56.4663 66.0901 53.9664 65.7 52.8564 63.81C49.7864 58.59 48.6564 47.67 51.7264 40.86C53.0964 37.86 55.0964 36.05 57.7264 35.56C58.2371 35.4611 58.7561 35.4109 59.2763 35.41V33.4601L59.2464 33.42ZM59.2763 33.4601C58.6316 33.4598 57.9885 33.5235 57.3564 33.6501C46.1664 35.8001 46.2363 56.3201 51.2163 64.7901C52.5563 67.0801 55.2864 68.0401 58.5064 68.0401C67.2264 68.0401 79.5064 61.04 77.5064 54.28C74.6764 44.72 67.9063 33.4601 59.2763 33.4601V33.4601Z" fill="#8C6338"/>
<path d="M33.2365 106.57C32.167 106.602 31.1155 106.29 30.2365 105.68C25.0965 102.02 19.4065 92.37 19.4465 84.39C19.4465 80.74 20.7065 78.02 23.1365 76.32C24.7418 75.2081 26.6538 74.6244 28.6065 74.65C35.7365 74.65 43.8565 81.19 48.6565 86.78C50.5665 89.02 49.4565 92.41 48.6565 94.22C45.7465 100.57 38.2465 106.57 33.2365 106.57Z" fill="#FFC9C9"/>
<path d="M28.6564 75.63C32.9064 75.63 40.5164 78.72 47.9664 87.42C49.5264 89.24 48.5264 92.21 47.7864 93.82C44.9964 99.87 37.9264 105.59 33.2364 105.59C32.3856 105.617 31.5483 105.372 30.8464 104.89C25.9164 101.37 20.4264 91.89 20.4664 84.39C20.4664 81.08 21.5864 78.63 23.7464 77.12C25.1864 76.1209 26.904 75.5997 28.6564 75.63ZM28.6564 73.63C26.5139 73.6056 24.4169 74.2487 22.6564 75.47C13.3164 82.01 21.7464 100.71 29.7464 106.42C30.7757 107.143 32.009 107.518 33.2664 107.49C41.9864 107.49 54.9164 92.49 49.4664 86.1C44.0164 79.71 35.8464 73.63 28.6864 73.63H28.6564Z" fill="#8C6338"/>
<path d="M146.956 106.57C141.956 106.57 134.446 100.57 131.526 94.22C130.686 92.41 129.576 89.02 131.526 86.78C136.316 81.19 144.436 74.65 151.526 74.65C153.479 74.6244 155.391 75.2081 156.997 76.32C159.437 78.02 160.677 80.74 160.687 84.39C160.687 92.39 155.036 102.02 149.896 105.68C149.034 106.284 148 106.596 146.947 106.57H146.956Z" fill="#FFC9C9"/>
<path d="M151.537 75.63C153.289 75.5997 155.007 76.1209 156.447 77.12C158.607 78.63 159.717 81.12 159.727 84.39C159.727 91.86 154.277 101.39 149.347 104.89C148.645 105.372 147.807 105.617 146.956 105.59C142.266 105.59 135.197 99.87 132.407 93.82C131.667 92.21 130.667 89.24 132.227 87.42C139.677 78.72 147.287 75.63 151.537 75.63V75.63ZM151.537 73.63C144.377 73.63 136.107 79.85 130.757 86.1C125.407 92.35 138.236 107.49 146.956 107.49C148.214 107.518 149.447 107.143 150.477 106.42C158.477 100.71 166.907 82.01 157.567 75.47C155.806 74.2487 153.709 73.6056 151.567 73.63H151.537Z" fill="#8C6338"/>
<path d="M117.147 138.04C113.957 138.04 110.617 136.43 106.747 134.57C101.967 132.26 96.5465 129.65 90.0965 129.65C83.6465 129.65 78.2266 132.26 73.4466 134.57C69.5766 136.43 66.2365 138.04 63.0465 138.04C59.8565 138.04 57.1765 136.4 54.4565 132.88C51.9965 129.68 54.2165 115.88 60.8965 102.12C64.6165 94.46 74.8965 76.63 90.1065 76.48H90.2765C104.957 76.48 115.277 94.18 118.997 101.8C125.837 115.71 128.197 129.68 125.737 132.88C123.017 136.4 120.297 138.04 117.147 138.04Z" fill="#FFC9C9"/>
<path d="M90.2864 77.46C104.416 77.46 114.456 94.78 118.116 102.22C125.116 116.51 126.896 129.78 124.956 132.29C121.656 136.57 118.956 137.07 117.146 137.07C114.146 137.07 110.926 135.5 107.146 133.69C102.266 131.34 96.7364 128.69 90.0664 128.69C83.3964 128.69 77.8664 131.36 72.9964 133.69C69.2364 135.5 65.9964 137.07 62.9964 137.07C61.2264 137.07 58.4864 136.57 55.1864 132.29C53.2464 129.78 54.8664 116.64 61.7164 102.54C65.3564 95.05 75.4164 77.6 90.0664 77.46H90.2364H90.2864ZM90.2364 75.51H90.0564C63.9464 75.76 47.9364 126.06 53.6464 133.51C56.8064 137.6 59.8564 139.05 63.0064 139.05C70.5964 139.05 78.7264 130.65 90.0064 130.65C101.286 130.65 109.466 139.05 117.006 139.05C120.156 139.05 123.206 137.6 126.366 133.51C132.066 126.11 115.506 75.51 90.1364 75.51H90.2364Z" fill="#8C6338"/>
<path d="M24.8064 120.15C27.1354 121.651 29.0477 123.715 30.3658 126.152C31.6839 128.589 32.3652 131.319 32.3463 134.09C31.8363 213.42 25.0763 293.9 18.5463 371.73C18.193 375.93 17.8397 380.147 17.4863 384.38H19.4863C19.833 380.213 20.1663 376.05 20.4863 371.89C27.0263 294.02 33.7863 213.5 34.2963 134.1C34.3166 131.003 33.5546 127.952 32.0809 125.228C30.6072 122.504 28.4696 120.197 25.8664 118.52C20.5064 115.03 18.5063 113.52 17.7863 112.79C9.48633 104.93 4.27635 89.79 5.92635 78.37C7.08635 70.37 11.3764 64.08 18.0064 60.7C23.276 58.0635 29.3449 57.5066 35.0064 59.14C35.1656 59.1763 35.3313 59.173 35.489 59.1304C35.6467 59.0879 35.7916 59.0073 35.911 58.8958C36.0303 58.7843 36.1206 58.6453 36.1738 58.4909C36.2271 58.3365 36.2416 58.1714 36.2163 58.01C34.4763 49.14 35.2963 39.72 38.4063 32.84C41.7463 25.45 47.6063 20.61 54.9063 19.21C56.3272 18.9399 57.77 18.8026 59.2163 18.8C74.8763 18.8 83.6363 34.26 86.6663 40.91C86.7467 41.0787 86.8726 41.2214 87.0299 41.3222C87.1872 41.4229 87.3696 41.4776 87.5564 41.48C87.7414 41.4758 87.9217 41.4202 88.077 41.3196C88.2324 41.2189 88.3568 41.0772 88.4364 40.91C91.4364 34.25 100.226 18.76 115.916 18.76C117.36 18.7571 118.8 18.8944 120.216 19.17C127.526 20.57 133.386 25.41 136.716 32.8C140.046 40.19 140.766 50.8 138.436 60.11C138.393 60.2909 138.401 60.4803 138.459 60.657C138.517 60.8336 138.624 60.9905 138.766 61.11C138.908 61.2151 139.076 61.2806 139.251 61.2999C139.427 61.3192 139.605 61.2917 139.766 61.22C147.496 57.43 155.626 57.32 162.446 60.92C169.016 64.4 173.216 70.74 174.256 78.77C175.736 90.23 170.256 105.27 161.896 113.01C159.661 114.852 157.324 116.568 154.896 118.15C152.246 119.962 150.109 122.43 148.695 125.312C147.281 128.195 146.637 131.395 146.826 134.6L162.606 384.38H164.556L148.836 134.48C148.662 131.612 149.234 128.748 150.498 126.168C151.762 123.588 153.673 121.38 156.046 119.76C158.566 118.127 160.99 116.351 163.306 114.44V114.44C172.136 106.32 177.826 90.54 176.306 78.52C175.176 69.84 170.626 62.98 163.476 59.2C156.646 55.6 148.566 55.41 140.836 58.65C142.726 49.4 141.896 39.35 138.576 31.99C134.966 23.99 128.576 18.79 120.666 17.26C119.128 16.9613 117.564 16.8106 115.996 16.81C100.526 16.81 91.4664 30.59 87.6364 38.25C83.7964 30.61 74.7363 16.85 59.2963 16.85C57.7231 16.8389 56.1525 16.9796 54.6063 17.27C46.6663 18.8 40.3064 24.03 36.6964 32C33.5964 38.86 32.6963 48.05 34.0963 56.87C28.3622 55.5457 22.3451 56.2784 17.0963 58.94C9.89633 62.61 5.23635 69.4 3.98635 78.06C2.24635 90.06 7.71635 105.92 16.4263 114.17C19.0729 116.361 21.8735 118.36 24.8064 120.15V120.15Z" fill="#8C6338"/>
</svg>
